<svg xmlns="http://www.w3.org/2000/svg" width="54" height="46" fill="none" viewBox="0 0 54 46"><path fill="#F7FDFB" fill-rule="evenodd" d="M.749 27.508v16.117c0 1.035.882 1.875 1.969 1.875h4.237c.466 0 .917-.157 1.273-.444s.593-.685.669-1.123L9.937 38h34.125l1.036 5.932c.077.438.314.837.67 1.124.355.287.807.444 1.273.444h4.24a2.02 2.02 0 0 0 1.391-.55 1.83 1.83 0 0 0 .577-1.325V27.508c0-2.94-.913-5.813-2.625-8.258l-2.047-2.925a5 5 0 0 1-.468-.825h2.61c.365 0 .724-.097 1.035-.28s.563-.446.726-.758l.656-1.25a1.8 1.8 0 0 0-.086-1.822 1.93 1.93 0 0 0-.715-.652 2.05 2.05 0 0 0-.958-.238H46.95l-.814-3.865a6.16 6.16 0 0 0-1.723-3.123 6.65 6.65 0 0 0-3.225-1.737Q35.43.5 27 .5q-8.433 0-14.188 1.275a6.65 6.65 0 0 0-3.226 1.736A6.16 6.16 0 0 0 7.86 6.635L7.046 10.5H2.623c-.335 0-.665.082-.957.238-.293.156-.539.38-.715.652a1.8 1.8 0 0 0-.086 1.823l.656 1.25c.163.31.414.573.725.756.31.183.668.28 1.034.281h2.61a5 5 0 0 1-.467.825l-2.05 2.925a14.4 14.4 0 0 0-2.625 8.258M42.647 15.51c.18.865.48 1.703.892 2.493H10.46a9.6 9.6 0 0 0 .892-2.493l1.66-7.892c.048-.236.168-.454.343-.627s.4-.294.646-.348C17.408 5.893 21.75 5.5 27 5.5s9.592.39 12.999 1.145c.246.054.47.174.647.347.176.172.296.39.345.625zM9.937 30.5a4.04 4.04 0 0 0 2.784-1.098 3.66 3.66 0 0 0 1.153-2.652c0-.995-.415-1.948-1.153-2.652A4.04 4.04 0 0 0 9.937 23a4.04 4.04 0 0 0-2.785 1.098A3.66 3.66 0 0 0 6 26.75c0 .995.415 1.948 1.153 2.652A4.04 4.04 0 0 0 9.937 30.5m38.062-3.75c0 .995-.415 1.948-1.153 2.652a4.04 4.04 0 0 1-2.784 1.098 4.04 4.04 0 0 1-2.785-1.098 3.66 3.66 0 0 1-1.153-2.652c0-.995.415-1.948 1.153-2.652A4.04 4.04 0 0 1 44.062 23a4.04 4.04 0 0 1 2.784 1.098 3.66 3.66 0 0 1 1.153 2.652" clip-rule="evenodd"/></svg>