<svg xmlns="http://www.w3.org/2000/svg" width="56" height="56" fill="none" viewBox="0 0 56 56"><g fill="#F7FDFB" clip-path="url(#a)"><path d="M34.613 22.24h3.406c.771 0 1.4-.52 1.4-1.16l.01-.093 3.7-17.702c-.026-.62-.643-1.118-1.398-1.118h-6.76c2.429 2.394 3.978 5.968 3.978 9.96 0 3.879-1.472 7.265-4.336 10.113m-17.013 0h3.327c-2.862-2.842-4.334-6.209-4.334-10.055 0-4.017 1.554-7.614 3.992-10.018h-6.697c-.755 0-1.371.497-1.399 1.118l3.712 17.796c0 .64.628 1.16 1.4 1.16m16.344 17.061a18.9 18.9 0 0 1-6.173 1.035 18.9 18.9 0 0 1-6.61-1.18l-2.29 15.75c.004.573.618 1.093 1.372 1.093h14.6c.754 0 1.368-.52 1.368-1.16z"/><path d="M10.664 26.803h1.244c.465 4.815 3.795 8.934 8.523 11.065.155.07.318.13.475.196q.194.083.39.16a18 18 0 0 0 6.474 1.201c2.137 0 4.176-.37 6.04-1.032.134-.047.262-.102.393-.152.16-.061.317-.13.474-.195 4.952-2.07 8.477-6.283 8.955-11.243h1.704a1.368 1.368 0 1 0 0-2.738H10.663a1.368 1.368 0 1 0 0 2.738m11.586-4.563c.347.31.697.617 1.082.913h8.882c.384-.295.735-.603 1.081-.913 3.138-2.805 4.742-6.197 4.742-10.112 0-4.124-1.754-7.768-4.424-9.961a10 10 0 0 0-1.322-.912C30.924.459 29.395 0 27.772 0c-1.619 0-3.145.459-4.508 1.255-.46.268-.903.568-1.32.912-2.678 2.202-4.437 5.869-4.437 10.017 0 3.882 1.604 7.255 4.742 10.056"/></g><defs><clipPath id="a"><path fill="#fff" d="M0 0h56v56H0z"/></clipPath></defs></svg>