<svg xmlns="http://www.w3.org/2000/svg" width="56" height="56" fill="none" viewBox="0 0 56 56"><g clip-path="url(#a)"><path fill="#F7FDFB" d="m37.51 20.955 15.054-14.96-.05 8.48c-.015.707.546 1.322 1.254 1.306h.897c.708-.017 1.294-.438 1.308-1.145l.037-12.633c0-.013-.048-.022-.048-.034l.07-.64c.006-.356-.077-.673-.306-.9a1.2 1.2 0 0 0-.897-.357l-.64.015-.035.006-12.55-.055a1.35 1.35 0 0 0-1.308 1.308l-.002.898c.108.833.763 1.32 1.47 1.305l8.272.022-15 14.909a1.75 1.75 0 0 0 2.474 2.475m-18.966 14.09L3.49 49.958l.048-8.434c.017-.708-.545-1.323-1.252-1.308l-.953.002c-.709.018-1.293.438-1.308 1.146l-.037 12.633c0 .012.048.02.048.034l-.069.639c-.008.355.076.673.306.898.225.23.544.368.896.36l.64-.017c.012 0 .021-.005.035-.005l12.605.055a1.353 1.353 0 0 0 1.309-1.309l.001-.898c-.107-.833-.763-1.322-1.47-1.306l-8.271-.022 15-14.907a1.75 1.75 0 0 0-2.474-2.476M56.01 53.996l-.037-12.633c-.015-.708-.6-1.128-1.308-1.146l-.897-.002c-.708-.015-1.268.6-1.253 1.308l.049 8.48-15.055-14.96a1.75 1.75 0 1 0-2.474 2.475l14.999 14.907-8.27.022c-.708-.016-1.363.474-1.47 1.306l.001.898a1.35 1.35 0 0 0 1.308 1.31l12.551-.056c.013 0 .023.005.035.005l.64.016c.352.009.671-.13.897-.359.23-.225.311-.543.305-.898l-.069-.64c0-.013.048-.02.048-.033M6.018 3.572l8.272-.021c.707.015 1.363-.473 1.47-1.306l-.002-.899A1.35 1.35 0 0 0 14.45.038L1.844.093Q1.824.087 1.81.086L1.17.072a1.2 1.2 0 0 0-.897.357c-.23.227-.314.544-.306.899l.07.64c0 .013-.049.022-.049.035l.037 12.633c.016.707.6 1.128 1.308 1.144l.953.001c.707.016 1.268-.6 1.252-1.306L3.49 6.04l15.054 14.914a1.75 1.75 0 1 0 2.474-2.475z"/></g><defs><clipPath id="a"><path fill="#fff" d="M0 0h56v56H0z"/></clipPath></defs></svg>