<svg xmlns="http://www.w3.org/2000/svg" width="24" height="24" fill="none" viewBox="0 0 24 24"><path fill="#2C3B2E" d="M12 2.169h4.916c1.156 0 1.735.289 2.168.433.579.29 1.012.434 1.446.868s.723.867.868 1.446c.144.433.289 1.012.433 2.168v9.832c0 1.156-.289 1.735-.433 2.168-.29.579-.434 1.012-.868 1.446s-.867.723-1.446.868c-.433.144-1.012.289-2.168.433H7.084c-1.156 0-1.735-.289-2.168-.433-.579-.29-1.012-.434-1.446-.868s-.723-.867-.868-1.446c-.144-.433-.289-1.012-.433-2.168V7.084c0-1.156.289-1.735.433-2.168.29-.579.434-1.012.868-1.446s.867-.723 1.446-.868c.433-.144 1.012-.289 2.168-.433zM12 0H7.084c-1.3 0-2.168.29-2.891.578a6.3 6.3 0 0 0-2.169 1.446c-.723.723-1.012 1.301-1.446 2.169C.29 4.916.145 5.783 0 7.084v9.832c0 1.3.29 2.168.578 2.891.29.723.723 1.446 1.446 2.169s1.301 1.012 2.169 1.446c.723.289 1.59.433 2.891.578h9.832c1.3 0 2.168-.29 2.891-.578a6.3 6.3 0 0 0 2.169-1.446c.723-.723 1.012-1.301 1.446-2.169.289-.723.433-1.59.578-2.891V7.084c0-1.3-.29-2.168-.578-2.891a6.3 6.3 0 0 0-1.446-2.169c-.723-.723-1.301-1.012-2.169-1.446C19.084.29 18.217.145 16.916 0z"/><path fill="#2C3B2E" d="M12 5.783A6.17 6.17 0 0 0 5.783 12 6.17 6.17 0 0 0 12 18.217 6.17 6.17 0 0 0 18.217 12 6.17 6.17 0 0 0 12 5.783m0 10.265c-2.169 0-4.048-1.735-4.048-4.048 0-2.169 1.735-4.048 4.048-4.048 2.169 0 4.048 1.735 4.048 4.048 0 2.169-1.88 4.048-4.048 4.048m6.361-8.964a1.446 1.446 0 1 0 0-2.891 1.446 1.446 0 0 0 0 2.891"/></svg>