<svg xmlns="http://www.w3.org/2000/svg" width="108" height="106" fill="none" viewBox="0 0 108 106"><path fill="#F7FDFB" d="M1.043 76.9c-.049-.255-.596-.543-.596-.543h1.175l3.14-.032a3.24 3.24 0 0 1 3.235 3.234 3.19 3.19 0 0 1-1.578 2.754c1.707.16 3.043 1.585 3.043 3.314 0 1.841-1.497 3.314-3.348 3.314H.463s.53-.288.563-.56c.08-.849.193-2.69.193-5.716 0-3.01-.032-4.948-.177-5.764m7.083 8.727c0-1.425-1.127-2.722-2.56-2.786a46 46 0 0 0-1.626-.032c-.418 0-.837.016-1.207.016 0 2.818.113 4.595.193 5.46.853.064 1.867.144 2.576.144 1.432 0 2.624-1.377 2.624-2.802M4.261 76.87h-.338c-.322 0-.66.016-.982.032-.064.865-.193 2.77-.209 5.364h1.449c1.384 0 2.527-1.33 2.527-2.706 0-1.377-1.078-2.626-2.447-2.69m10.97 5.89-2.044.017v.64c0 2.658.096 4.34.209 5.028.032.304.547.496.547.496h-3.026s.515-.272.563-.544c.065-.833.193-2.706.193-5.748 0-3.01-.112-4.963-.225-5.908-.032-.208-.531-.384-.531-.384h1.175l3.123-.032a3.24 3.24 0 0 1 3.236 3.234 3.21 3.21 0 0 1-3.22 3.202m-.515-5.891h-.37c-.306 0-.644 0-.95.016a79 79 0 0 0-.21 5.364h1.45c1.384 0 2.527-1.33 2.527-2.69 0-1.377-1.079-2.626-2.447-2.69m5.757 11.495c.064-.785.177-2.594.177-5.748 0-2.802-.13-4.82-.21-5.732-.032-.288-.547-.528-.547-.528h6.085c1.658 0 2.85-.209 2.85-.209s-.194.785-.29 1.425c-.097.817-.113 2.226-.113 2.226s-.66-2.914-2.56-2.914h-3.493c-.08.896-.193 2.85-.21 5.492l2.432-.016c1.368-.032 1.674-.865 1.674-.865v2.306s-.354-.833-1.658-.881h-2.447c.016 2.962.145 4.755.21 5.524h3.508c1.884-.016 2.544-2.962 2.544-2.962s.016 1.425.113 2.225c.096.64.29 1.441.29 1.441s-1.192-.208-2.85-.208h-6.085s.515-.288.58-.576m17.474-5.732c.129.576.258 1.185.37 1.665.161-.496.322-1.04.483-1.601.853-2.898 1.481-4.82 1.481-5.652 0-.336-.418-.64-.547-.688h3.75s-.66.176-.66.736c0 .032.017.064.017.112.145.945.434 2.722 1.062 5.444a81 81 0 0 0 1.417 5.411c.193.64.74.881.74.881h-3.38s.756-.352.756-.865c0-1.072-.483-2.978-1.046-5.427-.628-2.722-1.143-4.547-1.433-5.492L37.625 88.91h-.016s-.29-2.402-1.175-6.276c-.612-2.706-1.127-4.515-1.417-5.46l-3.057 10.79c-.016.064-.016.112-.016.16 0 .545.772.817.772.817h-2.608s.854-.48 1.063-1.04a97 97 0 0 0 1.787-5.476c.773-2.642 1.24-4.435 1.416-5.316 0-.032.017-.048.017-.08 0-.384-.612-.672-.612-.672h3.734s-.644.16-.644.72c0 .032.017.064.017.112.145.945.434 2.722 1.062 5.444m13.236-3.074c0 1.377 1.143 2.706 2.527 2.706h1.996v-1.201c0-1.585-.016-3.01-.112-3.747a.8.8 0 0 0-.161-.384 17 17 0 0 0-1.304-.064c-.177 0-.338 0-.5.016-1.368.064-2.446 1.297-2.446 2.674m6.198 8.421c.064.657.772.961.772.961h-3.396s.74-.512.788-1.057a75 75 0 0 0 .161-5.091l-1.094-.016-4.282 5.315a.4.4 0 0 0-.08.24c0 .385.708.609.708.609l-3.767-.016s1.062-.384 1.803-1.409l.032-.032 3.815-4.74a3.19 3.19 0 0 1-2.946-3.185 3.227 3.227 0 0 1 3.236-3.218l3.155.016h1.915s-.74.288-.804.928c-.08 1.025-.178 2.898-.178 5.364 0 2.61.081 4.355.162 5.331m16.35.064c.193.64.74.913.74.913h-3.396s.789-.4.789-.913c0-1.072-.483-2.962-1.047-5.411a84 84 0 0 0-1.416-5.412l-3.059 10.807c-.016.048-.016.112-.016.16 0 .529.773.769.773.769h-2.624s.917-.496 1.094-1.009a88 88 0 0 0 1.755-5.363c.837-2.882 1.449-4.835 1.449-5.572 0-.4-.628-.656-.628-.656h3.75s-.66.16-.66.72c0 .032.017.064.017.112.145.945.45 2.722 1.078 5.444a84 84 0 0 0 1.4 5.411m2.769.321c.064-.785.177-2.594.177-5.748 0-2.802-.129-4.82-.21-5.732-.032-.288-.547-.528-.547-.528h6.085c1.658 0 2.85-.209 2.85-.209s-.194.785-.29 1.425c-.097.817-.113 2.226-.113 2.226s-.66-2.914-2.56-2.914H78.4c-.08.896-.193 2.85-.21 5.492l2.432-.016c1.368-.032 1.674-.865 1.674-.865v2.306s-.354-.833-1.658-.881H78.19c.016 2.962.145 4.755.21 5.524h3.508c1.884-.016 2.544-2.962 2.544-2.962s.016 1.425.113 2.225c.096.64.29 1.441.29 1.441s-1.192-.208-2.85-.208H75.92s.515-.288.58-.576m11.438-7.878a13 13 0 0 0-.113 1.553c0 .529.048 1.041.16 1.585.21.977.725 2.066 1.128 2.69a4.76 4.76 0 0 0 3.992 2.146c.338 0 .692-.032 1.046-.112a4.77 4.77 0 0 0 3.252-2.498l-.354 2.081c-.08-.032-.242.016-.37.112a6.6 6.6 0 0 1-2.383 1.025c-.483.096-.966.16-1.433.16-3.09 0-5.875-2.145-6.567-5.267a7.3 7.3 0 0 1-.161-1.425c0-3.074 2.157-5.844 5.296-6.533.483-.112.982-.16 1.465-.16a6.5 6.5 0 0 1 2.543.513c.064.032.37-.032.419-.16l.579 2.273a4.87 4.87 0 0 0-3.799-1.841c-.338 0-.676.032-1.014.112-1.916.416-3.445 1.921-3.686 3.746m13.215 1.89h2.833a84 84 0 0 0-1.368-5.204zm-3.429 6.564s.837-.4 1.063-.993c1.143-3.058 2.205-6.804 3.187-11.047v-.032c0-.256-.58-.512-.58-.512h3.735s-.644.176-.644.736c0 .032.016.064.016.112.145.945.435 2.722 1.063 5.444a81 81 0 0 0 1.416 5.411c.193.64.725.881.725.881h-3.397s.789-.368.789-.88c0-1.025-.467-2.835-.982-5.156h-3.123l-1.433 5.107c-.016.048-.016.112-.016.16 0 .529.789.769.789.769zm-93.1 8.11c.93 0 1.583-.07 1.583-.07s-.117.435-.161.79c-.063.445-.063 1.237-.063 1.237s-.367-1.654-1.422-1.654h-.939a35 35 0 0 0-.107 2.81v.41c.009 1.45.044 2.713.09 3.006.044.294.428.489.428.489H2.146s.385-.115.43-.489c.053-.498.089-1.343.089-2.571v-.435a56 56 0 0 0-.116-3.22h-.975c-1.01.062-1.35 1.654-1.35 1.654s0-.791-.063-1.236C.116 97.416 0 96.98 0 96.98s.653.071 1.583.071zm2.713 6.698c.036-.436.098-1.441.098-3.193 0-1.557-.071-2.677-.116-3.184-.018-.16-.304-.294-.304-.294h3.38c.922 0 1.584-.116 1.584-.116s-.108.436-.161.792c-.054.454-.063 1.236-.063 1.236s-.367-1.618-1.422-1.618h-1.94a40 40 0 0 0-.117 3.05l1.35-.008c.76-.018.93-.48.93-.48v1.28s-.196-.462-.92-.489h-1.36c.009 1.645.08 2.642.116 3.069h1.95c1.046-.009 1.413-1.646 1.413-1.646s.009.792.063 1.236c.053.356.16.801.16.801s-.661-.116-1.582-.116h-3.38s.285-.16.321-.32m7.839-3.113-1.136.009v.356c0 1.476.054 2.41.116 2.793.018.169.304.275.304.275h-1.68s.285-.151.312-.302c.036-.463.107-1.503.107-3.193 0-1.673-.062-2.758-.125-3.282-.018-.116-.295-.214-.295-.214h.653l1.735-.018a1.8 1.8 0 0 1 1.798 1.797c0 .978-.796 1.779-1.79 1.779m-.286-3.273h-.206c-.17 0-.358 0-.528.008-.035.48-.107 1.548-.116 2.98h.805c.77 0 1.404-.738 1.404-1.494 0-.765-.6-1.459-1.36-1.494m5.275 3.273-1.136.009v.356c0 1.476.054 2.41.116 2.793.018.169.304.275.304.275h-1.681s.286-.151.313-.302c.036-.463.107-1.503.107-3.193 0-1.673-.062-2.758-.125-3.282-.018-.116-.295-.214-.295-.214h.653l1.735-.018a1.8 1.8 0 0 1 1.797 1.797c0 .978-.796 1.779-1.788 1.779m-.286-3.273h-.206c-.17 0-.358 0-.528.008-.035.48-.107 1.548-.116 2.98h.805c.769 0 1.404-.738 1.404-1.494 0-.765-.6-1.459-1.36-1.494m3.306 6.19c.045-.533.09-1.512.09-2.997 0-1.397-.054-2.446-.099-3.007-.027-.373-.411-.471-.411-.471h1.86s-.385.178-.402.471h-.01a41 41 0 0 0-.098 3.007c0 1.263.045 2.161.08 2.731a39 39 0 0 0 1.494-2.802c1.029-2.117 1.53-3.291 1.53-3.398v-.009h1.493s-.358.196-.412.49c-.053.284-.098 1.289-.098 2.445v.543c.018 1.476.09 2.997.09 2.997.026.294.42.516.42.516h-1.87s.394-.142.421-.516c.045-.533.098-1.512.098-2.997 0-1.183-.044-2.117-.08-2.722l-3.023 6.235v.009l-1.502-.009s.402-.142.43-.516m10.864-6.502c.93 0 1.583-.07 1.583-.07s-.117.435-.161.79c-.063.445-.063 1.237-.063 1.237s-.367-1.654-1.422-1.654h-.939c-.036.445-.107 1.45-.107 2.81v.41c.009 1.45.044 2.713.09 3.006.044.294.428.489.428.489H31.57s.385-.115.43-.489c.053-.498.09-1.343.09-2.571v-.435a56 56 0 0 0-.117-3.22h-.975c-1.01.062-1.35 1.654-1.35 1.654s0-.791-.063-1.236c-.045-.356-.16-.792-.16-.792s.652.071 1.582.071zm2.657 2.331a4 4 0 0 0-.072.782c0 .321.036.65.099.961.116.543.41 1.148.625 1.486.448.693 1.333 1.191 2.263 1.191q.268 0 .537-.053c1.1-.24 1.905-1.174 2.057-2.17a4.5 4.5 0 0 0 .053-.756c0-.285-.026-.596-.08-.863-.125-.587-.367-1.183-.698-1.61-.5-.64-1.323-1.094-2.2-1.094a3 3 0 0 0-.536.053c-1.065.231-1.86 1.139-2.048 2.073m-.913 1.93a3.3 3.3 0 0 1-.071-.721c0-1.823 1.422-3.37 2.915-3.69.269-.063.528-.09.796-.09 1.717 0 3.274 1.183 3.65 2.918.062.267.089.533.089.791a3.71 3.71 0 0 1-2.934 3.62 4 4 0 0 1-.92.098c-1.664 0-3.131-1.005-3.525-2.926m10.581-.676-1.136.009v.356c0 1.476.054 2.41.116 2.793.018.169.305.275.305.275h-1.682s.286-.151.313-.302c.036-.463.108-1.503.108-3.193 0-1.673-.063-2.758-.126-3.282-.018-.116-.295-.214-.295-.214h.653l1.735-.018a1.8 1.8 0 0 1 1.798 1.797c0 .978-.796 1.779-1.79 1.779m-.286-3.273h-.206c-.17 0-.358 0-.528.008-.035.48-.107 1.548-.116 2.98h.805c.77 0 1.404-.738 1.404-1.494 0-.765-.6-1.459-1.36-1.494m3.307 6.19c.045-.533.09-1.512.09-2.997 0-1.397-.054-2.446-.099-3.007-.026-.373-.411-.471-.411-.471h1.86s-.384.178-.402.471h-.01a41 41 0 0 0-.098 3.007c0 1.263.045 2.161.08 2.731a39 39 0 0 0 1.494-2.802c1.029-2.117 1.53-3.291 1.53-3.398v-.009h1.493s-.358.196-.411.49c-.054.284-.099 1.289-.099 2.445v.543a99 99 0 0 0 .09 2.997c.027.294.42.516.42.516H53.05s.394-.142.42-.516c.045-.533.099-1.512.099-2.997 0-1.183-.045-2.117-.08-2.722l-3.023 6.235v.009l-1.503-.009s.402-.142.43-.516m8.367-4.696c0 .765.636 1.503 1.405 1.503h1.109v-.667c0-.88-.01-1.672-.063-2.081a.46.46 0 0 0-.09-.214 9 9 0 0 0-.724-.035c-.098 0-.187 0-.277.008-.76.036-1.36.721-1.36 1.486m3.444 4.679c.036.364.43.533.43.533h-1.888s.411-.284.438-.587c.036-.542.09-1.485.09-2.828l-.608-.009-2.38 2.953a.2.2 0 0 0-.044.133c0 .214.394.338.394.338l-2.093-.009s.59-.213 1.002-.782l.017-.018 2.12-2.633a1.77 1.77 0 0 1-1.637-1.77c0-.987.805-1.788 1.798-1.788l1.753.009h1.064s-.411.16-.447.516a40 40 0 0 0-.099 2.98c0 1.45.045 2.419.09 2.962m4.836-4.154a4 4 0 0 0-.072.782c0 .321.036.65.098.961.117.543.412 1.148.626 1.486.448.693 1.333 1.191 2.263 1.191q.269 0 .537-.053c1.1-.24 1.904-1.174 2.056-2.17a4.5 4.5 0 0 0 .054-.756 4.6 4.6 0 0 0-.08-.863c-.126-.587-.367-1.183-.698-1.61-.5-.64-1.323-1.094-2.2-1.094q-.269 0-.537.053c-1.064.231-1.86 1.139-2.047 2.073m-.913 1.93a3.3 3.3 0 0 1-.071-.721c0-1.823 1.422-3.37 2.915-3.69.269-.063.528-.09.796-.09 1.717 0 3.273 1.183 3.649 2.918.063.267.09.533.09.791a3.71 3.71 0 0 1-2.934 3.62 4 4 0 0 1-.921.098c-1.664 0-3.13-1.005-3.524-2.926m12.089-4.261c.93 0 1.583-.07 1.583-.07s-.116.435-.16.79c-.063.445-.063 1.237-.063 1.237s-.367-1.654-1.422-1.654h-.94c-.035.445-.107 1.45-.107 2.81v.41c.01 1.45.045 2.713.09 3.006.044.294.43.489.43.489h-1.888s.385-.115.43-.489c.053-.498.089-1.343.089-2.571v-.435a56 56 0 0 0-.117-3.22h-.974c-1.01.062-1.35 1.654-1.35 1.654s0-.791-.063-1.236c-.045-.356-.161-.792-.161-.792s.653.071 1.583.071zm2.646 6.743h3.175a44 44 0 0 0-.627-3.229 46 46 0 0 0-.786-3.016zm-.465 0c.16-.436.581-1.601 1.073-3.283.447-1.503.796-2.552.796-3.033 0-.169-.224-.347-.331-.4h2.075s-.358.089-.358.4c0 .018.009.036.009.063.08.524.241 1.512.59 3.024.367 1.601.707 2.748.859 3.229h.76v1.983s-.367-1.654-1.386-1.708h-3.48c-1.01.054-1.376 1.708-1.376 1.708v-1.983zm6.889-.045c.044-.471.116-1.494.116-3.175 0-1.575-.045-2.704-.116-3.203-.027-.16-.304-.293-.304-.293h1.681s-.286.116-.304.285a44 44 0 0 0-.116 2.997l1.878.009c1.028 0 1.86.827 1.86 1.85s-.832 1.85-1.86 1.85l-2.433.009h-.715s.304-.178.313-.329m2.53-3.078c-.07 0-.151-.008-.24-.008-.394 0-.913.035-1.333.062 0 1.53.062 2.499.098 2.98.474.035 1.046.071 1.44.071.796 0 1.458-.765 1.458-1.557s-.627-1.512-1.422-1.548m3.971 2.856c.027.364.43.533.43.533H91.33s.411-.284.438-.587c.045-.578.09-2.277.09-3.744 0-.908-.019-1.726-.063-2.126-.036-.303-.439-.525-.439-.525h1.879s-.403.142-.439.49c-.053.569-.098 1.6-.098 2.988 0 1.45.045 2.428.09 2.971m5.606.551s.303-.169.303-.409a.3.3 0 0 0-.026-.124 61 61 0 0 0-1.458-2.891l-1.681 2.917a.34.34 0 0 0-.054.187c0 .222.268.32.268.32h-1.448s.438-.098.742-.56c.375-.578 1.94-3.14 1.985-3.22a52 52 0 0 0-1.628-2.829c-.178-.266-.536-.391-.536-.391h1.833s-.25.071-.25.302c0 .054.018.116.045.178.178.392.492 1.041.974 1.975q.819-1.438 1.074-1.957a.4.4 0 0 0 .044-.169c0-.249-.322-.329-.322-.329h1.431s-.447.133-.697.49l-1.342 2.33c.117.213.233.435.358.676a60 60 0 0 0 1.717 3.006c.215.356.563.498.563.498zm4.603-3.656h1.574a47 47 0 0 0-.76-2.89zm-1.905 3.647s.465-.222.59-.551c.635-1.699 1.226-3.78 1.771-6.138v-.017c0-.143-.322-.285-.322-.285h2.075s-.358.098-.358.41c0 .017.009.035.009.061.081.525.242 1.512.59 3.025a46 46 0 0 0 .787 3.006.82.82 0 0 0 .403.489h-1.887s.438-.204.438-.489c0-.569-.259-1.574-.545-2.864h-1.735l-.796 2.837c-.009.027-.009.063-.009.089 0 .294.438.427.438.427z"/><path fill="#808E78" d="M24.51 65.533c-.142-.037-.165-.231-.26-.328a.7.7 0 0 0-.348-.194c-.223-.033-.378.033-.572.118-.118.05-.236.077-.347.143-.13.077-.238.194-.385.076-.121-.098-.102-.256-.25-.34-.184-.103-.388.017-.498-.19-.04-.075-.03-.15-.082-.22-.041-.056-.105-.08-.148-.133-.073-.091-.04-.163-.072-.26-.08-.234-.404-.06-.586-.036-.334.044-.692.01-1.019-.052-.116-.022-.217.001-.2-.16.014-.14.175-.274.262-.37-.043-.11-.154-.119-.17-.268-.016-.155.095-.293.082-.444-.024-.283-.437-.15-.634-.193-.1-.022-.159-.057-.266-.06a10 10 0 0 0-.394 0c-.096.002-.18.016-.264-.034-.198-.12.008-.18.086-.285-.053-.196-.287-.274-.443-.375-.055-.036-.18-.065-.194-.146-.023-.139.09-.096.178-.129.135-.05.277-.085.273-.254-.002-.096-.145-.248-.192-.328-.086-.146-.212-.275-.205-.456s.316-.855.54-.575c.123.153.042.396.17.566.203.27.405.054.675.07.1.006.17.09.268.098.179.016.102-.06.225-.143.219-.15.446-.068.55.183.048.113.04.296.21.318.183.024.102-.072.191-.178.107-.125.248-.167.389-.051.077.063.072.21.187.232.085.017.153-.051.204-.105.093-.099.15-.2.26-.285.072-.058.234-.1.274-.191.177-.408-.495-.564-.721-.776-.181-.172-.22-.388-.522-.395-.173-.003-.375.047-.528-.066-.209-.154-.037-.377-.254-.513-.221-.137-.421-.113-.553-.386-.083-.172-.09-.556.047-.714.105-.122.435.025.415-.239-.01-.147-.377-.31-.508-.39-.12-.075-.774-.337-.722-.472.104-.27 1.033.478 1.15.527.075.031.125.076.215.055.118-.027.134-.151.273-.165.127-.013.275.054.385.105.097.045.206.177.332.143.204-.053.232-.358.475-.398.147-.024.151.054.256.113.134.077.281.104.418.025.21-.122.368-.5.38-.722.004-.095.03-.292-.014-.38-.081-.162-.221-.141-.384-.139-.232.005-.582.07-.8-.007-.24-.084-.09-.509-.247-.707-.163-.206-.431-.192-.664-.19a1.44 1.44 0 0 1-.725-.17c-.186-.09-.316-.089-.523-.088-.092 0-.482.046-.445-.116.462-.017.028-.372.019-.588.155-.22.418.288.553.3.18.017.228-.142.332-.23.108-.09.179-.15.33-.15.335 0 .302.334.572.372.163.023.168-.072.35.02.122.061.195.104.324.15.104.038.22.121.32.056-.036.023.17-.202.148-.166.117-.185-.166-.41-.284-.537-.174-.188-.385-.303-.577-.466-.1-.086-.173-.187-.281-.266-.073-.052-.196-.083-.18-.192.016-.101.267-.14.334-.137.129.007.162.064.256.137.174.136.491.398.581.071.075-.268.106-.303.353-.199.12.05.628.177.616-.076-.008-.135-.2-.205-.285-.266-.07-.05-.135-.116-.208-.162-.168-.106-.395-.094-.559-.212-.085-.061-.108-.145-.171-.223-.061-.076-.153-.134-.232-.193-.153-.113-.462-.235-.535-.423.077-.081.22-.1.325-.14.137-.056.283-.108.412-.18.14-.075.196-.136.34-.041.146.097.185.232.28.362.048.067.132.117.188.178s.096.152.16.204c.134.109.29.047.415.169.236.227.097.57.305.81.248.284.577-.01.795-.19a.83.83 0 0 0 .284-.486c.044-.181.017-.235-.163-.33-.168-.089-.343-.162-.515-.239-.14-.062-.233-.16-.357-.245-.166-.116-.385-.103-.543-.223-.099-.075-.33-.226-.339-.348.088-.12.355-.095.485-.078.132.018.348.029.464.079.132.057.22.218.39.195.228-.03.333-.255.218-.436-.063-.101-.19-.164-.235-.286-.054-.144.086-.294-.003-.421-.103-.147-.36-.068-.488-.19-.139-.132.015-.323.195-.337.118-.01.22.064.325.092.108.029.223.015.334.014.228-.001.462-.051.64.11.203.184.375.51.673.56.212.037.462-.43.335-.608-.078-.11-.244-.16-.149-.324.06-.104.245-.184.34-.255.057-.043.112-.1.177-.133s.165-.037.223-.072c.236-.142.078-.245.008-.437-.054-.15-.058-.29-.143-.425a2.4 2.4 0 0 0-.312-.41c-.206-.205-.546-.14-.815-.14q-.36-.002-.718 0c-.154.002-.655-.059-.553-.328.076-.202.67.123.815.137.21.02.372.016.534-.128.14-.126.256-.251.327-.424.088-.216.055-.272-.117-.421-.142-.122-.278-.259-.414-.388-.11-.105-.156-.16-.3-.202-.137-.04-.27-.092-.407-.139-.195-.068-.398-.048-.606-.047-.146 0-.225.02-.344-.075-.108-.087-.32-.27-.313-.421.241.095.508.027.759.107.164.053.343.166.52.16-.035-.378-.576-.648-.888-.74-.241-.072-.727-.476-.634-.771.257-.113.386.215.504.369.137.18.276.214.498.136.169-.06.239-.17.425-.067.166.09.19.39.375.426.067-.134.15-.11.25-.156.125-.059.178-.085.218-.263.062-.272-.05-.502-.238-.7-.146-.152-.29-.221-.473-.315a2 2 0 0 1-.528-.404c-.131-.131-.376-.546.013-.447.14.035.209.143.316.221.136.1.309.216.465.28.143.058.36.111.52.078.102-.02.172-.095.264-.139.19-.09.219.046.382.002.285-.077-.048-.493.069-.651.082-.112.405-.071.535-.06.103.01.144.033.228-.009.146-.073.112-.147.3-.073.268.107.405.371.38.652-.01.125-.107.26-.052.394.045.11.146.148.262.204.176.085.478.269.658.202.093-.034.254-.167.333-.238.13-.118.143-.248.131-.42-.017-.256-.255-.55-.463-.698-.117-.083-.25-.082-.337-.215-.102-.157-.076-.338.003-.493.079-.157.192-.237.08-.423-.11-.18-.306-.157-.476-.236-.135-.063-.245-.143-.386-.196-.132-.05-.26-.067-.368-.16-.118-.1-.184-.22-.26-.35-.098-.17-.224-.265-.363-.399.003-.174.351-.139.463-.127.195.018.305.159.474.26.183.108.487.367.712.318.123-.027.191-.166.323-.17.124-.003.255.1.348.172.221.17.396.456.705.462.133.003.253-.033.38.018.108.043.22.174.327.237.093.055.21.165.333.125.11-.036.16-.205.27-.265a.76.76 0 0 1 .4-.063c.108.008.344.157.424.092.095-.078-.068-.339-.104-.441q-.067-.192-.13-.386c-.08-.228-.104-.39-.325-.52a.95.95 0 0 0-.556-.161c-.278.004-.575.026-.852.002a1.8 1.8 0 0 1-.496-.127c-.23-.099-.172-.37-.122-.587.096-.004.16.105.255.123.148.03.186-.041.265-.136.12-.144.194-.32.072-.49-.203-.287-.787-.097-1.096-.172-.225-.056-.414-.17-.62-.267-.083-.04-.238-.104-.276-.189-.033-.074.043-.102-.012-.195-.09-.15-.419-.22-.576-.26-.153-.04-.437.032-.503-.161.109-.148.328-.045.416-.26.085-.208-.067-.277-.135-.446.206-.039.325.182.398.32.081.152.275.282.455.259.228-.03.31-.255.54-.104.1.065.164.155.28.199.105.039.225.044.336.054.197.017.36-.09.186-.283a.94.94 0 0 0-.547-.257c-.18-.007-.253-.003-.205-.218.027-.123.043-.228.038-.359-.012-.254-.185-.563.196-.654.562-.134.362.636.552.875.157.198.376.106.564.22.203.123.284.398.467.09a.5.5 0 0 0 .065-.338.6.6 0 0 0-.131-.246c-.07-.078-.182-.108-.237-.194.266-.087.44-.36.268-.597a1 1 0 0 0-.281-.258c-.104-.069-.286-.135-.332-.26a.5.5 0 0 1 .366-.198c.085-.007.216.052.26-.056-.065-.104-.198-.163-.28-.26-.067-.08-.234-.213-.218-.32.204-.055.335.044.481.161.158.126.248-.028.43-.032.151-.003.392.168.509.267.112.095.226.298.377.21.152-.09.104-.355.31-.393.057-.01.126.06.19.022.06-.034.06-.189.062-.243.006-.205.019-.292.259-.284.156.005.322.01.404-.167.115-.25-.418-.483-.569-.614-.13-.112-.259-.261-.41-.343-.066-.037-.141-.03-.203-.089-.05-.047-.06-.13-.102-.183-.267-.337-.753-.348-1.08-.579-.241-.17-.398-.555-.335-.84.282-.094.432.225.619.355.113.08.236.168.362.227.104.05.233.052.318.137.07.07.072.175.135.25.063.073.207.142.288.193.168.107.333.225.507.322.238.134.434.285.714.135.185-.099.153-.399.143-.59-.01-.181-.134-.285-.185-.45a.87.87 0 0 1 .016-.45c.066-.221.166-.445.248-.663.088-.234.124-.452.167-.696.025-.14.017-.206.08-.329.042-.08.08-.154.116-.24.077-.187.083-.289.083-.495v-.814c0-.271-.062-.65.08-.903.262.013.162.535.18.693.015.129.09.223.121.341.031.112.026.21.063.322.14.425.11.827-.1 1.23-.136.264-.305.558-.38.846a1.6 1.6 0 0 0-.033.561c.01.073.04.136.054.207.023.111-.016.237.021.343.102.284.575.487.854.504.124.007.254.01.356-.07.084-.064.104-.162.163-.245.054-.079.121-.12.198-.175.068-.048.137-.128.209-.166.095-.05.155-.026.258-.055.195-.054.117-.253.265-.37.136-.105.392-.117.548-.16.11-.031.222-.09.331-.13.17-.06.624-.086.354.206-.094.102-.288.175-.405.255-.127.087-.233.206-.373.26-.137.052-.295.043-.429.096-.138.055-.377.242-.485.355-.102.107-.122.226-.256.312-.051.034-.099.03-.148.069-.087.07-.16.192-.248.268-.184.16-.512.735-.146.865.135.049.464-.022.596-.09.047-.023.144-.119.199-.113.107.012.124.163.133.236.04.338-.51.678-.34.98.133.236.303.08.465-.007.13-.07.246-.11.39-.128.175-.022.437-.05.597-.137.155-.085.08-.285.261-.343.124-.039.215.049.33.078.095.025.2.027.294.047.195.041.376.062.563-.028.155-.075.282-.225.457-.26.2-.039.329.15.357.328.037.237-.288.348-.49.378-.151.022-.305-.015-.456 0a1.7 1.7 0 0 0-.45.132c-.298.12-.59.262-.88.402-.178.087-.387.15-.543.277-.128.103-.24.205-.38.294-.297.187-.666-.02-.988.125-.313.142-.628.404-.645.775-.006.117-.045.38.06.469.156.13.416-.146.552-.213.17-.084.269-.043.442-.011.121.023.33.085.435.05.152-.052.226-.31.426-.225.21.09.114.298-.015.383-.268.177-.525.357-.663.648a.85.85 0 0 1-.269.356c-.135.104-.303.19-.409.326-.167.216-.15.674.048.873.128.13.249.134.416.127.19-.008.226-.06.37-.19.2-.182.25-.321.257-.587.005-.17-.087-.405.126-.45.16-.033.302-.058.464-.1.079-.022.168-.018.245-.042.1-.032.18-.11.278-.148.105-.04.222-.069.334-.029.104.037.157.164.263.185.127.024.107-.04.206-.111s.207-.084.32-.122c.16-.055.257-.09.424-.087.124.002.274.02.397.002a5 5 0 0 0 .326-.062c.225-.048.173-.282.3-.428.121-.137.337-.042.42.095.122.199.069.407.11.619.112-.008.209-.087.324-.1.08-.01.177-.001.258.002.207.007.642.268.323.442-.154.084-.357.06-.522.073-.15.012-.268.102-.408.15a3 3 0 0 0-.38.163c-.146.074-.309.098-.455.176-.104.056-.192.084-.299.127-.115.046-.196.137-.301.198-.22.13-.508.022-.62.293-.075.184.03.294.168.411.146.125.142.134.033.294-.083.122-.14.315-.305.29-.169-.025-.209-.23-.324-.254-.085.076-.043.134-.061.224-.017.087-.123.19-.127.263-.006.101.08.306.133.398.11.191.384.332.442.553s-.225.344-.2.536c.016.123.139.117.225.076.133-.064.183-.23.261-.34.163-.23.461-.34.71-.457.19-.09.19-.052.331.058.051.04.057.1.13.077.08-.025.079-.194.126-.247.118-.134.166-.054.317-.024.15.03.279.02.422-.032.184-.065.433-.303.627-.29.267.018.333.435.61.448.208.01.51-.404.649-.101.113.247-.172.387-.324.506-.136.107-.268.222-.409.325a1 1 0 0 1-.578.193c-.219.013-.555.233-.453.508.092.25.418.164.348.512-.046.226-.283.31-.343.517-.02.074.01.14-.006.209-.016.067-.07.122-.077.19-.01.09.073.21.133.267.15.144.303.067.471.147.142.067.303.327.329.477.025.15-.042.32.005.468.07.219.284.371.436.518.08.078.124.182.212.25.11.087.22.098.257.267.062.275-.248.394-.392.567-.158.19-.244.42-.264.664-.021.27.1.454.385.508.216.04.435-.137.662-.044.214.089.372.213.425.44.027.118.07.254.05.377-.02.13-.088.172-.14.284-.115.246-.005.505-.124.75-.115.237-.323.46-.514.64-.1.095-.201.195-.24.332-.046.171.045.182.162.32.15.178.273.356.443.519.191.184.286.431.488.596.212.173.437.338.645.516.172.145.349.321.456.516.155.282.367.403.333.756-.013.14-.063.27-.072.411-.012.182.003.37.003.552 0 .268 0 .536-18.997 11.669z"/><path fill="#94A58B" d="M69.8 63.786c.136.116.274.207.396.34.157.17.293.335.486.468.23.159.46.332.692.486.177.118.342.14.549.179.111.021.226.045.314-.045.091-.094.054-.207.161-.3.159-.136.228-.082.393-.004.153.072.323.095.477.168.323.155.627.333.944.499.156.081.288.222.445.312.16.093.307.201.47.29.114.064.206.154.322.212.162.082.362.091.533.152.298.106.592.144.901.202.13.025.331.102.452.08.139-.023.27-.153.385-.226.128-.082.258-.135.397-.193.146-.062.276-.163.425-.214.292-.1.583-.076.887-.077.148 0 .29-.015.432.03.12.037.2.092.325.1.099.007.25.024.329-.04.163-.136-.05-.294-.134-.411-.113-.157-.22-.33-.055-.488.117-.111.27-.098.417-.096.266.004.505.071.558-.255.027-.166.005-.323.039-.49.047-.237-.044-.37-.296-.414-.215-.038-.362-.047-.534-.2a2 2 0 0 1-.31-.323c-.16-.236-.094-.47.183-.553.125-.037.278-.047.409-.034a.54.54 0 0 1 .235.066c.103.06.122.157.262.128.158-.034.224-.263.394-.31.21-.056.259.181.453.224.183-.329-.2-.4-.436-.426-.316-.034-.524-.106-.664-.401-.139-.292-.103-.566.268-.573.197-.003.242.026.36-.13a.4.4 0 0 1 .11-.163 1 1 0 0 0 .24-.099c.104-.085.158-.255.195-.38.05-.175.122-.343.166-.52.028-.112.038-.222.06-.335.022-.11.05-.372.14-.448.107-.093.245-.018.362-.066.125-.053.195-.19.318-.253a.6.6 0 0 1 .336-.063c.07.004.246.073.288.015-.034-.27-.228-.306-.427-.411-.126-.067-.195-.134-.112-.267.102-.162.306-.154.466-.18.244-.041.3-.308.392-.511.076-.166.13-.427-.035-.556-.215-.165-.387.018-.559.137a.8.8 0 0 1-.27.133c-.169.043-.209-.01-.337-.103-.087-.063-.2-.15-.318-.14-.156.016-.173.126-.188.264a3 3 0 0 0-.006.458c.014.228.16.418-.111.54-.206.093-.418.108-.639.107-.172 0-.354.041-.457-.129-.111-.184-.07-.694.066-.871.153-.2.44-.134.65-.193.282-.08.417-.262.48-.543.034-.147.013-.315.013-.466-.001-.302.18-.318.464-.38.173-.037.16-.127.255-.252.09-.119.185-.112.318-.14.215-.047.361-.213.57-.26.197-.045.442-.024.598-.158.18-.154.172-.423.37-.558.147-.1.24-.034.293-.246.028-.115.022-.16-.074-.23-.149-.105-.592-.25-.762-.142-.148.094-.194.32-.336.43-.194.149-.402.204-.547-.006-.063-.092-.113-.188-.194-.268-.121-.119-.195-.093-.365-.039-.264.085-.471.292-.723.412-.293.14-.398.076-.553-.192a.8.8 0 0 1-.1-.237c-.037-.177-.007-.218.125-.315.124-.09.163-.175.187-.327.016-.096-.021-.239.02-.328.047-.1.176-.112.245-.184.13-.135.06-.292.073-.461.007-.097.03-.229.093-.307.077-.095.216-.112.295-.205.112-.132.337-.458.237-.614-.191-.297-.535-.024-.76.027-.433.098-.39-.267-.387-.584.002-.151.008-.208-.132-.29-.132-.076-.251-.087-.398-.093-.277-.01-.46-.219-.397-.508.052-.242.388-.369.551-.54a.8.8 0 0 0 .238-.444c.032-.216.031-.156.23-.249.226-.105.22-.422.069-.59-.12-.131-.371-.237-.551-.27.074-.202.488-.283.677-.309.392-.052.598-.414.568-.78-.013-.159-.101-.27-.198-.401-.133-.184-.225-.25-.464-.244-.222.006-.355.102-.39.326-.032.213.056.321.091.516-.145.022-.203-.461-.248-.584-.05-.138-.064-.229-.237-.248-.14-.016-.244.038-.265.183-.017.107.112.268.05.367-.06.094-.296.066-.387.086-.158.035-.155.102-.182.255-.016.095-.06.174-.076.265-.034.186.07.312-.127.44-.059.038-.134.05-.194.087-.167.103-.244.245-.464.256-.241.013-.642-.143-.58-.455.023-.12.147-.146.222-.234.11-.126.095-.303.156-.452a.7.7 0 0 1 .228-.287c.074-.057.197-.069.214-.175.011-.071-.067-.195-.091-.261-.058-.158-.095-.27-.266-.332a1.5 1.5 0 0 0-.245-.069c-.114.009-.14.157-.167.25-.09.318-.012.632-.457.58-.192-.023-.268-.049-.398.117-.072.092-.13.16-.245.2-.144.05-.338.121-.49.144-.233.036-.486-.003-.517-.262-.031-.262.095-.354.19-.583.04-.1.026-.134.135-.199.167-.1.297-.015.47.002a.8.8 0 0 0 .367-.057c.173-.066.17-.13.127-.294-.025-.098-.031-.204-.068-.299-.06-.152-.232-.22-.288-.366-.09-.232.11-.513.32-.6.161-.068.222-.056.306-.219.056-.107.11-.226.18-.325.078-.109.128-.186.29-.155.152.029.186.107.338-.014.21-.166.284-.502.466-.71.076-.086.166-.158.26-.224.093-.064.267-.107.34-.186.253-.271-.229-.442-.418-.48a.57.57 0 0 0-.383.048c-.057.029-.106.073-.162.103-.085.047-.204.072-.282.125-.189.127-.33.396-.596.394-.156 0-.197-.123-.33-.19-.151-.078-.302.002-.368.157-.098.23.023.545-.293.636a.32.32 0 0 1-.319-.066c-.059-.053-.087-.132-.142-.186s-.13-.088-.185-.142c-.156-.154-.23-.305-.441-.381-.226-.082-.573-.225-.524-.51.068-.395.373-.317.641-.46.137-.073.187-.24.29-.349.133-.14.22-.204.418-.227.236-.027.393-.183.451-.418.082-.332-.274-.366-.522-.306-.364.088-.51-.285-.32-.543.097-.13.15-.25-.01-.37-.107-.08-.328-.052-.325-.236.002-.227.618-.356.266-.652-.172-.144-.532-.193-.743-.161.179-.24.629-1.032.415-1.274-.058-.066-.193-.11-.183-.227.01-.111.155-.166.24-.21.273-.141.637-.115.733-.449.033-.116.032-.247.095-.353.072-.118.208-.19.297-.294.176-.207.203-.458.396-.653.126-.127.493-.505.447-.705-.06-.254-.45-.128-.581-.008-.123.113-.24.226-.265.394-.018.125.042.27-.038.38-.136.187-.525.125-.734.215-.238.102-.4.307-.678.316-.14.005-.248-.061-.382-.07-.18-.013-.271.126-.392.246-.178.178-.326.333-.341.598-.014.24-.157.467-.428.42-.2-.034-.359-.217-.415-.41-.041-.14.012-.294-.016-.434-.019-.087-.054-.102-.032-.193a.7.7 0 0 1 .14-.227c.2-.233.465-.284.393-.647-.054-.272-.002-.475.129-.72.047-.089.073-.207.134-.286.086-.113.222-.108.33-.187.155-.115.277-.334.36-.502.135-.272.048-.641-.333-.56-.167.035-.369.157-.524.234-.067.033-.151.053-.214.09-.164.095-.157.212-.22.375-.052.139-.12.257-.286.213-.128-.033-.26-.191-.337-.29-.149-.191-.19-.38-.266-.6-.074-.214-.061-.358.202-.45.115-.04.257-.007.362-.065.146-.08.168-.274.199-.421.03-.142.035-.25.167-.323.104-.058.232-.037.332-.107.102-.07.123-.176.171-.284.06-.132.085-.17-.057-.26-.16-.101-.367.003-.504-.13-.088-.086-.123-.326-.068-.437.046-.094.176-.187.253-.268.185-.193.366-.31.317-.598-.021-.125-.027-.26-.05-.383-.022-.13-.064-.132-.198-.156-.484-.086-.388.423-.56.683-.103.157-.204.3-.312.453a.7.7 0 0 1-.24.226c-.136.088-.18.198-.231.352-.078.239.005.409-.269.49-.198.057-.337.02-.446-.163a.89.89 0 0 1-.03-.838c.04-.089.059-.178.112-.262.06-.094.153-.17.205-.271.08-.159.17-.614-.095-.6-.269.015-.324.238-.514.363-.285.187-.51-.188-.416-.432.08-.206.302-.288.462-.415.205-.164.362-.382.363-.65 0-.294.035-.362.22-.578.086-.102.16-.217.237-.325.086-.12.25-.277.306-.407.053-.121-.001-.183-.028-.303-.033-.152-.008-.307-.01-.46-.004-.185-.146-.339-.348-.235-.15.078-.143.244-.195.374-.053.136-.168.17-.268.265-.242.225-.248.555-.56.707-.409.2-.342-.641-.342-.88 0-.116-.03-.277.003-.388.056-.19.46-.17.329-.388-.131-.216-.485-.186-.557-.479-.025-.103.006-.154.071-.23.12-.137.182-.171.236-.356.034-.113.148-.256.11-.378-.033-.107-.175-.226-.23-.332-.132-.258-.056-.457.038-.716.059-.164.111-.343.195-.498.049-.09.176-.214.147-.33-.039-.16-.213-.135-.346-.14-.292-.012-.331-.191-.326-.453.003-.13-.012-.26.015-.39.03-.139.09-.252.02-.389-.06-.115-.18-.176-.295-.23-.158-.075-.234-.09-.36.032-.185.18-.238.383-.291.62-.05.227-.097.38-.01.608.08.213.242.536.126.774-.105.216-.393.189-.58.263-.248.1-.228.312-.139.523.05.12.086.176.181.258.072.062.209.124.182.245-.018.078-.174.153-.23.207a4 4 0 0 0-.317.338c-.192.233-.015.45.123.65.12.175.13.265.13.468-.001.313-.067.596-.066.906 0 .183.028.269-.129.389-.128.097-.285.238-.46.231-.214-.008-.42-.277-.556-.418-.129-.134-.195-.476-.445-.428-.17.199.237.47.362.564.136.103.184.152.112.306-.067.141-.185.274-.268.41-.09.149-.185.292-.195.466-.017.293.007.418-.266.583-.293.177.006.24.142.4.192.224.012.403-.058.635-.066.215.096.332.314.332.22 0 .598-.396.717-.084.055.145-.068.263-.052.387.016.12.139.164.2.265.2.332-.161.322-.375.227-.18-.079-.43-.383-.564-.1-.12.255.172.384.371.452.159.054.394.042.354.263-.03.17-.258.38-.249.552.005.102.125.135.193.197a.44.44 0 0 1 .136.425c-.049.293-.374.13-.495-.04-.051-.071-.071-.203-.183-.21-.153-.009-.236.289-.326.364-.156.13-.428.092-.594-.002-.27-.152-.379-.425-.577-.64-.097-.105-.225-.166-.334-.257-.074-.063-.14-.165-.25-.155-.052.116.082.368.121.482.061.178.156.279.312.388.145.101.545.32.356.558-.078.098-.294.109-.403.09-.225-.039-.64-.412-.848-.174-.093.106-.035.407.065.496.182.16.5.217.618.449.147.288-.118.627-.163.906-.038.23-.064.383.11.566.175.184.456.45.425.736-.02.18-.159.185-.311.187-.206.002-.27.036-.421.175-.211.195-.17.292-.08.537.032.091.094.24.027.33-.053.071-.337.138-.426.172-.13.05-.335.162-.447.072-.048-.038-.089-.21-.123-.268-.047-.08-.11-.145-.168-.218-.163-.211-.487-.942-.763-.467-.178.308.1.379.273.568.114.125.18.308.198.474.04.381-.023.882-.328 1.148-.318.277-1.133.336-1.13.839 0 .23.16.288.276.45.144.202-.012.367-.057.572-.052.234.035.491-.026.722-.051.191-.184.316-.316.453-.049.05-.082.09-.127.148-.152.194-.222.168-.414.048-.176-.11-.373-.227-.497-.025-.107.174-.18.423-.132.624.042.17.148.242.235.385.117.19.219.38.284.592.057.186.174.355.194.56.013.141-.003.292-.003.434 0 .19.044.414-.061.584-.036.057-.099.1-.137.156-.1.149-.123.298-.31.365-.218.079-.356.024-.513.234-.117.154-.193.318-.277.49a1.8 1.8 0 0 0-.134.389c-.048.214.047.27.137.45a.88.88 0 0 1-.012.79c-.132.24-.398.45-.585.65-.09.096-.16.205-.26.293-.09.08-.2.126-.282.217-.298.333-.488.76-.787 1.092-.102.112-.202.185-.249.335-.067.216-.08.423-.08.648 0 .182 0 .34.047.517.058.215.16.43.202.647.039.195.013.41.013.607v1.189c0 .296-.016.599 0 .894.008.172.098.234.198.38.532.767.95 1.67 1.25 2.546.08.232.197.428.312.642.067.125.057.18.208.243a.9.9 0 0 1 .338.21c.306.296.627.658.656 1.095.025.387-.07.767-.068 1.156 0 .225-.043.465.064.659.133.242.416.38.656.515.361.204.788.293 1.184.404.784.22 1.578.428 2.374.603.368.08.74.144 1.109.226.464.103 1.011.142 1.452.322.26.106.436.247.666.4.327.217.64.44.977.636.047.028.096.048.142.075.165.095.29.229.455.328.178.108.374.154.56.244.15.072.182.128.364.134.32.01.649-.07.97-.076.46-.01.924.003 1.385.003h1.377c.265 0 .559-.035.822-.002.172.021.387.124.545.195.127.056.204.116.346.15.103.024.213.031.313.06.244.07.444.177.666.29.022-.09-.017-.147-8.934-2.374z"/><path fill="#6C7860" d="M45.365 62.772c-.1-.13-.328-.117-.471-.167-.114-.04-.209-.101-.318-.15-.234-.105-.451-.032-.69-.093-.657-.166-1.349-.293-1.98-.587-.614-.285-1.267-.474-1.883-.77-.43-.207-.857-.354-1.261-.611-.341-.218-.544-.603-.79-.919a4.6 4.6 0 0 0-.867-.874c-.35-.262-.712-.451-1.081-.677-.34-.208-.693-.383-1.036-.582-.318-.185-.585-.411-.885-.599-.428-.267-.675-.666-.669-1.155.007-.541-.448-.556-.892-.7-.387-.126-.797-.089-1.062-.45-.08-.11-.344-.457-.286-.583.073-.157.206-.104.356-.117.069-.372-.583-.584-.703-.857-.088-.203.133-.302.316-.287.216.017.442.165.617.28.187.122.325.288.56.234.144-.033.259-.199.402-.216.344-.042.665.385.99.457.492.109.47-.442.876-.557.187-.053.41.052.584 0 .137-.042.401-.311.382-.479-.05-.434-.788-.363-1.045-.518-.363-.22-.038-.709-.482-.846-.212-.066-.455.042-.665-.018-.345-.098-.64-.468-.768-.775-.235-.57.446-1.449 1.094-1.05.191.118.231.347.364.516.097.124.217.22.353.3.459.275.739-.04 1.157-.23.277-.125.653.078.908.23.34.202.604.786.978.831.3.036.804-.066.95-.347.115-.224-.013-.492.06-.724.021-.068.094-.138.122-.206.051-.125.036-.248.067-.375.043-.181.181-.278.241-.446.154-.428-.62-.462-.846-.722-.168-.193-.203-.265-.002-.441.14-.122.301-.166.242-.375-.028-.1-.104-.16-.129-.265-.02-.083.028-.191.003-.267-.07-.21-.226-.207-.43-.21-.257-.005-.573-.049-.821.006-.2.044-.315.216-.534.182-.089-.013-.175-.096-.25-.137-.086-.047-.296-.098-.357-.163-.134-.14-.084-.29.102-.361.226-.086.396.087.452-.2.042-.218-.04-.252.167-.369.233-.131.461-.223.657-.434.084-.09.284-.332.283-.463 0-.156-.258-.48-.37-.57-.266-.219-.942-.405-1.254-.213-.314.193-.587.479-.955.16-.452-.39.226-.487.128-.854-.08-.306-.402-.512-.626-.71-.242-.212-.894-.374-.942-.73-.091-.677 1.124.21 1.284.352.24.214.275.245.593.239.228-.005.469.026.694-.01.329-.054.602-.191.935-.187.186.003.264.006.423.122.274.197.207.15.51-.027.304-.175.396-.178.67-.001.194.125.372.31.62.309.306-.002.306-.213.49-.388.222-.21.214-.029.493-.024.476.01.59-.723.436-1.06-.128-.28-.562-.97-.298-1.258.236-.044.227.189.364.298.205.164.51-.002.693.194.24.256.056 1.02.674.853.143-.038.552-.262.62-.395.125-.244-.196-.48-.343-.659a3 3 0 0 0-.348-.374c-.087-.072-.233-.124-.306-.203-.184-.2-.077-.397-.108-.64-.018-.15-.083-.256-.163-.383-.096-.155-.172-.328-.28-.473-.129-.173-.398-.402-.147-.587.237-.176.523-.046.69.141.272.304.445.655.692.966.322.406.87.498 1.371.374-.077-.463-.651-.615-.775-1.05-.089-.313.06-.37.191-.6.131-.232.125-.434.022-.67-.055-.128-.164-.249-.204-.382-.04-.139.018-.274-.027-.411-.163-.495-.862-.219-1.17-.077-.263.122-.527.19-.794.298-.255.103-.488.164-.632-.118-.186-.364.08-.298.272-.46.284-.242.087-.31-.04-.564-.243-.485.163-.854.328-1.314.125-.35.338-.776-.225-.855-.454-.065-.57.656-.987.383-.202-.132-.225-.348-.292-.544a.33.33 0 0 0-.116-.3 3 3 0 0 0-.286-.151c-.135-.126-.374-.568-.386-.748-.027-.385.31-.24.47-.069.27.286.708.866.712.098 0-.183-.064-.92.274-.872.22.03.12.522.119.659-.004.266-.098.493.183.617.492.218 1.014-.212 1.495.003.218.097.205.296.486.235a.48.48 0 0 1 .298-.137q.18.04.366.054c.094-.204.04-.358.22-.525.173-.163.428-.21.61-.359.203-.165.244-.422.275-.665.011-.093.006-.199.03-.29.045-.173.193-.3.165-.487-.062-.42-.501-.575-.845-.394-.194.102-.337.283-.576.254-.201-.024-.358-.202-.399-.395-.062-.294.272-.624.413-.873.318-.564-.34-.351-.652-.424-.2-.047-.188-.227-.35-.336-.163-.11-.349.003-.474-.166-.15-.204-.135-.863.022-1.059.102-.127.402-.31.557-.232.199.1.15.442.148.626-.002.18-.041.37.193.375.207.004.27-.223.444-.294.363-.146.62.348.899-.091.162-.255.109-.325-.01-.574-.12-.251-.048-.518.05-.76.175-.434.232-.726.007-1.161-.18-.345-.52-.674-.481-1.092.017-.184.07-.883.385-.7.19.111.09.83.09 1.032 0 .307-.083.753.332.836.186.037.405-.096.601-.104.116-.005.289-.03.4-.005.552.125.497 1.628-.07 1.718-.15-.207.106-.734.335-.824.33-.128.61.302.932.327.151-.152.172-.522.21-.728.044-.242.022-.49.022-.736 0-.248.041-.525-.045-.761-.093-.255-.309-.447-.423-.69.21.128.312.358.564.43.27.08.438-.06.67-.16.069-.029.246-.037.291-.107.08-.126-.053-.286-.114-.389-.122-.205-.285-.385-.394-.597-.15-.294-.338-.608-.453-.914-.084-.222-.09-.476-.2-.688-.118-.23-.344-.39-.557-.529-.314-.205-1.062-.45-1.156-.854-.096-.413.227-1.07.74-.886.462.165.445.76 1.019.773.155.004.274-.037.404.053.217.15.136.518.334.651.204-.042.285-.257.404-.395.122-.143.309-.197.375-.387-.128-.306-.692-.46-.918-.734a1.23 1.23 0 0 1-.272-.552c-.045-.172-.214-.424-.144-.598.36-.266.644.42.859.586.21.164.53.26.79.318.304.066.504.247.77.387.224.117.138.086.308-.078.161-.156.294-.197.481-.319.219-.142.629-.5.604-.77-.014-.163-.126-.19-.196-.316-.116-.21-.057-.365-.086-.578-.04-.292-.64-.46-.9-.575-.245-.109-.762-.177-.83-.481-.059-.265.223-.324.436-.295.115.016.29.135.407.1.133-.04.151-.272.192-.373.058-.144.193-.3.092-.434-.073-.096-.272-.108-.386-.158-.343-.15-.768-.178-.802-.612-.023-.287.166-.41.05-.697-.145-.357-.201-.45.156-.61.183-.081.504-.176.48-.413-.02-.194-.277-.51-.355-.689.078-.072.177-.046.25-.1.15-.112.12-.204.123-.373a2 2 0 0 0-.075-.68c-.068-.218-.167-.308-.301-.483-.079-.101-.121-.202-.228-.293-.119-.103-.29-.165-.367-.308.18-.27.702.58.768.694q.089.166.203.316.086.17.108.36c.225.218.428.001.584-.212.137-.187.207-.359.288-.563.058-.144.098-.32.298-.265.21.057.172.518.195.664.025.154 0 .293.195.359.396-.204.347-.975.279-1.35-.038-.202-.09-.507-.22-.672-.153-.194-.467-.25-.442-.558.368-.12-.01-.558-.078-.803.107-.12.24-.047.37-.104.141-.061.31-.27.398-.379.332-.407-.094-.555-.31-.885-.123-.187-.428-.782-.143-.842.184-.038.306.157.493.033.178-.117.178-.427.13-.61-.088-.34-.274-.614-.281-.982-.005-.22-.022-.465 0-.683.01-.111.012-.268.171-.291.254-.038.225.306.32.437.28.383.636-.201.796-.46.127-.202.579-1.646.994-1.134.158.195.117.674.082.919a2 2 0 0 1-.148.524c-.074.159-.252.235-.321.385-.085.185-.03.351-.161.532-.104.143-.246.243-.255.438-.01.229.127.19.239.356.138.204-.048.395-.181.574-.182.243-.714.582-.4.876.146.136.295.155.392.343.111.216.116.417.261.624.1.143.175.3.279.436.132.171.263.24.298.476.042.288-.016.592.001.883.018.302.222.558.395.802.117.165.319.461.579.361.219-.085.187-.373.229-.554.225.088.419.262.557.456.227.318.277.63.024.928-.195.229-.522.41-.663.674-.103.193 0 .186.02.34.03.197-.01.23-.15.391-.245.28-.255.408-.32.773-.052.299-.14.596-.2.894-.067.335-.021.671-.082 1.001-.027.145-.056.628-.167.702-.173-.466.053-.923.474-1.12.24-.114.316-.236.51-.41.178-.16.625-.545.872-.354-.006.215-.324.382-.45.548-.058.075-.146.16-.191.242-.056.103-.026.216-.071.319-.1.23-.333.34-.423.599-.096.278-.051.586-.053.877-.001.205-.076.577.084.742.136.14.57.183.75.127.114-.035.352-.188.452-.275.34-.297-.042-.516-.002-.84.445.073.46.6.926.154.144-.137.318-.248.457-.386.139-.136.201-.33.29-.497.13-.242.325-.443.472-.674.149-.236.123-.746.424-.834.289.371-.003.786-.143 1.128-.13.32-.123.487-.446.668-.244.136-.425.373-.609.59-.209.248-.218.359-.017.604.197.241.09.484.115.763.06.666.816-.025 1.163-.057.148.342-.506.714-.764.853-.13.071-.26.13-.387.211-.092.06-.545.221-.574.288-.161.377.711.33.38.835-.175.27-.652.409-.587.806.095-.153.085-.305.202-.455.125-.16.22-.187.377-.26.28-.131.642-.303.965-.285.137.272-.272.296-.384.422-.09.1-.224.516-.176.648.04.111.234.201.297.3.161.256.03.468-.207.623-.283.185-.793.08-.68.605.107.492.447.487.87.46.136.446-.467.94-.49 1.4-.016.31-.043.688.022.991.053.248.187.522.459.257.164-.16.08-.33.12-.52.038-.174.135-.29.087-.481-.04-.158-.42-.637-.103-.759.136.057.22.293.376.299.118.005.258-.18.31-.261.193-.297 0-.62.21-.884.239-.303.533-.442.844-.203.106.081.24.188.32.296.108.143.06.313.294.372.193-.076.256-.392.367-.563q.15-.233.271-.482c.107-.22.351-1.17.695-1.14.29.026.168.755.168.948 0 .274.052.6.005.869-.08.452-.37.892-.639 1.254-.165.221-.21.363-.275.613-.06.231-.253.416-.266.65-.014.27.352.528.287.786-.03.115-.303.216-.393.282a2 2 0 0 0-.342.299c-.281.312-.714.879-.632 1.33.15.099.513-.617.761-.61.367.297-.023.912-.129 1.216-.073.214-.16.868.053.971.356.173.83-.266.965.29.066.27-.105.53-.209.774-.038.091-.183.322-.167.398.043.216.207.12.374.185.165.064.24.039.128.27-.04.081-.214.244-.283.314-.104.107-.228.198-.326.311-.123.14-.188.325-.312.466-.161.182-.288.278-.4.485-.108.2-.357.34-.38.575-.038.418.58.297.851.297.418 0 .656-.04 1.015-.29.194-.136.577-.57.55-.002-.006.132-.176.261-.135.393.05.167.347.185.471.174.273-.024.089-.102.386.017.235.093.2.124.421.007.25-.132.5-.332.788-.402.207-.051.306.029.497.017.218-.013.253-.112.416-.207.153-.089.28-.128.417-.236.144-.114.252-.278.465-.243.204.225-.245.52-.41.62-.128.077-.272.121-.392.211-.13.097-.2.234-.325.338-.136.112-.385.15-.483.3-.175.268.19.367.287.565-.113.194-.484.315-.669.437-.194.128-.396.247-.57.402.13-.047.565-.27.666-.077.148.28-.38.395-.538.46-.25.102-.568.27-.688.52-.139.29.023.379.153.606.115.201.07.549 0 .761-.063.187-.387.432-.597.474-.316.064-.46-.246-.782-.055-.28.166-.403.476-.56.74-.142.242-.37.407-.468.682-.17.479.109.287.41.33.438.061.704.952 1.254.837.198-.041.32-.43.44-.59.166-.22.308-.476.493-.681.172-.19.323-.392.493-.582.123-.137.31-.38.48-.434.136.407-.318.794-.282 1.188.173.125.501-.067.697-.077.278-.014.424.195.683.192a.6.6 0 0 0 .538-.384c.07-.177-.019-.698.33-.632.29.227.172.793.23 1.1.2.083.434-.45.576-.568.476-.396.361.158.59.4.413-.062.032-.868.647-.639.392.147.604.209 1.038.029.117-.05.37-.232.5-.167.239.118.036.542-.053.69-.216.352-.57.738-.967.884-.205.074-.337.1-.473.279a1 1 0 0 0-.184.376c-.019.121.066.258.047.37-.084.517-.911.59-1.177.987-.276.413-.347.979-.272 1.47.08.509.876-.056 1.19-.063.043.417-.542.692-.388 1.111.08.216.284.198.44.332.152.132.101.21.186.394.298.013.633-.284.903-.083.196.147.194.53.084.717-.151.254-.479.313-.636.58-.269.46-.49.839-.596 1.36-.059.29-.157.47-.107.775a.93.93 0 0 0 .329.593c.205.163.476.26.675.078.192-.177.368-.374.621-.483.44-.19.198.147.42.344.152.136.364-.039.496-.148.358-.297.783-.376 1.206-.552.2-.084.424-.087.614-.174.183-.083.346-.259.503-.381.164.099-.17.522-.257.634-.15.195-.33.302-.548.41-.406.203-.92.447-.98.94-.02.152.047.349-.016.491-.084.19-.359.215-.534.276-.178.063-.378.159-.334.4.021.115.19.264.234.386.052.14.078.319.088.468.026.402-.168.314-.509.418-.229.069-.475.261-.693.383a3 3 0 0 1-.508.236c-.28.093-.383.266-.498.536-.13.305-.147.447-.39.678a3.5 3.5 0 0 0-.403.44c-.158.213-.322.466-.364.732-.037.235.049.432-20.828 7.85z"/><path fill="#F7FDFB" d="M66.428 44.396h4.683v7.268a4.16 4.16 0 0 0 1.32 3.025l15.039 14.2h-68l2.566-2.216c.649-.675 22.968-20.736 29.947-27.008a3.09 3.09 0 0 1 4.113.016l9.947 9.084"/><path fill="#3B3B3B" d="m34.063 61.708 18.706-17.51a1.754 1.754 0 0 1 2.376-.012l19.532 17.902-19.093-14.426a2.4 2.4 0 0 0-2.88-.002z"/></svg>