<svg xmlns="http://www.w3.org/2000/svg" width="34" height="34" fill="none" viewBox="0 0 34 34"><g clip-path="url(#a)"><path fill="#2C3B2E" d="m12.334 19.201 4.669 3.192 4.502-3.104 10.089 9.954a2.7 2.7 0 0 1-.844.132H3.25c-.363 0-.71-.07-1.027-.198zm21.166-8.18v15.604c0 .407-.088.793-.247 1.14l-9.89-9.757zm-33 .087 9.97 6.818L.673 27.59a2.7 2.7 0 0 1-.174-.966zm30.25-6.483a2.75 2.75 0 0 1 2.75 2.75v.967L16.997 19.72.5 8.437V7.375a2.75 2.75 0 0 1 2.75-2.75z" clip-rule="evenodd"/></g><defs><clipPath id="a"><path fill="#fff" d="M.5.5h33v33H.5z"/></clipPath></defs></svg>