<svg xmlns="http://www.w3.org/2000/svg" width="29" height="29" fill="none" viewBox="0 0 29 29"><path fill="#232221" d="M14.5 0C10.548 0 6.962 1.59 4.344 4.164c-.033.027-.068.05-.1.08-.03.032-.053.067-.08.1A14.45 14.45 0 0 0 0 14.5c0 2.93.866 5.75 2.505 8.154a1.208 1.208 0 1 0 1.997-1.36A12 12 0 0 1 2.417 14.5c0-2.897 1.026-5.558 2.732-7.641L22.142 23.85a12.03 12.03 0 0 1-7.642 2.732 12.06 12.06 0 0 1-6.04-1.613 1.208 1.208 0 0 0-1.211 2.091A14.5 14.5 0 0 0 14.5 29c3.952 0 7.538-1.59 10.156-4.164q.05-.037.1-.08c.03-.032.053-.067.08-.1A14.45 14.45 0 0 0 29 14.5C29 6.505 22.496 0 14.5 0m9.35 22.142L6.86 5.149a12.03 12.03 0 0 1 7.64-2.732c6.663 0 12.083 5.42 12.083 12.083 0 2.897-1.026 5.558-2.732 7.642"/></svg>