<svg xmlns="http://www.w3.org/2000/svg" width="32" height="34" fill="none" viewBox="0 0 32 34"><g clip-path="url(#a)"><path fill="#3B3B3B" d="M31.425 28.614c-.988 3.002-4.858 4.498-7.623 4.249-3.776-.341-7.884-2.344-11.003-4.55-4.585-3.243-8.88-8.259-11.382-13.581C-.35 10.97-.748 6.346 1.882 2.918 2.855 1.65 3.907.974 5.488.895 7.68.788 7.988 2.043 8.74 3.997c.561 1.461 1.31 2.952 1.728 4.467.783 2.826-1.954 2.945-2.3 5.255-.215 1.457 1.551 3.411 2.35 4.45 1.563 2.035 3.442 3.79 5.563 5.126 1.214.766 3.174 2.146 4.565 1.384 2.142-1.173 1.94-4.784 4.935-3.562 1.55.631 3.052 1.543 4.533 2.34 2.29 1.232 2.182 2.507 1.31 5.157.653-1.98-.653 1.98 0 0" clip-rule="evenodd"/></g><defs><clipPath id="a"><path fill="#fff" d="M0 .889h32v33H0z"/></clipPath></defs></svg>