<svg xmlns="http://www.w3.org/2000/svg" width="36" height="31" fill="none" viewBox="0 0 36 31"><path fill="#2C3B2E" fill-rule="evenodd" d="M2.475 13.343Q16.97 7.028 21.807 5.016C31.013 1.187 32.925.522 34.172.5c.275-.005.888.063 1.285.386.335.272.427.64.472.897.044.258.099.846.055 1.305-.499 5.242-2.657 17.962-3.756 23.833-.464 2.484-1.38 3.317-2.265 3.398-1.925.178-3.387-1.272-5.251-2.494-2.918-1.912-4.566-3.103-7.398-4.97-3.273-2.156-1.151-3.341.714-5.279.488-.507 8.97-8.221 9.134-8.921.02-.088.04-.414-.154-.586-.194-.173-.48-.114-.687-.067q-.438.1-13.982 9.242-1.985 1.363-3.595 1.328c-1.184-.026-3.46-.67-5.153-1.22-2.076-.674-3.726-1.031-3.582-2.177q.112-.896 2.466-1.832" clip-rule="evenodd"/></svg>