<svg xmlns="http://www.w3.org/2000/svg" width="36" height="37" fill="none" viewBox="0 0 36 37"><path fill="#3B3B3B" d="M2.475 18.232q14.495-6.315 19.332-8.327c9.206-3.829 11.118-4.494 12.365-4.516.275-.005.888.063 1.285.385.335.272.427.64.472.898s.099.846.055 1.305c-.499 5.242-2.657 17.962-3.756 23.833-.464 2.484-1.38 3.317-2.265 3.398-1.925.177-3.387-1.272-5.251-2.494-2.918-1.913-4.566-3.103-7.398-4.97-3.273-2.156-1.151-3.342.714-5.279.488-.507 8.97-8.222 9.134-8.922.02-.087.04-.413-.154-.586-.194-.172-.48-.113-.687-.066q-.438.1-13.982 9.242-1.985 1.362-3.595 1.328c-1.184-.026-3.46-.67-5.153-1.22-2.076-.675-3.726-1.031-3.582-2.177q.112-.896 2.466-1.832" clip-rule="evenodd"/></svg>