<svg xmlns="http://www.w3.org/2000/svg" width="32" height="32" fill="none" viewBox="0 0 32 32"><path fill="#2C3B2E" fill-rule="evenodd" d="M25.314 22.594c-.386 1.091-1.919 1.994-3.141 2.258-.837.178-1.928.319-5.605-1.205-4.13-1.711-9.864-7.805-9.864-11.861 0-2.065 1.19-4.469 3.272-4.469 1.002 0 1.222.02 1.552.81.386.932 1.326 3.227 1.438 3.462.463.965-.47 1.53-1.147 2.37-.216.253-.46.527-.187.997.272.461 1.213 1.995 2.595 3.225 1.786 1.591 3.234 2.099 3.752 2.315.386.16.847.123 1.128-.178.357-.386.8-1.026 1.251-1.656.319-.452.724-.508 1.148-.348.286.1 3.926 1.79 4.08 2.06.113.197.113 1.128-.272 2.22M16.004 0h-.009C7.175 0 0 7.177 0 16c0 3.499 1.128 6.744 3.046 9.377l-1.993 5.946 6.149-1.965A15.9 15.9 0 0 0 16.003 32C24.824 32 32 24.823 32 16S24.824 0 16.003 0" clip-rule="evenodd"/></svg>