<svg width="56.000000" height="16.000000" viewBox="0 0 56 16" fill="none" xmlns="http://www.w3.org/2000/svg" xmlns:xlink="http://www.w3.org/1999/xlink">
	<desc>
			Created with Pixso.
	</desc>
	<defs/>
	<path id="usov." d="M38.42 5.83C38.53 5.81 38.61 5.65 38.57 5.52C37.58 2.23 34.62 0 31.37 0C26.97 0 23.93 3.35 23.93 7.9C23.93 12.48 26.97 15.83 31.37 15.83C34.62 15.83 37.58 13.62 38.57 10.28C38.61 10.16 38.53 10.01 38.42 9.97C38.28 9.93 38.16 9.99 38.12 10.14C37.19 13.26 34.44 15.33 31.37 15.33C27.24 15.33 24.38 12.21 24.38 7.9C24.38 3.6 27.24 0.49 31.37 0.49C34.44 0.49 37.19 2.56 38.12 5.67C38.16 5.81 38.28 5.87 38.42 5.83ZM20.91 0.86C21.19 0.97 21.03 1.42 20.76 1.3C18.67 0.53 16.28 0.22 14.74 2C13.49 3.43 13.18 6.06 14.86 7.66C16.77 9.41 19.14 9.06 19.26 10.97C19.32 11.94 18.5 12.62 17.58 12.69C16.36 12.77 14.78 12.44 13.53 11.46C13.28 11.28 13.55 10.91 13.79 11.07C15.01 11.98 17.53 12.75 18.5 11.79C18.97 11.34 18.89 10.59 18.44 10.16C17.53 9.35 13.26 8.81 13.26 4.96C13.26 1.75 15.62 -0.17 18.75 0.29C19.3 0.37 20 0.53 20.91 0.86ZM10.18 0.55C10.18 0.43 10.28 0.33 10.41 0.33C10.53 0.33 10.63 0.43 10.63 0.55L10.63 10.1C10.63 13.47 8.29 15.67 5.31 15.67C2.25 15.67 0 13.37 0 10.1L0 0.55C0 0.43 0.09 0.33 0.23 0.33C0.35 0.33 0.44 0.43 0.44 0.55L0.44 10.1C0.44 13.12 2.49 15.19 5.31 15.19C8.02 15.19 10.18 13.2 10.18 10.1L10.18 0.55ZM2.82 0.55C2.82 0.43 2.92 0.33 3.03 0.33C3.15 0.33 3.25 0.43 3.25 0.55L3.25 9.93C3.25 11.24 4.1 12.17 5.31 12.17C6.54 12.17 7.38 11.24 7.38 9.93L7.38 0.55C7.38 0.43 7.47 0.33 7.59 0.33C7.73 0.33 7.82 0.43 7.82 0.55L7.82 9.93C7.82 11.5 6.77 12.62 5.31 12.62C3.85 12.62 2.82 11.5 2.82 9.93L2.82 0.55ZM51.28 0.68C51.33 0.55 51.45 0.51 51.59 0.55C51.68 0.6 51.74 0.74 51.7 0.84L45.94 15.83C45.86 16.06 45.61 16.04 45.53 15.83L39.79 0.84C39.75 0.74 39.81 0.6 39.9 0.55C40.02 0.51 40.16 0.55 40.21 0.68L45.75 15.13L51.28 0.68ZM42.82 0.84C42.79 0.74 42.82 0.6 42.96 0.55C43.08 0.51 43.19 0.55 43.23 0.68L45.75 7.18L48.24 0.68C48.28 0.55 48.41 0.51 48.53 0.55C48.65 0.6 48.69 0.74 48.65 0.84L45.94 7.9C45.88 8.09 45.61 8.11 45.53 7.9L42.82 0.84ZM27.55 9.99C27.45 10.06 27.41 10.22 27.47 10.33C28.27 11.82 29.75 12.77 31.37 12.77C33.88 12.77 35.87 10.55 35.87 7.9C35.87 5.27 33.88 3.06 31.37 3.06C29.75 3.06 28.27 3.99 27.47 5.48C27.41 5.61 27.45 5.75 27.55 5.83C27.67 5.9 27.82 5.85 27.88 5.73C28.58 4.38 29.91 3.54 31.37 3.54C33.63 3.54 35.4 5.52 35.4 7.9C35.4 10.28 33.63 12.27 31.37 12.27C29.91 12.27 28.58 11.42 27.88 10.08C27.82 9.97 27.67 9.93 27.55 9.99ZM13.18 14.57C12.93 14.42 13.14 14.01 13.42 14.16C15.66 15.4 18.81 15.79 20.54 13.95C21.87 12.52 22.16 9.93 20.5 8.32C18.6 6.41 16.18 6.81 16.06 4.92C16.03 3.97 16.73 3.27 17.62 3.22C18.56 3.16 19.43 3.35 20.56 3.85C20.84 3.97 20.66 4.4 20.39 4.28C19.71 3.99 18.52 3.6 17.6 3.7C17.02 3.78 16.49 4.16 16.51 4.86C16.51 5.17 16.67 5.5 16.94 5.73C17.82 6.43 22.08 7.2 22.08 10.95C22.08 14.69 18.95 16.31 15.4 15.42C14.7 15.25 13.96 14.98 13.18 14.57ZM55.85 12.85C55.6 12.23 55.07 11.73 54.22 11.73C53.36 11.73 52.83 12.23 52.58 12.85C52.09 14.13 52.87 15.5 54.22 15.5C55.54 15.5 56.34 14.11 55.85 12.85ZM54.22 12.21C54.84 12.21 55.29 12.56 55.44 13.04C55.81 14.01 55.25 15.02 54.22 15.02C53.18 15.02 52.62 14.03 52.97 13.04C53.14 12.58 53.57 12.21 54.22 12.21Z" fill="#F7FDFB" fill-opacity="1.000000" fill-rule="evenodd"/>
</svg>
