<svg xmlns="http://www.w3.org/2000/svg" width="12" height="26" viewBox="0 0 12 26" fill="none">
  <path fillRule="evenodd" clip-rule="evenodd" d="M5.29289 25.7071C5.68342 26.0976 6.31658 26.0976 6.70711 25.7071L10.7071 21.7071C11.0976 21.3166 11.0976 20.6834 10.7071 20.2929C10.3166 19.9024 9.68342 19.9024 9.29289 20.2929L6 23.5858L2.70711 20.2929C2.31658 19.9024 1.68342 19.9024 1.29289 20.2929C0.902369 20.6834 0.902369 21.3166 1.29289 21.7071L5.29289 25.7071Z" fill="#232221"/>
  <path fillRule="evenodd" clip-rule="evenodd" d="M6 22C6.55228 22 7 21.5523 7 21L7 1C7 0.447716 6.55228 0 6 0C5.44772 0 5 0.447716 5 1L5 21C5 21.5523 5.44772 22 6 22Z" fill="#232221"/>
</svg>