<svg width="54" height="46" viewBox="0 0 54 46" fill="none" xmlns="http://www.w3.org/2000/svg">
  <path fill-rule="evenodd" clip-rule="evenodd" d="M0.749036 27.5075V43.625C0.749036 44.66 1.63104 45.5 2.71779 45.5H6.95454C7.42078 45.5001 7.87192 45.3426 8.22764 45.0555C8.58336 44.7685 8.82057 44.3705 8.89704 43.9325L9.93653 38H44.0615L45.0984 43.9325C45.1749 44.3705 45.4121 44.7685 45.7678 45.0555C46.1235 45.3426 46.5747 45.5001 47.0409 45.5H51.2803C51.8024 45.5 52.3032 45.3025 52.6724 44.9508C53.0416 44.5992 53.249 44.1223 53.249 43.625V27.5075C53.2492 24.5686 52.3358 21.6953 50.624 19.25L48.5765 16.325C48.3939 16.0646 48.2375 15.7884 48.1093 15.5H50.7185C51.0843 15.5 51.4429 15.4029 51.754 15.2197C52.0652 15.0364 52.3165 14.7742 52.4799 14.4625L53.1362 13.2125C53.2859 12.9268 53.3566 12.6095 53.3415 12.2905C53.3264 11.9715 53.226 11.6615 53.0498 11.3899C52.8737 11.1182 52.6276 10.8939 52.3349 10.7381C52.0422 10.5824 51.7127 10.5004 51.3774 10.5H46.949L46.1353 6.635C45.8877 5.45789 45.2894 4.37359 44.4119 3.51173C43.5345 2.64988 42.4149 2.04694 41.1872 1.775C37.3494 0.925001 32.6192 0.5 26.999 0.5C21.3763 0.5 16.6487 0.925001 12.8109 1.775C11.5827 2.04652 10.4626 2.64927 9.58459 3.51115C8.70661 4.37304 8.10793 5.45757 7.86016 6.635L7.04641 10.5H2.62329C2.28803 10.5004 1.95844 10.5824 1.66577 10.7381C1.37309 10.8939 1.12701 11.1182 0.950867 11.3899C0.77472 11.6615 0.674335 11.9715 0.659227 12.2905C0.644119 12.6095 0.714788 12.9268 0.864536 13.2125L1.52079 14.4625C1.68398 14.7738 1.93493 15.0358 2.24554 15.219C2.55615 15.4022 2.91417 15.4995 3.27954 15.5H5.89141C5.76314 15.7883 5.60671 16.0645 5.42416 16.325L3.37404 19.25C1.66254 21.695 0.749036 24.5675 0.749036 27.5075ZM42.6467 15.51C42.8275 16.3747 43.1276 17.2128 43.5392 18.0025H10.4589C10.871 17.215 11.1703 16.3775 11.3514 15.51L13.0104 7.6175C13.0594 7.38153 13.1788 7.16403 13.3543 6.99108C13.5299 6.81814 13.7541 6.69711 14 6.6425C17.4073 5.8925 21.749 5.5 26.999 5.5C32.249 5.5 36.5908 5.89 39.998 6.645C40.2441 6.699 40.4687 6.81947 40.6447 6.99197C40.8207 7.16447 40.9407 7.38166 40.9903 7.6175L42.6467 15.51ZM9.93653 30.5C10.9808 30.5 11.9823 30.1049 12.7208 29.4017C13.4592 28.6984 13.874 27.7446 13.874 26.75C13.874 25.7554 13.4592 24.8016 12.7208 24.0983C11.9823 23.3951 10.9808 23 9.93653 23C8.89225 23 7.89073 23.3951 7.1523 24.0983C6.41388 24.8016 5.99904 25.7554 5.99904 26.75C5.99904 27.7446 6.41388 28.6984 7.1523 29.4017C7.89073 30.1049 8.89225 30.5 9.93653 30.5ZM47.999 26.75C47.999 27.7446 47.5842 28.6984 46.8458 29.4017C46.1073 30.1049 45.1058 30.5 44.0615 30.5C43.0172 30.5 42.0157 30.1049 41.2773 29.4017C40.5389 28.6984 40.124 27.7446 40.124 26.75C40.124 25.7554 40.5389 24.8016 41.2773 24.0983C42.0157 23.3951 43.0172 23 44.0615 23C45.1058 23 46.1073 23.3951 46.8458 24.0983C47.5842 24.8016 47.999 25.7554 47.999 26.75Z" fill="#F7FDFB" />
</svg>