<svg xmlns="http://www.w3.org/2000/svg" width="56" height="56" viewBox="0 0 56 56" fill="none">
  <g clip-path="url(#clip0_1236_173)">
    <path d="M34.6133 22.2403H38.0185C38.7904 22.2403 39.4182 21.7202 39.4182 21.0806L39.4282 20.9866L43.1299 3.28471C43.1035 2.66431 42.4857 2.16699 41.7312 2.16699H34.9701C37.3999 4.56119 38.9492 8.13513 38.9492 12.1279C38.9491 16.0057 37.4774 19.3918 34.6133 22.2403Z" fill="#F7FDFB"/>
    <path d="M17.6006 22.2403H20.9273C18.0649 19.3981 16.5932 16.0313 16.5932 12.1845C16.5932 8.16805 18.1471 4.57121 20.5851 2.16699H13.888C13.1334 2.16699 12.5165 2.66421 12.4893 3.28471L16.201 21.0806C16.2009 21.7202 16.8286 22.2403 17.6006 22.2403Z" fill="#F7FDFB"/>
    <path d="M33.9453 39.3018C32.0311 39.9614 29.9525 40.3365 27.7719 40.3365C25.4269 40.3365 23.1934 39.914 21.1622 39.1567L18.8711 54.9061C18.8757 55.4801 19.4897 56.0001 20.2443 56.0001H34.8431C35.5977 56.0001 36.2118 55.4801 36.2118 54.8404L33.9453 39.3018Z" fill="#F7FDFB"/>
    <path d="M10.6636 26.8027H10.9902H11.4327H11.9081C12.3725 31.6184 15.7028 35.7371 20.431 37.8677C20.5861 37.9379 20.7486 37.9981 20.9064 38.0639C21.036 38.1177 21.1646 38.1733 21.296 38.2244C23.2768 38.9891 25.464 39.4253 27.7696 39.4253C29.9075 39.4253 31.9459 39.0557 33.8108 38.3933C33.944 38.3459 34.0717 38.2911 34.2031 38.2409C34.3637 38.1797 34.5197 38.1114 34.6767 38.0456C39.6293 35.9754 43.154 31.7626 43.632 26.8027H44.1111H44.5509H45.3356C46.0921 26.8027 46.7043 26.1905 46.7043 25.4341C46.7043 24.6777 46.0921 24.0654 45.3356 24.0654H32.5206H32.3674H23.1766H23.0233H10.6636C9.90721 24.0654 9.29492 24.6777 9.29492 25.4341C9.29492 26.1905 9.90712 26.8027 10.6636 26.8027Z" fill="#F7FDFB"/>
    <path d="M22.2488 22.2403C22.5955 22.5497 22.9459 22.8571 23.3309 23.1527H32.2133C32.5974 22.858 32.9478 22.5496 33.2945 22.2403C36.4324 19.4346 38.0364 16.0432 38.0364 12.128C38.0364 8.00386 36.2817 4.3596 33.6121 2.16701C33.1932 1.82304 32.7498 1.52285 32.29 1.25464C30.9241 0.458955 29.3948 0 27.7717 0C26.153 0 24.6266 0.458955 23.2643 1.25454C22.8045 1.52285 22.361 1.82304 21.9431 2.16692C19.266 4.36857 17.5068 8.03563 17.5068 12.1845C17.5068 16.0659 19.111 19.4392 22.2488 22.2403Z" fill="#F7FDFB"/>
  </g>
  <defs>
    <clipPath id="clip0_1236_173">
      <rect width="56" height="56" fill="white"/>
    </clipPath>
  </defs>
</svg>