<svg xmlns="http://www.w3.org/2000/svg" width="56" height="56" viewBox="0 0 56 56" fill="none">
  <g clip-path="url(#clip0_1236_1792)">
    <path d="M37.5101 20.9554L52.5636 5.99443L52.5146 14.4749C52.4987 15.1819 53.0596 15.7971 53.7676 15.7813L54.6653 15.7804C55.3732 15.7638 55.9586 15.3429 55.9734 14.6359L56.0102 2.00268C56.0102 1.99049 55.9621 1.98086 55.9621 1.96861L56.0312 1.32811C56.0382 0.972863 55.9551 0.656113 55.7258 0.429543C55.4992 0.201168 55.1816 0.062043 54.8289 0.071668L54.1893 0.086543C54.1771 0.086543 54.1675 0.090918 54.1543 0.0927227L41.6043 0.0375977C40.8973 0.0533477 40.3119 0.637848 40.2962 1.34572L40.2944 2.24353C40.402 3.0774 41.0574 3.56478 41.7644 3.54903L50.0358 3.5709L35.0356 18.48C34.3522 19.1634 34.3522 20.2712 35.0356 20.9554C35.719 21.6379 36.8267 21.6379 37.5101 20.9554ZM18.5436 35.0444L3.49011 49.9588L3.53823 41.5247C3.55486 40.8168 2.99305 40.2017 2.28605 40.2174L1.33323 40.2192C0.624483 40.2367 0.0399285 40.6567 0.0250535 41.3646L-0.0116965 53.9978C-0.0116965 54.0101 0.0364285 54.0179 0.0364285 54.0319L-0.0326965 54.6706C-0.0405715 55.0259 0.0425535 55.3444 0.272679 55.5693C0.498429 55.7986 0.816929 55.9368 1.16868 55.9281L1.80918 55.9123C1.82137 55.9123 1.83012 55.9071 1.84418 55.9071L14.4494 55.9622C15.1564 55.9447 15.7409 55.3601 15.7575 54.6532L15.7592 53.7546C15.6517 52.9224 14.9962 52.4333 14.2892 52.4491L6.01793 52.4272L21.0172 37.5198C21.7006 36.8364 21.7006 35.7287 21.0172 35.0453C20.3338 34.3619 19.2269 34.3611 18.5435 35.0444H18.5436ZM56.0112 53.9969L55.9744 41.3636C55.9587 40.6557 55.3733 40.2357 54.6663 40.2182L53.7685 40.2164C53.0607 40.2006 52.5007 40.8166 52.5155 41.5236L52.5645 50.0041L37.5102 35.0443C36.8268 34.3609 35.719 34.3609 35.0357 35.0443C34.3523 35.7276 34.3523 36.8354 35.0357 37.5188L50.0349 52.4261L41.7644 52.448C41.0574 52.4323 40.402 52.9215 40.2944 53.7535L40.2962 54.6521C40.3128 55.36 40.8982 55.9446 41.6043 55.9611L54.1553 55.9061C54.1684 55.9061 54.178 55.9113 54.1903 55.9113L54.8299 55.927C55.1825 55.9358 55.501 55.7975 55.7268 55.5683C55.9561 55.3425 56.0383 55.0249 56.0322 54.6696L55.9631 54.0309C55.9631 54.0169 56.0112 54.0091 56.0112 53.9969L56.0112 53.9969ZM6.01798 3.57227L14.2902 3.55056C14.9972 3.56631 15.6526 3.07806 15.7602 2.245L15.7585 1.34643C15.7409 0.638613 15.1563 0.0531836 14.4503 0.0383086L1.84418 0.0925586C1.83018 0.0908086 1.82143 0.0864336 1.80918 0.0864336L1.16868 0.0715039C0.816983 0.0619336 0.497608 0.201059 0.272679 0.429379C0.0425535 0.656004 -0.0405168 0.972754 -0.0326965 1.328L0.0364285 1.9685C0.0364285 1.9807 -0.0116965 1.9895 -0.0116965 2.00263L0.0250535 14.6359C0.0408035 15.3429 0.625358 15.7638 1.33323 15.7804L2.28611 15.7812C2.99311 15.7969 3.55393 15.1818 3.53818 14.4748L3.49005 6.0407L18.5436 20.9551C19.2261 21.6385 20.3347 21.6385 21.0182 20.9551C21.7016 20.2716 21.7015 19.1631 21.0182 18.4797L6.01798 3.57227Z" fill="#F7FDFB"/>
  </g>
  <defs>
    <clipPath id="clip0_1236_1792">
      <rect width="56" height="56" fill="white"/>
    </clipPath>
  </defs>
</svg>