<svg xmlns="http://www.w3.org/2000/svg" width="57" height="56" viewBox="0 0 57 56" fill="none">
  <g clip-path="url(#clip0_1236_90)">
    <path d="M20.3639 20.787C23.0631 20.787 25.2512 18.5163 25.2512 15.7153C25.2512 12.9142 23.0631 10.6436 20.3639 10.6436C17.6647 10.6436 15.4766 12.9142 15.4766 15.7153C15.4766 18.5163 17.6647 20.787 20.3639 20.787Z" fill="#F7FDFB"/>
    <path d="M28.5092 8.95273C30.7585 8.95273 32.5819 7.06052 32.5819 4.72637C32.5819 2.39221 30.7585 0.5 28.5092 0.5C26.2599 0.5 24.4365 2.39221 24.4365 4.72637C24.4365 7.06052 26.2599 8.95273 28.5092 8.95273Z" fill="#F7FDFB"/>
    <path d="M34.2106 25.8584C37.3596 25.8584 39.9124 23.2093 39.9124 19.9414C39.9124 16.6735 37.3596 14.0244 34.2106 14.0244C31.0616 14.0244 28.5088 16.6735 28.5088 19.9414C28.5088 23.2093 31.0616 25.8584 34.2106 25.8584Z" fill="#F7FDFB"/>
    <path d="M52.9454 29.2397H4.07262C2.27309 29.2397 0.814453 30.7534 0.814453 32.6209C0.814453 34.4883 2.27309 36.002 4.07262 36.002V36.0023H52.9453V36.002C54.7449 36.002 56.2035 34.4883 56.2035 32.6209C56.2036 30.7534 54.7449 29.2397 52.9454 29.2397Z" fill="#F7FDFB"/>
    <path d="M4.07227 36.9043V39.4398C4.07227 44.9601 7.47287 49.6539 12.2177 51.3948V55.5001H17.105V52.119H39.9123V55.5001H44.7996V51.3948C49.5447 49.6538 52.9451 44.9599 52.9451 39.4398V36.9043H4.07227Z" fill="#F7FDFB"/>
  </g>
  <defs>
    <clipPath id="clip0_1236_90">
      <rect width="56" height="55" fill="white" transform="translate(0.5 0.5)"/>
    </clipPath>
  </defs>
</svg>