<svg xmlns="http://www.w3.org/2000/svg" width="56" height="56" viewBox="0 0 56 56" fill="none">
  <g clip-path="url(#clip0_1236_1254)">
    <path d="M42.5515 20.3228H32.101C31.0899 20.3228 30.2471 21.1655 30.2471 22.1768V24.0309V25.885C30.2471 26.8962 31.0899 27.739 32.101 27.739H43.1133C44.1246 27.739 44.9674 26.8962 44.9674 25.885V24.0309V22.7948V22.1768C44.9674 21.1655 44.1246 20.3228 43.1133 20.3228H42.5515Z" fill="#F7FDFB"/>
    <path d="M-0.935547 41.1113V50.9999H2.71645V47.348H53.0581V51H56.7101V41.1114H-0.935547V41.1113Z" fill="#F7FDFB"/>
    <path d="M53.1709 8.01855V13.9741L53.1147 13.9179V13.9741C50.9235 11.8391 47.8895 10.4906 44.5184 10.4906H11.4255C8.11067 10.4906 5.07666 11.8391 2.82926 13.9741V13.9179L2.77298 13.9741V8.01855H-0.878906V30.0992C-0.0361189 28.7506 1.25615 27.6832 3.44737 27.6832H4.68347H10.1334C9.74007 27.1774 9.51528 26.5032 9.51528 25.8291V22.1771C9.51528 20.4915 10.9199 19.0869 12.6055 19.0869H12.7179H23.6177H23.7301C25.4157 19.0869 26.8203 20.4915 26.8203 22.1771V25.8291C26.8203 26.5032 26.5955 27.1775 26.2023 27.6832H29.7981C29.4048 27.1774 29.18 26.5032 29.18 25.8291V22.1771C29.18 20.4915 30.5846 19.0869 32.2702 19.0869H32.3825H43.2825H43.3948C45.0804 19.0869 46.2603 20.4915 46.2603 22.1771V25.8291C46.2603 26.5032 46.0355 27.1775 45.6422 27.6832H51.3169H52.553C54.6881 27.6832 56.0365 28.7506 56.8792 30.0992V8.01855H53.1709Z" fill="#F7FDFB"/>
    <path d="M12.4371 27.6272H23.4493C24.4606 27.6272 25.3033 26.7844 25.3033 25.7731V23.9191V22.683V22.065C25.3033 21.0537 24.4606 20.2109 23.4493 20.2109H22.8313H12.4371C11.4258 20.2109 10.583 21.0537 10.583 22.065V23.9191V25.7731C10.6392 26.8407 11.482 27.6272 12.4371 27.6272Z" fill="#F7FDFB"/>
    <path d="M56.8227 35.1559C56.6541 35.0996 56.4293 35.0435 56.2047 35.0435H55.7552C55.6989 35.0435 -0.261032 35.0435 -0.261032 35.0435H-0.317319C-0.48583 35.0435 -0.710628 35.0997 -0.879138 35.1559C-1.55342 35.3806 -2.11523 36.111 -2.11523 36.8975V38.1336C-2.11523 38.9764 -1.60959 39.5945 -0.879138 39.8754C-0.71051 39.9317 -0.48583 39.9877 -0.261032 39.9877H56.2608C56.3733 39.9877 56.4856 39.9877 56.598 39.9316C56.7103 39.9316 56.7666 39.8753 56.8789 39.8753C57.5531 39.6506 58.115 38.9201 58.115 38.1335V36.8974C58.0588 36.111 57.5531 35.4368 56.8227 35.1559Z" fill="#F7FDFB"/>
    <path d="M56.7107 33.1334C56.4297 31.5041 55.4746 28.8633 52.553 28.8633H45.6985H3.3912C0.469529 28.8633 -0.485598 31.5041 -0.766448 33.1334C-0.822619 33.3581 -0.822619 33.5829 -0.878906 33.7515H55.924H56.8229C56.7668 33.5829 56.7668 33.3581 56.7107 33.1334Z" fill="#F7FDFB"/>
  </g>
  <defs>
    <clipPath id="clip0_1236_1254">
      <rect width="56" height="56" fill="white"/>
    </clipPath>
  </defs>
</svg>