<svg width="108" height="106" viewBox="0 0 108 106" fill="none" xmlns="http://www.w3.org/2000/svg">
<path d="M1.04276 76.9009C0.994472 76.6448 0.447154 76.3566 0.447154 76.3566H1.62228L4.7613 76.3246C6.54813 76.3246 7.99691 77.7815 7.99691 79.5587C7.99691 80.7275 7.36911 81.7522 6.41935 82.3126C8.12569 82.4727 9.46179 83.8976 9.46179 85.6268C9.46179 87.468 7.96472 88.941 6.1135 88.941H0.463252C0.463252 88.941 0.994472 88.6528 1.02667 88.3806C1.10715 87.532 1.21984 85.6908 1.21984 82.6648C1.21984 79.6548 1.18764 77.7175 1.04276 76.9009ZM8.12569 85.6268C8.12569 84.2018 6.99886 82.905 5.56618 82.8409C5.13155 82.8249 4.53593 82.8089 3.94033 82.8089C3.52179 82.8089 3.10325 82.8249 2.73301 82.8249C2.73301 85.6428 2.84569 87.42 2.92618 88.2845C3.77935 88.3486 4.7935 88.4286 5.50179 88.4286C6.93447 88.4286 8.12569 87.0517 8.12569 85.6268ZM4.26228 76.8689H3.92423C3.60228 76.8689 3.26423 76.8849 2.94228 76.9009C2.87789 77.7655 2.74911 79.6708 2.73301 82.2645H4.18179C5.56618 82.2645 6.70911 80.9356 6.70911 79.5587C6.70911 78.1818 5.63057 76.933 4.26228 76.8689Z" fill="#F7FDFB"/>
<path d="M15.231 82.7609L13.1866 82.7769V83.4173C13.1866 86.0751 13.2832 87.7562 13.3959 88.4447C13.4281 88.7489 13.9432 88.941 13.9432 88.941H10.9169C10.9169 88.941 11.432 88.6688 11.4803 88.3966C11.5447 87.5641 11.6734 85.6908 11.6734 82.6488C11.6734 79.6388 11.5608 77.6855 11.4481 76.7408C11.4159 76.5327 10.9169 76.3566 10.9169 76.3566H12.092L15.2149 76.3246C17.0017 76.3246 18.4505 77.7815 18.4505 79.5587C18.4505 81.3199 17.0178 82.7609 15.231 82.7609ZM14.7159 76.8689H14.3456C14.0398 76.8689 13.7017 76.8689 13.3959 76.8849C13.3315 77.7495 13.2027 79.6708 13.1866 82.2485H14.6354C16.0198 82.2485 17.1627 80.9196 17.1627 79.5587C17.1627 78.1818 16.0842 76.933 14.7159 76.8689Z" fill="#F7FDFB"/>
<path d="M20.4726 88.3646C20.537 87.5801 20.6497 85.7709 20.6497 82.6168C20.6497 79.8149 20.5209 77.7975 20.4405 76.8849C20.4083 76.5967 19.8931 76.3566 19.8931 76.3566H25.978C27.6361 76.3566 28.8273 76.1484 28.8273 76.1484C28.8273 76.1484 28.6341 76.933 28.5375 77.5734C28.4409 78.3899 28.4248 79.7989 28.4248 79.7989C28.4248 79.7989 27.7648 76.8849 25.8653 76.8849H22.3722C22.2917 77.7815 22.179 79.7348 22.1629 82.3766L24.5936 82.3606C25.9619 82.3286 26.2678 81.496 26.2678 81.496V83.8016C26.2678 83.8016 25.9136 82.969 24.6097 82.921H22.1629C22.179 85.8829 22.3078 87.6761 22.3722 88.4447H25.8814C27.7648 88.4286 28.4248 85.4827 28.4248 85.4827C28.4248 85.4827 28.4409 86.9076 28.5375 87.7082C28.6341 88.3486 28.8273 89.1491 28.8273 89.1491C28.8273 89.1491 27.6361 88.941 25.978 88.941H19.8931C19.8931 88.941 20.4083 88.6528 20.4726 88.3646Z" fill="#F7FDFB"/>
<path d="M37.947 82.6328C38.0758 83.2092 38.2046 83.8176 38.3173 84.2979C38.4783 83.8016 38.6392 83.2572 38.8002 82.6968C39.6534 79.7989 40.2812 77.8776 40.2812 77.045C40.2812 76.7088 39.8627 76.4046 39.7339 76.3566H43.4846C43.4846 76.3566 42.8246 76.5327 42.8246 77.0931C42.8246 77.1251 42.8407 77.1571 42.8407 77.2051C42.9856 78.1498 43.2753 79.927 43.9031 82.6488C44.4666 85.1465 45.0139 87.0357 45.3197 88.0604C45.5129 88.7008 46.0602 88.941 46.0602 88.941H42.6797C42.6797 88.941 43.4363 88.5888 43.4363 88.0764C43.4363 87.0037 42.9534 85.0984 42.39 82.6488C41.7622 79.927 41.2471 78.1017 40.9573 77.1571L37.6251 88.909H37.609C37.609 88.909 37.3192 86.5074 36.4339 82.6328C35.8222 79.927 35.3071 78.1178 35.0173 77.1731L31.9588 87.9643C31.9427 88.0284 31.9427 88.0764 31.9427 88.1244C31.9427 88.6688 32.7153 88.941 32.7153 88.941H30.1075C30.1075 88.941 30.9607 88.4607 31.17 87.9003C31.5241 86.9076 32.2002 85.0024 32.9568 82.4246C33.7295 79.7829 34.1963 77.9897 34.3734 77.1091C34.3734 77.0771 34.3895 77.0611 34.3895 77.029C34.3895 76.6448 33.7778 76.3566 33.7778 76.3566H37.5124C37.5124 76.3566 36.8685 76.5167 36.8685 77.0771C36.8685 77.1091 36.8846 77.1411 36.8846 77.1891C37.0295 78.1338 37.3192 79.911 37.947 82.6328Z" fill="#F7FDFB"/>
<path d="M51.1839 79.5587C51.1839 80.9356 52.3268 82.2645 53.7112 82.2645H55.7073V81.0637C55.7073 79.4787 55.6912 78.0537 55.5946 77.3172C55.5785 77.1731 55.5141 77.045 55.4337 76.933C55.0312 76.9009 54.5644 76.8689 54.1298 76.8689C53.9527 76.8689 53.7917 76.8689 53.6307 76.8849C52.2624 76.949 51.1839 78.1818 51.1839 79.5587ZM57.3815 87.9803C57.4459 88.6368 58.1541 88.941 58.1541 88.941H54.7576C54.7576 88.941 55.498 88.4286 55.5463 87.8843C55.6107 86.9076 55.7073 85.2105 55.7073 82.7929L54.6127 82.7769L50.3307 88.0924C50.2663 88.1725 50.2502 88.2685 50.2502 88.3326C50.2502 88.7168 50.9585 88.941 50.9585 88.941L47.1917 88.925C47.1917 88.925 48.2541 88.5407 48.9946 87.516L49.0268 87.484L52.8419 82.7448C51.1839 82.6168 49.8961 81.2398 49.8961 79.5587C49.8961 77.7815 51.3449 76.3406 53.1317 76.3406L56.2868 76.3566H58.2024C58.2024 76.3566 57.4619 76.6448 57.3976 77.2852C57.3171 78.3099 57.2205 80.1831 57.2205 82.6488C57.2205 85.2585 57.301 87.0037 57.3815 87.9803Z" fill="#F7FDFB"/>
<path d="M73.7319 88.0444C73.9251 88.6848 74.4724 88.957 74.4724 88.957H71.0758C71.0758 88.957 71.8646 88.5567 71.8646 88.0444C71.8646 86.9717 71.3817 85.0824 70.8183 82.6328C70.2066 79.975 69.6914 78.1818 69.4017 77.2212L66.3431 88.0284C66.327 88.0764 66.327 88.1405 66.327 88.1885C66.327 88.7168 67.0997 88.957 67.0997 88.957H64.4758C64.4758 88.957 65.3934 88.4607 65.5705 87.9483C65.9407 86.9236 66.6007 85.0664 67.3251 82.5847C68.1622 79.7028 68.7739 77.7495 68.7739 77.013C68.7739 76.6128 68.1461 76.3566 68.1461 76.3566H71.8968C71.8968 76.3566 71.2368 76.5167 71.2368 77.0771C71.2368 77.1091 71.2529 77.1411 71.2529 77.1891C71.3978 78.1338 71.7036 79.911 72.3314 82.6328C72.8949 85.1304 73.4261 87.0197 73.7319 88.0444Z" fill="#F7FDFB"/>
<path d="M76.4997 88.3646C76.5641 87.5801 76.6768 85.7709 76.6768 82.6168C76.6768 79.8149 76.548 77.7975 76.4675 76.8849C76.4353 76.5967 75.9202 76.3566 75.9202 76.3566H82.0051C83.6631 76.3566 84.8543 76.1484 84.8543 76.1484C84.8543 76.1484 84.6612 76.933 84.5646 77.5734C84.468 78.3899 84.4519 79.7989 84.4519 79.7989C84.4519 79.7989 83.7919 76.8849 81.8924 76.8849H78.3992C78.3187 77.7815 78.206 79.7348 78.1899 82.3766L80.6207 82.3606C81.989 82.3286 82.2948 81.496 82.2948 81.496V83.8016C82.2948 83.8016 81.9407 82.969 80.6368 82.921H78.1899C78.206 85.8829 78.3348 87.6761 78.3992 88.4447H81.9085C83.7919 88.4286 84.4519 85.4827 84.4519 85.4827C84.4519 85.4827 84.468 86.9076 84.5646 87.7082C84.6612 88.3486 84.8543 89.1491 84.8543 89.1491C84.8543 89.1491 83.6631 88.941 82.0051 88.941H75.9202C75.9202 88.941 76.4353 88.6528 76.4997 88.3646Z" fill="#F7FDFB"/>
<path d="M87.9375 80.4873C87.8731 81.0157 87.8248 81.528 87.8248 82.0404C87.8248 82.5687 87.8731 83.0811 87.9858 83.6254C88.1951 84.6021 88.7102 85.6908 89.1126 86.3152C89.9819 87.6441 91.479 88.4607 93.1048 88.4607C93.4429 88.4607 93.797 88.4286 94.1512 88.3486C95.6161 88.0284 96.7751 87.0837 97.4029 85.8509L97.0487 87.9323C96.9683 87.9003 96.8073 87.9483 96.6785 88.0444C95.9863 88.5247 95.1814 88.8769 94.2961 89.0691C93.8131 89.1651 93.3302 89.2292 92.8634 89.2292C89.7726 89.2292 86.9878 87.0837 86.2956 83.9617C86.199 83.4813 86.1346 83.001 86.1346 82.5367C86.1346 79.4627 88.2917 76.6928 91.4307 76.0043C91.9136 75.8923 92.4126 75.8442 92.8956 75.8442C93.7809 75.8442 94.6502 76.0204 95.439 76.3566C95.5034 76.3886 95.8092 76.3246 95.8575 76.1965L96.437 78.47C95.5356 77.3332 94.1351 76.6288 92.638 76.6288C92.3 76.6288 91.9619 76.6608 91.6239 76.7408C89.7083 77.1571 88.179 78.6621 87.9375 80.4873Z" fill="#F7FDFB"/>
<path d="M101.153 82.3766H103.986C103.391 79.8149 102.892 78.0857 102.618 77.1731L101.153 82.3766ZM97.7242 88.941C97.7242 88.941 98.5613 88.5407 98.7867 87.9483C99.9296 84.8903 100.992 81.1438 101.974 76.9009V76.8689C101.974 76.6128 101.394 76.3566 101.394 76.3566H105.129C105.129 76.3566 104.485 76.5327 104.485 77.0931C104.485 77.1251 104.501 77.1571 104.501 77.2051C104.646 78.1498 104.936 79.927 105.564 82.6488C106.127 85.1465 106.674 87.0357 106.98 88.0604C107.173 88.7008 107.705 88.941 107.705 88.941H104.308C104.308 88.941 105.097 88.5727 105.097 88.0604C105.097 87.0357 104.63 85.2265 104.115 82.905H100.992L99.5593 88.0124C99.5432 88.0604 99.5432 88.1244 99.5432 88.1725C99.5432 88.7008 100.332 88.941 100.332 88.941H97.7242Z" fill="#F7FDFB"/>
<path d="M4.62358 97.0513C5.55366 97.0513 6.2065 96.9801 6.2065 96.9801C6.2065 96.9801 6.09024 97.416 6.04553 97.7718C5.98293 98.2165 5.98293 99.0082 5.98293 99.0082C5.98293 99.0082 5.61626 97.3537 4.56098 97.3537H3.62195C3.58618 97.7985 3.51463 98.8036 3.51463 100.164V100.574C3.52358 102.024 3.55935 103.287 3.60407 103.58C3.64878 103.874 4.03333 104.069 4.03333 104.069H2.14634C2.14634 104.069 2.53089 103.954 2.57561 103.58C2.62927 103.082 2.66504 102.237 2.66504 101.009V100.574C2.64715 98.9815 2.58455 97.8429 2.54878 97.3537H1.57398C0.563415 97.416 0.223577 99.0082 0.223577 99.0082C0.223577 99.0082 0.223577 98.2165 0.160976 97.7718C0.11626 97.416 0 96.9801 0 96.9801C0 96.9801 0.652846 97.0513 1.58293 97.0513H4.62358Z" fill="#F7FDFB"/>
<path d="M7.33704 103.749C7.37281 103.313 7.43541 102.308 7.43541 100.556C7.43541 98.9993 7.36386 97.8785 7.31915 97.3715C7.30126 97.2114 7.01508 97.078 7.01508 97.078H10.3956C11.3167 97.078 11.9785 96.9623 11.9785 96.9623C11.9785 96.9623 11.8712 97.3982 11.8175 97.754C11.7639 98.2076 11.7549 98.9904 11.7549 98.9904C11.7549 98.9904 11.3883 97.3715 10.333 97.3715H8.39232C8.34761 97.8696 8.285 98.9548 8.27606 100.422L9.62647 100.414C10.3866 100.396 10.5565 99.9332 10.5565 99.9332V101.214C10.5565 101.214 10.3598 100.752 9.63541 100.725H8.27606C8.285 102.37 8.35655 103.367 8.39232 103.794H10.3419C11.3883 103.785 11.7549 102.148 11.7549 102.148C11.7549 102.148 11.7639 102.94 11.8175 103.384C11.8712 103.74 11.9785 104.185 11.9785 104.185C11.9785 104.185 11.3167 104.069 10.3956 104.069H7.01508C7.01508 104.069 7.30126 103.909 7.33704 103.749Z" fill="#F7FDFB"/>
<path d="M15.1759 100.636L14.0402 100.645V101.001C14.0402 102.477 14.0938 103.411 14.1564 103.794C14.1743 103.963 14.4605 104.069 14.4605 104.069H12.7792C12.7792 104.069 13.0654 103.918 13.0922 103.767C13.128 103.304 13.1995 102.264 13.1995 100.574C13.1995 98.9014 13.1369 97.8162 13.0743 97.2915C13.0564 97.1758 12.7792 97.078 12.7792 97.078H13.432L15.167 97.0602C16.1597 97.0602 16.9646 97.8696 16.9646 98.8569C16.9646 99.8354 16.1686 100.636 15.1759 100.636ZM14.8898 97.3626H14.6841C14.5141 97.3626 14.3263 97.3626 14.1564 97.3715C14.1206 97.8518 14.0491 98.9192 14.0402 100.351H14.845C15.6141 100.351 16.2491 99.613 16.2491 98.8569C16.2491 98.092 15.6499 97.3982 14.8898 97.3626Z" fill="#F7FDFB"/>
<path d="M20.1628 100.636L19.027 100.645V101.001C19.027 102.477 19.0806 103.411 19.1432 103.794C19.1611 103.963 19.4473 104.069 19.4473 104.069H17.766C17.766 104.069 18.0522 103.918 18.079 103.767C18.1148 103.304 18.1863 102.264 18.1863 100.574C18.1863 98.9014 18.1237 97.8162 18.0611 97.2915C18.0432 97.1758 17.766 97.078 17.766 97.078H18.4189L20.1538 97.0602C21.1465 97.0602 21.9514 97.8696 21.9514 98.8569C21.9514 99.8354 21.1554 100.636 20.1628 100.636ZM19.8766 97.3626H19.6709C19.501 97.3626 19.3132 97.3626 19.1432 97.3715C19.1075 97.8518 19.0359 98.9192 19.027 100.351H19.8319C20.601 100.351 21.2359 99.613 21.2359 98.8569C21.2359 98.092 20.6367 97.3982 19.8766 97.3626Z" fill="#F7FDFB"/>
<path d="M23.1821 103.553C23.2268 103.02 23.2715 102.041 23.2715 100.556C23.2715 99.1594 23.2179 98.1098 23.1732 97.5494C23.1463 97.1758 22.7618 97.078 22.7618 97.078H24.6219C24.6219 97.078 24.2374 97.2559 24.2195 97.5494H24.2105C24.1658 98.1187 24.1122 99.1772 24.1122 100.556C24.1122 101.819 24.1569 102.717 24.1927 103.287C24.5593 102.673 25.087 101.712 25.6862 100.485C26.7146 98.3677 27.2154 97.1936 27.2154 97.0869C27.2154 97.0869 27.2154 97.0869 27.2154 97.078H28.7089C28.7089 97.078 28.3512 97.2737 28.2975 97.5672C28.2439 97.8518 28.1992 98.8569 28.1992 100.013V100.556C28.2171 102.032 28.2886 103.553 28.2886 103.553C28.3154 103.847 28.7089 104.069 28.7089 104.069H26.8398C26.8398 104.069 27.2333 103.927 27.2601 103.553C27.3049 103.02 27.3585 102.041 27.3585 100.556C27.3585 99.3728 27.3138 98.4389 27.278 97.834L24.2553 104.069V104.078L22.7528 104.069C22.7528 104.069 23.1553 103.927 23.1821 103.553Z" fill="#F7FDFB"/>
<path d="M34.0467 97.0513C34.9768 97.0513 35.6296 96.9801 35.6296 96.9801C35.6296 96.9801 35.5134 97.416 35.4686 97.7718C35.406 98.2165 35.406 99.0082 35.406 99.0082C35.406 99.0082 35.0394 97.3537 33.9841 97.3537H33.0451C33.0093 97.7985 32.9377 98.8036 32.9377 100.164V100.574C32.9467 102.024 32.9825 103.287 33.0272 103.58C33.0719 103.874 33.4564 104.069 33.4564 104.069H31.5695C31.5695 104.069 31.954 103.954 31.9987 103.58C32.0524 103.082 32.0882 102.237 32.0882 101.009V100.574C32.0703 98.9815 32.0077 97.8429 31.9719 97.3537H30.9971C29.9865 97.416 29.6467 99.0082 29.6467 99.0082C29.6467 99.0082 29.6467 98.2165 29.5841 97.7718C29.5394 97.416 29.4231 96.9801 29.4231 96.9801C29.4231 96.9801 30.076 97.0513 31.006 97.0513H34.0467Z" fill="#F7FDFB"/>
<path d="M36.7037 99.3817C36.659 99.613 36.6322 99.8799 36.6322 100.164C36.6322 100.485 36.6679 100.814 36.7305 101.125C36.8468 101.668 37.1419 102.273 37.3565 102.611C37.8037 103.304 38.6891 103.802 39.6191 103.802C39.798 103.802 39.9769 103.785 40.1557 103.749C41.2557 103.509 42.0606 102.575 42.2126 101.579C42.2484 101.383 42.2663 101.107 42.2663 100.823C42.2663 100.538 42.2395 100.227 42.1858 99.9599C42.0606 99.3728 41.8191 98.7769 41.4883 98.3499C40.9874 97.7095 40.1647 97.2559 39.2882 97.2559C39.1094 97.2559 38.9305 97.2737 38.7517 97.3092C37.6874 97.5405 36.8915 98.4478 36.7037 99.3817ZM35.7915 101.312C35.7378 101.072 35.72 100.823 35.72 100.591C35.72 98.768 37.1419 97.2203 38.6354 96.9001C38.9037 96.8378 39.163 96.8111 39.4313 96.8111C41.1484 96.8111 42.7045 97.9941 43.0801 99.7286C43.1427 99.9955 43.1696 100.262 43.1696 100.52C43.1696 102.228 41.9801 103.767 40.2362 104.14C39.9232 104.212 39.6191 104.238 39.3151 104.238C37.6517 104.238 36.185 103.233 35.7915 101.312Z" fill="#F7FDFB"/>
<path d="M46.3719 100.636L45.2362 100.645V101.001C45.2362 102.477 45.2898 103.411 45.3524 103.794C45.3703 103.963 45.6565 104.069 45.6565 104.069H43.9752C43.9752 104.069 44.2614 103.918 44.2882 103.767C44.324 103.304 44.3955 102.264 44.3955 100.574C44.3955 98.9014 44.3329 97.8162 44.2703 97.2915C44.2524 97.1758 43.9752 97.078 43.9752 97.078H44.628L46.363 97.0602C47.3557 97.0602 48.1606 97.8696 48.1606 98.8569C48.1606 99.8354 47.3646 100.636 46.3719 100.636ZM46.0858 97.3626H45.8801C45.7102 97.3626 45.5224 97.3626 45.3524 97.3715C45.3167 97.8518 45.2451 98.9192 45.2362 100.351H46.041C46.8102 100.351 47.4451 99.613 47.4451 98.8569C47.4451 98.092 46.8459 97.3982 46.0858 97.3626Z" fill="#F7FDFB"/>
<path d="M49.3913 103.553C49.436 103.02 49.4807 102.041 49.4807 100.556C49.4807 99.1594 49.4271 98.1098 49.3823 97.5494C49.3555 97.1758 48.971 97.078 48.971 97.078H50.8311C50.8311 97.078 50.4466 97.2559 50.4287 97.5494H50.4197C50.375 98.1187 50.3214 99.1772 50.3214 100.556C50.3214 101.819 50.3661 102.717 50.4019 103.287C50.7685 102.673 51.2962 101.712 51.8954 100.485C52.9238 98.3677 53.4246 97.1936 53.4246 97.0869C53.4246 97.0869 53.4246 97.0869 53.4246 97.078H54.9181C54.9181 97.078 54.5604 97.2737 54.5067 97.5672C54.4531 97.8518 54.4084 98.8569 54.4084 100.013V100.556C54.4262 102.032 54.4978 103.553 54.4978 103.553C54.5246 103.847 54.9181 104.069 54.9181 104.069H53.049C53.049 104.069 53.4425 103.927 53.4693 103.553C53.514 103.02 53.5677 102.041 53.5677 100.556C53.5677 99.3728 53.523 98.4389 53.4872 97.834L50.4645 104.069V104.078L48.962 104.069C48.962 104.069 49.3645 103.927 49.3913 103.553Z" fill="#F7FDFB"/>
<path d="M57.7608 98.8569C57.7608 99.6219 58.3957 100.36 59.1648 100.36H60.2738V99.6931C60.2738 98.8125 60.2648 98.0208 60.2112 97.6117C60.2022 97.5316 60.1665 97.4605 60.1217 97.3982C59.8982 97.3804 59.6388 97.3626 59.3973 97.3626C59.299 97.3626 59.2095 97.3626 59.1201 97.3715C58.3599 97.4071 57.7608 98.092 57.7608 98.8569ZM61.2038 103.536C61.2396 103.9 61.6331 104.069 61.6331 104.069H59.7461C59.7461 104.069 60.1575 103.785 60.1843 103.482C60.2201 102.94 60.2738 101.997 60.2738 100.654L59.6656 100.645L57.2868 103.598C57.251 103.642 57.2421 103.696 57.2421 103.731C57.2421 103.945 57.6356 104.069 57.6356 104.069L55.5429 104.06C55.5429 104.06 56.1331 103.847 56.5445 103.278L56.5624 103.26L58.6819 100.627C57.7608 100.556 57.0453 99.7909 57.0453 98.8569C57.0453 97.8696 57.8502 97.0691 58.8429 97.0691L60.5957 97.078H61.6599C61.6599 97.078 61.2486 97.2381 61.2128 97.5939C61.1681 98.1631 61.1144 99.2038 61.1144 100.574C61.1144 102.024 61.1591 102.993 61.2038 103.536Z" fill="#F7FDFB"/>
<path d="M66.0395 99.3817C65.9948 99.613 65.9679 99.8799 65.9679 100.164C65.9679 100.485 66.0037 100.814 66.0663 101.125C66.1826 101.668 66.4777 102.273 66.6923 102.611C67.1395 103.304 68.0248 103.802 68.9549 103.802C69.1338 103.802 69.3126 103.785 69.4915 103.749C70.5915 103.509 71.3964 102.575 71.5484 101.579C71.5842 101.383 71.6021 101.107 71.6021 100.823C71.6021 100.538 71.5752 100.227 71.5216 99.9599C71.3964 99.3728 71.1549 98.7769 70.824 98.3499C70.3232 97.7095 69.5005 97.2559 68.624 97.2559C68.4452 97.2559 68.2663 97.2737 68.0874 97.3092C67.0232 97.5405 66.2273 98.4478 66.0395 99.3817ZM65.1273 101.312C65.0736 101.072 65.0557 100.823 65.0557 100.591C65.0557 98.768 66.4777 97.2203 67.9712 96.9001C68.2395 96.8378 68.4988 96.8111 68.7671 96.8111C70.4842 96.8111 72.0403 97.9941 72.4159 99.7286C72.4785 99.9955 72.5053 100.262 72.5053 100.52C72.5053 102.228 71.3159 103.767 69.572 104.14C69.259 104.212 68.9549 104.238 68.6509 104.238C66.9874 104.238 65.5208 103.233 65.1273 101.312Z" fill="#F7FDFB"/>
<path d="M77.2163 97.0513C78.1464 97.0513 78.7992 96.9801 78.7992 96.9801C78.7992 96.9801 78.683 97.416 78.6383 97.7718C78.5757 98.2165 78.5757 99.0082 78.5757 99.0082C78.5757 99.0082 78.209 97.3537 77.1537 97.3537H76.2147C76.1789 97.7985 76.1074 98.8036 76.1074 100.164V100.574C76.1163 102.024 76.1521 103.287 76.1968 103.58C76.2415 103.874 76.6261 104.069 76.6261 104.069H74.7391C74.7391 104.069 75.1236 103.954 75.1683 103.58C75.222 103.082 75.2578 102.237 75.2578 101.009V100.574C75.2399 98.9815 75.1773 97.8429 75.1415 97.3537H74.1667C73.1562 97.416 72.8163 99.0082 72.8163 99.0082C72.8163 99.0082 72.8163 98.2165 72.7537 97.7718C72.709 97.416 72.5927 96.9801 72.5927 96.9801C72.5927 96.9801 73.2456 97.0513 74.1757 97.0513H77.2163Z" fill="#F7FDFB"/>
<path d="M79.8617 103.794H83.0365C82.965 103.313 82.7772 102.166 82.4105 100.565C82.0707 99.0793 81.7845 98.0831 81.6235 97.5494L79.8617 103.794ZM79.3967 103.794C79.5577 103.358 79.978 102.193 80.4698 100.511C80.917 99.0082 81.2658 97.9586 81.2658 97.4782C81.2658 97.3092 81.0422 97.1313 80.9349 97.078H83.0097C83.0097 97.078 82.652 97.1669 82.652 97.4782C82.652 97.496 82.6609 97.5138 82.6609 97.5405C82.7414 98.0653 82.9024 99.0526 83.2511 100.565C83.6178 102.166 83.9576 103.313 84.1097 103.794H84.8699V105.777C84.8699 105.777 84.5032 104.123 83.4837 104.069H80.0048C78.9942 104.123 78.6276 105.777 78.6276 105.777V103.794H79.3967Z" fill="#F7FDFB"/>
<path d="M86.2857 103.749C86.3304 103.278 86.402 102.255 86.402 100.574C86.402 98.9993 86.3573 97.8696 86.2857 97.3715C86.2589 97.2114 85.9817 97.078 85.9817 97.078H87.663C87.663 97.078 87.3768 97.1936 87.3589 97.3626C87.3231 97.8429 87.2516 98.9103 87.2426 100.36L89.1207 100.369C90.1491 100.369 90.9808 101.196 90.9808 102.219C90.9808 103.242 90.1491 104.069 89.1207 104.069L86.6882 104.078H85.9727C85.9727 104.078 86.2768 103.9 86.2857 103.749ZM88.8166 100.671C88.7451 100.671 88.6646 100.663 88.5751 100.663C88.1816 100.663 87.663 100.698 87.2426 100.725C87.2426 102.255 87.3052 103.224 87.341 103.705C87.815 103.74 88.3873 103.776 88.7808 103.776C89.5768 103.776 90.2386 103.011 90.2386 102.219C90.2386 101.428 89.6125 100.707 88.8166 100.671ZM92.7873 103.527C92.8142 103.891 93.2166 104.06 93.2166 104.06H91.3296C91.3296 104.06 91.741 103.776 91.7678 103.473C91.8126 102.895 91.8573 101.196 91.8573 99.7286C91.8573 98.8214 91.8394 98.003 91.7947 97.6028C91.7589 97.3004 91.3564 97.078 91.3564 97.078H93.2345C93.2345 97.078 92.8321 97.2203 92.7963 97.5672C92.7426 98.1365 92.6979 99.1683 92.6979 100.556C92.6979 102.006 92.7426 102.984 92.7873 103.527Z" fill="#F7FDFB"/>
<path d="M98.3935 104.078C98.3935 104.078 98.6975 103.909 98.6975 103.669C98.6975 103.625 98.6886 103.589 98.6707 103.545C98.4114 102.984 97.9195 101.979 97.213 100.654L95.5317 103.571C95.487 103.642 95.478 103.705 95.478 103.758C95.478 103.98 95.7463 104.078 95.7463 104.078H94.2975C94.2975 104.078 94.7357 103.98 95.0398 103.518C95.4154 102.94 96.9805 100.378 97.0252 100.298C96.2561 98.8747 95.6927 97.9408 95.3975 97.4694C95.2187 97.2025 94.861 97.078 94.861 97.078H96.6943C96.6943 97.078 96.4439 97.1491 96.4439 97.3804C96.4439 97.4338 96.4618 97.496 96.4886 97.5583C96.6675 97.9497 96.9805 98.599 97.4634 99.533C98.0089 98.5723 98.3666 97.923 98.5366 97.5761C98.5634 97.5138 98.5813 97.4605 98.5813 97.4071C98.5813 97.158 98.2593 97.078 98.2593 97.078H99.6902C99.6902 97.078 99.2431 97.2114 98.9927 97.5672L97.6512 99.8976C97.7675 100.111 97.8837 100.333 98.0089 100.574C98.7512 101.961 99.3772 103.011 99.726 103.58C99.9406 103.936 100.289 104.078 100.289 104.078H98.3935Z" fill="#F7FDFB"/>
<path d="M102.997 100.422H104.571C104.24 98.9993 103.963 98.0386 103.811 97.5316L102.997 100.422ZM101.092 104.069C101.092 104.069 101.557 103.847 101.682 103.518C102.317 101.819 102.908 99.7375 103.453 97.3804V97.3626C103.453 97.2203 103.131 97.078 103.131 97.078H105.206C105.206 97.078 104.848 97.1758 104.848 97.4871C104.848 97.5049 104.857 97.5227 104.857 97.5494C104.938 98.0742 105.099 99.0615 105.447 100.574C105.76 101.961 106.065 103.011 106.234 103.58C106.342 103.936 106.637 104.069 106.637 104.069H104.75C104.75 104.069 105.188 103.865 105.188 103.58C105.188 103.011 104.929 102.006 104.643 100.716H102.908L102.112 103.553C102.103 103.58 102.103 103.616 102.103 103.642C102.103 103.936 102.541 104.069 102.541 104.069H101.092Z" fill="#F7FDFB"/>
<path d="M24.5096 65.5328C24.3685 65.4959 24.3452 65.3017 24.2499 65.2046C24.1647 65.1178 24.022 65.0285 23.9016 65.0107C23.6786 64.9779 23.5236 65.0443 23.3296 65.1285C23.2117 65.1798 23.0942 65.2061 22.9828 65.2718C22.8525 65.349 22.7452 65.466 22.5981 65.3478C22.4765 65.2504 22.4964 65.0923 22.3485 65.0089C22.1642 64.9048 21.9596 65.0255 21.8504 64.8187C21.8106 64.7434 21.8193 64.6673 21.7678 64.5979C21.7266 64.5422 21.6631 64.5185 21.6203 64.465C21.5471 64.3738 21.5809 64.3025 21.5479 64.2058C21.4683 63.971 21.1444 64.1452 20.9624 64.1692C20.6276 64.2132 20.2695 64.1788 19.9434 64.1168C19.8274 64.0946 19.7264 64.1183 19.743 63.9577C19.7572 63.8173 19.9175 63.6833 20.0049 63.5877C19.9625 63.4762 19.8514 63.468 19.8357 63.3192C19.8191 63.1645 19.9299 63.0257 19.9171 62.8754C19.8931 62.5922 19.4799 62.7244 19.2832 62.6819C19.183 62.6605 19.1244 62.6247 19.0171 62.6221C18.8861 62.6188 18.754 62.6206 18.6226 62.6225C18.5273 62.6239 18.4421 62.638 18.3587 62.5878C18.1609 62.4685 18.3666 62.4083 18.4454 62.3031C18.3918 62.1066 18.1579 62.0291 18.0018 61.9276C17.9474 61.8921 17.8213 61.8626 17.8078 61.7824C17.7845 61.6432 17.8978 61.6861 17.9857 61.6532C18.1212 61.6022 18.2627 61.5679 18.2589 61.3988C18.2567 61.3028 18.114 61.1507 18.0671 61.0709C17.9808 60.9251 17.8547 60.7958 17.8622 60.6153C17.8693 60.4336 18.1778 59.7605 18.4023 60.04C18.5246 60.1925 18.4439 60.4358 18.5723 60.6064C18.7754 60.8763 18.9765 60.6603 19.2468 60.6762C19.3462 60.6821 19.4175 60.7655 19.5151 60.774C19.6938 60.7903 19.6168 60.7142 19.7396 60.6308C19.9588 60.4812 20.1858 60.5628 20.2906 60.8139C20.3378 60.9273 20.3296 61.1101 20.4996 61.1318C20.6828 61.1555 20.6017 61.0602 20.6914 60.9542C20.7976 60.8291 20.9391 60.787 21.0799 60.9029C21.1568 60.9664 21.1519 61.113 21.2668 61.1352C21.3516 61.1518 21.4203 61.0838 21.4713 61.0299C21.564 60.931 21.6207 60.8302 21.7303 60.7445C21.8035 60.6873 21.9649 60.6459 22.005 60.5536C22.1822 60.146 21.5096 59.9905 21.2837 59.7775C21.1028 59.6065 21.0645 59.3898 20.7623 59.3835C20.5889 59.3798 20.3866 59.4296 20.2343 59.317C20.0252 59.1627 20.1971 58.94 19.9798 58.8045C19.7587 58.6668 19.559 58.6911 19.4273 58.4183C19.3444 58.2462 19.3376 57.8622 19.4738 57.7038C19.5789 57.5816 19.9092 57.7289 19.8893 57.4653C19.8781 57.3179 19.5125 57.1558 19.3808 57.0746C19.2603 57.0004 18.6072 56.7382 18.6594 56.6027C18.7626 56.3339 19.6923 57.0809 19.8094 57.13C19.8841 57.161 19.9344 57.2057 20.0237 57.185C20.1419 57.1577 20.1584 57.034 20.2973 57.0199C20.4238 57.007 20.5717 57.0739 20.682 57.1252C20.7785 57.1699 20.8881 57.3017 21.0142 57.2684C21.2184 57.2149 21.2458 56.9103 21.489 56.87C21.6357 56.8457 21.6402 56.9236 21.7449 56.983C21.8793 57.0595 22.0261 57.0868 22.1627 57.0081C22.3736 56.8863 22.5313 56.5089 22.5421 56.2863C22.5466 56.1914 22.5725 55.9942 22.529 55.9067C22.4479 55.7442 22.3079 55.7649 22.1447 55.7675C21.9127 55.7715 21.5625 55.8365 21.3452 55.7601C21.1058 55.6759 21.2544 55.2513 21.0979 55.053C20.9354 54.847 20.6666 54.861 20.4343 54.8632C20.1479 54.8658 19.9648 54.817 19.7095 54.693C19.523 54.6021 19.3935 54.6044 19.1856 54.6047C19.094 54.6047 18.7037 54.6513 18.7412 54.4892C19.2029 54.4718 18.7686 54.117 18.7596 53.9006C18.915 53.6816 19.1781 54.1893 19.3132 54.2019C19.4926 54.2185 19.5407 54.0586 19.6454 53.9707C19.7531 53.8803 19.8236 53.8201 19.9742 53.8201C20.3097 53.8201 20.2774 54.1554 20.5465 54.193C20.7102 54.2159 20.7151 54.1206 20.8963 54.2122C21.0194 54.2743 21.0919 54.3167 21.2206 54.3633C21.325 54.4009 21.4406 54.4844 21.5415 54.4186C21.5047 54.4423 21.7115 54.2174 21.689 54.2525C21.8065 54.0679 21.5235 53.843 21.4053 53.7156C21.2307 53.528 21.0198 53.4132 20.8284 53.25C20.7282 53.1643 20.6546 53.0635 20.5465 52.9845C20.4745 52.9317 20.3506 52.9014 20.3675 52.7925C20.3833 52.691 20.6336 52.6518 20.7008 52.6551C20.8299 52.6618 20.8629 52.7194 20.9568 52.7925C21.1309 52.928 21.4481 53.1898 21.5385 52.863C21.6128 52.5946 21.6444 52.5602 21.8906 52.6644C22.0103 52.7149 22.5192 52.8412 22.5065 52.5883C22.4994 52.4528 22.3061 52.383 22.222 52.3221C22.1518 52.2711 22.0869 52.2058 22.0137 52.1596C21.8455 52.054 21.6188 52.0655 21.4552 51.948C21.37 51.8867 21.3467 51.8033 21.2837 51.7246C21.2225 51.649 21.1313 51.5906 21.0525 51.5323C20.8993 51.4193 20.5897 51.2971 20.5173 51.1087C20.5938 51.0275 20.7379 51.0094 20.8419 50.9681C20.9789 50.9134 21.1245 50.8606 21.2544 50.7897C21.3944 50.7136 21.4499 50.6527 21.5937 50.7476C21.7404 50.8447 21.7791 50.9795 21.8737 51.1102C21.9221 51.1771 22.0062 51.2265 22.0621 51.2878C22.1176 51.3488 22.1582 51.44 22.222 51.4917C22.3563 51.6009 22.5117 51.5389 22.6375 51.6608C22.8728 51.8882 22.7336 52.2316 22.9422 52.4705C23.1903 52.7545 23.5191 52.4616 23.7368 52.2803C23.8978 52.1463 23.9721 51.9957 24.0206 51.7955C24.0648 51.6135 24.0378 51.5603 23.8577 51.4651C23.6899 51.3761 23.5154 51.3026 23.3435 51.2265C23.2027 51.1645 23.1096 51.0663 22.9865 50.9806C22.8195 50.8647 22.6007 50.878 22.4427 50.758C22.344 50.6834 22.1131 50.532 22.1041 50.4098C22.1916 50.2894 22.4592 50.3152 22.5891 50.3322C22.7208 50.3496 22.9374 50.361 23.053 50.4109C23.1851 50.4685 23.2736 50.6291 23.4437 50.6062C23.6707 50.5752 23.7758 50.3514 23.6614 50.1701C23.5976 50.0686 23.4703 50.0058 23.4257 49.884C23.3724 49.7396 23.512 49.5901 23.423 49.463C23.3198 49.3161 23.0631 49.3947 22.9351 49.2732C22.7962 49.141 22.9497 48.9501 23.1303 48.9357C23.2478 48.9261 23.3502 48.9996 23.4549 49.0277C23.5634 49.0569 23.6775 49.0428 23.7886 49.0425C24.0172 49.041 24.2514 48.9908 24.4282 49.1514C24.632 49.3364 24.8039 49.6617 25.1015 49.7126C25.3135 49.7488 25.5639 49.2828 25.4367 49.1038C25.3593 48.9948 25.1931 48.9442 25.288 48.7803C25.3485 48.6758 25.5335 48.596 25.6277 48.5251C25.6847 48.4823 25.7399 48.4258 25.8049 48.3919C25.8687 48.3586 25.9696 48.3549 26.0282 48.3199C26.2635 48.1777 26.1062 48.0747 26.0364 47.8834C25.982 47.7339 25.9779 47.5932 25.8934 47.458C25.8101 47.324 25.6941 47.1593 25.5815 47.0474C25.3751 46.8429 25.0347 46.9082 24.7656 46.9082C24.5265 46.9082 24.2874 46.906 24.0483 46.9082C23.8941 46.9097 23.3934 46.8495 23.4947 46.5803C23.5713 46.3776 24.1658 46.7033 24.3096 46.7166C24.5197 46.7362 24.6819 46.7332 24.8436 46.5888C24.9844 46.4633 25.1004 46.3378 25.1709 46.1649C25.2591 45.9489 25.2257 45.8932 25.0535 45.744C24.9123 45.6218 24.7761 45.4852 24.6402 45.3563C24.5299 45.2514 24.4837 45.1964 24.3403 45.154C24.2026 45.1133 24.0701 45.0624 23.9335 45.0151C23.7376 44.9472 23.5349 44.9671 23.327 44.9679C23.1809 44.9686 23.1021 44.9889 22.9835 44.8933C22.8754 44.8061 22.663 44.6237 22.6701 44.4716C22.9111 44.5669 23.1779 44.4989 23.4287 44.5794C23.5927 44.6322 23.7721 44.7445 23.9496 44.7386C23.914 44.3612 23.3735 44.0906 23.0608 43.9982C22.8195 43.927 22.3335 43.5226 22.4265 43.228C22.684 43.1154 22.8131 43.4425 22.931 43.5969C23.0683 43.7771 23.2068 43.8114 23.4287 43.7327C23.5979 43.6729 23.6677 43.5636 23.8543 43.6655C24.0202 43.756 24.0442 44.0558 24.2292 44.0924C24.2964 43.958 24.379 43.9823 24.4788 43.9358C24.6042 43.8771 24.6571 43.8509 24.6973 43.6729C24.7588 43.4008 24.6473 43.1715 24.4586 42.9736C24.3129 42.8207 24.1696 42.7517 23.9856 42.6579C23.7781 42.5523 23.622 42.4164 23.4583 42.2536C23.3266 42.1225 23.0822 41.7078 23.4714 41.8068C23.6114 41.8422 23.6798 41.9504 23.7871 42.0283C23.9233 42.1273 24.096 42.2443 24.2518 42.3075C24.3955 42.3658 24.6117 42.419 24.7716 42.3861C24.8737 42.3654 24.9435 42.2912 25.0362 42.2473C25.2257 42.1576 25.2546 42.2934 25.4183 42.2491C25.7028 42.172 25.3698 41.7562 25.4866 41.5978C25.5691 41.4859 25.8923 41.5269 26.0222 41.5387C26.1254 41.5483 26.1663 41.5708 26.2496 41.5291C26.3956 41.456 26.3618 41.3818 26.5499 41.4564C26.8179 41.5627 26.9552 41.8275 26.9308 42.1084C26.9199 42.2329 26.8235 42.3684 26.8779 42.5021C26.923 42.6125 27.0243 42.6505 27.1395 42.7063C27.3163 42.7915 27.6177 42.9747 27.7982 42.9082C27.8913 42.8739 28.0519 42.741 28.1308 42.6697C28.2606 42.5523 28.2741 42.4219 28.2625 42.2502C28.2449 41.9936 28.0073 41.7001 27.7986 41.552C27.6815 41.4689 27.5498 41.4704 27.4619 41.3367C27.3595 41.1805 27.3861 40.9992 27.4646 40.8442C27.5437 40.6872 27.6575 40.6071 27.5445 40.4206C27.4353 40.2408 27.2394 40.2644 27.0686 40.1847C26.9342 40.1219 26.8242 40.0422 26.6831 39.9886C26.551 39.9384 26.423 39.9218 26.3149 39.8299C26.1971 39.7298 26.131 39.6094 26.0556 39.4791C25.9572 39.3089 25.8315 39.2136 25.6923 39.0803C25.6945 38.9064 26.0432 38.9414 26.1554 38.9525C26.3498 38.9714 26.4602 39.112 26.6287 39.2125C26.8119 39.3214 27.1159 39.5803 27.3407 39.5311C27.4642 39.5042 27.5321 39.3646 27.6638 39.3613C27.7877 39.358 27.9187 39.4613 28.0125 39.5333C28.2332 39.7032 28.4085 39.989 28.7174 39.9953C28.8499 39.9979 28.97 39.9617 29.0972 40.013C29.2046 40.0562 29.3168 40.1869 29.4245 40.2504C29.5172 40.3051 29.6343 40.4151 29.7567 40.3752C29.8678 40.339 29.9169 40.1696 30.0273 40.1101C30.1448 40.047 30.2945 40.0385 30.4263 40.0473C30.5351 40.0547 30.7712 40.2043 30.8508 40.1393C30.9461 40.0614 30.7832 39.8003 30.7472 39.6977C30.7021 39.5699 30.6601 39.441 30.6162 39.3125C30.5377 39.0843 30.513 38.9226 30.2919 38.7912C30.0975 38.6756 29.9541 38.6276 29.7364 38.6306C29.4583 38.6346 29.1614 38.6571 28.8844 38.6328C28.7339 38.6195 28.529 38.567 28.3879 38.5065C28.1574 38.4072 28.2163 38.1354 28.2659 37.9194C28.362 37.915 28.4261 38.0239 28.5207 38.0423C28.669 38.0711 28.7069 38.001 28.7861 37.9061C28.9062 37.7617 28.9801 37.586 28.8585 37.4154C28.6551 37.1292 28.0707 37.3194 27.7622 37.2437C27.5374 37.1883 27.3478 37.0742 27.1425 36.9767C27.0588 36.9368 26.9038 36.8726 26.8663 36.788C26.8332 36.7142 26.9094 36.6861 26.8543 36.5934C26.7642 36.4421 26.435 36.3737 26.2778 36.3331C26.125 36.2936 25.8409 36.3645 25.7748 36.1718C25.8837 36.0241 26.1029 36.1271 26.1907 35.9126C26.2759 35.7039 26.1235 35.6353 26.0556 35.4661C26.2616 35.427 26.3814 35.6485 26.4542 35.7855C26.5352 35.938 26.7293 36.0676 26.9087 36.0447C27.1373 36.0159 27.2198 35.7896 27.4495 35.941C27.5482 36.006 27.6132 36.0961 27.7295 36.1396C27.8335 36.1788 27.954 36.184 28.0651 36.1936C28.2617 36.2105 28.425 36.1038 28.2509 35.9114C28.1345 35.7829 27.8744 35.6596 27.7044 35.6537C27.5239 35.6474 27.4514 35.6515 27.4991 35.4359C27.5265 35.3129 27.5422 35.208 27.5366 35.0773C27.5254 34.8229 27.3523 34.5135 27.7325 34.423C28.2948 34.289 28.0947 35.0592 28.285 35.2985C28.4423 35.4964 28.6611 35.4037 28.8495 35.5182C29.0518 35.6412 29.1329 35.9159 29.316 35.6083C29.3727 35.513 29.4054 35.3823 29.3806 35.2697C29.3618 35.1848 29.3074 35.0895 29.25 35.0242C29.1809 34.9455 29.0676 34.9163 29.0128 34.8299C29.2793 34.7435 29.4534 34.4707 29.2815 34.2329C29.1978 34.1169 29.119 34.0542 28.9996 33.9748C28.896 33.9061 28.7136 33.84 28.6682 33.7159C28.7425 33.5989 28.899 33.5283 29.0342 33.5169C29.1186 33.5099 29.2504 33.5693 29.2939 33.4615C29.2293 33.3567 29.0961 33.2979 29.0139 33.2008C28.9467 33.1214 28.7804 32.9878 28.7958 32.8803C29.0004 32.8261 29.1314 32.9254 29.2774 33.0421C29.4354 33.1683 29.5255 33.0144 29.7068 33.0103C29.8584 33.007 30.0986 33.1776 30.2157 33.2769C30.3283 33.3722 30.4416 33.5749 30.5929 33.4863C30.7449 33.3973 30.6969 33.1325 30.9025 33.0941C30.9603 33.0834 31.0294 33.1532 31.0936 33.1163C31.1536 33.0816 31.1529 32.9272 31.1548 32.8726C31.1611 32.668 31.1739 32.5813 31.4137 32.5894C31.5699 32.5945 31.7358 32.599 31.818 32.4217C31.9328 32.1729 31.4002 31.9388 31.2493 31.8084C31.1195 31.6962 30.99 31.547 30.8395 31.4646C30.7727 31.4281 30.698 31.4348 30.6364 31.3764C30.5865 31.3288 30.5756 31.2461 30.5336 31.1933C30.2667 30.8562 29.7811 30.8451 29.4538 30.6143C29.2128 30.4448 29.0563 30.0589 29.119 29.7743C29.4012 29.6801 29.5514 29.9991 29.7375 30.1287C29.8512 30.2081 29.974 30.2968 30.0997 30.3562C30.2044 30.4057 30.3328 30.4079 30.4184 30.4932C30.4889 30.563 30.4897 30.6678 30.5531 30.7424C30.6158 30.8163 30.7603 30.8853 30.841 30.9363C31.0095 31.0434 31.1743 31.1608 31.3477 31.2582C31.5856 31.3919 31.7816 31.5433 32.0619 31.3934C32.247 31.2944 32.2147 30.9942 32.2049 30.8037C32.1955 30.622 32.0706 30.5183 32.0199 30.3529C31.9794 30.2199 31.9981 30.032 32.0364 29.9031C32.1021 29.6816 32.2023 29.4578 32.2841 29.2403C32.3723 29.0059 32.4076 28.7884 32.4511 28.544C32.4759 28.4033 32.4677 28.3383 32.5311 28.2153C32.5728 28.1344 32.6118 28.061 32.6474 27.9742C32.7244 27.7885 32.7296 27.6862 32.73 27.4802C32.73 27.2088 32.73 26.9377 32.73 26.6663C32.73 26.395 32.6681 26.0169 32.8107 25.7632C33.0719 25.7761 32.9717 26.2982 32.9897 26.4563C33.0048 26.5847 33.0791 26.6793 33.1113 26.7974C33.1421 26.9093 33.1372 27.0072 33.174 27.1194C33.3136 27.5444 33.2832 27.9458 33.0749 28.3482C32.9376 28.613 32.769 28.9065 32.694 29.1945C32.6508 29.36 32.6381 29.5867 32.6606 29.7565C32.6703 29.8293 32.7011 29.8917 32.7154 29.9629C32.7379 30.0745 32.6989 30.2004 32.7364 30.3056C32.8377 30.5903 33.3114 30.7934 33.5895 30.81C33.7141 30.8174 33.8436 30.8192 33.9461 30.7406C34.0301 30.676 34.0504 30.5785 34.109 30.4947C34.1634 30.4164 34.2302 30.3754 34.3071 30.32C34.3747 30.2716 34.4441 30.1915 34.5158 30.1538C34.6108 30.1036 34.6712 30.1276 34.7744 30.0988C34.9688 30.0449 34.8908 29.8459 35.0386 29.7299C35.1745 29.6236 35.4305 29.6118 35.5866 29.5686C35.6973 29.538 35.8088 29.4785 35.918 29.4394C36.0881 29.3784 36.5418 29.3526 36.2723 29.6447C36.1778 29.7469 35.9841 29.8197 35.8674 29.8998C35.7398 29.9873 35.6339 30.1058 35.4939 30.1598C35.3569 30.2122 35.1989 30.2029 35.0653 30.2561C34.9272 30.3111 34.6885 30.4976 34.5804 30.611C34.4783 30.7181 34.4576 30.8373 34.324 30.9234C34.2726 30.9566 34.2253 30.9529 34.1765 30.992C34.0894 31.0614 34.0151 31.1837 33.9281 31.2597C33.7441 31.4203 33.4157 31.9953 33.7817 32.1252C33.9172 32.1736 34.2456 32.1031 34.3784 32.0359C34.4254 32.0122 34.5222 31.9162 34.577 31.9221C34.6843 31.934 34.7012 32.0846 34.7099 32.1585C34.7504 32.4956 34.1998 32.836 34.3702 33.1384C34.5031 33.3744 34.6731 33.2182 34.8352 33.1307C34.9651 33.0605 35.0814 33.0218 35.2248 33.0033C35.4005 32.9808 35.6617 32.9531 35.8216 32.8659C35.9773 32.781 35.9019 32.5805 36.0832 32.5233C36.2074 32.4841 36.2975 32.572 36.4135 32.6015C36.5077 32.6255 36.6124 32.6281 36.7074 32.6481C36.9021 32.6891 37.0834 32.7101 37.2696 32.62C37.425 32.5447 37.5522 32.3948 37.7275 32.3604C37.9272 32.3213 38.0555 32.5103 38.0837 32.6883C38.1212 32.9254 37.7962 33.0362 37.5942 33.0657C37.443 33.0879 37.2895 33.0513 37.1382 33.0653C36.987 33.079 36.8263 33.1418 36.6875 33.1979C36.3898 33.3186 36.0974 33.4597 35.8088 33.6004C35.6298 33.6875 35.4211 33.7506 35.2646 33.8769C35.1374 33.9796 35.0251 34.0822 34.8848 34.1708C34.5879 34.358 34.2189 34.1502 33.8973 34.296C33.5839 34.4382 33.2694 34.7003 33.2517 35.0714C33.2461 35.1885 33.2067 35.451 33.3125 35.5396C33.4679 35.67 33.7284 35.3941 33.8639 35.3273C34.0339 35.2435 34.133 35.2837 34.3056 35.3159C34.4272 35.3388 34.6352 35.4015 34.7406 35.3657C34.8934 35.3137 34.9666 35.0559 35.1666 35.1412C35.3764 35.2309 35.2811 35.4388 35.1524 35.5237C34.8836 35.701 34.6269 35.8812 34.4892 36.1721C34.4164 36.3254 34.3544 36.4258 34.2201 36.5284C34.0849 36.6318 33.9168 36.7171 33.8113 36.8538C33.6443 37.0698 33.6608 37.528 33.8586 37.7274C33.987 37.8566 34.1078 37.8614 34.2752 37.854C34.4648 37.8455 34.5012 37.7931 34.6449 37.6631C34.845 37.4822 34.8949 37.3426 34.9024 37.0771C34.9069 36.9073 34.8146 36.6721 35.0278 36.6278C35.1873 36.5945 35.3303 36.5694 35.4917 36.5262C35.5709 36.5052 35.6598 36.5093 35.7368 36.4849C35.837 36.4531 35.9162 36.3741 36.0149 36.3368C36.12 36.2973 36.2374 36.2681 36.3493 36.3084C36.4525 36.3453 36.5062 36.4723 36.6116 36.4926C36.7385 36.5174 36.7186 36.4528 36.8177 36.3815C36.9164 36.311 37.0245 36.2984 37.1375 36.26C37.2985 36.2054 37.395 36.1695 37.5616 36.1725C37.6862 36.1747 37.8363 36.1928 37.9591 36.1747C38.0615 36.1599 38.1854 36.1345 38.2852 36.1131C38.5097 36.065 38.4575 35.8309 38.5859 35.6847C38.706 35.5485 38.9222 35.6426 39.0055 35.7796C39.1271 35.9787 39.0738 36.1873 39.1151 36.3989C39.2269 36.3907 39.3237 36.3125 39.439 36.2988C39.5193 36.2892 39.6158 36.2977 39.6968 36.3006C39.904 36.3084 40.3386 36.5691 40.0196 36.743C39.8661 36.8268 39.663 36.8024 39.4979 36.8161C39.3481 36.8283 39.2303 36.918 39.0903 36.9667C38.9537 37.0144 38.8388 37.0631 38.7105 37.1285C38.5637 37.2031 38.4012 37.2274 38.2552 37.3053C38.1509 37.3611 38.0634 37.3888 37.9561 37.4316C37.8408 37.4778 37.7598 37.5686 37.6547 37.6303C37.4351 37.7591 37.1469 37.6517 37.0354 37.9235C36.9603 38.1073 37.0654 38.217 37.2032 38.3344C37.3492 38.4592 37.3454 38.4685 37.2362 38.6276C37.1525 38.7498 37.0954 38.9433 36.9307 38.9186C36.7621 38.8931 36.7224 38.6878 36.6071 38.6645C36.5216 38.7398 36.5636 38.7985 36.546 38.8879C36.5287 38.9747 36.4228 39.0785 36.4187 39.1512C36.4127 39.2524 36.4998 39.4569 36.5523 39.5489C36.6616 39.7401 36.9359 39.8812 36.9937 40.102C37.0519 40.3243 36.7689 40.4458 36.794 40.6381C36.8102 40.7611 36.9329 40.7555 37.0192 40.7142C37.1521 40.6503 37.202 40.4834 37.2801 40.3737C37.4426 40.1448 37.7414 40.034 37.9895 39.917C38.1794 39.8273 38.1809 39.8649 38.3213 39.9746C38.3723 40.0145 38.3776 40.0747 38.4515 40.0518C38.5314 40.027 38.5299 39.8575 38.5765 39.8047C38.6947 39.6714 38.7435 39.7508 38.8936 39.7807C39.0449 39.811 39.1725 39.8003 39.3159 39.7494C39.4998 39.684 39.7494 39.4462 39.943 39.4591C40.2103 39.4769 40.2756 39.8941 40.5533 39.9067C40.7605 39.9163 41.0626 39.5027 41.2015 39.8055C41.3149 40.0525 41.0296 40.1928 40.878 40.3121C40.7421 40.4192 40.6104 40.5344 40.4693 40.637C40.2835 40.7722 40.1183 40.8161 39.8905 40.8298C39.6721 40.8431 39.3358 41.0631 39.4375 41.3375C39.5298 41.5871 39.8563 41.5025 39.7861 41.85C39.7404 42.0763 39.5028 42.1594 39.4435 42.3673C39.4225 42.4411 39.4536 42.5065 39.4371 42.5755C39.421 42.6431 39.3669 42.6981 39.3598 42.7664C39.3504 42.8554 39.433 42.9751 39.4934 43.033C39.6435 43.177 39.7963 43.1002 39.9644 43.18C40.1063 43.2472 40.2673 43.5071 40.2928 43.6574C40.3184 43.8077 40.2508 43.9768 40.2981 44.1249C40.3679 44.3438 40.5818 44.4963 40.7338 44.6433C40.8138 44.7208 40.8585 44.8253 40.9455 44.8933C41.0566 44.98 41.1655 44.9908 41.2034 45.1595C41.2649 45.4346 40.9553 45.5542 40.8112 45.727C40.6532 45.9168 40.5668 46.1476 40.5473 46.3909C40.5255 46.6601 40.6475 46.8447 40.9316 46.8986C41.1482 46.9396 41.367 46.7624 41.5937 46.8554C41.8084 46.9437 41.9661 47.0681 42.0186 47.2952C42.046 47.4126 42.0884 47.5492 42.0696 47.6715C42.0497 47.8014 41.9811 47.8435 41.9285 47.9558C41.8137 48.2024 41.924 48.4613 41.805 48.7061C41.6898 48.9435 41.4819 49.1665 41.2908 49.3463C41.1903 49.4412 41.0897 49.5406 41.0518 49.6779C41.0048 49.8493 41.0964 49.8603 41.2128 49.9981C41.3625 50.1757 41.486 50.3536 41.656 50.5169C41.8474 50.7011 41.9424 50.9485 42.144 51.1132C42.3564 51.2864 42.5805 51.4507 42.7895 51.6286C42.9607 51.7741 43.1378 51.9502 43.2448 52.1448C43.4002 52.4269 43.6122 52.5484 43.5781 52.901C43.5646 53.041 43.5146 53.171 43.5056 53.3124C43.494 53.4937 43.509 53.6816 43.509 53.8637C43.509 54.1321 43.509 54.4002 24.5119 65.5328H24.5096Z" fill="#808E78"/>
<path d="M69.7998 63.7863C69.9361 63.9023 70.0742 63.9935 70.1962 64.126C70.3527 64.2966 70.4893 64.4606 70.6819 64.5939C70.9116 64.753 71.1416 64.9258 71.374 65.0802C71.5511 65.1976 71.7163 65.2194 71.9227 65.2589C72.0342 65.2803 72.1486 65.3039 72.2368 65.2138C72.328 65.1204 72.2909 65.0071 72.3982 64.9148C72.5566 64.7785 72.6264 64.832 72.7908 64.9099C72.9443 64.9823 73.1143 65.0048 73.2675 65.0783C73.5906 65.2334 73.8946 65.4114 74.2122 65.5768C74.3683 65.658 74.5004 65.7987 74.6569 65.8892C74.8165 65.9815 74.9643 66.0901 75.1261 66.1794C75.2406 66.2425 75.3329 66.333 75.4485 66.391C75.611 66.473 75.8111 66.4825 75.9818 66.5431C76.2802 66.6491 76.5741 66.6871 76.8834 66.7454C77.0125 66.7698 77.2144 66.847 77.3353 66.8259C77.4738 66.8016 77.6051 66.672 77.7196 66.5989C77.8476 66.5173 77.9778 66.4645 78.1167 66.4058C78.2631 66.3437 78.3926 66.2433 78.5416 66.1923C78.834 66.0923 79.1252 66.1163 79.4288 66.1148C79.5771 66.1141 79.7182 66.1 79.8608 66.1447C79.9813 66.1824 80.0605 66.237 80.1863 66.2455C80.285 66.2522 80.4366 66.2691 80.515 66.2041C80.6779 66.0694 80.4651 65.9106 80.3811 65.7939C80.2681 65.637 80.1604 65.4631 80.3255 65.3061C80.4426 65.195 80.5954 65.2076 80.7425 65.2098C81.0093 65.2135 81.2484 65.281 81.3014 64.9546C81.328 64.7888 81.3062 64.6315 81.3396 64.4654C81.3873 64.2276 81.2965 64.0947 81.0439 64.0507C80.8288 64.013 80.6824 64.0042 80.5102 63.8513C80.4043 63.7572 80.2782 63.6453 80.1994 63.5282C80.0402 63.2916 80.1059 63.0582 80.3826 62.9755C80.5079 62.9378 80.6607 62.9275 80.792 62.9415C80.8814 62.9511 80.95 62.9622 81.0274 63.0072C81.1298 63.0671 81.149 63.1645 81.2886 63.135C81.4473 63.1014 81.5127 62.8717 81.6834 62.8256C81.8925 62.7691 81.942 63.0065 82.1365 63.0486C82.3192 62.72 81.9353 62.6487 81.6996 62.6229C81.3843 62.5885 81.1756 62.5173 81.0356 62.2219C80.8971 61.9302 80.9335 61.6558 81.3036 61.6492C81.5007 61.6459 81.5464 61.6746 81.6647 61.5185C81.6883 61.4564 81.7247 61.4025 81.7743 61.356C81.8583 61.3327 81.9387 61.2995 82.0148 61.257C82.1184 61.1721 82.1717 61.0015 82.2085 60.8763C82.2599 60.7021 82.3309 60.534 82.3748 60.3575C82.4029 60.2449 82.4127 60.1349 82.4352 60.0215C82.4574 59.9123 82.4855 59.6504 82.5748 59.5736C82.6818 59.4813 82.8203 59.5559 82.937 59.5076C83.062 59.4555 83.1318 59.3181 83.2553 59.2554C83.3668 59.1989 83.4625 59.1848 83.5905 59.1922C83.661 59.1963 83.8371 59.2653 83.8795 59.2066C83.8453 58.9374 83.6513 58.9013 83.452 58.796C83.3255 58.7292 83.2568 58.6616 83.3398 58.5294C83.4415 58.3673 83.646 58.3751 83.8063 58.3485C84.0499 58.3079 84.1054 58.0405 84.1985 57.8375C84.2743 57.672 84.3284 57.411 84.1625 57.2825C83.9485 57.1171 83.7759 57.3002 83.6044 57.4187C83.5207 57.4763 83.4343 57.5273 83.3345 57.5524C83.1652 57.5949 83.1251 57.5424 82.9974 57.4494C82.9096 57.3855 82.7963 57.2988 82.6788 57.3098C82.5234 57.3246 82.5061 57.4346 82.4908 57.5731C82.4746 57.7189 82.4757 57.8836 82.4848 58.0306C82.4986 58.2588 82.6454 58.4486 82.3737 58.5712C82.168 58.6642 81.9563 58.679 81.7352 58.6782C81.5626 58.6775 81.3813 58.7192 81.2785 58.5494C81.1666 58.3648 81.2071 57.8548 81.3438 57.678C81.4973 57.4789 81.784 57.5436 81.9931 57.4848C82.2757 57.4055 82.4108 57.2227 82.4746 56.9417C82.508 56.7947 82.487 56.6267 82.4866 56.4761C82.4859 56.1737 82.6664 56.1582 82.9513 56.0961C83.1239 56.0585 83.1108 55.9695 83.2058 55.8435C83.2951 55.725 83.3912 55.7317 83.5237 55.7032C83.7391 55.6575 83.8851 55.4913 84.0945 55.4437C84.2908 55.399 84.5363 55.4197 84.6921 55.2864C84.8718 55.1324 84.864 54.8629 85.0629 54.7277C85.2085 54.6288 85.3016 54.6945 85.3545 54.4822C85.3834 54.367 85.3774 54.3219 85.2809 54.2529C85.1323 54.1469 84.6891 54.0029 84.5194 54.1103C84.3715 54.2041 84.3254 54.4308 84.1835 54.5398C83.9894 54.6889 83.7808 54.7443 83.6363 54.5342C83.5728 54.4419 83.5233 54.3455 83.4418 54.2662C83.3206 54.1473 83.2467 54.1735 83.0774 54.2274C82.8132 54.3116 82.6056 54.5187 82.3541 54.6391C82.061 54.7794 81.9555 54.7148 81.8005 54.4475C81.7544 54.3681 81.7195 54.2997 81.7007 54.2097C81.6639 54.0328 81.6939 53.9922 81.8264 53.8951C81.9495 53.805 81.9893 53.7197 82.0133 53.5683C82.0287 53.4715 81.992 53.3294 82.0332 53.2404C82.0802 53.1396 82.2093 53.1281 82.2783 53.0558C82.4071 52.921 82.3384 52.7641 82.3508 52.595C82.3575 52.4982 82.3804 52.3664 82.4438 52.2881C82.5212 52.1932 82.6597 52.1762 82.7389 52.0828C82.8507 51.9506 83.0763 51.6253 82.9757 51.4688C82.7846 51.1715 82.4408 51.4451 82.2156 51.4961C81.7825 51.5943 81.8257 51.2291 81.8294 50.9123C81.8313 50.7609 81.8366 50.7037 81.6966 50.6225C81.5648 50.546 81.4458 50.5346 81.2991 50.5291C81.0221 50.5183 80.8389 50.3101 80.902 50.0213C80.9545 49.7791 81.2897 49.6521 81.453 49.4815C81.5798 49.3486 81.6639 49.2164 81.6909 49.0366C81.7232 48.8206 81.7221 48.8808 81.921 48.7881C82.1466 48.6828 82.1413 48.3657 81.9897 48.1988C81.8696 48.0666 81.6185 47.961 81.4387 47.9277C81.513 47.7261 81.927 47.6449 82.1158 47.6194C82.5077 47.5666 82.7137 47.2051 82.6837 46.8396C82.6705 46.6801 82.5827 46.5697 82.4863 46.4375C82.3526 46.2543 82.2607 46.1875 82.0216 46.1938C81.8002 46.1997 81.6669 46.2964 81.6328 46.5198C81.6001 46.7332 81.6879 46.8411 81.7232 47.0364C81.5776 47.0582 81.5202 46.5748 81.4755 46.4522C81.4252 46.3141 81.4106 46.2233 81.2379 46.2037C81.0975 46.1879 80.9943 46.2425 80.9726 46.3869C80.9564 46.4943 81.0848 46.6546 81.0225 46.7539C80.9632 46.8484 80.7267 46.82 80.6363 46.8399C80.4775 46.875 80.4813 46.9418 80.4542 47.0955C80.4377 47.19 80.3949 47.2686 80.378 47.3598C80.3435 47.5456 80.4475 47.6722 80.2512 47.8C80.1923 47.838 80.1172 47.8502 80.0575 47.8867C79.8901 47.9898 79.8132 48.1319 79.5929 48.1434C79.3519 48.1556 78.9511 48.0001 79.0122 47.6885C79.0359 47.5677 79.1601 47.5422 79.2355 47.4544C79.3444 47.3277 79.3301 47.1505 79.3906 47.0024C79.4364 46.8898 79.5212 46.7908 79.6191 46.7151C79.6927 46.6579 79.8158 46.6465 79.8327 46.5405C79.844 46.4689 79.7659 46.3452 79.7415 46.2787C79.6841 46.1214 79.6473 46.0099 79.4758 45.9471C79.4322 45.9312 79.2633 45.8755 79.2307 45.8781C79.1173 45.8869 79.0903 46.0346 79.0636 46.128C78.9736 46.4463 79.0516 46.7595 78.6065 46.7074C78.4147 46.6849 78.3393 46.6594 78.209 46.8255C78.137 46.9175 78.0799 46.9847 77.9639 47.0253C77.8198 47.0759 77.6262 47.146 77.4745 47.1693C77.2414 47.2051 76.9877 47.1664 76.9569 46.9072C76.9258 46.6446 77.0519 46.5527 77.1461 46.3237C77.1866 46.2248 77.1728 46.1901 77.282 46.1251C77.4494 46.0254 77.5789 46.1096 77.7523 46.1273C77.878 46.1402 78.0004 46.1148 78.119 46.0697C78.292 46.0043 78.2882 45.9397 78.2462 45.7758C78.221 45.6776 78.215 45.5716 78.1779 45.4771C78.1182 45.3249 77.9459 45.2563 77.8896 45.1108C77.7996 44.8789 78.0007 44.5979 78.2098 44.5108C78.3712 44.4432 78.4316 44.455 78.5161 44.2925C78.5716 44.1851 78.6253 44.0662 78.6962 43.9672C78.7743 43.8583 78.8238 43.7811 78.9867 43.8121C79.1383 43.841 79.1717 43.9192 79.3238 43.7985C79.5332 43.632 79.6075 43.2959 79.7899 43.0884C79.8657 43.002 79.9558 42.93 80.05 42.8643C80.1431 42.7997 80.3169 42.7569 80.3904 42.6778C80.6434 42.4065 80.1611 42.2355 79.9719 42.1978C79.8368 42.1709 79.7133 42.1838 79.5887 42.2462C79.5317 42.2746 79.4829 42.3186 79.4273 42.3492C79.3421 42.3961 79.2235 42.4208 79.1451 42.4736C78.9563 42.601 78.8156 42.8695 78.5495 42.868C78.3929 42.8673 78.352 42.745 78.2195 42.6775C78.0675 42.5999 77.917 42.6801 77.8514 42.8348C77.7534 43.0648 77.8735 43.3805 77.5578 43.4706C77.4374 43.5049 77.3326 43.488 77.2392 43.4049C77.1803 43.3525 77.1525 43.2731 77.0966 43.2188C77.0418 43.1656 76.9671 43.1313 76.9123 43.0774C76.7561 42.9234 76.6826 42.772 76.4709 42.6956C76.2449 42.614 75.8985 42.4711 75.9473 42.1856C76.0149 41.7913 76.3196 41.8692 76.5884 41.7259C76.725 41.6528 76.7749 41.4856 76.8781 41.377C77.0106 41.2374 77.0973 41.1732 77.2955 41.1503C77.5319 41.1226 77.6892 40.9668 77.747 40.7316C77.8285 40.3996 77.4734 40.366 77.2253 40.4258C76.8612 40.5137 76.7149 40.1411 76.9059 39.883C77.0016 39.7538 77.0541 39.6323 76.8958 39.5131C76.7884 39.4322 76.5674 39.461 76.5696 39.2771C76.5722 39.0504 77.1878 38.9208 76.8361 38.6254C76.6642 38.481 76.3042 38.4319 76.0926 38.4637C76.2716 38.2244 76.722 37.4316 76.5084 37.1898C76.4499 37.1237 76.3148 37.0801 76.3249 36.9627C76.3346 36.8519 76.4803 36.7973 76.5651 36.7533C76.838 36.6119 77.202 36.6378 77.2977 36.3043C77.3311 36.1884 77.3296 36.0566 77.3934 35.9513C77.4648 35.8332 77.6006 35.7615 77.69 35.6567C77.8656 35.4503 77.8934 35.1992 78.0863 35.0039C78.212 34.8765 78.5795 34.4991 78.5329 34.2994C78.4736 34.0449 78.0833 34.1712 77.9519 34.2912C77.8292 34.4035 77.7117 34.5172 77.6873 34.6845C77.6689 34.8104 77.729 34.9551 77.6487 35.0655C77.5128 35.2524 77.1236 35.19 76.9145 35.2801C76.6773 35.3823 76.5141 35.5873 76.2371 35.5965C76.0974 35.6013 75.9886 35.5348 75.8546 35.5252C75.6741 35.5127 75.584 35.6523 75.4635 35.7723C75.2845 35.9502 75.1366 36.1049 75.1216 36.3697C75.1081 36.6101 74.9647 36.8368 74.6937 36.7899C74.4948 36.7556 74.3353 36.5728 74.2786 36.3793C74.2377 36.2401 74.291 36.0861 74.2625 35.9462C74.2445 35.8587 74.2092 35.8435 74.2306 35.7527C74.2482 35.6777 74.3222 35.5821 74.3706 35.5256C74.5714 35.2926 74.8363 35.2417 74.7639 34.8794C74.7099 34.6073 74.7624 34.4035 74.893 34.159C74.9403 34.0704 74.9662 33.9515 75.0266 33.8725C75.1133 33.7599 75.2488 33.7654 75.3562 33.686C75.5116 33.5708 75.6343 33.3522 75.7172 33.1842C75.852 32.9117 75.7653 32.5429 75.3836 32.6237C75.2166 32.6592 75.015 32.781 74.8596 32.8582C74.7928 32.8911 74.7087 32.911 74.6464 32.9472C74.4824 33.0428 74.4888 33.1599 74.4269 33.3227C74.3739 33.4619 74.3056 33.5797 74.1401 33.5365C74.0121 33.5033 73.8808 33.3449 73.8034 33.2463C73.6541 33.0546 73.6132 32.8656 73.537 32.6459C73.463 32.4317 73.4758 32.2881 73.7389 32.1961C73.8545 32.1559 73.9956 32.1891 74.1015 32.1308C74.2471 32.0503 74.2685 31.8568 74.3 31.7099C74.3308 31.5681 74.3349 31.4606 74.4674 31.3871C74.5714 31.3295 74.6986 31.3498 74.7992 31.2804C74.9013 31.2099 74.9219 31.1036 74.97 30.9965C75.0293 30.8639 75.0552 30.8259 74.9129 30.7358C74.7534 30.635 74.5462 30.7391 74.4088 30.6058C74.321 30.5205 74.2865 30.2801 74.3409 30.1686C74.3867 30.0752 74.5169 29.9818 74.5943 29.9009C74.7789 29.7082 74.9602 29.5904 74.9114 29.3028C74.89 29.1776 74.8836 29.0428 74.8619 28.9199C74.839 28.7895 74.7973 28.7884 74.6629 28.7644C74.1791 28.6776 74.2749 29.1868 74.1037 29.4468C73.9997 29.6044 73.8992 29.7473 73.7911 29.8995C73.7096 30.0139 73.6702 30.0475 73.5501 30.1258C73.4146 30.214 73.3703 30.3241 73.32 30.4781C73.242 30.7166 73.3249 30.8868 73.0513 30.9673C72.8535 31.0253 72.7139 30.9887 72.605 30.8045C72.4481 30.539 72.4534 30.2392 72.5754 29.9674C72.6155 29.878 72.6336 29.7891 72.6868 29.7052C72.7465 29.6111 72.8404 29.5343 72.8918 29.4338C72.9728 29.2754 73.0629 28.8202 72.7968 28.8342C72.5281 28.8486 72.4733 29.0723 72.2826 29.1972C71.9981 29.3836 71.7722 29.0092 71.8671 28.7648C71.9471 28.5587 72.1693 28.4775 72.3288 28.3497C72.5337 28.1858 72.6913 27.9676 72.6921 27.7006C72.6929 27.4063 72.7266 27.3384 72.9113 27.1216C72.9976 27.0205 73.0716 26.9049 73.1493 26.7971C73.2348 26.6778 73.3985 26.5198 73.4555 26.3898C73.5084 26.2687 73.4536 26.2074 73.4274 26.0874C73.394 25.9353 73.4191 25.7802 73.4165 25.6262C73.4131 25.442 73.2709 25.288 73.0686 25.3925C72.9192 25.4696 72.9263 25.6358 72.8745 25.7661C72.8205 25.9017 72.7064 25.9367 72.6062 26.0305C72.3644 26.2561 72.3577 26.5859 72.0454 26.7384C71.6374 26.9374 71.7039 26.0966 71.7039 25.8585C71.7039 25.7418 71.6735 25.5808 71.7065 25.4697C71.7628 25.2795 72.1678 25.3009 72.0357 25.0823C71.905 24.8663 71.5507 24.8958 71.479 24.603C71.4539 24.5004 71.4847 24.4487 71.55 24.3737C71.6705 24.2356 71.7316 24.2017 71.7864 24.017C71.8198 23.9044 71.9336 23.7612 71.8957 23.6386C71.8626 23.5319 71.7211 23.4126 71.6667 23.3074C71.5335 23.0493 71.61 22.8499 71.7035 22.5914C71.7628 22.4271 71.8153 22.248 71.8987 22.0933C71.9478 22.0025 72.0747 21.8791 72.0462 21.7621C72.0075 21.6037 71.833 21.6277 71.6997 21.6225C71.4081 21.6114 71.3687 21.432 71.374 21.1698C71.3766 21.0395 71.3619 20.9091 71.3893 20.7806C71.419 20.6411 71.4787 20.5284 71.4089 20.3911C71.3499 20.2755 71.2295 20.2146 71.1142 20.1607C70.9562 20.0865 70.8797 20.0706 70.7532 20.1935C70.5693 20.3726 70.5156 20.5761 70.4627 20.8135C70.4124 21.0398 70.3658 21.1938 70.4522 21.4209C70.5332 21.6343 70.6954 21.9574 70.5794 22.1948C70.4739 22.4109 70.1864 22.3835 69.9995 22.4581C69.7507 22.5574 69.7713 22.7701 69.8603 22.9809C69.9102 23.1002 69.9458 23.1567 70.0415 23.2394C70.1132 23.3014 70.2499 23.3635 70.2228 23.4839C70.2052 23.5621 70.0491 23.6367 69.9924 23.6906C69.8862 23.7918 69.7691 23.9155 69.676 24.0285C69.4838 24.2619 69.6606 24.4797 69.7987 24.6798C69.9192 24.8541 69.9289 24.9442 69.9286 25.1473C69.9278 25.4601 69.8625 25.7425 69.8629 26.0527C69.8629 26.2362 69.8914 26.3219 69.7345 26.4415C69.6062 26.5393 69.4485 26.68 69.2748 26.6734C69.0597 26.6652 68.8533 26.3961 68.7178 26.255C68.589 26.121 68.5226 25.7787 68.2726 25.8274C68.103 26.0257 68.5098 26.2964 68.6352 26.3909C68.7714 26.4939 68.8195 26.543 68.7467 26.6966C68.6795 26.8384 68.562 26.9714 68.4794 27.1072C68.3894 27.2557 68.294 27.3986 68.2839 27.5732C68.267 27.8664 68.2907 27.9912 68.0178 28.1563C67.7247 28.3331 68.0238 28.3963 68.1604 28.5558C68.3522 28.7803 68.172 28.9594 68.1015 29.1913C68.0362 29.4062 68.1979 29.5225 68.4156 29.5225C68.6363 29.5225 69.0139 29.127 69.1333 29.4394C69.1884 29.5837 69.0646 29.7019 69.0807 29.8256C69.0965 29.9452 69.2196 29.9896 69.2811 30.0915C69.4819 30.4234 69.1197 30.4127 68.9062 30.3185C68.726 30.2392 68.4757 29.9353 68.3421 30.2188C68.2223 30.4729 68.5136 30.6018 68.7133 30.6697C68.8716 30.7236 69.1074 30.7118 69.0672 30.933C69.0364 31.1036 68.8093 31.3133 68.818 31.4854C68.8229 31.5865 68.943 31.6201 69.0109 31.6818C69.1336 31.7933 69.1749 31.9395 69.1468 32.1072C69.098 32.4003 68.7726 32.2375 68.6517 32.0673C68.601 31.9956 68.5808 31.8642 68.4693 31.8576C68.3162 31.8483 68.2328 32.1456 68.1428 32.2209C67.987 32.3509 67.7149 32.3128 67.549 32.219C67.2791 32.0669 67.1703 31.794 66.9721 31.5791C66.8753 31.4743 66.7469 31.4134 66.6385 31.3222C66.5641 31.2594 66.4981 31.1571 66.3874 31.1671C66.3363 31.2834 66.4696 31.5352 66.509 31.6489C66.5705 31.8269 66.6647 31.9277 66.8212 32.037C66.9665 32.1382 67.3658 32.3568 67.1774 32.5946C67.0994 32.6928 66.8828 32.7038 66.7736 32.685C66.5495 32.6462 66.1344 32.273 65.9257 32.5107C65.8326 32.6167 65.8912 32.9184 65.9914 33.0066C66.1727 33.1665 66.4917 33.2237 66.6092 33.4556C66.7556 33.744 66.4913 34.083 66.4455 34.3621C66.408 34.5911 66.3825 34.7454 66.5559 34.9278C66.7312 35.1121 67.0115 35.3786 66.9808 35.6644C66.9612 35.8443 66.8224 35.8491 66.67 35.8509C66.4639 35.8531 66.3994 35.8871 66.2489 36.0259C66.0376 36.2209 66.0788 36.3184 66.1682 36.5632C66.2012 36.654 66.2635 36.8021 66.1956 36.8933C66.1427 36.9642 65.8593 37.0306 65.7703 37.065C65.6393 37.1159 65.4352 37.2267 65.3233 37.137C65.2753 37.0986 65.2344 36.9272 65.2002 36.8689C65.1529 36.7892 65.0891 36.7238 65.0324 36.6507C64.8692 36.4399 64.5445 35.7091 64.2694 36.184C64.0911 36.4919 64.3692 36.5625 64.5423 36.7522C64.6564 36.877 64.722 37.0605 64.7397 37.226C64.7802 37.607 64.7168 38.1081 64.4124 38.3736C64.0945 38.6509 63.2789 38.71 63.2812 39.2129C63.2823 39.4429 63.4426 39.5009 63.5578 39.6622C63.7023 39.8646 63.5458 40.0304 63.5007 40.2346C63.4493 40.4687 63.5356 40.7264 63.4745 40.9572C63.4238 41.1484 63.2905 41.2725 63.1588 41.4095C63.1104 41.4597 63.0774 41.5003 63.0323 41.5576C62.8799 41.7521 62.8101 41.7263 62.6183 41.6063C62.4416 41.4959 62.2453 41.3788 62.1206 41.5815C62.0144 41.7551 61.9405 42.004 61.9893 42.2048C62.0306 42.3747 62.1372 42.4474 62.2242 42.59C62.3406 42.7805 62.4427 42.9703 62.508 43.1819C62.565 43.368 62.6825 43.5371 62.702 43.7424C62.7152 43.883 62.699 44.0341 62.699 44.1759C62.699 44.3668 62.7433 44.5905 62.6378 44.7596C62.6022 44.8169 62.5395 44.8593 62.5012 44.9158C62.4003 45.065 62.3781 45.2138 62.1908 45.2814C61.9731 45.3596 61.8354 45.3054 61.6778 45.5147C61.5614 45.6691 61.4848 45.8334 61.4008 46.0043C61.34 46.1288 61.2983 46.2591 61.2675 46.3939C61.2187 46.6081 61.3137 46.6634 61.4038 46.8433C61.5224 47.0799 61.5231 47.3968 61.3921 47.6338C61.2597 47.8738 60.9943 48.0843 60.807 48.2837C60.7169 48.3797 60.6475 48.489 60.5477 48.5765C60.4565 48.6563 60.3469 48.7028 60.265 48.794C59.967 49.1274 59.7771 49.5543 59.4776 49.8858C59.3759 49.9985 59.2757 50.0708 59.2291 50.2207C59.1623 50.4371 59.1484 50.6435 59.1484 50.8691C59.1484 51.0512 59.1488 51.2092 59.1965 51.3864C59.2539 51.6013 59.356 51.8159 59.3984 52.033C59.4367 52.2283 59.4115 52.4421 59.4115 52.6396V53.829C59.4115 54.1251 59.3947 54.4275 59.4104 54.7233C59.4194 54.895 59.5088 54.9566 59.6093 55.1021C60.1408 55.8698 60.5589 56.7729 60.8592 57.6488C60.9387 57.881 61.0555 58.0775 61.1707 58.2909C61.2383 58.4161 61.2277 58.4703 61.379 58.5342C61.5273 58.5966 61.6012 58.6328 61.7172 58.7447C62.0234 59.0397 62.344 59.402 62.3729 59.8391C62.3984 60.2261 62.3031 60.6061 62.3046 60.9949C62.3053 61.2197 62.2622 61.4601 62.3691 61.654C62.5024 61.8958 62.785 62.0339 63.0248 62.1691C63.3863 62.3729 63.8134 62.4615 64.209 62.5726C64.993 62.7931 65.7872 63.0013 66.5833 63.1756C66.9515 63.2561 67.3234 63.3196 67.6916 63.4016C68.1555 63.505 68.7031 63.5437 69.1441 63.7236C69.4042 63.8295 69.5803 63.9706 69.81 64.1235C70.1369 64.3406 70.4503 64.5632 70.7873 64.7604C70.8342 64.7877 70.8827 64.808 70.9288 64.8346C71.0936 64.9295 71.2197 65.0635 71.3837 65.1629C71.5616 65.2707 71.7583 65.3172 71.9433 65.4066C72.0942 65.4793 72.1265 65.5354 72.3081 65.541C72.6272 65.5506 72.9567 65.4716 73.2776 65.4649C73.7389 65.4553 74.2017 65.4682 74.6629 65.4682H76.0396C76.3054 65.4682 76.5989 65.4328 76.862 65.466C77.0335 65.4874 77.2489 65.5897 77.4073 65.6606C77.5342 65.7171 77.6108 65.7773 77.7534 65.8109C77.8555 65.8349 77.9662 65.8423 78.0657 65.8707C78.3096 65.9401 78.5104 66.048 78.7322 66.1617C78.7536 66.0701 78.715 66.0144 69.798 63.7871L69.7998 63.7863Z" fill="#94A58B"/>
<path d="M45.3646 62.7719C45.2648 62.642 45.0366 62.6549 44.8936 62.6047C44.7795 62.5644 44.6853 62.5035 44.576 62.4547C44.3422 62.3503 44.1249 62.423 43.8854 62.3624C43.2286 62.1959 42.5373 62.0689 41.906 61.7753C41.2919 61.4896 40.6385 61.3005 40.023 61.0047C39.5932 60.7983 39.1665 60.6514 38.7619 60.3936C38.4207 60.1765 38.2184 59.791 37.9725 59.475C37.7166 59.1456 37.437 58.848 37.1052 58.6006C36.7546 58.3392 36.3928 58.1498 36.0238 57.9242C35.6838 57.7159 35.331 57.5412 34.9883 57.3419C34.67 57.1565 34.4028 56.9305 34.1029 56.7433C33.6754 56.4763 33.4281 56.0768 33.4341 55.5883C33.4408 55.047 32.9863 55.0315 32.5423 54.8875C32.1546 54.7619 31.7447 54.7993 31.4805 54.4385C31.3994 54.3277 31.1356 53.981 31.1941 53.8547C31.2666 53.6982 31.4002 53.7513 31.5503 53.7377C31.6186 53.3662 30.9667 53.1535 30.8473 52.8807C30.7588 52.6776 30.9795 52.579 31.163 52.5938C31.3792 52.6108 31.6051 52.7592 31.7804 52.874C31.9669 52.9962 32.1054 53.1617 32.34 53.1081C32.4838 53.0752 32.5986 52.9091 32.742 52.8917C33.0862 52.8504 33.4071 53.2769 33.7329 53.3489C34.2245 53.4578 34.202 52.9072 34.6081 52.792C34.7946 52.7392 35.0176 52.8441 35.1921 52.7917C35.3287 52.7503 35.593 52.4808 35.5738 52.3135C35.5239 51.8789 34.786 51.9498 34.5293 51.7951C34.1656 51.5758 34.4906 51.0861 34.0474 50.9488C33.8349 50.8831 33.5921 50.9909 33.3823 50.9314C33.0366 50.8332 32.7412 50.4629 32.6144 50.1556C32.3791 49.5855 33.0599 48.7071 33.7077 49.1059C33.8991 49.2237 33.9393 49.453 34.0718 49.6221C34.1694 49.7465 34.2895 49.8414 34.4253 49.9227C34.8836 50.197 35.164 49.882 35.5821 49.6923C35.8587 49.5667 36.2348 49.7705 36.49 49.9219C36.8293 50.1235 37.0943 50.7077 37.4681 50.7531C37.7672 50.7893 38.2724 50.687 38.4173 50.406C38.5329 50.1819 38.4049 49.9138 38.4781 49.6815C38.4995 49.614 38.5716 49.5445 38.6001 49.4759C38.6511 49.3514 38.6365 49.2285 38.6669 49.1007C38.7101 48.9198 38.8482 48.8231 38.9082 48.6554C39.0625 48.2267 38.2874 48.1928 38.0615 47.9332C37.8937 47.7404 37.8588 47.6677 38.0596 47.4919C38.1996 47.3697 38.361 47.3261 38.3021 47.1168C38.2739 47.0171 38.1977 46.9569 38.173 46.8524C38.1531 46.7686 38.2007 46.6608 38.176 46.5851C38.1065 46.3757 37.95 46.3783 37.7466 46.3746C37.4891 46.3698 37.1735 46.3262 36.9246 46.3809C36.7253 46.4248 36.6097 46.5969 36.3909 46.5633C36.3023 46.5496 36.216 46.4673 36.1409 46.4263C36.0554 46.3794 35.8452 46.3281 35.7836 46.2631C35.65 46.1224 35.6996 45.9729 35.8861 45.902C36.1117 45.8163 36.2824 45.9891 36.338 45.7018C36.38 45.484 36.2978 45.4504 36.505 45.3333C36.7377 45.2019 36.9663 45.1103 37.1618 44.8991C37.2455 44.809 37.4456 44.5672 37.4452 44.4357C37.4445 44.2803 37.187 43.9568 37.0759 43.866C36.8087 43.6474 36.1331 43.4609 35.8212 43.6529C35.5074 43.846 35.2342 44.1315 34.866 43.8132C34.4141 43.4225 35.0919 43.3261 34.9943 42.9591C34.9133 42.6534 34.592 42.4466 34.3683 42.2498C34.1258 42.0367 33.4739 41.8754 33.4262 41.5191C33.335 40.8419 34.5499 41.7284 34.7098 41.8709C34.9504 42.0851 34.9849 42.1165 35.3025 42.1099C35.5314 42.1051 35.772 42.1364 35.9972 42.0995C36.326 42.046 36.5992 41.909 36.9321 41.9134C37.1179 41.916 37.1964 41.9193 37.3551 42.0345C37.6291 42.2324 37.5616 42.1841 37.8652 42.0083C38.1688 41.8329 38.2612 41.83 38.5355 42.0068C38.7292 42.1316 38.9067 42.3166 39.1541 42.3155C39.4611 42.3144 39.4611 42.1032 39.645 41.9285C39.8668 41.7177 39.8589 41.899 40.1382 41.9042C40.6141 41.9131 40.7289 41.1812 40.5743 40.8433C40.446 40.5635 40.0121 39.8748 40.2763 39.5865C40.512 39.5418 40.5034 39.7748 40.6404 39.8844C40.8453 40.0484 41.1501 39.8818 41.3332 40.0779C41.5731 40.3345 41.3895 41.0974 42.0066 40.9312C42.1503 40.8925 42.559 40.6687 42.627 40.5361C42.7523 40.2921 42.4314 40.0561 42.2843 39.877C42.1781 39.7474 42.0647 39.6116 41.9356 39.503C41.8493 39.4306 41.7029 39.3789 41.6301 39.2999C41.4458 39.1002 41.5528 38.903 41.5224 38.6593C41.5036 38.5094 41.4394 38.4041 41.3595 38.2767C41.2627 38.1224 41.1865 37.9492 41.0784 37.8037C40.95 37.6313 40.6813 37.402 40.9316 37.2166C41.1688 37.0413 41.4548 37.1712 41.6218 37.3584C41.8936 37.6623 42.0666 38.0127 42.3143 38.3244C42.6364 38.7298 43.1843 38.8225 43.685 38.6981C43.6081 38.2347 43.0338 38.0833 42.9103 37.6487C42.8214 37.3352 42.9704 37.2783 43.1014 37.0472C43.2324 36.8157 43.2256 36.614 43.1232 36.3774C43.0676 36.25 42.9588 36.1292 42.9194 35.9963C42.8781 35.8571 42.9374 35.7216 42.8923 35.5846C42.7291 35.0902 42.0298 35.366 41.7213 35.5085C41.4586 35.63 41.1951 35.6983 40.9282 35.8058C40.6726 35.9088 40.4403 35.9704 40.2958 35.6876C40.1097 35.3239 40.3761 35.39 40.5676 35.2275C40.852 34.986 40.6546 34.9181 40.5278 34.6644C40.2853 34.1789 40.6914 33.8096 40.8558 33.3503C40.9812 32.9999 41.1936 32.5745 40.6314 32.4948C40.1772 32.4302 40.0601 33.1509 39.6435 32.878C39.4416 32.7459 39.4187 32.5302 39.3519 32.3342C39.3654 32.216 39.3271 32.1163 39.2363 32.0347C39.1439 31.9786 39.0482 31.928 38.9495 31.8829C38.8152 31.7574 38.5761 31.3147 38.5637 31.1345C38.5367 30.7505 38.8733 30.8952 39.0343 31.0662C39.3042 31.3523 39.7415 31.9324 39.7456 31.1636C39.7467 30.9809 39.6822 30.2446 40.0203 30.2919C40.2403 30.3225 40.1408 30.814 40.1389 30.9506C40.1352 31.2172 40.0413 31.4439 40.3217 31.568C40.8145 31.7862 41.3358 31.356 41.817 31.5709C42.0351 31.6684 42.0223 31.8674 42.3034 31.8065C42.3853 31.7264 42.4844 31.6806 42.6007 31.6695C42.7216 31.6957 42.8439 31.7135 42.9674 31.7227C43.0608 31.5185 43.0072 31.3652 43.1862 31.1976C43.36 31.0351 43.6148 30.9875 43.7969 30.8391C43.9995 30.6737 44.0412 30.4174 44.0716 30.1744C44.0832 30.0807 44.0776 29.9754 44.1016 29.8835C44.1467 29.7107 44.2945 29.5837 44.2671 29.3968C44.2052 28.9762 43.7657 28.8223 43.4223 29.0028C43.2275 29.1051 43.0852 29.2861 42.8462 29.2573C42.645 29.2329 42.4877 29.0553 42.4472 28.8625C42.3853 28.5682 42.7186 28.2381 42.8597 27.9885C43.178 27.4254 42.52 27.6378 42.2077 27.5646C42.0073 27.5178 42.0197 27.3379 41.8587 27.2294C41.6954 27.1193 41.5092 27.2319 41.3843 27.0628C41.2338 26.859 41.2491 26.1999 41.406 26.0042C41.5081 25.8768 41.8084 25.6948 41.9626 25.7723C42.1616 25.872 42.1139 26.2136 42.1113 26.3982C42.1086 26.5777 42.0696 26.7671 42.3038 26.7726C42.511 26.7774 42.5741 26.5496 42.7482 26.4791C43.1111 26.3329 43.3675 26.8273 43.6467 26.3879C43.8085 26.1335 43.7556 26.0633 43.6362 25.8141C43.5161 25.5626 43.5889 25.2957 43.6865 25.0545C43.8622 24.6196 43.9188 24.3275 43.6936 23.8929C43.5146 23.5477 43.1749 23.2187 43.2129 22.8014C43.2297 22.6172 43.2827 21.9175 43.5976 22.1013C43.7879 22.2125 43.6888 22.9306 43.6888 23.1326C43.6888 23.4398 43.6054 23.8855 44.0202 23.9689C44.2056 24.0062 44.4248 23.8733 44.6211 23.8648C44.7374 23.8597 44.9097 23.8357 45.0201 23.8604C45.5729 23.9852 45.5181 25.488 44.951 25.5781C44.8001 25.371 45.0572 24.8437 45.2865 24.7543C45.6168 24.6262 45.8968 25.0556 46.2181 25.0808C46.369 24.929 46.39 24.5586 46.4275 24.3533C46.4718 24.1115 46.45 23.8623 46.4497 23.6174C46.4497 23.3689 46.4913 23.092 46.405 22.8557C46.3116 22.6009 46.0961 22.4093 45.982 22.166C46.1922 22.2941 46.2943 22.5237 46.5461 22.5969C46.8167 22.6755 46.9845 22.5352 47.2153 22.4366C47.2848 22.4071 47.4623 22.3989 47.507 22.3288C47.5873 22.2032 47.4541 22.0434 47.3929 21.94C47.2713 21.7354 47.1076 21.5549 46.9995 21.3429C46.8498 21.0494 46.6614 20.7348 46.5458 20.4294C46.4617 20.2067 46.4553 19.9527 46.3461 19.7411C46.2275 19.5118 46.0019 19.3512 45.7891 19.2124C45.4753 19.0074 44.7269 18.7612 44.6331 18.3576C44.5374 17.9451 44.8602 17.2882 45.3721 17.4718C45.8345 17.6375 45.8176 18.2313 46.3919 18.2453C46.5469 18.249 46.6659 18.2084 46.7957 18.2978C47.0127 18.4473 46.9323 18.8158 47.1298 18.9491C47.3336 18.9074 47.4154 18.6917 47.5336 18.5536C47.6564 18.4107 47.8429 18.3568 47.9089 18.1667C47.7813 17.8606 47.2168 17.707 46.9913 17.4334C46.8378 17.2476 46.78 17.1151 46.7188 16.8806C46.6741 16.7089 46.5048 16.4571 46.5754 16.2832C46.9346 16.0166 47.2191 16.7026 47.4338 16.8692C47.6443 17.0327 47.9634 17.1291 48.2246 17.1867C48.5279 17.2532 48.7275 17.4345 48.994 17.574C49.2181 17.6915 49.1318 17.6604 49.3018 17.4961C49.4632 17.3403 49.5964 17.2993 49.7833 17.1771C50.0018 17.0346 50.4116 16.6779 50.3872 16.4065C50.3726 16.2444 50.2611 16.2163 50.1913 16.0908C50.0753 15.8814 50.1339 15.7256 50.105 15.5129C50.0656 15.2212 49.4647 15.0529 49.2053 14.938C48.9599 14.8295 48.443 14.7608 48.3755 14.4569C48.3165 14.1918 48.5977 14.1327 48.8109 14.1619C48.9265 14.1778 49.1002 14.297 49.2177 14.2616C49.3509 14.2213 49.369 13.9898 49.4099 13.8886C49.4681 13.7454 49.6032 13.5884 49.5018 13.4551C49.429 13.3591 49.2297 13.347 49.116 13.2971C48.7729 13.1461 48.3477 13.1191 48.3136 12.6849C48.291 12.3976 48.4802 12.2754 48.3635 11.9881C48.2186 11.6307 48.1627 11.538 48.52 11.3785C48.7028 11.2969 49.0237 11.202 49 10.9653C48.9805 10.7707 48.7234 10.4554 48.645 10.2763C48.7227 10.2036 48.8217 10.2302 48.8953 10.1755C49.0451 10.064 49.0147 9.97171 49.018 9.80259C49.0225 9.56185 49.0154 9.35433 48.943 9.12318C48.875 8.90533 48.7763 8.81524 48.6416 8.64022C48.5631 8.53868 48.5207 8.43824 48.4145 8.34703C48.2952 8.24438 48.124 8.18199 48.0467 8.03946C48.2276 7.76807 48.7493 8.61879 48.8154 8.73289C48.8739 8.84403 48.9415 8.94927 49.018 9.04933C49.0751 9.16269 49.1107 9.28232 49.1258 9.40824C49.351 9.6272 49.554 9.41008 49.7098 9.1974C49.8471 9.01019 49.9166 8.83813 49.9984 8.63393C50.0558 8.4903 50.0956 8.31491 50.2964 8.36919C50.5058 8.42568 50.4676 8.88724 50.4912 9.03309C50.5163 9.18743 50.4919 9.32553 50.686 9.39199C51.082 9.18817 51.0328 8.41682 50.9645 8.04241C50.9273 7.83969 50.8759 7.5347 50.7453 7.37002C50.5918 7.17617 50.278 7.12078 50.3032 6.81173C50.6714 6.69246 50.2923 6.2538 50.2247 6.00936C50.3321 5.88973 50.4642 5.96173 50.5959 5.90487C50.7363 5.84394 50.9052 5.63421 50.993 5.52639C51.3252 5.11912 50.8988 4.97068 50.683 4.64132C50.5603 4.45411 50.2555 3.85852 50.5396 3.79944C50.7235 3.76104 50.8459 3.95563 51.0328 3.8323C51.2107 3.71488 51.2111 3.40546 51.1634 3.22194C51.0752 2.88187 50.8894 2.60753 50.8819 2.24013C50.8774 2.02006 50.8601 1.77525 50.8812 1.55666C50.8917 1.44552 50.8939 1.28933 51.0534 1.26569C51.3072 1.22803 51.2783 1.5718 51.3736 1.70251C51.6532 2.08616 52.009 1.50165 52.1693 1.24392C52.2958 1.04083 52.7477 -0.402907 53.1628 0.109233C53.3208 0.304193 53.2795 0.783466 53.2446 1.02754C53.2206 1.1948 53.1677 1.39899 53.0967 1.55186C53.0231 1.71063 52.8452 1.7867 52.7758 1.93698C52.6906 2.12161 52.7469 2.28813 52.6148 2.46906C52.5108 2.61159 52.3689 2.71239 52.3599 2.90662C52.3494 3.13592 52.4868 3.09677 52.5987 3.26256C52.7368 3.46675 52.5514 3.65802 52.4177 3.83674C52.2361 4.0797 51.7043 4.4194 52.0184 4.71332C52.1637 4.8492 52.3127 4.86803 52.4099 5.05635C52.521 5.27162 52.5258 5.47285 52.6711 5.68036C52.7709 5.82252 52.8456 5.98093 52.95 6.11644C53.0817 6.2874 53.2127 6.35681 53.2476 6.59202C53.2904 6.88003 53.2322 7.18355 53.2491 7.47452C53.2667 7.77656 53.4713 8.03281 53.6443 8.27688C53.761 8.44193 53.9626 8.73807 54.2227 8.638C54.4419 8.55344 54.4104 8.2647 54.4516 8.08377C54.6768 8.17239 54.8709 8.34556 55.0094 8.54015C55.2361 8.85843 55.2856 9.17082 55.033 9.46806C54.8382 9.69699 54.5113 9.87755 54.3698 10.1423C54.2666 10.3354 54.3691 10.3284 54.3908 10.4816C54.4194 10.6792 54.3796 10.712 54.2392 10.873C53.9952 11.1529 53.9847 11.2807 53.9202 11.6462C53.8676 11.9446 53.7802 12.2425 53.7205 12.5405C53.6533 12.8754 53.6987 13.2111 53.6376 13.5412C53.6109 13.6856 53.5824 14.1689 53.4705 14.2431C53.2983 13.7775 53.5238 13.32 53.9446 13.1225C54.1852 13.0095 54.2606 12.8872 54.4546 12.713C54.6329 12.5527 55.0799 12.168 55.3269 12.3592C55.3213 12.5738 55.0034 12.7407 54.8765 12.9068C54.8187 12.9825 54.7313 13.0663 54.6859 13.1494C54.6296 13.2524 54.6596 13.365 54.6149 13.4677C54.5143 13.6985 54.2816 13.8085 54.1919 14.0666C54.0955 14.345 54.1409 14.6533 54.139 14.9443C54.1379 15.1489 54.0628 15.5207 54.2231 15.6861C54.3589 15.826 54.7936 15.8689 54.973 15.8135C55.0867 15.7784 55.3254 15.6248 55.4245 15.5384C55.7642 15.2412 55.3825 15.0218 55.4226 14.6973C55.8685 14.7708 55.8839 15.2977 56.3489 14.8523C56.493 14.7146 56.6665 14.6042 56.8061 14.4665C56.9449 14.3295 57.0072 14.1364 57.0966 13.9691C57.2257 13.7265 57.4212 13.5264 57.5676 13.2949C57.717 13.0586 57.6915 12.5494 57.9917 12.4608C58.2807 12.8322 57.9887 13.2473 57.8491 13.5895C57.7192 13.9082 57.7264 14.0758 57.4028 14.2568C57.1593 14.393 56.9776 14.6301 56.7944 14.8472C56.5854 15.0953 56.5764 15.2057 56.7768 15.4513C56.9735 15.692 56.8676 15.9346 56.8924 16.2141C56.9513 16.8799 57.708 16.1887 58.0548 16.1565C58.2034 16.4992 57.5492 16.8706 57.2914 17.0102C57.1604 17.0811 57.0301 17.1398 56.904 17.2214C56.8121 17.2809 56.3591 17.4422 56.3302 17.5094C56.1688 17.8857 57.0414 17.8381 56.7107 18.3443C56.5351 18.6131 56.0577 18.753 56.1233 19.1496C56.2183 18.9971 56.2082 18.8446 56.3245 18.6954C56.4499 18.5348 56.5441 18.5082 56.7021 18.4344C56.9813 18.3037 57.3435 18.132 57.6674 18.1501C57.8037 18.4218 57.3953 18.4458 57.2835 18.5717C57.1938 18.6725 57.059 19.0876 57.1067 19.2198C57.1469 19.3313 57.3413 19.421 57.404 19.5203C57.5654 19.7758 57.4336 19.9881 57.1968 20.1432C56.9145 20.3282 56.4037 20.223 56.5174 20.7484C56.6237 21.2399 56.9637 21.2355 57.3863 21.2081C57.5233 21.6538 56.9205 22.1475 56.8969 22.6079C56.8808 22.9188 56.8541 23.2958 56.919 23.5993C56.9723 23.8471 57.1063 24.1207 57.3777 23.8563C57.5421 23.6961 57.4588 23.5251 57.4989 23.3357C57.5357 23.1618 57.6329 23.0466 57.5845 22.8549C57.5443 22.6969 57.1641 22.2176 57.4817 22.0965C57.6175 22.153 57.7016 22.3886 57.8577 22.3949C57.9763 22.3997 58.116 22.2147 58.1685 22.1338C58.361 21.8373 58.1685 21.5142 58.3779 21.2495C58.6166 20.9471 58.9109 20.8082 59.2224 21.0471C59.3279 21.128 59.4611 21.2351 59.5426 21.3433C59.6495 21.4865 59.6015 21.6557 59.8361 21.7155C60.0286 21.639 60.0917 21.3226 60.2032 21.1516C60.3045 20.9958 60.3931 20.837 60.4741 20.6698C60.5811 20.4493 60.8251 19.5004 61.1689 19.5303C61.4597 19.5558 61.337 20.2847 61.337 20.4785C61.337 20.7521 61.3892 21.0785 61.3419 21.347C61.2623 21.7989 60.9729 22.2394 60.7035 22.6006C60.5383 22.8221 60.4925 22.9642 60.4276 23.2142C60.3675 23.4454 60.175 23.63 60.1622 23.8645C60.148 24.134 60.5143 24.3917 60.4486 24.6498C60.4193 24.7651 60.1461 24.8662 60.0556 24.9323C59.9295 25.0243 59.8177 25.1155 59.7137 25.2307C59.4326 25.5427 59.0002 26.1098 59.0817 26.5607C59.2311 26.66 59.5951 25.9437 59.8432 25.9503C60.2103 26.2479 59.8199 26.8634 59.7145 27.1673C59.6405 27.3808 59.5538 28.0347 59.7666 28.1381C60.1232 28.3112 60.5965 27.8722 60.732 28.4272C60.798 28.6982 60.6269 28.9589 60.5233 29.2022C60.4846 29.2931 60.3405 29.5242 60.3559 29.5999C60.3994 29.8159 60.5635 29.7195 60.7305 29.7849C60.8949 29.8491 60.9707 29.8237 60.8577 30.0548C60.8179 30.1364 60.6438 30.2985 60.5747 30.3694C60.4715 30.4758 60.3473 30.5673 60.2486 30.6803C60.1258 30.8206 60.0609 31.0049 59.9367 31.1459C59.776 31.3283 59.6492 31.4243 59.5373 31.6307C59.4289 31.8309 59.18 31.9701 59.1579 32.206C59.1185 32.624 59.7366 32.5033 60.0084 32.5033C60.4261 32.5036 60.6641 32.463 61.0232 32.2127C61.2173 32.0772 61.6005 31.6429 61.5731 32.2112C61.5667 32.343 61.3974 32.4722 61.4376 32.6044C61.4883 32.7706 61.7848 32.7894 61.909 32.7783C62.1823 32.754 61.9976 32.6761 62.2949 32.7946C62.5298 32.888 62.4945 32.9187 62.7163 32.8016C62.9652 32.6702 63.2167 32.4704 63.5038 32.3999C63.7113 32.3485 63.8097 32.4287 64.0011 32.4172C64.2195 32.4039 64.2537 32.3046 64.417 32.2101C64.5697 32.1215 64.6969 32.0823 64.8339 31.9738C64.9777 31.86 65.0861 31.6961 65.2993 31.7312C65.5028 31.9557 65.0539 32.2518 64.8895 32.3504C64.7607 32.4276 64.617 32.4722 64.4965 32.562C64.3663 32.6587 64.2976 32.7961 64.1722 32.8995C64.0364 33.0117 63.7871 33.0501 63.6892 33.1997C63.5135 33.4685 63.8783 33.5667 63.9763 33.7653C63.8626 33.9588 63.4921 34.0803 63.3075 34.2018C63.1127 34.3299 62.9108 34.4488 62.737 34.6043C62.8665 34.5566 63.3019 34.334 63.4032 34.5267C63.5507 34.8073 63.0234 34.9222 62.8646 34.9872C62.615 35.0891 62.2971 35.2567 62.177 35.5078C62.0385 35.7965 62.1999 35.8859 62.3298 36.1126C62.4454 36.3142 62.4003 36.6617 62.3298 36.8744C62.2674 37.0608 61.9428 37.3056 61.7334 37.3477C61.417 37.4116 61.2736 37.1022 60.9508 37.2927C60.6701 37.4585 60.5481 37.769 60.3916 38.0338C60.2489 38.2753 60.0204 38.4396 59.9232 38.7147C59.7539 39.1936 60.032 39.0016 60.3338 39.0444C60.7706 39.1064 61.0368 39.9967 61.5866 39.8822C61.7848 39.8409 61.9071 39.4517 62.0269 39.2925C62.1928 39.0717 62.3346 38.8162 62.52 38.6109C62.6916 38.4211 62.8428 38.2188 63.0132 38.029C63.1356 37.8924 63.3221 37.649 63.4936 37.5947C63.6295 38.0017 63.175 38.389 63.211 38.7834C63.3837 38.9078 63.7121 38.7161 63.9084 38.7062C64.1861 38.6918 64.3317 38.9011 64.5907 38.8985C64.8287 38.8963 65.043 38.732 65.1293 38.5145C65.1999 38.3366 65.1105 37.8156 65.4592 37.8824C65.7494 38.1091 65.6311 38.6752 65.6897 38.982C65.8886 39.0647 66.1228 38.5319 66.2647 38.4137C66.7406 38.0183 66.6261 38.5721 66.8554 38.8147C67.2679 38.7523 66.887 37.9455 67.5021 38.1752C67.894 38.3218 68.1064 38.3835 68.5399 38.2036C68.657 38.1549 68.9092 37.9721 69.0395 38.0367C69.2789 38.1549 69.0763 38.5788 68.9866 38.7261C68.7707 39.0787 68.4164 39.4653 68.0197 39.6105C67.8152 39.6854 67.6834 39.7101 67.5472 39.8896C67.4717 39.9889 67.382 40.1414 67.3629 40.2655C67.3441 40.3873 67.4289 40.5236 67.4105 40.6362C67.3265 41.1535 66.4989 41.2251 66.2332 41.6228C65.9573 42.036 65.8856 42.6017 65.9614 43.0928C66.0402 43.602 66.8367 43.0374 67.1508 43.0304C67.1944 43.4473 66.6085 43.7216 66.7635 44.141C66.8431 44.3571 67.0469 44.3386 67.2022 44.473C67.3546 44.6048 67.304 44.6835 67.3895 44.8666C67.6872 44.8803 68.022 44.583 68.2918 44.7843C68.4881 44.9305 68.4862 45.3134 68.3755 45.5006C68.225 45.755 67.8973 45.8137 67.7405 46.0814C67.4714 46.5411 67.2499 46.92 67.1444 47.441C67.0855 47.7316 66.9872 47.9107 67.0375 48.2156C67.075 48.4435 67.1756 48.6584 67.3659 48.809C67.5712 48.9715 67.8422 49.069 68.0411 48.8866C68.2333 48.7104 68.4085 48.5129 68.6623 48.404C69.1025 48.2145 68.8597 48.5509 69.0815 48.7481C69.2343 48.8836 69.4459 48.7093 69.5784 48.5997C69.9365 48.3032 70.3614 48.2245 70.7836 48.0476C70.984 47.9638 71.2081 47.9609 71.398 47.8745C71.5808 47.7914 71.7437 47.6153 71.9013 47.4927C72.0646 47.5916 71.7313 48.0148 71.6442 48.1274C71.4934 48.3223 71.3147 48.4291 71.0963 48.5376C70.6898 48.7396 70.1767 48.9844 70.1155 49.4766C70.0968 49.6287 70.1628 49.8256 70.0998 49.9684C70.0164 50.1582 69.7413 50.1833 69.5664 50.2443C69.3878 50.3067 69.1881 50.403 69.2324 50.6438C69.2534 50.7586 69.4212 50.9082 69.4658 51.0296C69.5176 51.1707 69.5439 51.3487 69.5537 51.4982C69.5799 51.8996 69.3863 51.8121 69.0451 51.9155C68.8161 51.9849 68.5699 52.1772 68.3519 52.2991C68.1848 52.3921 68.0276 52.4749 67.8444 52.535C67.5633 52.6277 67.4608 52.8009 67.3464 53.0708C67.2169 53.3758 67.1989 53.5183 66.9568 53.7491C66.8089 53.8902 66.6745 54.0268 66.5533 54.1896C66.3949 54.4023 66.2305 54.6549 66.1889 54.9207C66.1521 55.1559 66.238 55.3531 45.3612 62.7716L45.3646 62.7719Z" fill="#6C7860"/>
<path d="M66.4282 44.3955H71.1113V51.6642C71.1113 52.8014 71.5871 53.8913 72.4318 54.689L87.4697 68.8887H19.4697L22.0359 66.6731C22.6849 65.9984 45.0036 45.9365 51.9828 39.6651C53.1417 38.6237 54.9458 38.6309 56.0958 39.6809L66.0433 48.7646" fill="#F7FDFB"/>
<path d="M34.0625 61.7082L52.7692 44.1984C53.4335 43.5766 54.4747 43.5714 55.1454 44.1862L74.677 62.0882L55.5837 47.6618C54.7348 47.0205 53.5536 47.0197 52.7035 47.66L34.0625 61.7082Z" fill="#3B3B3B"/>
</svg>
