<svg width="141" height="154" viewBox="0 0 141 154" fill="none" xmlns="http://www.w3.org/2000/svg">
  <path d="M140.999 68.5712C140.914 81.7938 136.933 94.1229 130.109 104.54C129.654 105.235 129.187 105.92 128.707 106.597C128.451 106.957 128.03 107.175 127.578 107.175H13.4246C12.9719 107.175 12.5486 106.958 12.2931 106.597C4.53678 95.6526 0 82.4086 0 68.1404C0 30.4694 31.6271 -0.0614364 70.6174 9.28375e-05C109.741 0.0616221 141.241 30.7576 140.999 68.5712Z" fill="url(#paint0_radial_368_166)" />
  <path d="M2.94113 116.804C2.87922 116.475 2.17766 116.106 2.17766 116.106H3.68396L7.70761 116.065C9.998 116.065 11.8551 117.932 11.8551 120.211C11.8551 121.709 11.0503 123.022 9.83293 123.74C12.0202 123.946 13.7328 125.772 13.7328 127.989C13.7328 130.349 11.8138 132.237 9.44088 132.237H2.1983C2.1983 132.237 2.87922 131.867 2.92049 131.519C3.02366 130.431 3.1681 128.071 3.1681 124.192C3.1681 120.334 3.12683 117.85 2.94113 116.804ZM12.0202 127.989C12.0202 126.162 10.5758 124.5 8.73932 124.418C8.1822 124.397 7.41874 124.377 6.65527 124.377C6.11878 124.377 5.5823 124.397 5.10771 124.397C5.10771 128.009 5.25215 130.287 5.35532 131.395C6.44893 131.478 7.74888 131.58 8.65679 131.58C10.4932 131.58 12.0202 129.815 12.0202 127.989ZM7.06796 116.763H6.63464C6.22196 116.763 5.78864 116.783 5.37596 116.804C5.29342 117.912 5.12835 120.354 5.10771 123.679H6.96479C8.73932 123.679 10.2043 121.975 10.2043 120.211C10.2043 118.446 8.82186 116.845 7.06796 116.763Z" fill="#F7FDFB" />
  <path d="M21.1279 124.315L18.5073 124.336V125.157C18.5073 128.563 18.6311 130.718 18.7756 131.601C18.8168 131.991 19.4771 132.237 19.4771 132.237H15.5979C15.5979 132.237 16.2582 131.888 16.3201 131.539C16.4026 130.472 16.5677 128.071 16.5677 124.171C16.5677 120.313 16.4233 117.809 16.2788 116.598C16.2376 116.332 15.5979 116.106 15.5979 116.106H17.1042L21.1072 116.065C23.3976 116.065 25.2547 117.932 25.2547 120.211C25.2547 122.468 23.4183 124.315 21.1279 124.315ZM20.4676 116.763H19.993C19.6009 116.763 19.1676 116.763 18.7756 116.783C18.693 117.891 18.528 120.354 18.5073 123.658H20.3644C22.1389 123.658 23.604 121.955 23.604 120.211C23.604 118.446 22.2215 116.845 20.4676 116.763Z" fill="#F7FDFB" />
  <path d="M27.8467 131.498C27.9292 130.492 28.0737 128.173 28.0737 124.13C28.0737 120.539 27.9086 117.953 27.8054 116.783C27.7642 116.414 27.1039 116.106 27.1039 116.106H34.9036C37.0289 116.106 38.5558 115.839 38.5558 115.839C38.5558 115.839 38.3082 116.845 38.1844 117.666C38.0606 118.712 38.04 120.518 38.04 120.518C38.04 120.518 37.194 116.783 34.7591 116.783H30.2815C30.1784 117.932 30.0339 120.436 30.0133 123.823L33.129 123.802C34.8829 123.761 35.275 122.694 35.275 122.694V125.649C35.275 125.649 34.821 124.582 33.1497 124.52H30.0133C30.0339 128.317 30.199 130.616 30.2815 131.601H34.7798C37.194 131.58 38.04 127.804 38.04 127.804C38.04 127.804 38.0606 129.63 38.1844 130.657C38.3082 131.478 38.5558 132.504 38.5558 132.504C38.5558 132.504 37.0289 132.237 34.9036 132.237H27.1039C27.1039 132.237 27.7642 131.867 27.8467 131.498Z" fill="#F7FDFB" />
  <path d="M50.2457 124.151C50.4108 124.89 50.5759 125.67 50.7203 126.285C50.9266 125.649 51.133 124.951 51.3393 124.233C52.4329 120.518 53.2377 118.056 53.2377 116.988C53.2377 116.557 52.7012 116.168 52.5361 116.106H57.3439C57.3439 116.106 56.4979 116.332 56.4979 117.05C56.4979 117.091 56.5185 117.132 56.5185 117.194C56.7042 118.405 57.0756 120.683 57.8803 124.171C58.6025 127.373 59.3041 129.795 59.6962 131.108C59.9438 131.929 60.6453 132.237 60.6453 132.237H56.3122C56.3122 132.237 57.282 131.785 57.282 131.129C57.282 129.754 56.6629 127.311 55.9407 124.171C55.136 120.683 54.4757 118.343 54.1043 117.132L49.833 132.196H49.8124C49.8124 132.196 49.441 129.117 48.3061 124.151C47.522 120.683 46.8617 118.363 46.4903 117.153L42.5698 130.985C42.5492 131.067 42.5492 131.129 42.5492 131.19C42.5492 131.888 43.5396 132.237 43.5396 132.237H40.1969C40.1969 132.237 41.2905 131.621 41.5587 130.903C42.0127 129.63 42.8793 127.188 43.8491 123.884C44.8396 120.498 45.438 118.199 45.6649 117.071C45.6649 117.029 45.6856 117.009 45.6856 116.968C45.6856 116.475 44.9015 116.106 44.9015 116.106H49.6886C49.6886 116.106 48.8632 116.311 48.8632 117.029C48.8632 117.071 48.8839 117.112 48.8839 117.173C49.0696 118.384 49.441 120.662 50.2457 124.151Z" fill="#F7FDFB" />
  <path d="M67.2129 120.211C67.2129 121.975 68.678 123.679 70.4525 123.679H73.0111V122.14C73.0111 120.108 72.9905 118.281 72.8667 117.337C72.8461 117.153 72.7635 116.988 72.6604 116.845C72.1445 116.804 71.5461 116.763 70.989 116.763C70.762 116.763 70.5557 116.763 70.3493 116.783C68.5954 116.865 67.2129 118.446 67.2129 120.211ZM75.1571 131.006C75.2396 131.847 76.1475 132.237 76.1475 132.237H71.7937C71.7937 132.237 72.7429 131.58 72.8048 130.882C72.8873 129.63 73.0111 127.455 73.0111 124.356L71.608 124.336L66.1193 131.149C66.0368 131.252 66.0162 131.375 66.0162 131.457C66.0162 131.95 66.9241 132.237 66.9241 132.237L62.0957 132.216C62.0957 132.216 63.4575 131.724 64.4067 130.41L64.448 130.369L69.3383 124.295C67.2129 124.13 65.5622 122.365 65.5622 120.211C65.5622 117.932 67.4193 116.085 69.7097 116.085L73.754 116.106H76.2094C76.2094 116.106 75.2603 116.475 75.1777 117.296C75.0746 118.61 74.9508 121.011 74.9508 124.171C74.9508 127.517 75.0539 129.754 75.1571 131.006Z" fill="#F7FDFB" />
  <path d="M96.1154 131.088C96.363 131.909 97.0646 132.257 97.0646 132.257H92.7108C92.7108 132.257 93.7219 131.744 93.7219 131.088C93.7219 129.713 93.1028 127.291 92.3806 124.151C91.5965 120.744 90.9362 118.446 90.5648 117.214L86.6443 131.067C86.6237 131.129 86.6237 131.211 86.6237 131.272C86.6237 131.95 87.6142 132.257 87.6142 132.257H84.2508C84.2508 132.257 85.4269 131.621 85.6539 130.964C86.1285 129.651 86.9745 127.27 87.903 124.089C88.976 120.395 89.7601 117.891 89.7601 116.947C89.7601 116.434 88.9554 116.106 88.9554 116.106H93.7631C93.7631 116.106 92.9171 116.311 92.9171 117.029C92.9171 117.071 92.9378 117.112 92.9378 117.173C93.1235 118.384 93.5155 120.662 94.3203 124.151C95.0424 127.352 95.7234 129.774 96.1154 131.088Z" fill="#F7FDFB" />
  <path d="M99.6632 131.498C99.7457 130.492 99.8902 128.173 99.8902 124.13C99.8902 120.539 99.7251 117.953 99.6219 116.783C99.5807 116.414 98.9204 116.106 98.9204 116.106H106.72C108.845 116.106 110.372 115.839 110.372 115.839C110.372 115.839 110.125 116.845 110.001 117.666C109.877 118.712 109.856 120.518 109.856 120.518C109.856 120.518 109.01 116.783 106.576 116.783H102.098C101.995 117.932 101.85 120.436 101.83 123.823L104.946 123.802C106.699 123.761 107.091 122.694 107.091 122.694V125.649C107.091 125.649 106.638 124.582 104.966 124.52H101.83C101.85 128.317 102.015 130.616 102.098 131.601H106.596C109.01 131.58 109.856 127.804 109.856 127.804C109.856 127.804 109.877 129.63 110.001 130.657C110.125 131.478 110.372 132.504 110.372 132.504C110.372 132.504 108.845 132.237 106.72 132.237H98.9204C98.9204 132.237 99.5807 131.867 99.6632 131.498Z" fill="#F7FDFB" />
  <path d="M114.324 121.401C114.242 122.078 114.18 122.735 114.18 123.392C114.18 124.069 114.242 124.726 114.386 125.423C114.655 126.675 115.315 128.071 115.831 128.871C116.945 130.575 118.864 131.621 120.948 131.621C121.381 131.621 121.835 131.58 122.289 131.478C124.167 131.067 125.653 129.856 126.457 128.276L126.003 130.944C125.9 130.903 125.694 130.964 125.529 131.088C124.641 131.703 123.61 132.155 122.475 132.401C121.856 132.524 121.237 132.606 120.638 132.606C116.677 132.606 113.107 129.856 112.22 125.854C112.096 125.239 112.013 124.623 112.013 124.028C112.013 120.087 114.778 116.537 118.802 115.654C119.421 115.511 120.061 115.449 120.68 115.449C121.815 115.449 122.929 115.675 123.94 116.106C124.022 116.147 124.415 116.065 124.476 115.901L125.219 118.815C124.064 117.358 122.269 116.455 120.35 116.455C119.916 116.455 119.483 116.496 119.05 116.598C116.594 117.132 114.634 119.061 114.324 121.401Z" fill="#F7FDFB" />
  <path d="M131.264 123.823H134.896C134.132 120.539 133.493 118.322 133.142 117.153L131.264 123.823ZM126.869 132.237C126.869 132.237 127.942 131.724 128.231 130.964C129.696 127.045 131.058 122.242 132.317 116.804V116.763C132.317 116.434 131.574 116.106 131.574 116.106H136.361C136.361 116.106 135.536 116.332 135.536 117.05C135.536 117.091 135.556 117.132 135.556 117.194C135.742 118.405 136.113 120.683 136.918 124.171C137.64 127.373 138.342 129.795 138.734 131.108C138.981 131.929 139.662 132.237 139.662 132.237H135.309C135.309 132.237 136.32 131.765 136.32 131.108C136.32 129.795 135.721 127.476 135.061 124.5H131.058L129.221 131.047C129.201 131.108 129.201 131.19 129.201 131.252C129.201 131.929 130.212 132.237 130.212 132.237H126.869Z" fill="#F7FDFB" />
  <path d="M7.53108 142.633C8.72327 142.633 9.5601 142.542 9.5601 142.542C9.5601 142.542 9.41108 143.1 9.35376 143.556C9.27352 144.126 9.27352 145.141 9.27352 145.141C9.27352 145.141 8.80352 143.02 7.45083 143.02H6.24718C6.20132 143.591 6.10961 144.879 6.10961 146.623V147.148C6.12108 149.006 6.16693 150.625 6.22425 151.002C6.28157 151.378 6.77449 151.629 6.77449 151.629H4.35571C4.35571 151.629 4.84864 151.48 4.90596 151.002C4.97474 150.363 5.02059 149.28 5.02059 147.707V147.148C4.99766 145.107 4.91742 143.648 4.87157 143.02H3.62205C2.32669 143.1 1.89108 145.141 1.89108 145.141C1.89108 145.141 1.89108 144.126 1.81083 143.556C1.75352 143.1 1.60449 142.542 1.60449 142.542C1.60449 142.542 2.44132 142.633 3.63352 142.633H7.53108Z" fill="#F7FDFB" />
  <path d="M11.0092 151.218C11.0551 150.66 11.1353 149.371 11.1353 147.125C11.1353 145.13 11.0436 143.693 10.9863 143.043C10.9634 142.838 10.5966 142.667 10.5966 142.667H14.9297C16.1105 142.667 16.9588 142.519 16.9588 142.519C16.9588 142.519 16.8212 143.077 16.7524 143.534C16.6836 144.115 16.6722 145.118 16.6722 145.118C16.6722 145.118 16.2022 143.043 14.8495 143.043H12.3619C12.3046 143.682 12.2244 145.073 12.2129 146.954L13.9439 146.943C14.9183 146.92 15.1361 146.327 15.1361 146.327V147.969C15.1361 147.969 14.8839 147.376 13.9553 147.342H12.2129C12.2244 149.451 12.3161 150.728 12.3619 151.275H14.8609C16.2022 151.264 16.6722 149.166 16.6722 149.166C16.6722 149.166 16.6836 150.181 16.7524 150.751C16.8212 151.207 16.9588 151.777 16.9588 151.777C16.9588 151.777 16.1105 151.629 14.9297 151.629H10.5966C10.5966 151.629 10.9634 151.423 11.0092 151.218Z" fill="#F7FDFB" />
  <path d="M21.0573 147.228L19.6014 147.239V147.695C19.6014 149.588 19.6702 150.785 19.7505 151.275C19.7734 151.492 20.1402 151.629 20.1402 151.629H17.9851C17.9851 151.629 18.3519 151.435 18.3863 151.241C18.4322 150.648 18.5239 149.314 18.5239 147.148C18.5239 145.004 18.4436 143.613 18.3634 142.941C18.3405 142.792 17.9851 142.667 17.9851 142.667H18.8219L21.0458 142.644C22.3183 142.644 23.35 143.682 23.35 144.947C23.35 146.201 22.3297 147.228 21.0573 147.228ZM20.6905 143.032H20.4268C20.209 143.032 19.9683 143.032 19.7505 143.043C19.7046 143.659 19.6129 145.027 19.6014 146.863H20.6331C21.619 146.863 22.4329 145.916 22.4329 144.947C22.4329 143.967 21.6648 143.077 20.6905 143.032Z" fill="#F7FDFB" />
  <path d="M27.4495 147.228L25.9936 147.239V147.695C25.9936 149.588 26.0624 150.785 26.1426 151.275C26.1656 151.492 26.5324 151.629 26.5324 151.629H24.3773C24.3773 151.629 24.7441 151.435 24.7785 151.241C24.8244 150.648 24.9161 149.314 24.9161 147.148C24.9161 145.004 24.8358 143.613 24.7556 142.941C24.7326 142.792 24.3773 142.667 24.3773 142.667H25.2141L27.438 142.644C28.7105 142.644 29.7422 143.682 29.7422 144.947C29.7422 146.201 28.7219 147.228 27.4495 147.228ZM27.0826 143.032H26.819C26.6012 143.032 26.3605 143.032 26.1426 143.043C26.0968 143.659 26.0051 145.027 25.9936 146.863H27.0253C28.0112 146.863 28.8251 145.916 28.8251 144.947C28.8251 143.967 28.057 143.077 27.0826 143.032Z" fill="#F7FDFB" />
  <path d="M31.3197 150.967C31.377 150.283 31.4344 149.029 31.4344 147.125C31.4344 145.335 31.3656 143.99 31.3083 143.271C31.2739 142.792 30.7809 142.667 30.7809 142.667H33.1653C33.1653 142.667 32.6724 142.895 32.6495 143.271H32.638C32.5807 144.001 32.5119 145.358 32.5119 147.125C32.5119 148.744 32.5692 149.896 32.6151 150.625C33.0851 149.839 33.7614 148.607 34.5295 147.034C35.8478 144.32 36.4897 142.815 36.4897 142.678C36.4897 142.678 36.4897 142.678 36.4897 142.667H38.4041C38.4041 142.667 37.9456 142.918 37.8768 143.294C37.808 143.659 37.7507 144.947 37.7507 146.43V147.125C37.7736 149.018 37.8653 150.967 37.8653 150.967C37.8997 151.344 38.4041 151.629 38.4041 151.629H36.0083C36.0083 151.629 36.5126 151.446 36.547 150.967C36.6044 150.283 36.6731 149.029 36.6731 147.125C36.6731 145.609 36.6158 144.411 36.57 143.636L32.6953 151.629V151.64L30.7695 151.629C30.7695 151.629 31.2853 151.446 31.3197 150.967Z" fill="#F7FDFB" />
  <path d="M45.2462 142.633C46.4384 142.633 47.2752 142.542 47.2752 142.542C47.2752 142.542 47.1262 143.1 47.0688 143.556C46.9886 144.126 46.9886 145.141 46.9886 145.141C46.9886 145.141 46.5186 143.02 45.1659 143.02H43.9623C43.9164 143.591 43.8247 144.879 43.8247 146.623V147.148C43.8362 149.006 43.882 150.625 43.9393 151.002C43.9966 151.378 44.4896 151.629 44.4896 151.629H42.0708C42.0708 151.629 42.5637 151.48 42.621 151.002C42.6898 150.363 42.7357 149.28 42.7357 147.707V147.148C42.7127 145.107 42.6325 143.648 42.5866 143.02H41.3371C40.0418 143.1 39.6062 145.141 39.6062 145.141C39.6062 145.141 39.6062 144.126 39.5259 143.556C39.4686 143.1 39.3196 142.542 39.3196 142.542C39.3196 142.542 40.1564 142.633 41.3486 142.633H45.2462Z" fill="#F7FDFB" />
  <path d="M48.652 145.62C48.5946 145.916 48.5602 146.259 48.5602 146.623C48.5602 147.034 48.6061 147.456 48.6863 147.855C48.8354 148.55 49.2137 149.326 49.4888 149.759C50.062 150.648 51.1968 151.287 52.389 151.287C52.6183 151.287 52.8476 151.264 53.0768 151.218C54.4868 150.91 55.5185 149.713 55.7134 148.436C55.7593 148.185 55.7822 147.832 55.7822 147.467C55.7822 147.102 55.7478 146.703 55.679 146.361C55.5185 145.609 55.209 144.845 54.7849 144.297C54.1429 143.477 53.0883 142.895 51.9649 142.895C51.7356 142.895 51.5063 142.918 51.2771 142.963C49.9129 143.26 48.8927 144.423 48.652 145.62ZM47.4827 148.094C47.4139 147.786 47.391 147.467 47.391 147.171C47.391 144.833 49.2137 142.849 51.1281 142.439C51.472 142.359 51.8044 142.325 52.1483 142.325C54.3493 142.325 56.3439 143.841 56.8254 146.065C56.9056 146.407 56.94 146.749 56.94 147.079C56.94 149.269 55.4154 151.241 53.18 151.72C52.7788 151.811 52.389 151.845 51.9993 151.845C49.8671 151.845 47.9871 150.557 47.4827 148.094Z" fill="#F7FDFB" />
  <path d="M61.0449 147.228L59.589 147.239V147.695C59.589 149.588 59.6578 150.785 59.7381 151.275C59.761 151.492 60.1278 151.629 60.1278 151.629H57.9727C57.9727 151.629 58.3395 151.435 58.3739 151.241C58.4198 150.648 58.5115 149.314 58.5115 147.148C58.5115 145.004 58.4312 143.613 58.351 142.941C58.3281 142.792 57.9727 142.667 57.9727 142.667H58.8095L61.0334 142.644C62.3059 142.644 63.3376 143.682 63.3376 144.947C63.3376 146.201 62.3173 147.228 61.0449 147.228ZM60.6781 143.032H60.4144C60.1966 143.032 59.9559 143.032 59.7381 143.043C59.6922 143.659 59.6005 145.027 59.589 146.863H60.6207C61.6066 146.863 62.4205 145.916 62.4205 144.947C62.4205 143.967 61.6525 143.077 60.6781 143.032Z" fill="#F7FDFB" />
  <path d="M64.9151 150.967C64.9725 150.283 65.0298 149.029 65.0298 147.125C65.0298 145.335 64.961 143.99 64.9037 143.271C64.8693 142.792 64.3764 142.667 64.3764 142.667H66.7607C66.7607 142.667 66.2678 142.895 66.2449 143.271H66.2334C66.1761 144.001 66.1073 145.358 66.1073 147.125C66.1073 148.744 66.1646 149.896 66.2105 150.625C66.6805 149.839 67.3568 148.607 68.1249 147.034C69.4432 144.32 70.0851 142.815 70.0851 142.678C70.0851 142.678 70.0851 142.678 70.0851 142.667H71.9995C71.9995 142.667 71.541 142.918 71.4722 143.294C71.4034 143.659 71.3461 144.947 71.3461 146.43V147.125C71.369 149.018 71.4607 150.967 71.4607 150.967C71.4951 151.344 71.9995 151.629 71.9995 151.629H69.6037C69.6037 151.629 70.1081 151.446 70.1425 150.967C70.1998 150.283 70.2686 149.029 70.2686 147.125C70.2686 145.609 70.2112 144.411 70.1654 143.636L66.2907 151.629V151.64L64.3649 151.629C64.3649 151.629 64.8808 151.446 64.9151 150.967Z" fill="#F7FDFB" />
  <path d="M75.6433 144.947C75.6433 145.928 76.4572 146.874 77.443 146.874H78.8645V146.019C78.8645 144.89 78.853 143.876 78.7843 143.351C78.7728 143.248 78.7269 143.157 78.6696 143.077C78.383 143.055 78.0506 143.032 77.7411 143.032C77.615 143.032 77.5004 143.032 77.3857 143.043C76.4113 143.089 75.6433 143.967 75.6433 144.947ZM80.0567 150.945C80.1026 151.412 80.6069 151.629 80.6069 151.629H78.1882C78.1882 151.629 78.7155 151.264 78.7499 150.876C78.7957 150.181 78.8645 148.972 78.8645 147.25L78.085 147.239L75.0357 151.024C74.9899 151.081 74.9784 151.15 74.9784 151.195C74.9784 151.469 75.4828 151.629 75.4828 151.629L72.8004 151.617C72.8004 151.617 73.5569 151.344 74.0843 150.614L74.1072 150.591L76.824 147.216C75.6433 147.125 74.7262 146.144 74.7262 144.947C74.7262 143.682 75.7579 142.656 77.0304 142.656L79.2772 142.667H80.6413C80.6413 142.667 80.114 142.872 80.0682 143.328C80.0108 144.058 79.9421 145.392 79.9421 147.148C79.9421 149.006 79.9994 150.249 80.0567 150.945Z" fill="#F7FDFB" />
  <path d="M86.2551 145.62C86.1978 145.916 86.1634 146.259 86.1634 146.623C86.1634 147.034 86.2092 147.456 86.2895 147.855C86.4385 148.55 86.8168 149.326 87.0919 149.759C87.6651 150.648 88.8 151.287 89.9922 151.287C90.2214 151.287 90.4507 151.264 90.68 151.218C92.09 150.91 93.1217 149.713 93.3166 148.436C93.3624 148.185 93.3853 147.832 93.3853 147.467C93.3853 147.102 93.351 146.703 93.2822 146.361C93.1217 145.609 92.8122 144.845 92.388 144.297C91.7461 143.477 90.6914 142.895 89.568 142.895C89.3387 142.895 89.1095 142.918 88.8802 142.963C87.5161 143.26 86.4958 144.423 86.2551 145.62ZM85.0858 148.094C85.017 147.786 84.9941 147.467 84.9941 147.171C84.9941 144.833 86.8168 142.849 88.7312 142.439C89.0751 142.359 89.4075 142.325 89.7514 142.325C91.9524 142.325 93.947 143.841 94.4285 146.065C94.5088 146.407 94.5431 146.749 94.5431 147.079C94.5431 149.269 93.0185 151.241 90.7831 151.72C90.3819 151.811 89.9922 151.845 89.6024 151.845C87.4702 151.845 85.5902 150.557 85.0858 148.094Z" fill="#F7FDFB" />
  <path d="M100.582 142.633C101.774 142.633 102.611 142.542 102.611 142.542C102.611 142.542 102.462 143.1 102.404 143.556C102.324 144.126 102.324 145.141 102.324 145.141C102.324 145.141 101.854 143.02 100.502 143.02H99.2979C99.252 143.591 99.1603 144.879 99.1603 146.623V147.148C99.1718 149.006 99.2176 150.625 99.2749 151.002C99.3322 151.378 99.8252 151.629 99.8252 151.629H97.4064C97.4064 151.629 97.8993 151.48 97.9566 151.002C98.0254 150.363 98.0713 149.28 98.0713 147.707V147.148C98.0483 145.107 97.9681 143.648 97.9222 143.02H96.6727C95.3774 143.1 94.9418 145.141 94.9418 145.141C94.9418 145.141 94.9418 144.126 94.8615 143.556C94.8042 143.1 94.6552 142.542 94.6552 142.542C94.6552 142.542 95.492 142.633 96.6842 142.633H100.582Z" fill="#F7FDFB" />
  <path d="M103.973 151.275H108.042C107.951 150.66 107.71 149.189 107.24 147.136C106.804 145.232 106.437 143.955 106.231 143.271L103.973 151.275ZM103.377 151.275C103.583 150.717 104.122 149.223 104.752 147.068C105.325 145.141 105.772 143.796 105.772 143.18C105.772 142.963 105.486 142.735 105.348 142.667H108.008C108.008 142.667 107.549 142.781 107.549 143.18C107.549 143.203 107.561 143.226 107.561 143.26C107.664 143.933 107.87 145.198 108.317 147.136C108.787 149.189 109.223 150.66 109.418 151.275H110.392V153.818C110.392 153.818 109.922 151.697 108.615 151.629H104.156C102.861 151.697 102.391 153.818 102.391 153.818V151.275H103.377Z" fill="#F7FDFB" />
  <path d="M112.207 151.218C112.264 150.614 112.356 149.303 112.356 147.148C112.356 145.13 112.299 143.682 112.207 143.043C112.173 142.838 111.817 142.667 111.817 142.667H113.972C113.972 142.667 113.606 142.815 113.583 143.032C113.537 143.648 113.445 145.016 113.434 146.874L115.841 146.886C117.159 146.886 118.225 147.946 118.225 149.257C118.225 150.568 117.159 151.629 115.841 151.629L112.723 151.64H111.806C111.806 151.64 112.196 151.412 112.207 151.218ZM115.451 147.273C115.36 147.273 115.256 147.262 115.142 147.262C114.637 147.262 113.972 147.307 113.434 147.342C113.434 149.303 113.514 150.545 113.56 151.161C114.167 151.207 114.901 151.252 115.405 151.252C116.426 151.252 117.274 150.272 117.274 149.257C117.274 148.242 116.471 147.319 115.451 147.273ZM120.541 150.933C120.575 151.401 121.091 151.617 121.091 151.617H118.672C118.672 151.617 119.2 151.252 119.234 150.865C119.291 150.124 119.349 147.946 119.349 146.065C119.349 144.902 119.326 143.853 119.269 143.34C119.223 142.952 118.707 142.667 118.707 142.667H121.114C121.114 142.667 120.598 142.849 120.552 143.294C120.484 144.024 120.426 145.346 120.426 147.125C120.426 148.983 120.484 150.238 120.541 150.933Z" fill="#F7FDFB" />
  <path d="M127.727 151.64C127.727 151.64 128.117 151.423 128.117 151.116C128.117 151.059 128.105 151.013 128.082 150.956C127.75 150.238 127.119 148.949 126.214 147.25L124.059 150.99C124.001 151.081 123.99 151.161 123.99 151.23C123.99 151.515 124.334 151.64 124.334 151.64H122.477C122.477 151.64 123.038 151.515 123.428 150.922C123.91 150.181 125.916 146.897 125.973 146.794C124.987 144.97 124.265 143.773 123.887 143.169C123.658 142.827 123.199 142.667 123.199 142.667H125.549C125.549 142.667 125.228 142.758 125.228 143.055C125.228 143.123 125.251 143.203 125.285 143.283C125.515 143.784 125.916 144.617 126.535 145.814C127.234 144.582 127.693 143.75 127.91 143.306C127.945 143.226 127.968 143.157 127.968 143.089C127.968 142.77 127.555 142.667 127.555 142.667H129.389C129.389 142.667 128.816 142.838 128.495 143.294L126.776 146.281C126.925 146.555 127.074 146.84 127.234 147.148C128.186 148.926 128.988 150.272 129.435 151.002C129.71 151.458 130.157 151.64 130.157 151.64H127.727Z" fill="#F7FDFB" />
  <path d="M133.628 146.954H135.646C135.221 145.13 134.866 143.898 134.671 143.248L133.628 146.954ZM131.186 151.629C131.186 151.629 131.782 151.344 131.943 150.922C132.757 148.744 133.513 146.076 134.213 143.055V143.032C134.213 142.849 133.8 142.667 133.8 142.667H136.459C136.459 142.667 136.001 142.792 136.001 143.191C136.001 143.214 136.012 143.237 136.012 143.271C136.116 143.944 136.322 145.21 136.769 147.148C137.17 148.926 137.56 150.272 137.778 151.002C137.915 151.458 138.294 151.629 138.294 151.629H135.875C135.875 151.629 136.437 151.366 136.437 151.002C136.437 150.272 136.104 148.983 135.737 147.33H133.513L132.493 150.967C132.482 151.002 132.482 151.047 132.482 151.081C132.482 151.458 133.043 151.629 133.043 151.629H131.186Z" fill="#F7FDFB" />
  <path d="M33.0212 102.231C32.8404 102.184 32.8105 101.935 32.6883 101.811C32.5791 101.699 32.3963 101.585 32.2419 101.562C31.9561 101.52 31.7574 101.605 31.5087 101.713C31.3576 101.779 31.207 101.812 31.0641 101.897C30.8972 101.996 30.7596 102.146 30.571 101.994C30.4151 101.869 30.4406 101.667 30.2511 101.56C30.0148 101.426 29.7526 101.581 29.6126 101.316C29.5616 101.219 29.5727 101.122 29.5068 101.033C29.4539 100.961 29.3726 100.931 29.3177 100.863C29.2239 100.746 29.2672 100.654 29.2249 100.53C29.1229 100.229 28.7077 100.453 28.4744 100.483C28.0452 100.54 27.5862 100.496 27.1682 100.416C27.0195 100.388 26.8901 100.418 26.9113 100.212C26.9295 100.032 27.135 99.8606 27.2471 99.738C27.1927 99.5951 27.0503 99.5847 27.0301 99.3939C27.0089 99.1956 27.1508 99.0177 27.1345 98.825C27.1037 98.462 26.574 98.6315 26.3219 98.577C26.1935 98.5496 26.1184 98.5037 25.9808 98.5003C25.8129 98.4961 25.6436 98.4984 25.4752 98.5008C25.353 98.5027 25.2438 98.5207 25.137 98.4563C24.8834 98.3034 25.1471 98.2263 25.2481 98.0914C25.1793 97.8396 24.8796 97.7402 24.6794 97.6101C24.6097 97.5646 24.448 97.5267 24.4307 97.424C24.4009 97.2456 24.5462 97.3005 24.6587 97.2584C24.8324 97.1931 25.0138 97.1491 25.009 96.9323C25.0061 96.8092 24.8233 96.6142 24.7631 96.512C24.6525 96.325 24.4908 96.1594 24.5005 95.9279C24.5096 95.6951 24.9051 94.8322 25.1928 95.1905C25.3496 95.386 25.2462 95.6979 25.4107 95.9166C25.671 96.2626 25.9288 95.9857 26.2752 96.006C26.4027 96.0136 26.4941 96.1206 26.6192 96.1314C26.8482 96.1523 26.7496 96.0548 26.9069 95.9478C27.1879 95.7561 27.479 95.8607 27.6132 96.1826C27.6738 96.3279 27.6632 96.5622 27.8812 96.5901C28.1159 96.6204 28.012 96.4983 28.127 96.3624C28.2631 96.202 28.4445 96.148 28.6249 96.2966C28.7236 96.378 28.7173 96.566 28.8645 96.5943C28.9733 96.6157 29.0613 96.5286 29.1267 96.4595C29.2456 96.3326 29.3182 96.2034 29.4587 96.0936C29.5525 96.0202 29.7594 95.9672 29.8108 95.8489C30.0379 95.3264 29.1758 95.1271 28.8862 94.854C28.6543 94.6349 28.6052 94.3571 28.2179 94.349C27.9957 94.3443 27.7363 94.4082 27.541 94.2638C27.273 94.066 27.4934 93.7806 27.2148 93.6069C26.9315 93.4303 26.6755 93.4616 26.5067 93.1118C26.4003 92.8912 26.3917 92.399 26.5663 92.1959C26.701 92.0393 27.1244 92.2281 27.0989 91.8902C27.0845 91.7013 26.6159 91.4936 26.447 91.3894C26.2926 91.2943 25.4554 90.9583 25.5223 90.7846C25.6546 90.44 26.8463 91.3975 26.9964 91.4604C27.0921 91.5002 27.1566 91.5575 27.2711 91.531C27.4227 91.4959 27.4438 91.3374 27.6218 91.3194C27.784 91.3028 27.9735 91.3885 28.115 91.4543C28.2386 91.5116 28.3791 91.6805 28.5407 91.6379C28.8025 91.5693 28.8376 91.1788 29.1493 91.1272C29.3374 91.096 29.3432 91.1959 29.4774 91.2721C29.6497 91.37 29.8378 91.4051 30.0129 91.3043C30.2833 91.1481 30.4854 90.6644 30.4993 90.379C30.5051 90.2573 30.5383 90.0046 30.4825 89.8924C30.3786 89.6841 30.1991 89.7106 29.9898 89.714C29.6925 89.7192 29.2436 89.8025 28.9651 89.7045C28.6581 89.5966 28.8487 89.0523 28.648 88.7981C28.4397 88.534 28.0953 88.552 27.7974 88.5548C27.4304 88.5582 27.1956 88.4957 26.8684 88.3366C26.6293 88.2202 26.4634 88.2231 26.1968 88.2235C26.0794 88.2235 25.5791 88.2832 25.6272 88.0754C26.219 88.0531 25.6623 87.5983 25.6508 87.3209C25.8499 87.0403 26.1872 87.6911 26.3604 87.7072C26.5904 87.7285 26.6519 87.5235 26.7862 87.4109C26.9243 87.2949 27.0147 87.2178 27.2076 87.2178C27.6377 87.2178 27.5963 87.6475 27.9413 87.6958C28.1511 87.7251 28.1573 87.603 28.3897 87.7204C28.5475 87.7999 28.6403 87.8544 28.8054 87.914C28.9391 87.9623 29.0873 88.0692 29.2167 87.985C29.1695 88.0153 29.4346 87.727 29.4058 87.772C29.5564 87.5354 29.1936 87.2471 29.0421 87.0838C28.8183 86.8434 28.548 86.6962 28.3026 86.487C28.1742 86.3772 28.0799 86.248 27.9413 86.1467C27.8489 86.079 27.6902 86.0402 27.7118 85.9006C27.732 85.7704 28.0529 85.7202 28.139 85.7245C28.3045 85.733 28.3469 85.8069 28.4671 85.9006C28.6904 86.0743 29.0969 86.4098 29.2128 85.991C29.3081 85.6469 29.3485 85.6028 29.6641 85.7363C29.8176 85.8012 30.47 85.963 30.4536 85.6388C30.4445 85.4651 30.1967 85.3757 30.0889 85.2976C29.999 85.2323 29.9157 85.1485 29.8219 85.0893C29.6064 84.954 29.3158 84.9686 29.106 84.8181C28.9968 84.7396 28.967 84.6326 28.8862 84.5318C28.8078 84.4348 28.6909 84.36 28.5898 84.2852C28.3935 84.1404 27.9966 83.9837 27.9038 83.7423C28.0019 83.6382 28.1867 83.615 28.3199 83.562C28.4955 83.4919 28.6822 83.4242 28.8486 83.3334C29.0281 83.2359 29.0993 83.1578 29.2836 83.2794C29.4717 83.4039 29.5212 83.5766 29.6425 83.7442C29.7045 83.8299 29.8123 83.8933 29.884 83.9719C29.9552 84.05 30.0071 84.1669 30.0889 84.2331C30.2612 84.3732 30.4603 84.2937 30.6215 84.4499C30.9232 84.7415 30.7447 85.1816 31.0122 85.4878C31.3302 85.8518 31.7516 85.4765 32.0307 85.2441C32.237 85.0723 32.3323 84.8792 32.3944 84.6227C32.4511 84.3893 32.4165 84.3211 32.1856 84.199C31.9705 84.085 31.7468 83.9908 31.5265 83.8933C31.346 83.8138 31.2267 83.6879 31.0689 83.5781C30.8548 83.4294 30.5744 83.4465 30.3718 83.2927C30.2453 83.1971 29.9494 83.003 29.9379 82.8463C30.05 82.692 30.393 82.7252 30.5594 82.747C30.7283 82.7692 31.0059 82.7839 31.1541 82.8478C31.3234 82.9216 31.437 83.1275 31.6549 83.0981C31.946 83.0584 32.0807 82.7716 31.934 82.5392C31.8522 82.409 31.6891 82.3286 31.6318 82.1724C31.5635 81.9873 31.7425 81.7956 31.6284 81.6328C31.4961 81.4444 31.1671 81.5452 31.003 81.3895C30.825 81.2201 31.0218 80.9754 31.2532 80.9569C31.4038 80.9446 31.5351 81.0388 31.6693 81.0748C31.8084 81.1122 31.9546 81.0942 32.097 81.0937C32.39 81.0918 32.6902 81.0274 32.9168 81.2333C33.1781 81.4704 33.3984 81.8874 33.7799 81.9527C34.0518 81.9991 34.3727 81.4018 34.2096 81.1723C34.1105 81.0327 33.8973 80.9678 34.019 80.7577C34.0965 80.6237 34.3337 80.5215 34.4544 80.4306C34.5276 80.3757 34.5983 80.3033 34.6815 80.2597C34.7633 80.2171 34.8927 80.2124 34.9678 80.1675C35.2694 79.9852 35.0678 79.8532 34.9784 79.608C34.9086 79.4163 34.9033 79.236 34.7951 79.0628C34.6883 78.891 34.5396 78.6799 34.3953 78.5364C34.1307 78.2742 33.6943 78.358 33.3493 78.358C33.0429 78.358 32.7364 78.3552 32.43 78.358C32.2322 78.3599 31.5904 78.2828 31.7203 77.9377C31.8185 77.6779 32.5806 78.0953 32.7648 78.1124C33.0342 78.1375 33.2421 78.1337 33.4494 77.9486C33.6298 77.7877 33.7785 77.6268 33.8689 77.4053C33.982 77.1284 33.9392 77.0569 33.7184 76.8657C33.5375 76.709 33.3628 76.5339 33.1887 76.3687C33.0472 76.2343 32.988 76.1638 32.8043 76.1094C32.6277 76.0573 32.4579 75.992 32.2828 75.9314C32.0316 75.8443 31.7718 75.8699 31.5053 75.8708C31.3181 75.8718 31.2171 75.8978 31.0651 75.7752C30.9265 75.6635 30.6542 75.4297 30.6634 75.2347C30.9722 75.3568 31.3143 75.2697 31.6357 75.3729C31.8459 75.4406 32.0759 75.5845 32.3034 75.5769C32.2577 75.0932 31.5649 74.7463 31.1642 74.6279C30.8548 74.5366 30.2318 74.0183 30.3511 73.6406C30.6812 73.4963 30.8467 73.9156 30.9977 74.1134C31.1738 74.3444 31.3513 74.3884 31.6357 74.2876C31.8526 74.2109 31.9421 74.0708 32.1812 74.2015C32.3939 74.3174 32.4247 74.7018 32.6619 74.7486C32.748 74.5763 32.8538 74.6076 32.9818 74.5479C33.1425 74.4727 33.2103 74.4391 33.2618 74.211C33.3407 73.8621 33.1978 73.5682 32.9558 73.3145C32.7691 73.1186 32.5854 73.0301 32.3496 72.9098C32.0836 72.7745 31.8834 72.6003 31.6737 72.3916C31.5048 72.2236 31.1916 71.692 31.6905 71.8189C31.87 71.8643 31.9575 72.003 32.0951 72.1029C32.2698 72.2297 32.4911 72.3797 32.6907 72.4607C32.875 72.5355 33.1521 72.6036 33.3571 72.5615C33.4879 72.535 33.5774 72.4398 33.6962 72.3835C33.9392 72.2685 33.9762 72.4427 34.186 72.3859C34.5507 72.287 34.1239 71.754 34.2735 71.551C34.3794 71.4076 34.7936 71.4601 34.9601 71.4753C35.0924 71.4876 35.1448 71.5164 35.2516 71.463C35.4388 71.3692 35.3955 71.2741 35.6365 71.3697C35.98 71.506 36.1561 71.8454 36.1248 72.2056C36.1109 72.3651 35.9872 72.5388 36.057 72.7101C36.1147 72.8516 36.2446 72.9004 36.3923 72.9718C36.6189 73.0812 37.0052 73.3159 37.2366 73.2307C37.356 73.1867 37.5619 73.0163 37.6629 72.925C37.8294 72.7745 37.8467 72.6074 37.8318 72.3873C37.8092 72.0584 37.5046 71.6821 37.2371 71.4923C37.087 71.3858 36.9182 71.3877 36.8056 71.2164C36.6742 71.0162 36.7084 70.7838 36.8089 70.585C36.9105 70.3838 37.0562 70.2811 36.9114 70.0421C36.7714 69.8116 36.5203 69.8419 36.3014 69.7397C36.1292 69.6592 35.9882 69.557 35.8073 69.4883C35.6379 69.424 35.4739 69.4027 35.3353 69.2848C35.1843 69.1566 35.0996 69.0023 35.0029 68.8352C34.8768 68.617 34.7157 68.4949 34.5372 68.324C34.5401 68.1011 34.987 68.146 35.1309 68.1602C35.3801 68.1844 35.5215 68.3647 35.7375 68.4935C35.9723 68.6331 36.362 68.9649 36.6502 68.9019C36.8085 68.8674 36.8955 68.6885 37.0644 68.6842C37.2232 68.6799 37.3911 68.8125 37.5113 68.9047C37.7942 69.1225 38.0189 69.4888 38.4149 69.4969C38.5847 69.5002 38.7386 69.4538 38.9017 69.5196C39.0393 69.575 39.1832 69.7425 39.3213 69.8239C39.4401 69.894 39.5902 70.035 39.747 69.9839C39.8894 69.9375 39.9525 69.7203 40.0939 69.644C40.2445 69.5631 40.4364 69.5522 40.6053 69.5636C40.7448 69.5731 41.0474 69.7647 41.1494 69.6814C41.2716 69.5816 41.0628 69.247 41.0167 69.1154C40.9589 68.9516 40.905 68.7864 40.8488 68.6217C40.7482 68.3292 40.7164 68.1219 40.4331 67.9534C40.1839 67.8053 40.0001 67.7437 39.721 67.7475C39.3645 67.7527 38.984 67.7816 38.6289 67.7504C38.436 67.7333 38.1733 67.6661 37.9924 67.5885C37.6971 67.4612 37.7726 67.1128 37.8361 66.8359C37.9593 66.8303 38.0415 66.9699 38.1628 66.9936C38.3528 67.0305 38.4014 66.9406 38.5029 66.8189C38.6569 66.6339 38.7516 66.4086 38.5958 66.1899C38.335 65.8231 37.5859 66.0668 37.1905 65.9698C36.9023 65.8988 36.6593 65.7526 36.3962 65.6276C36.2889 65.5765 36.0902 65.4941 36.0421 65.3858C35.9997 65.2911 36.0974 65.2551 36.0267 65.1363C35.9112 64.9423 35.4893 64.8547 35.2877 64.8026C35.0919 64.752 34.7277 64.8429 34.643 64.5958C34.7826 64.4065 35.0635 64.5386 35.1761 64.2636C35.2853 63.9962 35.09 63.9081 35.0029 63.6913C35.267 63.6412 35.4205 63.9251 35.5138 64.1007C35.6177 64.2962 35.8665 64.4623 36.0964 64.433C36.3894 64.3961 36.4953 64.106 36.7897 64.3C36.9162 64.3833 36.9995 64.4988 37.1486 64.5546C37.2819 64.6048 37.4363 64.6114 37.5787 64.6237C37.8308 64.6455 38.0401 64.5087 37.8169 64.2621C37.6677 64.0974 37.3343 63.9393 37.1164 63.9318C36.885 63.9237 36.7921 63.9289 36.8532 63.6525C36.8883 63.4949 36.9085 63.3605 36.9013 63.193C36.8869 62.8668 36.6651 62.4702 37.1525 62.3542C37.8731 62.1824 37.6167 63.1697 37.8606 63.4764C38.0622 63.7301 38.3427 63.6113 38.5842 63.7581C38.8435 63.9157 38.9474 64.2678 39.1822 63.8736C39.2549 63.7514 39.2967 63.5839 39.265 63.4395C39.2409 63.3307 39.1711 63.2086 39.0975 63.1248C39.009 63.024 38.8637 62.9866 38.7935 62.8758C39.1351 62.7651 39.3583 62.4153 39.138 62.1105C39.0307 61.9619 38.9296 61.8814 38.7766 61.7797C38.6439 61.6916 38.41 61.6069 38.3518 61.4479C38.4471 61.2978 38.6477 61.2074 38.8209 61.1928C38.9292 61.1838 39.098 61.26 39.1538 61.1218C39.0711 60.9874 38.9003 60.9121 38.7949 60.7876C38.7088 60.6859 38.4957 60.5145 38.5154 60.3768C38.7776 60.3072 38.9455 60.4345 39.1327 60.5841C39.3352 60.746 39.4507 60.5486 39.683 60.5434C39.8774 60.5391 40.1853 60.7578 40.3354 60.8851C40.4797 61.0072 40.625 61.2671 40.8189 61.1535C41.0138 61.0394 40.9522 60.7001 41.2158 60.6508C41.2899 60.6371 41.3784 60.7266 41.4607 60.6793C41.5377 60.6348 41.5367 60.4369 41.5391 60.3669C41.5473 60.1047 41.5637 59.9934 41.8711 60.0038C42.0712 60.0105 42.2839 60.0162 42.3892 59.789C42.5365 59.47 41.8538 59.1699 41.6604 59.0028C41.4939 58.8589 41.3279 58.6677 41.135 58.5621C41.0494 58.5153 40.9536 58.5238 40.8747 58.449C40.8107 58.388 40.7968 58.282 40.7429 58.2143C40.4008 57.7822 39.7783 57.768 39.3588 57.4721C39.0499 57.2549 38.8493 56.7603 38.9296 56.3954C39.2914 56.2747 39.4839 56.6836 39.7225 56.8498C39.8683 56.9515 40.0256 57.0651 40.1868 57.1413C40.321 57.2047 40.4855 57.2076 40.5952 57.3169C40.6857 57.4064 40.6866 57.5408 40.7679 57.6364C40.8483 57.7311 41.0335 57.8196 41.1369 57.8849C41.3529 58.0221 41.5641 58.1726 41.7864 58.2976C42.0914 58.4689 42.3426 58.663 42.702 58.4708C42.9391 58.344 42.8978 57.9592 42.8852 57.7149C42.8732 57.4821 42.713 57.3491 42.6481 57.137C42.5961 56.9667 42.6202 56.7258 42.6692 56.5606C42.7534 56.2766 42.8819 55.9898 42.9868 55.711C43.0998 55.4104 43.145 55.1317 43.2008 54.8183C43.2326 54.638 43.222 54.5547 43.3033 54.3971C43.3567 54.2934 43.4068 54.1993 43.4525 54.088C43.5511 53.85 43.5578 53.7189 43.5583 53.4548C43.5583 53.1069 43.5583 52.7595 43.5583 52.4116C43.5583 52.0637 43.4789 51.5791 43.6617 51.2539C43.9966 51.2705 43.8681 51.9397 43.8912 52.1423C43.9105 52.307 44.0057 52.4282 44.0471 52.5796C44.0866 52.723 44.0803 52.8485 44.1274 52.9923C44.3064 53.5371 44.2675 54.0516 44.0004 54.5675C43.8244 54.9068 43.6083 55.2831 43.5121 55.6523C43.4568 55.8643 43.4404 56.1549 43.4693 56.3727C43.4818 56.4659 43.5213 56.5459 43.5395 56.6372C43.5684 56.7802 43.5184 56.9416 43.5665 57.0765C43.6964 57.4414 44.3035 57.7017 44.66 57.723C44.8198 57.7325 44.9857 57.7348 45.1171 57.634C45.2248 57.5512 45.2508 57.4262 45.3259 57.3188C45.3956 57.2185 45.4813 57.1659 45.5799 57.0949C45.6665 57.0329 45.7555 56.9302 45.8474 56.8819C45.9691 56.8176 46.0466 56.8483 46.1789 56.8114C46.4281 56.7423 46.328 56.4872 46.5176 56.3386C46.6917 56.2023 47.0198 56.1871 47.22 56.1318C47.3619 56.0925 47.5048 56.0163 47.6448 55.9661C47.8627 55.888 48.4444 55.8549 48.0989 56.2293C47.9777 56.3604 47.7294 56.4536 47.5798 56.5563C47.4163 56.6685 47.2806 56.8204 47.1011 56.8895C46.9255 56.9567 46.723 56.9449 46.5517 57.013C46.3747 57.0836 46.0687 57.3226 45.9301 57.4679C45.7993 57.6051 45.7728 57.758 45.6015 57.8683C45.5356 57.9109 45.475 57.9062 45.4125 57.9563C45.3008 58.0453 45.2056 58.202 45.094 58.2995C44.8582 58.5054 44.4373 59.2423 44.9063 59.4089C45.08 59.4709 45.501 59.3805 45.6713 59.2944C45.7314 59.2641 45.8556 59.141 45.9258 59.1486C46.0634 59.1637 46.085 59.3568 46.0961 59.4515C46.1481 59.8836 45.4423 60.32 45.6607 60.7076C45.831 61.0101 46.049 60.8099 46.2568 60.6977C46.4233 60.6078 46.5724 60.5581 46.7562 60.5344C46.9813 60.5055 47.3162 60.47 47.5211 60.3583C47.7208 60.2495 47.6241 59.9925 47.8565 59.9191C48.0157 59.869 48.1312 59.9816 48.2798 60.0194C48.4006 60.0502 48.5348 60.0535 48.6565 60.0791C48.9062 60.1316 49.1386 60.1586 49.3772 60.0431C49.5764 59.9466 49.7395 59.7544 49.9642 59.7104C50.2201 59.6602 50.3846 59.9025 50.4207 60.1307C50.4688 60.4345 50.0522 60.5765 49.7934 60.6144C49.5995 60.6428 49.4027 60.5959 49.2088 60.6139C49.015 60.6314 48.809 60.7119 48.631 60.7838C48.2495 60.9386 47.8747 61.1194 47.5048 61.2997C47.2753 61.4114 47.0078 61.4924 46.8072 61.6542C46.6441 61.7858 46.5002 61.9174 46.3203 62.031C45.9398 62.2709 45.4668 62.0045 45.0545 62.1914C44.6528 62.3737 44.2497 62.7097 44.227 63.1854C44.2198 63.3354 44.1693 63.6719 44.305 63.7855C44.5041 63.9526 44.838 63.599 45.0117 63.5134C45.2297 63.4059 45.3567 63.4575 45.578 63.4987C45.7339 63.528 46.0004 63.6085 46.1356 63.5626C46.3314 63.4959 46.4252 63.1655 46.6816 63.2748C46.9506 63.3898 46.8283 63.6563 46.6633 63.7652C46.3189 63.9924 45.9898 64.2233 45.8132 64.5963C45.7199 64.7927 45.6405 64.9214 45.4683 65.053C45.2951 65.1855 45.0795 65.2949 44.9444 65.47C44.7303 65.7469 44.7514 66.3343 45.005 66.5898C45.1695 66.7555 45.3244 66.7616 45.539 66.7522C45.782 66.7413 45.8286 66.6741 46.0129 66.5075C46.2693 66.2756 46.3333 66.0966 46.3429 65.7563C46.3487 65.5386 46.2303 65.2371 46.5036 65.1803C46.7081 65.1377 46.8914 65.1056 47.0982 65.0502C47.1998 65.0232 47.3138 65.0284 47.4124 64.9972C47.5409 64.9565 47.6424 64.8552 47.7689 64.8074C47.9036 64.7567 48.0542 64.7193 48.1976 64.7709C48.3299 64.8183 48.3987 64.9811 48.5339 65.0071C48.6965 65.0388 48.671 64.956 48.798 64.8646C48.9245 64.7742 49.0631 64.7582 49.2079 64.7089C49.4143 64.6389 49.5379 64.593 49.7515 64.5967C49.9112 64.5996 50.1037 64.6228 50.261 64.5996C50.3923 64.5807 50.5511 64.548 50.6791 64.5206C50.9668 64.459 50.8999 64.1589 51.0644 63.9715C51.2184 63.7969 51.4955 63.9176 51.6023 64.0932C51.7582 64.3483 51.6899 64.6157 51.7428 64.8869C51.8862 64.8765 52.0103 64.7762 52.158 64.7586C52.2609 64.7463 52.3846 64.7572 52.4885 64.761C52.7541 64.7709 53.3112 65.1051 52.9023 65.328C52.7055 65.4354 52.4452 65.4042 52.2335 65.4217C52.0416 65.4373 51.8905 65.5524 51.711 65.6148C51.5359 65.6759 51.3887 65.7384 51.2242 65.8221C51.0361 65.9177 50.8277 65.949 50.6406 66.0488C50.5068 66.1203 50.3947 66.1558 50.2571 66.2107C50.1094 66.2699 50.0055 66.3863 49.8708 66.4654C49.5894 66.6306 49.2199 66.4928 49.077 66.8412C48.9808 67.0769 49.1155 67.2174 49.2921 67.3679C49.4792 67.5279 49.4744 67.5398 49.3344 67.7437C49.2271 67.9004 49.154 68.1484 48.9428 68.1167C48.7268 68.084 48.6758 67.8209 48.5281 67.7911C48.4184 67.8876 48.4723 67.9629 48.4497 68.0774C48.4275 68.1886 48.2919 68.3217 48.2866 68.4149C48.2789 68.5446 48.3905 68.8068 48.4578 68.9246C48.5978 69.1698 48.9495 69.3506 49.0236 69.6336C49.0982 69.9186 48.7354 70.0743 48.7677 70.3209C48.7883 70.4785 48.9457 70.4714 49.0563 70.4184C49.2266 70.3365 49.2906 70.1226 49.3907 69.982C49.599 69.6885 49.982 69.5466 50.3 69.3965C50.5434 69.2815 50.5453 69.3298 50.7253 69.4704C50.7907 69.5215 50.7974 69.5986 50.8922 69.5693C50.9947 69.5376 50.9928 69.3203 51.0524 69.2526C51.204 69.0818 51.2665 69.1835 51.4589 69.2219C51.6528 69.2607 51.8164 69.2469 52.0002 69.1816C52.2359 69.0979 52.5559 68.7931 52.8041 68.8096C53.1466 68.8323 53.2304 69.3672 53.5864 69.3833C53.8519 69.3956 54.2392 68.8655 54.4172 69.2536C54.5625 69.5702 54.1969 69.7501 54.0025 69.903C53.8284 70.0402 53.6595 70.1879 53.4786 70.3195C53.2405 70.4927 53.0288 70.549 52.7367 70.5665C52.4567 70.5836 52.0257 70.8657 52.1561 71.2173C52.2744 71.5373 52.693 71.4289 52.603 71.8743C52.5443 72.1644 52.2398 72.2709 52.1638 72.5373C52.1368 72.632 52.1767 72.7158 52.1556 72.8043C52.1349 72.8909 52.0656 72.9614 52.0565 73.049C52.0444 73.163 52.1503 73.3164 52.2277 73.3907C52.4202 73.5753 52.616 73.4769 52.8315 73.5791C53.0134 73.6652 53.2198 73.9984 53.2525 74.1911C53.2852 74.3837 53.1986 74.6005 53.2592 74.7903C53.3487 75.0709 53.6229 75.2664 53.8178 75.4548C53.9202 75.5542 53.9775 75.6881 54.0891 75.7752C54.2315 75.8864 54.371 75.9002 54.4196 76.1165C54.4985 76.4691 54.1016 76.6224 53.9169 76.8439C53.7143 77.0872 53.6037 77.383 53.5787 77.6949C53.5508 78.04 53.7071 78.2766 54.0713 78.3457C54.3489 78.3982 54.6294 78.1711 54.92 78.2903C55.1952 78.4035 55.3972 78.563 55.4646 78.854C55.4997 79.0046 55.5541 79.1797 55.53 79.3363C55.5045 79.5029 55.4165 79.5569 55.3491 79.7008C55.2019 80.0169 55.3433 80.3487 55.1908 80.6625C55.0431 80.9669 54.7766 81.2527 54.5317 81.4832C54.4028 81.6049 54.2739 81.7322 54.2253 81.9083C54.1651 82.1279 54.2825 82.1421 54.4317 82.3186C54.6236 82.5463 54.7819 82.7744 54.9998 82.9836C55.2452 83.2198 55.3669 83.5369 55.6253 83.748C55.8976 83.97 56.1848 84.1806 56.4528 84.4087C56.6721 84.5952 56.8992 84.821 57.0363 85.0704C57.2355 85.432 57.5073 85.5877 57.4636 86.0397C57.4462 86.2191 57.3823 86.3857 57.3707 86.567C57.3558 86.7994 57.375 87.0403 57.375 87.2736C57.375 87.6177 57.375 87.9613 33.0241 102.231H33.0212Z" fill="#808E78" />
  <path d="M91.075 99.9931C91.2497 100.142 91.4267 100.259 91.5831 100.429C91.7837 100.647 91.9588 100.857 92.2056 101.028C92.5001 101.232 92.795 101.454 93.0928 101.652C93.3198 101.802 93.5315 101.83 93.7961 101.881C93.939 101.908 94.0858 101.938 94.1988 101.823C94.3157 101.703 94.2681 101.558 94.4057 101.44C94.6087 101.265 94.6982 101.333 94.9089 101.433C95.1057 101.526 95.3236 101.555 95.5199 101.649C95.9341 101.848 96.3238 102.076 96.7308 102.288C96.931 102.392 97.1003 102.573 97.301 102.689C97.5054 102.807 97.695 102.946 97.9023 103.061C98.0491 103.141 98.1674 103.257 98.3156 103.332C98.5239 103.437 98.7803 103.449 98.9992 103.527C99.3817 103.663 99.7584 103.711 100.155 103.786C100.32 103.817 100.579 103.916 100.734 103.889C100.912 103.858 101.08 103.692 101.227 103.598C101.391 103.494 101.558 103.426 101.736 103.351C101.923 103.271 102.089 103.142 102.28 103.077C102.655 102.949 103.028 102.98 103.418 102.978C103.608 102.977 103.789 102.959 103.971 103.016C104.126 103.064 104.227 103.134 104.389 103.145C104.515 103.154 104.709 103.176 104.81 103.092C105.019 102.92 104.746 102.716 104.638 102.566C104.493 102.365 104.355 102.142 104.567 101.941C104.717 101.799 104.913 101.815 105.102 101.818C105.444 101.822 105.75 101.909 105.818 101.491C105.852 101.278 105.824 101.076 105.867 100.863C105.928 100.559 105.812 100.388 105.488 100.332C105.212 100.284 105.025 100.272 104.804 100.076C104.668 99.9557 104.506 99.8123 104.405 99.6622C104.201 99.3589 104.286 99.0597 104.64 98.9537C104.801 98.9054 104.997 98.8922 105.165 98.9102C105.28 98.9225 105.368 98.9367 105.467 98.9944C105.598 99.0711 105.623 99.196 105.802 99.1582C106.005 99.1151 106.089 98.8207 106.308 98.7616C106.576 98.6891 106.639 98.9935 106.888 99.0474C107.123 98.6262 106.63 98.5348 106.328 98.5017C105.924 98.4577 105.657 98.3663 105.477 97.9877C105.3 97.6138 105.346 97.2621 105.821 97.2536C106.073 97.2494 106.132 97.2863 106.284 97.0861C106.314 97.0066 106.361 96.9374 106.424 96.8778C106.532 96.848 106.635 96.8054 106.732 96.751C106.865 96.6421 106.934 96.4234 106.981 96.263C107.047 96.0396 107.138 95.8242 107.194 95.598C107.23 95.4536 107.242 95.3126 107.271 95.1673C107.3 95.0272 107.336 94.6916 107.45 94.5932C107.587 94.4748 107.765 94.5705 107.915 94.5085C108.075 94.4417 108.164 94.2657 108.322 94.1852C108.465 94.1128 108.588 94.0948 108.752 94.1043C108.843 94.1095 109.068 94.198 109.123 94.1227C109.079 93.7777 108.83 93.7313 108.575 93.5964C108.412 93.5107 108.324 93.4241 108.431 93.2547C108.561 93.0469 108.823 93.0568 109.029 93.0228C109.341 92.9707 109.412 92.628 109.531 92.3677C109.629 92.1557 109.698 91.821 109.485 91.6563C109.211 91.4443 108.99 91.6791 108.77 91.831C108.663 91.9048 108.552 91.9701 108.424 92.0023C108.207 92.0568 108.156 91.9895 107.992 91.8703C107.879 91.7884 107.734 91.6772 107.584 91.6914C107.384 91.7103 107.362 91.8513 107.342 92.0288C107.322 92.2158 107.323 92.4269 107.335 92.6153C107.353 92.9078 107.541 93.151 107.192 93.3082C106.929 93.4274 106.657 93.4464 106.374 93.4454C106.153 93.4445 105.92 93.498 105.789 93.2802C105.645 93.0436 105.697 92.39 105.872 92.1632C106.069 91.9081 106.437 91.991 106.705 91.9157C107.067 91.8139 107.24 91.5797 107.322 91.2195C107.365 91.0311 107.338 90.8158 107.337 90.6227C107.336 90.235 107.568 90.2151 107.933 90.1356C108.154 90.0873 108.137 89.9733 108.259 89.8119C108.373 89.6599 108.497 89.6685 108.666 89.632C108.943 89.5733 109.13 89.3604 109.398 89.2993C109.65 89.242 109.964 89.2685 110.164 89.0977C110.395 88.9003 110.384 88.5548 110.639 88.3816C110.826 88.2547 110.945 88.339 111.013 88.0668C111.05 87.9192 111.043 87.8614 110.919 87.7729C110.728 87.6371 110.16 87.4525 109.943 87.5902C109.753 87.7104 109.694 88.001 109.512 88.1407C109.264 88.3319 108.996 88.4029 108.811 88.1335C108.729 88.0152 108.666 87.8917 108.562 87.7899C108.406 87.6375 108.311 87.6712 108.094 87.7403C107.756 87.8482 107.49 88.1137 107.167 88.268C106.792 88.4478 106.656 88.365 106.458 88.0223C106.399 87.9206 106.354 87.833 106.33 87.7175C106.283 87.4908 106.321 87.4388 106.491 87.3143C106.649 87.1988 106.7 87.0895 106.731 86.8954C106.75 86.7714 106.703 86.5892 106.756 86.4751C106.816 86.3459 106.982 86.3312 107.07 86.2384C107.235 86.0657 107.147 85.8645 107.163 85.6478C107.172 85.5238 107.201 85.3548 107.282 85.2545C107.381 85.1328 107.559 85.1111 107.66 84.9913C107.804 84.8219 108.093 84.4049 107.964 84.2042C107.719 83.8232 107.278 84.1739 106.99 84.2392C106.435 84.3651 106.49 83.897 106.495 83.4909C106.497 83.2969 106.504 83.2235 106.324 83.1194C106.156 83.0214 106.003 83.0068 105.815 82.9997C105.46 82.9859 105.225 82.719 105.306 82.3489C105.373 82.0384 105.803 81.8756 106.012 81.6569C106.175 81.4865 106.283 81.3171 106.317 81.0866C106.359 80.8097 106.357 80.8868 106.612 80.768C106.901 80.6331 106.895 80.2266 106.7 80.0126C106.546 79.8432 106.224 79.7078 105.994 79.6652C106.089 79.4068 106.62 79.3027 106.862 79.27C107.364 79.2023 107.628 78.739 107.59 78.2704C107.573 78.066 107.46 77.9244 107.337 77.755C107.165 77.5202 107.048 77.4346 106.741 77.4426C106.457 77.4502 106.286 77.5742 106.243 77.8605C106.201 78.1341 106.313 78.2723 106.359 78.5227C106.172 78.5506 106.098 77.931 106.041 77.7739C105.977 77.5969 105.958 77.4805 105.737 77.4554C105.557 77.435 105.424 77.5051 105.396 77.6901C105.376 77.8279 105.54 78.0333 105.46 78.1606C105.384 78.2818 105.081 78.2453 104.965 78.2709C104.762 78.3158 104.767 78.4015 104.732 78.5984C104.711 78.7196 104.656 78.8204 104.634 78.9373C104.59 79.1754 104.723 79.3377 104.472 79.5015C104.396 79.5502 104.3 79.5658 104.224 79.6127C104.009 79.7448 103.91 79.927 103.628 79.9417C103.319 79.9573 102.805 79.758 102.884 79.3585C102.914 79.2038 103.073 79.1711 103.17 79.0585C103.309 78.8961 103.291 78.6689 103.369 78.4791C103.427 78.3348 103.536 78.2079 103.662 78.1109C103.756 78.0376 103.914 78.0229 103.935 77.887C103.95 77.7952 103.85 77.6367 103.818 77.5515C103.745 77.3499 103.698 77.2069 103.478 77.1265C103.422 77.1061 103.206 77.0346 103.164 77.0379C103.018 77.0493 102.984 77.2386 102.95 77.3584C102.834 77.7664 102.934 78.1677 102.364 78.101C102.118 78.0721 102.021 78.0394 101.854 78.2524C101.762 78.3703 101.689 78.4564 101.54 78.5085C101.355 78.5733 101.107 78.6632 100.913 78.6931C100.614 78.739 100.289 78.6893 100.249 78.357C100.209 78.0205 100.371 77.9027 100.492 77.6092C100.544 77.4824 100.526 77.4379 100.666 77.3546C100.88 77.2268 101.046 77.3347 101.269 77.3574C101.43 77.374 101.587 77.3413 101.739 77.2836C101.96 77.1998 101.956 77.117 101.902 76.9068C101.869 76.7809 101.862 76.6451 101.814 76.5239C101.738 76.3289 101.517 76.2409 101.445 76.0544C101.329 75.7572 101.587 75.397 101.855 75.2853C102.062 75.1987 102.139 75.2138 102.248 75.0056C102.319 74.8679 102.388 74.7154 102.479 74.5886C102.579 74.449 102.642 74.35 102.851 74.3898C103.045 74.4267 103.088 74.5271 103.283 74.3723C103.551 74.1588 103.647 73.7281 103.88 73.4621C103.978 73.3514 104.093 73.2591 104.214 73.1748C104.333 73.092 104.556 73.0371 104.65 72.9358C104.975 72.588 104.356 72.3688 104.114 72.3205C103.941 72.286 103.782 72.3025 103.623 72.3825C103.549 72.419 103.487 72.4753 103.416 72.5146C103.307 72.5747 103.155 72.6064 103.054 72.6741C102.812 72.8374 102.632 73.1815 102.29 73.1796C102.09 73.1786 102.037 73.022 101.868 72.9354C101.673 72.836 101.48 72.9387 101.396 73.137C101.27 73.4319 101.424 73.8365 101.019 73.952C100.865 73.996 100.731 73.9743 100.611 73.8678C100.535 73.8006 100.5 73.6988 100.428 73.6292C100.358 73.5611 100.262 73.517 100.192 73.4479C99.9918 73.2506 99.8975 73.0565 99.6261 72.9586C99.3365 72.854 98.8924 72.6708 98.955 72.3049C99.0416 71.7994 99.4322 71.8993 99.7767 71.7157C99.9518 71.6219 100.016 71.4075 100.148 71.2684C100.318 71.0895 100.429 71.0071 100.683 70.9778C100.986 70.9423 101.188 70.7426 101.262 70.4411C101.366 70.0156 100.911 69.9725 100.593 70.0492C100.126 70.1618 99.9388 69.6842 100.184 69.3534C100.306 69.1877 100.374 69.032 100.171 68.8792C100.033 68.7755 99.7498 68.8124 99.7526 68.5767C99.756 68.2861 100.545 68.12 100.094 67.7413C99.8739 67.5563 99.4125 67.4933 99.1412 67.534C99.3706 67.2273 99.948 66.2111 99.6742 65.9011C99.5992 65.8164 99.426 65.7606 99.439 65.6101C99.4515 65.4681 99.6381 65.398 99.7469 65.3417C100.097 65.1604 100.563 65.1935 100.686 64.7662C100.729 64.6175 100.727 64.4486 100.809 64.3137C100.9 64.1622 101.074 64.0704 101.189 63.936C101.414 63.6714 101.449 63.3496 101.697 63.0992C101.858 62.9359 102.329 62.4522 102.269 62.1961C102.193 61.87 101.693 62.0319 101.525 62.1857C101.367 62.3296 101.217 62.4754 101.185 62.6898C101.162 62.8512 101.239 63.0367 101.136 63.1782C100.962 63.4177 100.463 63.3377 100.195 63.4532C99.8907 63.5843 99.6814 63.847 99.3264 63.8588C99.1474 63.865 99.0079 63.7798 98.8361 63.7675C98.6047 63.7514 98.4893 63.9303 98.3348 64.0841C98.1054 64.3123 97.9158 64.5106 97.8966 64.8499C97.8792 65.158 97.6955 65.4487 97.3481 65.3886C97.0931 65.3445 96.8886 65.1103 96.816 64.8622C96.7636 64.6838 96.8319 64.4864 96.7953 64.3071C96.7722 64.1949 96.727 64.1755 96.7544 64.059C96.777 63.963 96.8718 63.8404 96.9339 63.768C97.1913 63.4693 97.5309 63.404 97.4381 62.9397C97.3688 62.5909 97.4361 62.3296 97.6036 62.0163C97.6642 61.9027 97.6974 61.7503 97.7748 61.649C97.886 61.5046 98.0597 61.5117 98.1972 61.41C98.3964 61.2623 98.5537 60.9821 98.6601 60.7668C98.8328 60.4175 98.7216 59.9446 98.2324 60.0483C98.0183 60.0937 97.7599 60.2499 97.5607 60.3488C97.4751 60.3909 97.3673 60.4165 97.2875 60.4629C97.0772 60.5855 97.0854 60.7355 97.006 60.9442C96.9382 61.1227 96.8506 61.2737 96.6385 61.2183C96.4744 61.1757 96.306 60.9726 96.2069 60.8463C96.0155 60.6006 95.963 60.3583 95.8653 60.0767C95.7706 59.8022 95.7869 59.6181 96.1242 59.5002C96.2724 59.4486 96.4533 59.4912 96.5889 59.4164C96.7756 59.3132 96.803 59.0652 96.8434 58.8769C96.8829 58.6951 96.8882 58.5574 97.058 58.4632C97.1913 58.3894 97.3544 58.4154 97.4833 58.3264C97.6142 58.236 97.6406 58.0997 97.7022 57.9624C97.7782 57.7925 97.8114 57.7438 97.6291 57.6283C97.4246 57.4991 97.159 57.6325 96.9829 57.4617C96.8704 57.3523 96.8261 57.0442 96.8959 56.9013C96.9546 56.7816 97.1215 56.6618 97.2206 56.5582C97.4573 56.3111 97.6897 56.1601 97.6271 55.7914C97.5997 55.631 97.5915 55.4582 97.5636 55.3006C97.5343 55.1335 97.4809 55.1321 97.3086 55.1013C96.6885 54.9901 96.8112 55.6428 96.5918 55.976C96.4585 56.1781 96.3296 56.3613 96.191 56.5563C96.0867 56.703 96.0361 56.746 95.8822 56.8464C95.7085 56.9595 95.6517 57.1006 95.5873 57.2979C95.4872 57.6037 95.5935 57.8219 95.2428 57.925C94.9893 57.9994 94.8103 57.9525 94.6708 57.7163C94.4697 57.376 94.4764 56.9917 94.6328 56.6434C94.6842 56.5288 94.7073 56.4148 94.7757 56.3073C94.8522 56.1866 94.9724 56.0882 95.0383 55.9594C95.1423 55.7564 95.2577 55.1728 94.9166 55.1908C94.5721 55.2092 94.5019 55.4961 94.2575 55.656C93.8928 55.8951 93.6032 55.4151 93.7249 55.1018C93.8274 54.8377 94.1122 54.7336 94.3167 54.5698C94.5794 54.3597 94.7814 54.0799 94.7824 53.7378C94.7833 53.3605 94.8267 53.2734 95.0634 52.9956C95.174 52.8659 95.2688 52.7178 95.3684 52.5796C95.4781 52.4267 95.6878 52.2241 95.7609 52.0575C95.8288 51.9023 95.7585 51.8237 95.7249 51.6699C95.682 51.4749 95.7143 51.2761 95.7109 51.0787C95.7066 50.8426 95.5242 50.6452 95.2649 50.7791C95.0735 50.878 95.0826 51.091 95.0162 51.2581C94.9469 51.4318 94.8007 51.4768 94.6722 51.597C94.3624 51.8862 94.3537 52.3089 93.9535 52.5043C93.4305 52.7594 93.5157 51.6817 93.5157 51.3764C93.5157 51.2269 93.4767 51.0205 93.519 50.8781C93.5912 50.6343 94.1103 50.6618 93.9409 50.3816C93.7735 50.1047 93.3194 50.1425 93.2275 49.7672C93.1952 49.6356 93.2347 49.5694 93.3184 49.4733C93.4728 49.2963 93.5513 49.2527 93.6215 49.0161C93.6643 48.8717 93.8101 48.6881 93.7615 48.5309C93.7192 48.3942 93.5378 48.2413 93.468 48.1064C93.2972 47.7756 93.3954 47.52 93.5152 47.1887C93.5912 46.978 93.6585 46.7485 93.7653 46.5502C93.8284 46.4338 93.991 46.2757 93.9544 46.1256C93.9049 45.9226 93.6811 45.9534 93.5104 45.9467C93.1365 45.9325 93.086 45.7025 93.0928 45.3665C93.0961 45.1994 93.0774 45.0323 93.1125 44.8676C93.1505 44.6887 93.227 44.5443 93.1375 44.3683C93.062 44.2201 92.9075 44.142 92.7598 44.0729C92.5573 43.9778 92.4592 43.9574 92.297 44.115C92.0613 44.3446 91.9925 44.6054 91.9247 44.9097C91.8602 45.1999 91.8005 45.3972 91.9112 45.6883C92.0151 45.9619 92.2229 46.376 92.0743 46.6804C91.9391 46.9572 91.5706 46.9222 91.331 47.0178C91.012 47.1451 91.0385 47.4177 91.1525 47.688C91.2165 47.8409 91.2622 47.9133 91.3849 48.0193C91.4767 48.0988 91.6519 48.1783 91.6172 48.3326C91.5946 48.433 91.3945 48.5286 91.3218 48.5977C91.1857 48.7274 91.0356 48.8859 90.9163 49.0308C90.6699 49.3299 90.8965 49.6091 91.0736 49.8657C91.228 50.0891 91.2405 50.2046 91.24 50.4649C91.2391 50.8658 91.1554 51.2278 91.1559 51.6254C91.1559 51.8606 91.1924 51.9704 90.9913 52.1238C90.8268 52.2492 90.6247 52.4295 90.402 52.421C90.1263 52.4106 89.8617 52.0656 89.688 51.8848C89.523 51.713 89.4378 51.2742 89.1174 51.3367C88.9 51.5909 89.4215 51.9378 89.5822 52.0589C89.7568 52.191 89.8184 52.254 89.7251 52.4508C89.6389 52.6326 89.4884 52.803 89.3825 52.9771C89.267 53.1674 89.1449 53.3506 89.1319 53.5745C89.1102 53.9503 89.1405 54.1102 88.7908 54.3218C88.415 54.5485 88.7985 54.6295 88.9736 54.8339C89.2194 55.1217 88.9885 55.3512 88.8981 55.6485C88.8143 55.9239 89.0217 56.073 89.3007 56.073C89.5836 56.073 90.0676 55.5661 90.2206 55.9665C90.2913 56.1516 90.1325 56.303 90.1532 56.4616C90.1734 56.6149 90.3312 56.6718 90.4101 56.8024C90.6675 57.2279 90.2033 57.2142 89.9295 57.0935C89.6986 56.9917 89.3777 56.6022 89.2064 56.9657C89.053 57.2913 89.4263 57.4565 89.6822 57.5436C89.8853 57.6127 90.1874 57.5975 90.1359 57.881C90.0965 58.0997 89.8054 58.3685 89.8165 58.5891C89.8227 58.7188 89.9767 58.7618 90.0638 58.8409C90.2211 58.9838 90.274 59.1713 90.2379 59.3861C90.1754 59.7619 89.7583 59.5532 89.6033 59.335C89.5384 59.2432 89.5124 59.0747 89.3695 59.0662C89.1732 59.0544 89.0664 59.4354 88.951 59.5319C88.7513 59.6985 88.4025 59.6498 88.1899 59.5296C87.844 59.3346 87.7044 58.9848 87.4504 58.7093C87.3263 58.5749 87.1618 58.4968 87.0227 58.3799C86.9275 58.2994 86.8428 58.1683 86.7009 58.1811C86.6354 58.3302 86.8062 58.653 86.8567 58.7988C86.9356 59.0269 87.0564 59.1561 87.257 59.2962C87.4432 59.4259 87.9551 59.7061 87.7136 60.0109C87.6135 60.1368 87.3359 60.151 87.1959 60.1268C86.9087 60.0771 86.3766 59.5987 86.1091 59.9035C85.9898 60.0393 86.0649 60.426 86.1933 60.5391C86.4257 60.744 86.8346 60.8174 86.9852 61.1146C87.1728 61.4843 86.8341 61.9188 86.7754 62.2766C86.7273 62.57 86.6946 62.7679 86.9169 63.0017C87.1415 63.2379 87.5009 63.5796 87.4615 63.9459C87.4365 64.1764 87.2585 64.1826 87.0631 64.1849C86.799 64.1878 86.7163 64.2313 86.5233 64.4093C86.2525 64.6592 86.3054 64.7842 86.4199 65.0979C86.4622 65.2144 86.5421 65.4042 86.455 65.5211C86.3872 65.612 86.024 65.6971 85.9099 65.7412C85.742 65.8065 85.4803 65.9485 85.3369 65.8335C85.2754 65.7842 85.2229 65.5646 85.1791 65.4898C85.1185 65.3876 85.0367 65.3038 84.9641 65.2101C84.7548 64.9399 84.3387 64.0032 83.986 64.6119C83.7575 65.0066 84.114 65.097 84.3358 65.3403C84.482 65.5003 84.5662 65.7355 84.5888 65.9475C84.6408 66.436 84.5595 67.0782 84.1693 67.4185C83.7618 67.774 82.7164 67.8497 82.7193 68.4944C82.7207 68.7892 82.9261 68.8635 83.0738 69.0704C83.2591 69.3297 83.0584 69.5422 83.0007 69.804C82.9348 70.104 83.0455 70.4344 82.967 70.7302C82.9021 70.9754 82.7313 71.1344 82.5624 71.31C82.5004 71.3744 82.458 71.4265 82.4003 71.4998C82.205 71.7493 82.1155 71.7161 81.8696 71.5623C81.643 71.4208 81.3914 71.2707 81.2317 71.5306C81.0956 71.753 81.0008 72.0721 81.0633 72.3295C81.1162 72.5473 81.2529 72.6405 81.3645 72.8232C81.5136 73.0674 81.6445 73.3107 81.7282 73.5819C81.8013 73.8204 81.9519 74.0372 81.9769 74.3003C81.9938 74.4807 81.9731 74.6743 81.9731 74.856C81.9731 75.1007 82.0299 75.3875 81.8947 75.6043C81.849 75.6777 81.7686 75.7321 81.7196 75.8045C81.5901 75.9957 81.5617 76.1865 81.3217 76.2731C81.0426 76.3734 80.8661 76.3038 80.664 76.5722C80.5149 76.77 80.4167 76.9807 80.309 77.1998C80.231 77.3593 80.1776 77.5264 80.1382 77.6991C80.0756 77.9736 80.1973 78.0446 80.3128 78.2751C80.4648 78.5785 80.4658 78.9846 80.2979 79.2885C80.1281 79.5961 79.7879 79.8659 79.5479 80.1215C79.4324 80.2446 79.3434 80.3847 79.2154 80.4968C79.0985 80.5991 78.958 80.6587 78.8531 80.7756C78.4712 81.203 78.2277 81.7501 77.8438 82.1752C77.7134 82.3195 77.585 82.4123 77.5253 82.6044C77.4397 82.8818 77.4219 83.1464 77.4219 83.4356C77.4219 83.6689 77.4224 83.8715 77.4835 84.0986C77.5571 84.3741 77.6879 84.6491 77.7423 84.9274C77.7914 85.1778 77.7591 85.4518 77.7591 85.7051V87.2296C77.7591 87.6091 77.7375 87.9968 77.7577 88.3759C77.7692 88.596 77.8837 88.675 78.0127 88.8615C78.6939 89.8455 79.2299 91.0032 79.6147 92.1259C79.7167 92.4236 79.8663 92.6754 80.014 92.9489C80.1006 93.1094 80.0872 93.179 80.2811 93.2608C80.4711 93.3408 80.5659 93.3872 80.7145 93.5306C81.1071 93.9088 81.518 94.3731 81.555 94.9335C81.5877 95.4295 81.4655 95.9165 81.4674 96.4149C81.4684 96.7032 81.4131 97.0113 81.5502 97.2598C81.721 97.5698 82.0833 97.7468 82.3907 97.92C82.854 98.1813 83.4015 98.2949 83.9086 98.4373C84.9136 98.7199 85.9316 98.9869 86.952 99.2102C87.424 99.3134 87.9007 99.3948 88.3727 99.4999C88.9673 99.6324 89.6693 99.6821 90.2346 99.9126C90.568 100.048 90.7936 100.229 91.088 100.425C91.5071 100.704 91.9088 100.989 92.3408 101.242C92.4009 101.277 92.463 101.303 92.5222 101.337C92.7334 101.458 92.895 101.63 93.1053 101.758C93.3333 101.896 93.5854 101.955 93.8226 102.07C94.016 102.163 94.0574 102.235 94.2902 102.242C94.6992 102.255 95.1216 102.153 95.5329 102.145C96.1242 102.132 96.7174 102.149 97.3086 102.149H99.0733C99.414 102.149 99.7902 102.104 100.127 102.146C100.347 102.174 100.623 102.305 100.826 102.396C100.989 102.468 101.087 102.545 101.27 102.588C101.401 102.619 101.543 102.628 101.67 102.665C101.983 102.754 102.24 102.892 102.525 103.038C102.552 102.92 102.503 102.849 91.0726 99.994L91.075 99.9931Z" fill="#97A58F" />
  <path d="M59.7535 98.6927C59.6255 98.5261 59.333 98.5426 59.1497 98.4783C59.0035 98.4267 58.8827 98.3486 58.7427 98.2861C58.443 98.1522 58.1644 98.2454 57.8575 98.1678C57.0156 97.9543 56.1294 97.7915 55.3202 97.4152C54.5331 97.0489 53.6955 96.8066 52.9065 96.4275C52.3556 96.1629 51.8086 95.9745 51.29 95.6441C50.8527 95.3658 50.5934 94.8717 50.2782 94.4666C49.9501 94.0444 49.5917 93.6629 49.1664 93.3458C48.7171 93.0107 48.2533 92.7679 47.7804 92.4787C47.3445 92.2118 46.8923 91.9879 46.453 91.7323C46.045 91.4947 45.7025 91.205 45.3181 90.9651C44.7701 90.6229 44.4531 90.1108 44.4608 89.4846C44.4694 88.7907 43.8868 88.7708 43.3177 88.5863C42.8207 88.4253 42.2953 88.4732 41.9566 88.0107C41.8527 87.8687 41.5145 87.4243 41.5896 87.2624C41.6824 87.0618 41.8537 87.1299 42.0461 87.1124C42.1337 86.6363 41.298 86.3636 41.145 86.0139C41.0315 85.7535 41.3144 85.6272 41.5496 85.6461C41.8267 85.6679 42.1164 85.8582 42.341 86.0053C42.5801 86.162 42.7577 86.374 43.0584 86.3054C43.2426 86.2633 43.3898 86.0503 43.5736 86.0281C44.0148 85.9751 44.4261 86.5217 44.8437 86.614C45.474 86.7536 45.4451 86.0479 45.9656 85.9003C46.2048 85.8326 46.4905 85.967 46.7142 85.8998C46.8894 85.8468 47.2281 85.5013 47.2035 85.2869C47.1395 84.7298 46.1937 84.8207 45.8646 84.6224C45.3984 84.3412 45.8151 83.7136 45.2469 83.5375C44.9746 83.4533 44.6633 83.5915 44.3944 83.5153C43.9513 83.3894 43.5727 82.9147 43.41 82.5209C43.1084 81.7901 43.9811 80.6641 44.8115 81.1753C45.0568 81.3263 45.1083 81.6202 45.2782 81.837C45.4033 81.9965 45.5572 82.1181 45.7314 82.2222C46.3188 82.5739 46.6782 82.1702 47.2141 81.9269C47.5687 81.766 48.0507 82.0272 48.3779 82.2213C48.8128 82.4797 49.1525 83.2285 49.6316 83.2867C50.0151 83.3331 50.6626 83.202 50.8483 82.8418C50.9965 82.5545 50.8325 82.2109 50.9263 81.9132C50.9537 81.8266 51.0461 81.7376 51.0826 81.6495C51.1481 81.49 51.1293 81.3324 51.1683 81.1687C51.2236 80.9368 51.4006 80.8128 51.4776 80.5979C51.6754 80.0484 50.6819 80.0048 50.3923 79.6721C50.1772 79.425 50.1325 79.3318 50.3899 79.1065C50.5693 78.9498 50.7762 78.894 50.7007 78.6256C50.6646 78.4978 50.5669 78.4207 50.5351 78.2867C50.5096 78.1793 50.5707 78.0411 50.539 77.9441C50.45 77.6757 50.2494 77.679 49.9886 77.6743C49.6586 77.6681 49.254 77.6123 48.935 77.6823C48.6795 77.7387 48.5314 77.9592 48.2509 77.9161C48.1373 77.8986 48.0267 77.7931 47.9305 77.7405C47.8208 77.6804 47.5514 77.6147 47.4725 77.5313C47.3012 77.351 47.3647 77.1593 47.6038 77.0684C47.8929 76.9586 48.1118 77.1801 48.183 76.8119C48.2369 76.5327 48.1316 76.4896 48.3971 76.3396C48.6954 76.1711 48.9884 76.0537 49.2391 75.783C49.3463 75.6675 49.6028 75.3575 49.6023 75.189C49.6013 74.9897 49.2713 74.5751 49.1289 74.4587C48.7863 74.1785 47.9204 73.9395 47.5206 74.1856C47.1184 74.4331 46.7681 74.799 46.2962 74.391C45.7169 73.8902 46.5858 73.7667 46.4607 73.2962C46.3568 72.9043 45.945 72.6393 45.6582 72.387C45.3474 72.1139 44.5118 71.9071 44.4507 71.4504C44.3338 70.5823 45.8911 71.7187 46.096 71.9014C46.4044 72.1759 46.4487 72.2162 46.8557 72.2076C47.1492 72.2015 47.4575 72.2417 47.7462 72.1944C48.1676 72.1258 48.5179 71.9502 48.9446 71.9559C49.1828 71.9592 49.2833 71.9634 49.4868 72.1111C49.838 72.3648 49.7514 72.3028 50.1406 72.0775C50.5299 71.8527 50.6482 71.8489 50.9999 72.0756C51.2481 72.2356 51.4757 72.4727 51.7927 72.4713C52.1863 72.4698 52.1863 72.1991 52.422 71.9753C52.7064 71.705 52.6963 71.9374 53.0542 71.944C53.6642 71.9554 53.8114 71.0173 53.6132 70.5842C53.4487 70.2254 52.8925 69.3428 53.2312 68.9731C53.5334 68.9158 53.5223 69.2145 53.6979 69.3551C53.9606 69.5652 54.3512 69.3517 54.586 69.6031C54.8934 69.932 54.6582 70.9099 55.4491 70.6969C55.6334 70.6472 56.1573 70.3603 56.2444 70.1904C56.4051 69.8776 55.9937 69.5751 55.8051 69.3456C55.669 69.1795 55.5237 69.0053 55.3582 68.8661C55.2475 68.7734 55.0599 68.7071 54.9666 68.6058C54.7303 68.3498 54.8675 68.097 54.8285 67.7846C54.8044 67.5925 54.7222 67.4576 54.6197 67.2943C54.4956 67.0965 54.3979 66.8745 54.2593 66.688C54.0948 66.467 53.7503 66.173 54.0712 65.9355C54.3753 65.7106 54.7419 65.8772 54.956 66.1172C55.3043 66.5067 55.5261 66.9559 55.8436 67.3554C56.2564 67.875 56.9588 67.9938 57.6006 67.8343C57.502 67.2403 56.7659 67.0463 56.6076 66.4892C56.4936 66.0874 56.6846 66.0145 56.8525 65.7182C57.0204 65.4215 57.0117 65.163 56.8804 64.8596C56.8092 64.6963 56.6697 64.5416 56.6192 64.3712C56.5662 64.1928 56.6422 64.019 56.5845 63.8434C56.3752 63.2097 55.4789 63.5632 55.0835 63.7459C54.7467 63.9017 54.409 63.9892 54.0669 64.127C53.7393 64.259 53.4415 64.338 53.2563 63.9755C53.0176 63.5093 53.3592 63.594 53.6046 63.3858C53.9692 63.0762 53.7162 62.9891 53.5536 62.664C53.2428 62.0416 53.7633 61.5683 53.9741 60.9795C54.1347 60.5303 54.407 59.9851 53.6864 59.8829C53.1042 59.8 52.9541 60.7239 52.4201 60.3741C52.1613 60.2047 52.1319 59.9283 52.0463 59.677C52.0636 59.5255 52.0145 59.3977 51.8981 59.2931C51.7798 59.2212 51.6571 59.1563 51.5305 59.0986C51.3583 58.9377 51.0519 58.3702 51.036 58.1392C51.0013 57.647 51.4329 57.8325 51.6393 58.0517C51.9852 58.4185 52.5457 59.162 52.551 58.1766C52.5524 57.9423 52.4697 56.9986 52.9031 57.0591C53.1851 57.0984 53.0576 57.7284 53.0552 57.9035C53.0503 58.2452 52.9301 58.5358 53.2894 58.6949C53.9211 58.9746 54.5894 58.4232 55.2062 58.6987C55.4857 58.8236 55.4693 59.0787 55.8297 59.0006C55.9345 58.8979 56.0616 58.8392 56.2107 58.825C56.3656 58.8586 56.5224 58.8814 56.6807 58.8932C56.8005 58.6315 56.7317 58.435 56.9612 58.2201C57.184 58.0119 57.5106 57.9508 57.744 57.7606C58.0038 57.5485 58.0572 57.2201 58.0961 56.9086C58.111 56.7884 58.1038 56.6535 58.1346 56.5357C58.1924 56.3142 58.3819 56.1513 58.3468 55.9118C58.2674 55.3728 57.704 55.1754 57.2638 55.4068C57.0141 55.5379 56.8318 55.7699 56.5253 55.7329C56.2675 55.7017 56.0659 55.4741 56.0139 55.227C55.9345 54.8498 56.3618 54.4266 56.5427 54.1067C56.9506 53.3849 56.1073 53.6571 55.707 53.5633C55.4501 53.5032 55.466 53.2727 55.2596 53.1336C55.0503 52.9925 54.8116 53.1369 54.6514 52.9201C54.4585 52.6588 54.4783 51.814 54.6793 51.5632C54.8102 51.3999 55.1951 51.1665 55.3928 51.2659C55.6478 51.3937 55.5867 51.8315 55.5833 52.0682C55.58 52.2982 55.5299 52.541 55.8301 52.5481C56.0957 52.5542 56.1765 52.2622 56.3998 52.1718C56.865 51.9844 57.1936 52.6181 57.5515 52.0549C57.7589 51.7288 57.691 51.6389 57.538 51.3194C57.3841 50.9971 57.4774 50.6549 57.6025 50.3458C57.8277 49.7883 57.9003 49.4139 57.6117 48.8568C57.3822 48.4143 56.9468 47.9926 56.9954 47.4577C57.017 47.2216 57.0848 46.3247 57.4885 46.5604C57.7324 46.7028 57.6054 47.6234 57.6054 47.8823C57.6054 48.2761 57.4986 48.8473 58.0302 48.9543C58.2679 49.0021 58.5488 48.8317 58.8005 48.8208C58.9496 48.8142 59.1704 48.7834 59.3119 48.8152C60.0205 48.9751 59.9503 50.9015 59.2233 51.017C59.0299 50.7514 59.3595 50.0756 59.6534 49.961C60.0768 49.7968 60.4357 50.3473 60.8475 50.3794C61.0409 50.1849 61.0679 49.7102 61.116 49.447C61.1728 49.137 61.1449 48.8175 61.1444 48.5037C61.1444 48.1852 61.1978 47.8302 61.0871 47.5273C60.9673 47.2007 60.6912 46.9551 60.5449 46.6432C60.8143 46.8074 60.9452 47.1018 61.268 47.1955C61.6149 47.2963 61.83 47.1165 62.1258 46.9901C62.2148 46.9522 62.4424 46.9418 62.4996 46.8519C62.6026 46.691 62.4318 46.486 62.3534 46.3535C62.1975 46.0913 61.9878 45.8599 61.8492 45.5882C61.6572 45.2119 61.4157 44.8087 61.2675 44.4172C61.1598 44.1318 61.1516 43.8062 61.0116 43.535C60.8596 43.2411 60.5704 43.0352 60.2976 42.8572C59.8954 42.5946 58.9361 42.2789 58.8159 41.7615C58.6932 41.2329 59.1069 40.3909 59.7631 40.6261C60.3559 40.8386 60.3342 41.5997 61.0703 41.6177C61.269 41.6224 61.4215 41.5703 61.5879 41.6849C61.866 41.8766 61.7631 42.3489 62.0161 42.5198C62.2774 42.4663 62.3823 42.1899 62.5338 42.0129C62.6911 41.8297 62.9302 41.7606 63.0149 41.5169C62.8513 41.1245 62.1278 40.9276 61.8386 40.5769C61.6418 40.3388 61.5678 40.1689 61.4893 39.8683C61.4321 39.6483 61.2151 39.3255 61.3055 39.1025C61.766 38.7608 62.1306 39.6402 62.4058 39.8537C62.6757 40.0633 63.0847 40.1869 63.4195 40.2607C63.8082 40.3459 64.0642 40.5783 64.4058 40.7572C64.693 40.9077 64.5823 40.8679 64.8003 40.6573C65.0071 40.4576 65.1779 40.4051 65.4175 40.2484C65.6975 40.0657 66.2229 39.6085 66.1916 39.2606C66.1729 39.0528 66.03 39.0169 65.9405 38.8559C65.7918 38.5876 65.8669 38.3878 65.8298 38.1152C65.7793 37.7413 65.0091 37.5255 64.6766 37.3783C64.362 37.2392 63.6995 37.1511 63.6129 36.7616C63.5374 36.4217 63.8977 36.346 64.171 36.3834C64.3192 36.4038 64.5419 36.5566 64.6925 36.5112C64.8633 36.4596 64.8864 36.1628 64.9388 36.0332C65.0134 35.8495 65.1866 35.6484 65.0567 35.4775C64.9634 35.3545 64.7079 35.3388 64.5621 35.2749C64.1224 35.0814 63.5773 35.0468 63.5335 34.4902C63.5047 34.122 63.7471 33.9653 63.5975 33.5971C63.4118 33.1389 63.3401 33.0201 63.7981 32.8157C64.0324 32.7111 64.4438 32.5894 64.4135 32.286C64.3884 32.0366 64.0589 31.6324 63.9583 31.4029C64.0579 31.3096 64.1849 31.3437 64.2792 31.2736C64.4712 31.1307 64.4322 31.0124 64.4366 30.7956C64.4423 30.487 64.4332 30.221 64.3403 29.9247C64.2533 29.6455 64.1267 29.53 63.954 29.3057C63.8535 29.1755 63.7991 29.0468 63.6629 28.9298C63.51 28.7983 63.2906 28.7183 63.1915 28.5356C63.4234 28.1877 64.0921 29.2782 64.1768 29.4244C64.2518 29.5669 64.3384 29.7018 64.4366 29.8301C64.5097 29.9754 64.5554 30.1287 64.5746 30.2901C64.8633 30.5708 65.1236 30.2925 65.3232 30.0199C65.4993 29.7799 65.5883 29.5593 65.6932 29.2976C65.7668 29.1135 65.8178 28.8887 66.0752 28.9583C66.3436 29.0307 66.2946 29.6223 66.3249 29.8092C66.3571 30.0071 66.3258 30.1841 66.5746 30.2693C67.0821 30.008 67.0191 29.0193 66.9315 28.5394C66.8839 28.2795 66.818 27.8886 66.6506 27.6775C66.4538 27.429 66.0516 27.358 66.0838 26.9619C66.5558 26.809 66.0699 26.2467 65.9833 25.9334C66.1209 25.78 66.2902 25.8723 66.4591 25.7994C66.639 25.7213 66.8555 25.4525 66.9681 25.3143C67.3939 24.7922 66.8473 24.602 66.5707 24.1798C66.4134 23.9398 66.0227 23.1764 66.3869 23.1007C66.6227 23.0514 66.7795 23.3009 67.0191 23.1428C67.2471 22.9923 67.2476 22.5956 67.1865 22.3604C67.0735 21.9245 66.8353 21.5728 66.8257 21.1019C66.8199 20.8198 66.7978 20.506 66.8247 20.2258C66.8382 20.0834 66.8411 19.8832 67.0456 19.8529C67.3708 19.8046 67.3337 20.2452 67.4559 20.4128C67.8144 20.9045 68.2704 20.1553 68.4759 19.8249C68.638 19.5646 69.2173 17.714 69.7494 18.3705C69.9519 18.6204 69.899 19.2347 69.8542 19.5476C69.8234 19.762 69.7556 20.0237 69.6647 20.2197C69.5704 20.4232 69.3423 20.5207 69.2533 20.7133C69.1441 20.95 69.2163 21.1634 69.0469 21.3954C68.9137 21.578 68.7318 21.7073 68.7203 21.9562C68.7068 22.2501 68.8829 22.2 69.0263 22.4125C69.2033 22.6742 68.9656 22.9194 68.7944 23.1485C68.5615 23.4599 67.8798 23.8953 68.2825 24.2721C68.4687 24.4463 68.6597 24.4704 68.7843 24.7118C68.9267 24.9877 68.9329 25.2457 69.1191 25.5117C69.2471 25.6939 69.3428 25.8969 69.4766 26.0706C69.6454 26.2898 69.8133 26.3787 69.8581 26.6802C69.9129 27.0494 69.8384 27.4385 69.86 27.8114C69.8826 28.1986 70.1448 28.5271 70.3666 28.8399C70.5162 29.0515 70.7746 29.4311 71.108 29.3028C71.3889 29.1944 71.3485 28.8243 71.4015 28.5924C71.6901 28.706 71.9388 28.928 72.1164 29.1774C72.4069 29.5854 72.4705 29.9858 72.1467 30.3668C71.897 30.6602 71.4779 30.8917 71.2966 31.231C71.1643 31.4786 71.2956 31.4696 71.3235 31.666C71.3601 31.9192 71.3091 31.9614 71.1291 32.1677C70.8164 32.5265 70.803 32.6902 70.7202 33.1588C70.6529 33.5412 70.5408 33.9232 70.4643 34.3051C70.3781 34.7344 70.4364 35.1647 70.3579 35.5878C70.3238 35.7729 70.2872 36.3924 70.1439 36.4875C69.923 35.8907 70.2122 35.3043 70.7515 35.0511C71.0599 34.9062 71.1566 34.7496 71.4053 34.5262C71.6338 34.3208 72.2068 33.8276 72.5234 34.0728C72.5162 34.3477 72.1087 34.5617 71.9461 34.7747C71.872 34.8717 71.7599 34.9791 71.7017 35.0856C71.6295 35.2177 71.668 35.362 71.6107 35.4936C71.4818 35.7894 71.1835 35.9305 71.0685 36.2613C70.9449 36.6182 71.0031 37.0134 71.0007 37.3863C70.9993 37.6486 70.903 38.1252 71.1085 38.3372C71.2826 38.5166 71.8397 38.5715 72.0697 38.5005C72.2155 38.4555 72.5215 38.2586 72.6485 38.1479C73.0839 37.7669 72.5946 37.4857 72.6461 37.0697C73.2176 37.1639 73.2373 37.8393 73.8334 37.2685C74.0182 37.0919 74.2404 36.9504 74.4194 36.7739C74.5974 36.5983 74.6773 36.3508 74.7918 36.1363C74.9573 35.8254 75.2079 35.5689 75.3955 35.2721C75.587 34.9692 75.5543 34.3165 75.9392 34.2029C76.3096 34.6791 75.9353 35.211 75.7564 35.6498C75.5899 36.0583 75.5991 36.2731 75.1843 36.5051C74.8721 36.6797 74.6393 36.9836 74.4045 37.2619C74.1365 37.5799 74.125 37.7214 74.3819 38.0362C74.634 38.3448 74.4983 38.6557 74.53 39.014C74.6056 39.8674 75.5755 38.9814 76.02 38.9402C76.2105 39.3794 75.372 39.8555 75.0415 40.0345C74.8736 40.1253 74.7066 40.2006 74.545 40.3052C74.4271 40.3814 73.8464 40.5882 73.8094 40.6744C73.6025 41.1567 74.721 41.0956 74.2972 41.7445C74.072 42.0891 73.4601 42.2685 73.5443 42.7768C73.666 42.5813 73.653 42.3858 73.8021 42.1946C73.9628 41.9887 74.0836 41.9547 74.2861 41.86C74.6441 41.6924 75.1083 41.4724 75.5235 41.4955C75.6982 41.8439 75.1747 41.8747 75.0314 42.0361C74.9164 42.1653 74.7437 42.6973 74.8048 42.8667C74.8562 43.0096 75.1054 43.1246 75.1858 43.252C75.3927 43.5795 75.2238 43.8516 74.9202 44.0504C74.5584 44.2876 73.9037 44.1527 74.0494 44.8262C74.1856 45.4561 74.6215 45.4505 75.1632 45.4154C75.3388 45.9867 74.5661 46.6195 74.5358 47.2097C74.5151 47.6082 74.481 48.0915 74.5642 48.4805C74.6325 48.7981 74.8043 49.1488 75.1521 48.81C75.3628 48.6045 75.256 48.3854 75.3075 48.1426C75.3547 47.9197 75.4793 47.772 75.4172 47.5264C75.3657 47.3238 74.8784 46.7094 75.2854 46.5542C75.4595 46.6266 75.5673 46.9286 75.7674 46.9366C75.9195 46.9428 76.0984 46.7057 76.1658 46.602C76.4126 46.2219 76.1658 45.8078 76.4342 45.4684C76.7402 45.0808 77.1174 44.9028 77.5167 45.2091C77.6519 45.3127 77.8227 45.45 77.9271 45.5887C78.0642 45.7723 78.0026 45.9891 78.3033 46.0658C78.5501 45.9678 78.631 45.5622 78.7738 45.343C78.9037 45.1433 79.0173 44.9398 79.1212 44.7254C79.2583 44.4428 79.571 43.2264 80.0117 43.2647C80.3846 43.2974 80.2272 44.2317 80.2272 44.4802C80.2272 44.8309 80.2941 45.2493 80.2335 45.5934C80.1315 46.1727 79.7606 46.7374 79.4151 47.2003C79.2035 47.4842 79.1448 47.6665 79.0615 47.9869C78.9846 48.2832 78.7378 48.5198 78.7214 48.8204C78.7031 49.1659 79.1727 49.4963 79.0885 49.8271C79.0509 49.9748 78.7007 50.1044 78.5848 50.1892C78.4231 50.307 78.2798 50.4239 78.1465 50.5716C77.7861 50.9715 77.2319 51.6985 77.3363 52.2764C77.5278 52.4038 77.9945 51.4855 78.3125 51.4941C78.783 51.8755 78.2826 52.6645 78.1474 53.0541C78.0527 53.3276 77.9415 54.1658 78.2143 54.2984C78.6714 54.5203 79.278 53.9576 79.4517 54.669C79.5364 55.0164 79.317 55.3505 79.1842 55.6624C79.1347 55.7789 78.9499 56.0751 78.9696 56.1722C79.0255 56.449 79.2357 56.3255 79.4498 56.4093C79.6605 56.4917 79.7577 56.459 79.6129 56.7553C79.5619 56.8599 79.3386 57.0677 79.2501 57.1585C79.1178 57.2948 78.9586 57.4122 78.8321 57.5571C78.6747 57.7369 78.5915 57.9731 78.4323 58.1539C78.2263 58.3877 78.0637 58.5107 77.9204 58.7753C77.7813 59.0319 77.4624 59.2103 77.434 59.5127C77.3835 60.0485 78.1758 59.8938 78.5241 59.8938C79.0596 59.8942 79.3646 59.8422 79.825 59.5213C80.0738 59.3476 80.565 58.791 80.5299 59.5194C80.5217 59.6883 80.3047 59.854 80.3562 60.0234C80.4211 60.2364 80.8012 60.2605 80.9604 60.2463C81.3107 60.2151 81.074 60.1152 81.455 60.2672C81.7562 60.3869 81.711 60.4262 81.9953 60.2762C82.3143 60.1077 82.6366 59.8516 83.0046 59.7612C83.2707 59.6954 83.3967 59.7981 83.6421 59.7835C83.9221 59.7664 83.9659 59.6391 84.1752 59.518C84.371 59.4044 84.5341 59.3542 84.7097 59.215C84.8939 59.0692 85.033 58.8591 85.3062 58.9041C85.567 59.1918 84.9916 59.5714 84.7809 59.6978C84.6158 59.7967 84.4316 59.854 84.2771 59.969C84.1102 60.093 84.0222 60.2691 83.8615 60.4016C83.6873 60.5455 83.3679 60.5947 83.2423 60.7864C83.0171 61.131 83.4848 61.2568 83.6103 61.5115C83.4646 61.7595 82.9897 61.9152 82.753 62.0709C82.5033 62.2352 82.2445 62.3876 82.0218 62.5868C82.1877 62.5258 82.7458 62.2404 82.8757 62.4874C83.0648 62.8471 82.3888 62.9944 82.1853 63.0777C81.8654 63.2083 81.4579 63.4231 81.3039 63.745C81.1264 64.1151 81.3333 64.2297 81.4998 64.5203C81.6479 64.7787 81.5902 65.2241 81.4998 65.4967C81.4199 65.7357 81.0037 66.0495 80.7353 66.1035C80.3297 66.1853 80.1459 65.7887 79.7322 66.033C79.3723 66.2455 79.216 66.6435 79.0154 66.9829C78.8325 67.2924 78.5395 67.503 78.4149 67.8556C78.198 68.4695 78.5545 68.2234 78.9413 68.2783C79.5013 68.3578 79.8424 69.4989 80.5472 69.3522C80.8012 69.2992 80.958 68.8003 81.1115 68.5963C81.3242 68.3133 81.506 67.9858 81.7437 67.7226C81.9635 67.4793 82.1574 67.22 82.3758 66.9767C82.5327 66.8016 82.7718 66.4897 82.9916 66.4201C83.1658 66.9417 82.5832 67.4382 82.6294 67.9437C82.8507 68.1032 83.2717 67.8575 83.5233 67.8447C83.8793 67.8263 84.0659 68.0946 84.3979 68.0913C84.7029 68.0885 84.9776 67.8779 85.0883 67.5991C85.1787 67.371 85.0642 66.7031 85.5112 66.7888C85.8831 67.0794 85.7315 67.805 85.8066 68.1983C86.0616 68.3043 86.3618 67.6213 86.5436 67.4699C87.1537 66.963 87.0069 67.6729 87.3009 67.9839C87.8296 67.9039 87.3413 66.8697 88.1298 67.1641C88.6321 67.352 88.9044 67.4311 89.46 67.2006C89.6101 67.1381 89.9335 66.9038 90.1004 66.9866C90.4073 67.1381 90.1475 67.6815 90.0326 67.8703C89.7559 68.3223 89.3018 68.8179 88.7932 69.0039C88.531 69.0999 88.3622 69.1317 88.1875 69.3617C88.0908 69.489 87.9759 69.6845 87.9513 69.8435C87.9273 69.9997 88.036 70.1743 88.0124 70.3187C87.9046 70.9818 86.8438 71.0736 86.5032 71.5834C86.1496 72.113 86.0577 72.8381 86.1549 73.4676C86.2559 74.1203 87.2768 73.3966 87.6795 73.3876C87.7353 73.922 86.9843 74.2736 87.183 74.8113C87.285 75.0882 87.5462 75.0645 87.7454 75.2368C87.9407 75.4058 87.8758 75.5066 87.9855 75.7413C88.367 75.7588 88.7961 75.3778 89.142 75.6358C89.3937 75.8232 89.3913 76.314 89.2493 76.554C89.0564 76.8801 88.6364 76.9553 88.4353 77.2985C88.0904 77.8877 87.8065 78.3733 87.6713 79.0412C87.5958 79.4137 87.4697 79.6432 87.5342 80.0342C87.5823 80.3262 87.7112 80.6017 87.9552 80.7948C88.2183 81.003 88.5657 81.128 88.8207 80.8941C89.067 80.6684 89.2917 80.4152 89.6169 80.2756C90.1812 80.0327 89.8699 80.4639 90.1543 80.7167C90.3501 80.8904 90.6214 80.667 90.7912 80.5264C91.2502 80.1463 91.7948 80.0455 92.3361 79.8188C92.593 79.7114 92.8802 79.7076 93.1236 79.5968C93.3579 79.4904 93.5667 79.2646 93.7688 79.1074C93.9781 79.2343 93.5508 79.7767 93.4392 79.921C93.2458 80.1709 93.0168 80.3077 92.7368 80.4469C92.2158 80.7058 91.5581 81.0196 91.4797 81.6505C91.4557 81.8455 91.5403 82.0978 91.4595 82.2809C91.3527 82.5242 91.0001 82.5564 90.7759 82.6345C90.5469 82.7145 90.2909 82.838 90.3477 83.1466C90.3746 83.2938 90.5897 83.4855 90.6469 83.6412C90.7133 83.822 90.747 84.0501 90.7595 84.2418C90.7932 84.7563 90.5449 84.6441 90.1076 84.7767C89.8141 84.8656 89.4985 85.1122 89.219 85.2684C89.0049 85.3877 88.8033 85.4937 88.5686 85.5709C88.2082 85.6897 88.0769 85.9116 87.9301 86.2576C87.7642 86.6486 87.7411 86.8312 87.4308 87.1271C87.2412 87.3079 87.069 87.483 86.9136 87.6917C86.7106 87.9643 86.4998 88.2881 86.4464 88.6289C86.3993 88.9303 86.5094 89.1831 59.7492 98.6922L59.7535 98.6927Z" fill="#6D7962" />
  <path d="M86.6851 74.5619H92.7079V84.1487C92.7079 85.6486 93.3199 87.086 94.4062 88.1381L113.746 106.866H26.292L29.5923 103.944C30.4271 103.054 59.131 76.5943 68.1069 68.3228C69.5973 66.9493 71.9177 66.9588 73.3966 68.3437L86.19 80.3244" fill="#F7FDFB" />
  <path d="M45.2666 101.175L69.2451 78.7302C70.0967 77.9331 71.4313 77.9265 72.291 78.7146L97.327 101.662L72.8529 83.1697C71.7647 82.3476 70.2507 82.3467 69.161 83.1674L45.2666 101.175Z" fill="#3B3B3B" />
  <defs>
    <radialGradient id="paint0_radial_368_166" cx="0" cy="0" r="1" gradientUnits="userSpaceOnUse" gradientTransform="translate(71.7865 72.1512) scale(74.7602 73.5483)">
      <stop stop-color="#EFFBCC" />
      <stop offset="0.43" stop-color="#F9F5CA" />
      <stop offset="0.58" stop-color="#F2EFC6" />
      <stop offset="0.69" stop-color="#E6E5BD" />
      <stop offset="0.78" stop-color="#D5D7B2" />
      <stop offset="0.85" stop-color="#BFC5A2" />
      <stop offset="0.92" stop-color="#A4AE90" />
      <stop offset="0.98" stop-color="#84937A" />
      <stop offset="0.99" stop-color="#7D8D75" />
    </radialGradient>
  </defs>
</svg>