<svg xmlns="http://www.w3.org/2000/svg" width="34" height="34" viewBox="0 0 34 34" fill="none">
  <g clip-path="url(#clip0_317_13424)">
    <path fillRule="evenodd" clip-rule="evenodd" d="M12.3338 19.2011L17.0027 22.3935L21.5045 19.2886L31.5937 29.2432C31.3278 29.3288 31.0443 29.375 30.75 29.375H3.25C2.88683 29.375 2.5401 29.3046 2.22271 29.1767L12.3338 19.2011ZM33.5 11.0204V26.625C33.5 27.0319 33.4116 27.4181 33.253 27.7656L23.3624 18.0082L33.5 11.0204ZM0.5 11.1078L10.4693 17.9256L0.674406 27.5909C0.561661 27.2904 0.5 26.9649 0.5 26.625L0.5 11.1078ZM30.75 4.625C32.2688 4.625 33.5 5.85622 33.5 7.375V8.34245L16.9973 19.7186L0.5 8.4365L0.5 7.375C0.5 5.85622 1.73122 4.625 3.25 4.625H30.75Z" fill="#2C3B2E"/>
  </g>
  <defs>
    <clipPath id="clip0_317_13424">
      <rect width="33" height="33" fill="white" transform="translate(0.5 0.5)"/>
    </clipPath>
  </defs>
</svg>