<svg xmlns="http://www.w3.org/2000/svg" width="29" height="36" viewBox="0 0 29 36" fill="none">
  <path d="M27.6667 14.3333C27.6667 24.3333 14.3333 34.3333 14.3333 34.3333C14.3333 34.3333 1 24.3333 1 14.3333C1 10.7971 2.40476 7.40573 4.90524 4.90524C7.40573 2.40476 10.7971 1 14.3333 1C17.8696 1 21.2609 2.40476 23.7614 4.90524C26.2619 7.40573 27.6667 10.7971 27.6667 14.3333Z" fill="#2C3B2E" stroke="#2C3B2E" stroke-width="2" stroke-linecap="round" stroke-linejoin="round"/>
  <path d="M14.332 19.3281C17.0935 19.3281 19.332 17.0895 19.332 14.3281C19.332 11.5667 17.0935 9.32812 14.332 9.32812C11.5706 9.32812 9.33203 11.5667 9.33203 14.3281C9.33203 17.0895 11.5706 19.3281 14.332 19.3281Z" fill="#F7FDFB" stroke="#F7FDFB" stroke-width="2" stroke-linecap="round" stroke-linejoin="round"/>
</svg>