<svg width="29" height="29" viewBox="0 0 29 29" fill="none" xmlns="http://www.w3.org/2000/svg">
  <path d="M14.5 0C10.5481 0 6.96178 1.59066 4.34392 4.16397C4.31059 4.19052 4.27578 4.21412 4.2448 4.2448C4.21412 4.27578 4.19111 4.31059 4.16397 4.34392C1.59066 6.96178 0 10.5481 0 14.5C0 17.4303 0.866425 20.2499 2.50546 22.6545C2.8813 23.2055 3.63356 23.3486 4.18433 22.9722C4.73598 22.5964 4.87817 21.845 4.50234 21.2933C3.13795 19.2917 2.41667 16.9426 2.41667 14.5C2.41667 11.6031 3.44328 8.94214 5.14928 6.85853L22.1415 23.8507C20.0579 25.5567 17.3969 26.5833 14.5 26.5833C12.3716 26.5833 10.2829 26.0258 8.45951 24.9697C7.8819 24.6354 7.14321 24.8325 6.80838 25.4101C6.47414 25.9877 6.6712 26.7264 7.24882 27.0612C9.43951 28.3295 11.9467 29 14.5 29C18.4519 29 22.0382 27.4093 24.6561 24.836C24.6894 24.8095 24.7242 24.7859 24.7552 24.7552C24.7859 24.7242 24.8089 24.6894 24.836 24.6561C27.4093 22.0382 29 18.4519 29 14.5C29 6.50453 22.4955 0 14.5 0ZM23.8507 22.1415L6.85853 5.14928C8.94214 3.44328 11.6031 2.41667 14.5 2.41667C21.1626 2.41667 26.5833 7.83735 26.5833 14.5C26.5833 17.3969 25.5567 20.0579 23.8507 22.1415Z" fill="#232221" />
</svg>