<svg width="16" height="16" viewBox="0 0 16 16" fill="none" xmlns="http://www.w3.org/2000/svg">
  <path d="M11.4205 1.89056C11.5971 1.71395 11.8068 1.57385 12.0375 1.47827C12.2683 1.38269 12.5156 1.3335 12.7654 1.3335C13.0151 1.3335 13.2625 1.38269 13.4932 1.47827C13.724 1.57385 13.9336 1.71395 14.1103 1.89056C14.2869 2.06717 14.427 2.27684 14.5225 2.50759C14.6181 2.73834 14.6673 2.98566 14.6673 3.23543C14.6673 3.4852 14.6181 3.73252 14.5225 3.96327C14.427 4.19402 14.2869 4.40369 14.1103 4.5803L5.03238 13.6582L1.33398 14.6668L2.34264 10.9684L11.4205 1.89056Z" stroke="#F7FDFB" stroke-linecap="round" stroke-linejoin="round" />
</svg>