<svg xmlns="http://www.w3.org/2000/svg" width="32" height="34" viewBox="0 0 32 34" fill="none">
  <g clip-path="url(#clip0_1145_543)">
    <path fillRule="evenodd" clip-rule="evenodd" d="M31.4249 28.6139C30.4371 31.6156 26.5672 33.1125 23.8024 32.8629C20.0264 32.5216 15.9176 30.5188 12.7986 28.3129C8.21404 25.0702 3.9196 20.0543 1.41718 14.7315C-0.351372 10.9705 -0.748171 6.34621 1.88225 2.91791C2.85506 1.6507 3.9068 0.973915 5.48761 0.894981C7.68069 0.788313 7.9879 2.04294 8.74097 3.99709C9.30204 5.45843 10.0508 6.94911 10.469 8.46379C11.2519 11.2905 8.51483 11.4086 8.16923 13.719C7.95376 15.1761 9.72018 17.1301 10.5181 18.1691C12.0818 20.2043 13.9613 21.9597 16.0818 23.2952C17.2957 24.061 19.2563 25.4411 20.6472 24.6795C22.7891 23.5062 22.5864 19.8946 25.5816 21.117C27.1326 21.7485 28.6345 22.6598 30.115 23.4577C32.4041 24.6886 32.2974 25.9643 31.4249 28.6139C32.0777 26.6342 30.7721 30.5937 31.4249 28.6139Z" fill="#3B3B3B"/>
  </g>
  <defs>
    <clipPath id="clip0_1145_543">
      <rect width="32" height="33" fill="white" transform="translate(0 0.888672)"/>
    </clipPath>
  </defs>
</svg>