<svg width="32" height="32" viewBox="0 0 32 32" fill="none" xmlns="http://www.w3.org/2000/svg">
  <path fill-rule="evenodd" clip-rule="evenodd" d="M31.4249 27.7253C30.4371 30.7269 26.5672 32.2239 23.8024 31.9743C20.0264 31.6329 15.9176 29.6301 12.7986 27.4242C8.21404 24.1815 3.9196 19.1656 1.41718 13.8429C-0.351372 10.0818 -0.748171 5.45754 1.88225 2.02924C2.85506 0.762032 3.9068 0.085243 5.48761 0.00630902C7.68069 -0.100358 7.9879 1.15427 8.74097 3.10842C9.30204 4.56976 10.0508 6.06044 10.469 7.57512C11.2519 10.4018 8.51483 10.5199 8.16923 12.8304C7.95376 14.2874 9.72018 16.2415 10.5181 17.2804C12.0818 19.3156 13.9613 21.071 16.0818 22.4065C17.2957 23.1724 19.2563 24.5525 20.6472 23.7909C22.7891 22.6175 22.5864 19.0059 25.5816 20.2283C27.1326 20.8598 28.6345 21.7711 30.115 22.569C32.4041 23.7999 32.2974 25.0757 31.4249 27.7253C32.0777 25.7455 30.7721 29.705 31.4249 27.7253Z" fill="#2C3B2E" />
</svg>