<svg width="87.993164" height="87.993164" viewBox="0 0 87.9932 87.9932" fill="none" xmlns="http://www.w3.org/2000/svg" xmlns:xlink="http://www.w3.org/1999/xlink">
	<desc>
			Created with Pixso.
	</desc>
	<defs/>
	<path id="Vector" d="M43.9932 87.9932C35.292 87.9922 26.7861 85.4106 19.5518 80.5762C12.3174 75.7412 6.67871 68.8696 3.34863 60.8306C0.0195312 52.7915 -0.852539 43.9453 0.844727 35.4111C2.54199 26.877 6.73145 19.0376 12.8838 12.8838C19.0371 6.73193 26.877 2.54248 35.4111 0.845215C43.9453 -0.852051 52.791 0.019043 60.8301 3.34912C68.8701 6.67871 75.7412 12.3174 80.5762 19.5518C85.4111 26.7861 87.9922 35.292 87.9932 43.9932C87.9932 44.6807 87.7207 45.3398 87.2344 45.8262C86.748 46.312 86.0889 46.5854 85.4014 46.5854C84.7139 46.5854 84.0547 46.312 83.5684 45.8262C83.083 45.3398 82.8096 44.6807 82.8096 43.9932C82.8096 22.5898 65.3975 5.17725 43.9932 5.17725C22.5898 5.17725 5.17676 22.5898 5.17676 43.9932C5.17676 65.397 22.5898 82.8096 43.9932 82.8096C58.9463 82.8096 72.3291 74.4531 78.8965 61.0005C79.042 60.6895 79.249 60.4111 79.5039 60.1807C79.7588 59.9507 80.0566 59.7734 80.3809 59.6592C80.7051 59.5454 81.0479 59.4971 81.3906 59.5166C81.7344 59.5366 82.0693 59.6245 82.3779 59.7754C82.6865 59.9258 82.9619 60.1362 83.1885 60.3945C83.416 60.6528 83.5889 60.9531 83.6982 61.2788C83.8076 61.6045 83.8506 61.9482 83.8262 62.291C83.8018 62.6338 83.709 62.9678 83.5537 63.2744C79.9395 70.6885 74.3135 76.937 67.3193 81.3081C60.3242 85.6787 52.2412 87.9951 43.9932 87.9932Z" fill="#FDFDFD" fill-opacity="1.000000" fill-rule="nonzero"/>
	<path id="icon" d="M31.9912 59.271L31.9912 28.7153C31.9912 26.3848 34.9785 25.106 36.9756 26.5737L57.623 41.8516C59.1182 42.9585 59.1182 45.0278 57.623 46.1348L36.9707 61.4126C34.9785 62.8857 31.9912 61.6021 31.9912 59.271Z" fill="#FDFDFD" fill-opacity="1.000000" fill-rule="nonzero"/>
</svg>
