<svg width="36" height="31" viewBox="0 0 36 31" fill="none" xmlns="http://www.w3.org/2000/svg">
  <path fill-rule="evenodd" clip-rule="evenodd" d="M2.47481 13.3434C12.1385 9.13314 18.5824 6.35745 21.8067 5.01638C31.0125 1.18734 32.9254 0.522198 34.1722 0.500234C34.4465 0.495404 35.0596 0.563364 35.4568 0.885637C35.7921 1.15776 35.8844 1.52536 35.9286 1.78336C35.9727 2.04136 36.0277 2.62909 35.984 3.08833C35.4851 8.32999 33.3265 21.0501 32.2284 26.9209C31.7637 29.405 30.8487 30.2379 29.9629 30.3194C28.0379 30.4966 26.5761 29.0472 24.7116 27.825C21.794 25.9125 20.1458 24.722 17.3138 22.8558C14.041 20.699 16.1626 19.5136 18.0278 17.5763C18.5159 17.0694 26.9977 9.35456 27.1618 8.65471C27.1824 8.56718 27.2014 8.24092 27.0076 8.06864C26.8138 7.89636 26.5277 7.95527 26.3213 8.00212C26.0286 8.06854 21.3678 11.1492 12.3388 17.244C11.0158 18.1525 9.81749 18.5951 8.74386 18.5719C7.56026 18.5463 5.2835 17.9027 3.59096 17.3525C1.51499 16.6777 -0.134951 16.3209 0.00872134 15.1749C0.0835549 14.5779 0.905585 13.9675 2.47481 13.3434Z" fill="#2C3B2E" />
</svg>