<svg xmlns="http://www.w3.org/2000/svg" width="36" height="37" viewBox="0 0 36 37" fill="none">
  <path fillRule="evenodd" clip-rule="evenodd" d="M2.47481 18.2321C12.1385 14.0218 18.5824 11.2461 21.8067 9.90505C31.0125 6.07601 32.9254 5.41087 34.1722 5.38891C34.4465 5.38408 35.0596 5.45204 35.4568 5.77431C35.7921 6.04643 35.8844 6.41403 35.9286 6.67203C35.9727 6.93003 36.0277 7.51776 35.984 7.977C35.4851 13.2187 33.3265 25.9388 32.2284 31.8095C31.7637 34.2937 30.8487 35.1266 29.9629 35.2081C28.0379 35.3852 26.5761 33.9359 24.7116 32.7137C21.794 30.8012 20.1458 29.6107 17.3138 27.7444C14.041 25.5877 16.1626 24.4023 18.0278 22.465C18.5159 21.958 26.9977 14.2432 27.1618 13.5434C27.1824 13.4559 27.2014 13.1296 27.0076 12.9573C26.8138 12.785 26.5277 12.8439 26.3213 12.8908C26.0286 12.9572 21.3678 16.0378 12.3388 22.1327C11.0158 23.0412 9.81749 23.4838 8.74386 23.4606C7.56026 23.435 5.2835 22.7914 3.59096 22.2412C1.51499 21.5664 -0.134951 21.2096 0.00872134 20.0635C0.0835549 19.4666 0.905585 18.8561 2.47481 18.2321Z" fill="#3B3B3B"/>
</svg>