<svg width="43" height="26" viewBox="0 0 43 26" fill="none" xmlns="http://www.w3.org/2000/svg">
  <path d="M21.029 24.9919H23.5833C23.5833 24.9919 24.3555 24.9052 24.7482 24.4741C25.1116 24.0782 25.0982 23.3353 25.0982 23.3353C25.0982 23.3353 25.0475 19.8568 26.6399 19.3443C28.2083 18.84 30.2228 22.7063 32.3576 24.1948C33.9714 25.32 35.1978 25.0733 35.1978 25.0733L40.9075 24.9919C40.9075 24.9919 43.8946 24.8048 42.4785 22.4216C42.3636 22.2264 41.6529 20.6593 38.233 17.4383C34.6527 14.0655 35.1337 14.6132 39.446 8.7812C42.0724 5.22943 43.1225 3.06041 42.7938 2.13315C42.4812 1.24928 40.5495 1.48245 40.5495 1.48245L34.1264 1.5204C34.1264 1.5204 33.6508 1.45533 33.2954 1.66952C32.9508 1.881 32.729 2.36903 32.729 2.36903C32.729 2.36903 31.711 5.11827 30.3537 7.45539C27.4922 12.3872 26.346 12.6475 25.8784 12.3411C24.791 11.628 25.0635 9.47258 25.0635 7.94342C25.0635 3.16344 25.7769 1.17065 23.6715 0.655507C22.9715 0.484696 22.4585 0.370823 20.671 0.351844C18.3786 0.327442 16.4361 0.359977 15.338 0.904944C14.6059 1.26826 14.0422 2.07893 14.3868 2.12502C14.8117 2.18196 15.7735 2.38801 16.2838 3.09294C16.9438 4.00122 16.9197 6.04552 16.9197 6.04552C16.9197 6.04552 17.2991 11.6714 16.0354 12.3709C15.167 12.8508 13.978 11.8721 11.4264 7.39574C10.1199 5.10471 9.13133 2.56967 9.13133 2.56967C9.13133 2.56967 8.94163 2.09791 8.60231 1.84576C8.19084 1.53938 7.61373 1.44178 7.61373 1.44178L1.50591 1.47973C1.50591 1.47973 0.589465 1.50685 0.252813 1.91083C-0.0464325 2.27143 0.228767 3.01432 0.228767 3.01432C0.228767 3.01432 5.01136 14.3664 10.4245 20.0899C15.3914 25.3363 21.029 24.9919 21.029 24.9919Z" fill="#3B3B3B" />
</svg>