<svg width="40" height="26" viewBox="0 0 44 26" fill="none" xmlns="http://www.w3.org/2000/svg">
  <path d="M21.5407 25.2707H24.095C24.095 25.2707 24.8672 25.184 25.2599 24.7529C25.6233 24.357 25.61 23.6141 25.61 23.6141C25.61 23.6141 25.5592 20.1356 27.1516 19.6231C28.72 19.1188 30.7345 22.9851 32.8693 24.4736C34.4831 25.5988 35.7095 25.3521 35.7095 25.3521L41.4192 25.2707C41.4192 25.2707 44.4063 25.0837 42.9903 22.7004C42.8754 22.5052 42.1647 20.9381 38.7447 17.7171C35.1644 14.3443 35.6454 14.892 39.9577 9.06001C42.5841 5.50824 43.6342 3.33922 43.3055 2.41196C42.9929 1.52808 41.0612 1.76125 41.0612 1.76125L34.6381 1.79921C34.6381 1.79921 34.1625 1.73414 33.8071 1.94833C33.4625 2.15981 33.2407 2.64784 33.2407 2.64784C33.2407 2.64784 32.2227 5.39708 30.8655 7.7342C28.0039 12.666 26.8577 12.9263 26.3901 12.6199C25.3027 11.9068 25.5752 9.75139 25.5752 8.22223C25.5752 3.44225 26.2886 1.44946 24.1832 0.934315C23.4832 0.763505 22.9702 0.649631 21.1827 0.630652C18.8903 0.606251 16.9479 0.638786 15.8497 1.18375C15.1176 1.54706 14.5539 2.35774 14.8986 2.40383C15.3234 2.46076 16.2852 2.66682 16.7956 3.37175C17.4555 4.28003 17.4315 6.32433 17.4315 6.32433C17.4315 6.32433 17.8109 11.9502 16.5471 12.6497C15.6787 13.1296 14.4898 12.1509 11.9382 7.67455C10.6316 5.38352 9.64305 2.84848 9.64305 2.84848C9.64305 2.84848 9.45335 2.37671 9.11403 2.12457C8.70256 1.81819 8.12544 1.72059 8.12544 1.72059L2.01762 1.75854C2.01762 1.75854 1.10118 1.78566 0.764532 2.18964C0.465286 2.55024 0.740486 3.29313 0.740486 3.29313C0.740486 3.29313 5.52307 14.6452 10.9362 20.3687C15.9032 25.6151 21.5407 25.2707 21.5407 25.2707Z" fill="#2C3B2E" />
</svg>