<svg xmlns="http://www.w3.org/2000/svg" width="32" height="33" viewBox="0 0 32 33" fill="none">
  <g clip-path="url(#clip0_1145_60)">
    <path fillRule="evenodd" clip-rule="evenodd" d="M25.3136 23.4824C24.928 24.5739 23.3952 25.4769 22.1728 25.741C21.336 25.9187 20.2448 26.0592 16.568 24.5355C12.4384 22.8246 6.704 16.7302 6.704 12.6746C6.704 10.61 7.8944 8.20586 9.976 8.20586C10.9776 8.20586 11.1984 8.22539 11.528 9.01602C11.9136 9.9475 12.8544 12.2425 12.9664 12.4777C13.4288 13.4428 12.496 14.0078 11.8192 14.848C11.6032 15.1009 11.3584 15.3744 11.632 15.8449C11.904 16.3059 12.8448 17.8392 14.2272 19.0699C16.0128 20.6608 17.4608 21.1687 17.9792 21.3848C18.3648 21.5448 18.8256 21.5075 19.1072 21.2066C19.464 20.8209 19.9072 20.181 20.3584 19.5504C20.6768 19.099 21.0816 19.0427 21.5056 19.2027C21.792 19.302 25.432 20.9924 25.5856 21.2629C25.6992 21.4598 25.6992 22.3909 25.3136 23.4824ZM16.0032 0.888672H15.9952C7.17439 0.888672 0 8.06523 0 16.8887C0 20.3873 1.12801 23.6332 3.04641 26.266L1.05281 32.2113L7.20161 30.2465C9.73121 31.9206 12.7504 32.8887 16.0032 32.8887C24.824 32.8887 32 25.7121 32 16.8887C32 8.06523 24.824 0.888672 16.0032 0.888672Z" fill="#3B3B3B"/>
  </g>
  <defs>
    <clipPath id="clip0_1145_60">
      <rect width="32" height="32" fill="white" transform="translate(0 0.888672)"/>
    </clipPath>
  </defs>
</svg>