<svg xmlns="http://www.w3.org/2000/svg" width="57" height="56" fill="none" viewBox="0 0 57 56"><g fill="#F7FDFB" clip-path="url(#a)"><path d="M20.364 20.787c2.7 0 4.887-2.27 4.887-5.072 0-2.8-2.188-5.071-4.887-5.071-2.7 0-4.887 2.27-4.887 5.071s2.188 5.072 4.887 5.072M28.51 8.953c2.249 0 4.072-1.892 4.072-4.227C32.582 2.392 30.759.5 28.509.5s-4.073 1.892-4.073 4.226 1.824 4.227 4.073 4.227m5.701 16.905c3.15 0 5.702-2.649 5.702-5.917s-2.552-5.917-5.701-5.917c-3.15 0-5.702 2.65-5.702 5.917s2.553 5.917 5.702 5.917m18.734 3.382H4.073c-1.8 0-3.259 1.513-3.259 3.38 0 1.868 1.46 3.382 3.259 3.382h48.872c1.8 0 3.258-1.514 3.258-3.381 0-1.868-1.458-3.381-3.258-3.381M4.072 36.904v2.536c0 5.52 3.4 10.214 8.146 11.955V55.5h4.887v-3.38h22.807v3.38H44.8v-4.105c4.745-1.741 8.145-6.435 8.145-11.955v-2.536z"/></g><defs><clipPath id="a"><path fill="#fff" d="M.5.5h56v55H.5z"/></clipPath></defs></svg>