<svg xmlns="http://www.w3.org/2000/svg" width="56" height="56" fill="none" viewBox="0 0 56 56"><g fill="#F7FDFB" clip-path="url(#a)"><path d="M42.552 20.323H32.1a1.87 1.87 0 0 0-1.854 1.854v3.708a1.87 1.87 0 0 0 1.854 1.854h11.012a1.87 1.87 0 0 0 1.854-1.854v-3.708a1.87 1.87 0 0 0-1.854-1.854zM-.936 41.111V51h3.652v-3.652h50.342V51h3.652v-9.889z"/><path d="M53.17 8.019v5.955l-.055-.056v.056a12.3 12.3 0 0 0-8.597-3.483H11.426c-3.315 0-6.35 1.348-8.597 3.483v-.056l-.056.056V8.02H-.879V30.1c.843-1.348 2.135-2.416 4.326-2.416h6.686a3.07 3.07 0 0 1-.618-1.854v-3.652c0-1.686 1.405-3.09 3.09-3.09H23.73c1.686 0 3.09 1.404 3.09 3.09v3.652c0 .674-.224 1.348-.618 1.854h3.596a3.07 3.07 0 0 1-.618-1.854v-3.652c0-1.686 1.405-3.09 3.09-3.09h11.125c1.685 0 2.865 1.404 2.865 3.09v3.652c0 .674-.224 1.348-.618 1.854h6.911c2.135 0 3.483 1.068 4.326 2.416V8.02z"/><path d="M12.437 27.627H23.45a1.87 1.87 0 0 0 1.854-1.854v-3.708a1.87 1.87 0 0 0-1.854-1.854H12.437a1.87 1.87 0 0 0-1.854 1.854v3.708c.056 1.068.899 1.854 1.854 1.854m44.386 7.529a2 2 0 0 0-.618-.112H-.317c-.169 0-.394.056-.562.112-.674.225-1.236.955-1.236 1.742v1.236c0 .842.505 1.46 1.236 1.741.168.057.393.113.618.113h56.522c.112 0 .225 0 .337-.056.112 0 .169-.057.28-.057.675-.224 1.237-.955 1.237-1.742v-1.236a2.02 2.02 0 0 0-1.292-1.741m-.113-2.023c-.28-1.629-1.235-4.27-4.157-4.27H3.391c-2.921 0-3.877 2.641-4.157 4.27-.057.225-.057.45-.113.618h57.702c-.056-.168-.056-.393-.112-.618"/></g><defs><clipPath id="a"><path fill="#fff" d="M0 0h56v56H0z"/></clipPath></defs></svg>