<svg xmlns="http://www.w3.org/2000/svg" width="141" height="154" fill="none" viewBox="0 0 141 154"><path fill="url(#a)" d="M140.999 68.571c-.085 13.223-4.066 25.552-10.89 35.969a67 67 0 0 1-1.402 2.057c-.256.36-.677.578-1.129.578H13.425c-.453 0-.876-.217-1.132-.578C4.537 95.653 0 82.409 0 68.14 0 30.47 31.627-.06 70.617 0 109.741.062 141.241 30.758 141 68.571"/><path fill="#F7FDFB" d="M2.941 116.804c-.062-.329-.763-.698-.763-.698h1.506l4.024-.041a4.154 4.154 0 0 1 4.147 4.146 4.09 4.09 0 0 1-2.022 3.529c2.187.206 3.9 2.032 3.9 4.249 0 2.36-1.92 4.248-4.292 4.248H2.198s.681-.37.722-.718c.104-1.088.248-3.448.248-7.327 0-3.858-.041-6.342-.227-7.388m9.08 11.185c0-1.827-1.445-3.489-3.282-3.571a58 58 0 0 0-2.084-.041c-.536 0-1.073.02-1.547.02 0 3.612.144 5.89.247 6.998 1.094.083 2.394.185 3.302.185 1.836 0 3.363-1.765 3.363-3.591m-4.953-11.226h-.433c-.413 0-.846.02-1.259.041a100 100 0 0 0-.268 6.875h1.857c1.774 0 3.24-1.704 3.24-3.468s-1.383-3.366-3.137-3.448m14.061 7.552-2.62.021v.821c0 3.406.123 5.561.268 6.444.04.39.701.636.701.636h-3.88s.661-.349.723-.698c.083-1.067.248-3.468.248-7.368 0-3.858-.145-6.362-.29-7.573-.04-.266-.68-.492-.68-.492h1.506l4.003-.041a4.154 4.154 0 0 1 4.148 4.146c0 2.257-1.837 4.104-4.127 4.104m-.66-7.552h-.475c-.392 0-.825 0-1.217.02a101 101 0 0 0-.269 6.875h1.857c1.775 0 3.24-1.703 3.24-3.447 0-1.765-1.383-3.366-3.136-3.448m7.379 14.735c.082-1.006.227-3.325.227-7.368 0-3.591-.165-6.177-.269-7.347-.04-.369-.701-.677-.701-.677h7.8c2.125 0 3.652-.267 3.652-.267s-.248 1.006-.372 1.827c-.123 1.046-.144 2.852-.144 2.852s-.846-3.735-3.28-3.735h-4.478c-.104 1.149-.248 3.653-.269 7.04l3.116-.021c1.754-.041 2.146-1.108 2.146-1.108v2.955s-.454-1.067-2.125-1.129h-3.137c.02 3.797.186 6.096.268 7.081h4.499c2.414-.021 3.26-3.797 3.26-3.797s.02 1.826.144 2.853c.124.821.372 1.847.372 1.847s-1.527-.267-3.652-.267h-7.8s.66-.37.743-.739m22.399-7.347c.165.739.33 1.519.474 2.134.207-.636.413-1.334.62-2.052 1.093-3.715 1.898-6.177 1.898-7.245 0-.431-.537-.82-.702-.882h4.808s-.846.226-.846.944c0 .041.02.082.02.144.186 1.211.558 3.489 1.362 6.977a104 104 0 0 0 1.816 6.937c.248.821.95 1.129.95 1.129h-4.334s.97-.452.97-1.108c0-1.375-.62-3.818-1.341-6.958-.805-3.488-1.465-5.828-1.837-7.039l-4.271 15.064h-.02s-.372-3.079-1.507-8.045c-.784-3.468-1.444-5.788-1.816-6.998l-3.92 13.832c-.02.082-.02.144-.02.205 0 .698.99 1.047.99 1.047h-3.343s1.093-.616 1.362-1.334c.454-1.273 1.32-3.715 2.29-7.019.99-3.386 1.589-5.685 1.816-6.813 0-.042.02-.062.02-.103 0-.493-.784-.862-.784-.862h4.788s-.826.205-.826.923c0 .042.02.083.02.144.187 1.211.558 3.489 1.363 6.978m16.967-3.94c0 1.764 1.465 3.468 3.24 3.468h2.558v-1.539c0-2.032-.02-3.859-.144-4.803a1.05 1.05 0 0 0-.207-.492 22 22 0 0 0-1.671-.082c-.227 0-.433 0-.64.02-1.754.082-3.136 1.663-3.136 3.428m7.944 10.795c.083.841.99 1.231.99 1.231h-4.353s.949-.657 1.01-1.355c.083-1.252.207-3.427.207-6.526l-1.403-.02-5.489 6.813a.5.5 0 0 0-.103.308c0 .493.908.78.908.78l-4.828-.021s1.362-.492 2.31-1.806l.042-.041 4.89-6.074a4.09 4.09 0 0 1-3.776-4.084c0-2.279 1.857-4.126 4.148-4.126l4.044.021h2.455s-.949.369-1.031 1.19c-.103 1.314-.227 3.715-.227 6.875 0 3.346.103 5.583.206 6.835m20.958.082c.248.821.95 1.169.95 1.169H92.71s1.01-.513 1.01-1.169c0-1.375-.618-3.797-1.34-6.937-.784-3.407-1.445-5.705-1.816-6.937l-3.92 13.853c-.021.062-.021.144-.021.205 0 .678.99.985.99.985H84.25s1.176-.636 1.403-1.293c.475-1.313 1.32-3.694 2.249-6.875 1.073-3.694 1.857-6.198 1.857-7.142 0-.513-.805-.841-.805-.841h4.808s-.846.205-.846.923c0 .042.02.083.02.144.187 1.211.579 3.489 1.383 6.978a107 107 0 0 0 1.795 6.937m3.549.41c.083-1.006.227-3.325.227-7.368 0-3.591-.165-6.177-.268-7.347-.041-.369-.702-.677-.702-.677h7.8c2.125 0 3.652-.267 3.652-.267s-.247 1.006-.371 1.827c-.124 1.046-.145 2.852-.145 2.852s-.846-3.735-3.28-3.735h-4.478c-.103 1.149-.248 3.653-.268 7.04l3.116-.021c1.753-.041 2.145-1.108 2.145-1.108v2.955s-.453-1.067-2.125-1.129h-3.136c.02 3.797.185 6.096.268 7.081h4.498c2.414-.021 3.26-3.797 3.26-3.797s.021 1.826.145 2.853c.124.821.371 1.847.371 1.847s-1.527-.267-3.652-.267h-7.8s.66-.37.743-.739m14.661-10.097a17 17 0 0 0-.144 1.991c0 .677.062 1.334.206 2.031.269 1.252.929 2.648 1.445 3.448a6.1 6.1 0 0 0 5.117 2.75c.433 0 .887-.041 1.341-.143a6.12 6.12 0 0 0 4.168-3.202l-.454 2.668c-.103-.041-.309.02-.474.144a8.5 8.5 0 0 1-3.054 1.313 9.5 9.5 0 0 1-1.837.205c-3.961 0-7.531-2.75-8.418-6.752a9.3 9.3 0 0 1-.207-1.826c0-3.941 2.765-7.491 6.789-8.374a8.4 8.4 0 0 1 1.878-.205 8.3 8.3 0 0 1 3.26.657c.082.041.475-.041.536-.205l.743 2.914a6.24 6.24 0 0 0-4.869-2.36c-.434 0-.867.041-1.3.143-2.456.534-4.416 2.463-4.726 4.803m16.94 2.422h3.632c-.764-3.284-1.403-5.501-1.754-6.67zm-4.395 8.414s1.073-.513 1.362-1.273c1.465-3.919 2.827-8.722 4.086-14.16v-.041c0-.329-.743-.657-.743-.657h4.787s-.825.226-.825.944c0 .041.02.082.02.144.186 1.211.557 3.489 1.362 6.977a103 103 0 0 0 1.816 6.937c.247.821.928 1.129.928 1.129h-4.353s1.011-.472 1.011-1.129c0-1.313-.599-3.632-1.259-6.608h-4.003l-1.837 6.547c-.02.061-.02.143-.02.205 0 .677 1.011.985 1.011.985zM7.531 142.633c1.192 0 2.03-.091 2.03-.091s-.15.558-.207 1.014c-.08.57-.08 1.585-.08 1.585s-.47-2.121-1.823-2.121H6.247a45 45 0 0 0-.137 3.603v.525c.011 1.858.057 3.477.114 3.854.058.376.55.627.55.627H4.356s.493-.149.55-.627c.069-.639.115-1.722.115-3.295v-.559a72 72 0 0 0-.15-4.128H3.623c-1.295.08-1.73 2.121-1.73 2.121s0-1.015-.081-1.585a9 9 0 0 0-.207-1.014s.837.091 2.03.091zm3.479 8.585c.045-.558.125-1.847.125-4.093 0-1.995-.091-3.432-.149-4.082-.023-.205-.39-.376-.39-.376h4.334c1.18 0 2.029-.148 2.029-.148s-.138.558-.207 1.015c-.068.581-.08 1.584-.08 1.584s-.47-2.075-1.822-2.075h-2.488c-.057.639-.138 2.03-.15 3.911l1.732-.011c.974-.023 1.192-.616 1.192-.616v1.642s-.252-.593-1.18-.627h-1.743c.011 2.109.103 3.386.149 3.933h2.499c1.341-.011 1.811-2.109 1.811-2.109s.012 1.015.08 1.585c.07.456.207 1.026.207 1.026s-.849-.148-2.03-.148h-4.332s.366-.206.412-.411m10.048-3.99-1.456.011v.456c0 1.893.07 3.09.15 3.58.022.217.39.354.39.354h-2.156s.367-.194.401-.388c.046-.593.138-1.927.138-4.093 0-2.144-.08-3.535-.16-4.207-.024-.149-.379-.274-.379-.274h.837l2.224-.023a2.31 2.31 0 0 1 2.304 2.303 2.287 2.287 0 0 1-2.293 2.281m-.366-4.196h-.264c-.218 0-.459 0-.677.011a56 56 0 0 0-.149 3.82h1.032c.986 0 1.8-.947 1.8-1.916 0-.98-.768-1.87-1.742-1.915m6.759 4.196-1.456.011v.456c0 1.893.068 3.09.149 3.58.023.217.39.354.39.354h-2.156s.367-.194.402-.388c.045-.593.137-1.927.137-4.093 0-2.144-.08-3.535-.16-4.207-.023-.149-.379-.274-.379-.274h.837l2.224-.023a2.31 2.31 0 0 1 2.304 2.303 2.287 2.287 0 0 1-2.293 2.281m-.367-4.196h-.264c-.218 0-.459 0-.676.011a56 56 0 0 0-.15 3.82h1.032c.986 0 1.8-.947 1.8-1.916 0-.98-.768-1.87-1.742-1.915m4.238 7.935c.057-.684.114-1.938.114-3.842 0-1.79-.068-3.135-.126-3.854-.034-.479-.527-.604-.527-.604h2.384s-.493.228-.515.604h-.012c-.057.73-.126 2.087-.126 3.854a55 55 0 0 0 .103 3.5 50 50 0 0 0 1.914-3.591c1.319-2.714 1.96-4.219 1.96-4.356v-.011h1.915s-.458.251-.527.627c-.069.365-.126 1.653-.126 3.136v.695c.023 1.893.114 3.842.114 3.842.035.377.54.662.54.662h-2.397s.505-.183.539-.662c.057-.684.126-1.938.126-3.842 0-1.516-.057-2.714-.103-3.489l-3.875 7.993v.011l-1.925-.011s.515-.183.55-.662m13.926-8.334c1.192 0 2.03-.091 2.03-.091s-.15.558-.207 1.014c-.08.57-.08 1.585-.08 1.585s-.47-2.121-1.823-2.121h-1.204a45 45 0 0 0-.137 3.603v.525c.011 1.858.057 3.477.114 3.854.058.376.55.627.55.627h-2.418s.493-.149.55-.627c.069-.639.115-1.722.115-3.295v-.559a72 72 0 0 0-.15-4.128h-1.249c-1.295.08-1.73 2.121-1.73 2.121s0-1.015-.081-1.585c-.057-.456-.206-1.014-.206-1.014s.836.091 2.029.091zm3.406 2.987a5.3 5.3 0 0 0-.092 1.003c0 .411.046.833.126 1.232.15.695.528 1.471.803 1.904.573.889 1.708 1.528 2.9 1.528q.345 0 .688-.069c1.41-.308 2.442-1.505 2.636-2.782.046-.251.07-.604.07-.969s-.035-.764-.104-1.106c-.16-.752-.47-1.516-.894-2.064-.642-.82-1.697-1.402-2.82-1.402q-.345 0-.688.068c-1.364.297-2.384 1.46-2.625 2.657m-1.17 2.474a4.3 4.3 0 0 1-.091-.923c0-2.338 1.823-4.322 3.737-4.732.344-.08.676-.114 1.02-.114 2.201 0 4.196 1.516 4.677 3.74.08.342.115.684.115 1.014a4.75 4.75 0 0 1-3.76 4.641 5.3 5.3 0 0 1-1.18.125c-2.133 0-4.013-1.288-4.517-3.751m13.562-.866-1.456.011v.456c0 1.893.069 3.09.15 3.58.022.217.389.354.389.354h-2.155s.367-.194.4-.388c.047-.593.139-1.927.139-4.093 0-2.144-.08-3.535-.161-4.207-.023-.149-.378-.274-.378-.274h.837l2.223-.023a2.31 2.31 0 0 1 2.305 2.303 2.287 2.287 0 0 1-2.293 2.281m-.367-4.196h-.264c-.217 0-.458 0-.676.011a56 56 0 0 0-.149 3.82h1.032c.986 0 1.8-.947 1.8-1.916 0-.98-.768-1.87-1.743-1.915m4.237 7.935c.057-.684.115-1.938.115-3.842 0-1.79-.069-3.135-.126-3.854-.035-.479-.528-.604-.528-.604h2.385s-.493.228-.516.604h-.012c-.057.73-.126 2.087-.126 3.854 0 1.619.058 2.771.103 3.5a50 50 0 0 0 1.915-3.591c1.318-2.714 1.96-4.219 1.96-4.356v-.011H72s-.459.251-.528.627c-.069.365-.126 1.653-.126 3.136v.695c.023 1.893.115 3.842.115 3.842.034.377.538.662.538.662h-2.395s.504-.183.538-.662c.058-.684.127-1.938.127-3.842 0-1.516-.058-2.714-.104-3.489l-3.874 7.993v.011l-1.926-.011s.516-.183.55-.662m10.728-6.02c0 .981.814 1.927 1.8 1.927h1.422v-.855c0-1.129-.012-2.143-.08-2.668a.6.6 0 0 0-.115-.274 13 13 0 0 0-.929-.045c-.126 0-.24 0-.355.011-.975.046-1.743.924-1.743 1.904m4.414 5.998c.046.467.55.684.55.684h-2.419s.528-.365.562-.753a53 53 0 0 0 .115-3.626l-.78-.011-3.05 3.785a.28.28 0 0 0-.057.171c0 .274.505.434.505.434l-2.683-.012s.757-.273 1.284-1.003l.023-.023 2.717-3.375a2.27 2.27 0 0 1-2.098-2.269 2.3 2.3 0 0 1 2.304-2.291l2.247.011h1.364s-.527.205-.573.661c-.057.73-.126 2.064-.126 3.82 0 1.858.057 3.101.115 3.797m6.198-5.325a5.4 5.4 0 0 0-.092 1.003c0 .411.046.833.127 1.232.148.695.527 1.471.802 1.904.573.889 1.708 1.528 2.9 1.528q.345 0 .688-.069c1.41-.308 2.442-1.505 2.637-2.782a6 6 0 0 0 .068-.969c0-.365-.034-.764-.103-1.106-.16-.752-.47-1.516-.894-2.064-.642-.82-1.697-1.402-2.82-1.402q-.345 0-.688.068c-1.364.297-2.384 1.46-2.625 2.657m-1.17 2.474a4.3 4.3 0 0 1-.09-.923c0-2.338 1.822-4.322 3.736-4.732.344-.08.677-.114 1.02-.114 2.201 0 4.196 1.516 4.677 3.74.08.342.115.684.115 1.014a4.75 4.75 0 0 1-3.76 4.641 5.3 5.3 0 0 1-1.18.125c-2.133 0-4.013-1.288-4.517-3.751m15.496-5.461c1.192 0 2.029-.091 2.029-.091s-.149.558-.207 1.014c-.08.57-.08 1.585-.08 1.585s-.47-2.121-1.822-2.121h-1.204a45 45 0 0 0-.138 3.603v.525c.012 1.858.058 3.477.115 3.854.057.376.55.627.55.627h-2.419s.493-.149.55-.627c.07-.639.115-1.722.115-3.295v-.559a72 72 0 0 0-.149-4.128h-1.25c-1.295.08-1.73 2.121-1.73 2.121s0-1.015-.08-1.585a9 9 0 0 0-.207-1.014s.837.091 2.03.091zm3.391 8.642h4.069a56 56 0 0 0-.802-4.139 59 59 0 0 0-1.009-3.865zm-.596 0a65 65 0 0 0 1.375-4.207c.573-1.927 1.02-3.272 1.02-3.888 0-.217-.286-.445-.424-.513h2.66s-.459.114-.459.513c0 .023.012.046.012.08.103.673.309 1.938.756 3.876.47 2.053.906 3.524 1.101 4.139h.974v2.543s-.47-2.121-1.777-2.189h-4.459c-1.295.068-1.765 2.189-1.765 2.189v-2.543zm8.83-.057c.057-.604.149-1.915.149-4.07 0-2.018-.057-3.466-.149-4.105-.034-.205-.39-.376-.39-.376h2.155s-.366.148-.389.365a56 56 0 0 0-.149 3.842l2.407.012a2.376 2.376 0 0 1 2.384 2.371 2.377 2.377 0 0 1-2.384 2.372l-3.118.011h-.917s.39-.228.401-.422m3.244-3.945c-.091 0-.195-.011-.309-.011-.505 0-1.17.045-1.708.08 0 1.961.08 3.203.126 3.819.607.046 1.341.091 1.845.091 1.021 0 1.869-.98 1.869-1.995s-.803-1.938-1.823-1.984m5.09 3.66c.034.468.55.684.55.684h-2.419s.528-.365.562-.752c.057-.741.115-2.919.115-4.8 0-1.163-.023-2.212-.08-2.725-.046-.388-.562-.673-.562-.673h2.407s-.516.182-.562.627c-.068.73-.126 2.052-.126 3.831 0 1.858.058 3.113.115 3.808m7.186.707s.39-.217.39-.524a.4.4 0 0 0-.035-.16 79 79 0 0 0-1.868-3.706l-2.155 3.74a.4.4 0 0 0-.069.24c0 .285.344.41.344.41h-1.857s.561-.125.951-.718c.482-.741 2.488-4.025 2.545-4.128a67 67 0 0 0-2.086-3.625c-.229-.342-.688-.502-.688-.502h2.35s-.321.091-.321.388c0 .068.023.148.057.228.23.501.631 1.334 1.25 2.531.699-1.232 1.158-2.064 1.375-2.508a.6.6 0 0 0 .058-.217c0-.319-.413-.422-.413-.422h1.834s-.573.171-.894.627l-1.719 2.987c.149.274.298.559.458.867a78 78 0 0 0 2.201 3.854c.275.456.722.638.722.638zm5.901-4.686h2.018a61 61 0 0 0-.975-3.706zm-2.442 4.675s.596-.285.757-.707c.814-2.178 1.57-4.846 2.27-7.867v-.023c0-.183-.413-.365-.413-.365h2.659s-.458.125-.458.524c0 .023.011.046.011.08.104.673.31 1.939.757 3.877a58 58 0 0 0 1.009 3.854c.137.456.516.627.516.627h-2.419s.562-.263.562-.627c0-.73-.333-2.019-.7-3.672h-2.224l-1.02 3.637c-.011.035-.011.08-.011.114 0 .377.561.548.561.548z"/><path fill="#808E78" d="M33.021 102.231c-.18-.047-.21-.296-.333-.42a.9.9 0 0 0-.446-.249c-.286-.042-.485.043-.733.151-.151.066-.302.099-.445.184-.167.099-.304.249-.493.097-.156-.125-.13-.327-.32-.434-.236-.134-.498.021-.638-.244-.051-.097-.04-.194-.106-.283-.053-.072-.134-.102-.19-.17-.093-.117-.05-.209-.092-.333-.102-.301-.517-.077-.75-.047-.43.057-.889.013-1.307-.067-.148-.028-.278.002-.257-.204.018-.18.224-.351.336-.474-.054-.143-.197-.153-.217-.344-.021-.198.12-.376.104-.569-.03-.363-.56-.194-.812-.248-.128-.027-.204-.073-.341-.077a13 13 0 0 0-.506 0c-.122.003-.231.02-.338-.044-.254-.153.01-.23.111-.365-.069-.251-.368-.35-.569-.48-.07-.046-.231-.084-.248-.187-.03-.178.115-.124.228-.166.173-.065.355-.109.35-.326-.003-.123-.186-.318-.246-.42-.11-.187-.272-.353-.263-.584.01-.233.405-1.096.693-.737.157.195.053.507.218.726.26.346.518.069.864.089.128.008.22.115.344.125.23.021.13-.076.288-.183.28-.192.572-.087.706.235.06.145.05.38.268.407.235.03.131-.092.246-.228.136-.16.318-.214.498-.065.099.081.092.269.24.297.108.022.196-.065.262-.134.119-.127.191-.257.332-.366.093-.074.3-.127.352-.245.227-.523-.635-.722-.925-.995-.232-.22-.28-.497-.668-.505-.222-.005-.482.06-.677-.085-.268-.198-.048-.483-.326-.657-.284-.177-.54-.145-.708-.495-.107-.22-.115-.713.06-.916.134-.157.557.032.532-.306-.015-.189-.483-.396-.652-.5-.154-.096-.992-.432-.925-.605.133-.345 1.324.612 1.474.675.096.04.16.098.275.071.152-.035.173-.194.35-.212.163-.016.353.07.494.135.124.058.264.227.426.184.261-.069.297-.46.608-.51.188-.032.194.068.328.144.173.098.36.133.536.032.27-.156.472-.64.486-.925.006-.122.04-.374-.016-.487-.104-.208-.284-.181-.493-.178-.297.005-.746.088-1.025-.01-.307-.107-.116-.652-.317-.906-.208-.264-.553-.246-.85-.243a1.85 1.85 0 0 1-.93-.218c-.239-.117-.405-.114-.671-.114-.118 0-.618.06-.57-.148.592-.022.035-.477.024-.754.199-.28.536.37.71.386.23.022.29-.183.425-.296.138-.116.229-.193.422-.193.43 0 .388.43.733.478.21.03.216-.093.449.024.157.08.25.134.415.194.134.048.282.155.412.071-.047.03.218-.258.189-.213.15-.237-.212-.525-.364-.688-.224-.24-.494-.388-.74-.597-.128-.11-.222-.239-.36-.34-.093-.068-.252-.107-.23-.246.02-.13.34-.18.427-.176.166.008.208.082.328.176.223.173.63.509.746.09.095-.344.136-.388.451-.255.154.065.806.227.79-.097-.01-.174-.257-.263-.365-.341-.09-.066-.173-.15-.267-.209-.216-.135-.506-.12-.716-.27-.11-.08-.139-.186-.22-.287-.078-.097-.195-.172-.296-.247-.197-.145-.593-.301-.686-.543.098-.104.283-.127.416-.18.175-.07.362-.138.529-.229.18-.097.25-.175.435-.054.188.125.237.298.358.465.063.086.17.15.242.228s.123.195.205.261c.172.14.371.06.533.217.301.291.123.732.39 1.038.318.364.74-.011 1.019-.244.206-.172.301-.365.363-.621.057-.234.023-.302-.208-.424-.215-.114-.44-.208-.66-.306-.18-.08-.3-.205-.457-.315-.214-.149-.495-.132-.697-.285-.127-.096-.423-.29-.434-.447.112-.154.455-.12.621-.099.17.022.447.037.595.1.17.075.283.28.5.251.292-.04.427-.326.28-.559-.082-.13-.245-.21-.302-.367-.069-.185.11-.376-.004-.54-.132-.188-.46-.087-.625-.243-.178-.169.019-.414.25-.432.15-.012.282.082.416.118.14.037.286.02.428.019.293-.002.593-.067.82.14.261.236.481.653.863.719.272.046.593-.551.43-.78-.1-.14-.313-.205-.191-.415.078-.134.315-.236.435-.327.074-.055.144-.128.227-.171.082-.043.212-.048.287-.093.301-.182.1-.314.01-.559-.07-.192-.075-.372-.183-.545a3 3 0 0 0-.4-.527c-.264-.262-.7-.178-1.046-.178-.306 0-.613-.003-.919 0-.198.002-.84-.075-.71-.42.099-.26.86.157 1.045.174.27.026.477.022.684-.163.18-.161.33-.322.42-.544.113-.277.07-.348-.15-.54-.181-.156-.356-.331-.53-.496-.142-.135-.201-.205-.385-.26-.176-.052-.346-.117-.521-.178-.251-.087-.511-.061-.778-.06-.187 0-.288.027-.44-.096-.139-.112-.41-.345-.402-.54.31.122.651.035.973.138.21.068.44.212.667.204-.045-.484-.738-.83-1.139-.95-.31-.09-.932-.609-.813-.986.33-.145.496.275.647.472.176.231.353.275.638.175.217-.077.306-.217.545-.087.213.116.244.5.48.548.087-.173.193-.141.32-.201.161-.075.23-.109.28-.337.08-.349-.063-.643-.305-.897-.187-.195-.37-.284-.606-.404-.266-.135-.467-.31-.676-.518-.17-.168-.482-.7.017-.573.179.045.267.184.404.284a3 3 0 0 0 .596.358c.184.075.461.143.666.1.13-.026.22-.121.34-.178.242-.114.28.06.489.003.365-.099-.062-.632.087-.835.106-.143.52-.09.687-.076.132.013.185.041.292-.012.187-.094.143-.189.384-.093.344.136.52.475.489.836-.014.16-.138.333-.068.504.058.142.188.19.335.262.227.11.613.344.845.259.119-.044.325-.215.426-.306.166-.15.184-.318.169-.538-.023-.329-.327-.705-.595-.895-.15-.106-.319-.104-.431-.276-.132-.2-.098-.432.003-.631.102-.201.247-.304.102-.543-.14-.23-.39-.2-.61-.302-.172-.08-.313-.183-.494-.252-.17-.064-.333-.085-.472-.203-.15-.128-.235-.283-.332-.45-.126-.218-.287-.34-.466-.511.003-.223.45-.178.594-.164.25.024.39.205.606.334.235.14.625.47.913.408.159-.035.245-.213.414-.218.16-.004.327.129.447.22.283.219.508.585.904.593.17.003.324-.043.487.023.137.055.281.223.42.304.118.07.268.211.425.16.142-.046.206-.264.347-.34.15-.08.342-.092.511-.08.14.01.442.2.544.117.123-.1-.086-.434-.132-.566q-.085-.246-.168-.493c-.1-.293-.133-.5-.416-.669-.25-.148-.433-.21-.712-.206-.356.006-.737.035-1.092.003a2.4 2.4 0 0 1-.637-.162c-.295-.127-.22-.475-.156-.752.123-.006.206.134.327.158.19.037.238-.053.34-.175.154-.185.249-.41.093-.63-.261-.366-1.01-.122-1.405-.22-.289-.07-.532-.216-.795-.341-.107-.052-.306-.134-.354-.242-.042-.095.055-.13-.015-.25-.116-.194-.538-.281-.74-.333-.195-.051-.56.04-.644-.207.14-.19.42-.057.533-.332.11-.268-.086-.356-.173-.573.264-.05.417.234.51.41.105.195.354.361.583.332.293-.037.4-.327.694-.133.126.083.21.199.359.255.133.05.287.056.43.069.252.022.461-.115.238-.362-.15-.165-.483-.323-.7-.33-.232-.008-.325-.003-.264-.28.035-.157.055-.291.048-.459-.014-.326-.236-.723.252-.839.72-.172.464.816.708 1.122.201.254.482.135.723.282.26.158.363.51.598.116a.63.63 0 0 0 .083-.434.8.8 0 0 0-.168-.315c-.088-.101-.233-.138-.303-.25.341-.11.564-.46.344-.764a1.2 1.2 0 0 0-.361-.331c-.133-.088-.367-.173-.425-.332.095-.15.296-.24.469-.255.108-.01.277.067.333-.071-.083-.135-.254-.21-.36-.334-.085-.102-.298-.273-.279-.411.263-.07.43.057.618.207.202.162.318-.035.55-.04.194-.005.502.214.652.341.145.122.29.382.484.269.195-.115.133-.454.397-.503.074-.014.162.076.245.028.077-.044.076-.242.078-.312.008-.262.025-.374.332-.363.2.007.413.012.518-.215.147-.319-.535-.62-.729-.786-.166-.144-.332-.335-.525-.44-.086-.048-.181-.04-.26-.114-.064-.061-.078-.167-.132-.235-.342-.432-.965-.446-1.384-.742-.31-.217-.51-.712-.43-1.077.362-.12.555.289.793.455.146.102.304.215.465.291.134.064.299.067.408.176.09.09.092.224.173.32.08.094.265.183.369.248.216.137.427.288.65.413.304.17.556.365.915.173.237-.127.196-.512.183-.756-.012-.233-.172-.366-.237-.578-.052-.17-.028-.411.021-.576.084-.284.213-.571.318-.85.113-.3.158-.58.214-.893.032-.18.021-.263.102-.42.054-.105.104-.199.15-.31.098-.238.105-.37.105-.633v-1.043c0-.348-.08-.833.104-1.158.335.017.206.686.23.888.018.165.114.286.155.438.04.143.033.269.08.412.18.545.14 1.06-.127 1.576-.176.339-.392.715-.488 1.084a2.1 2.1 0 0 0-.043.72c.013.094.052.174.07.265.03.143-.02.305.027.44.13.364.737.625 1.094.646.16.01.326.012.457-.089.108-.083.134-.208.209-.315.07-.1.155-.153.254-.224.087-.062.175-.165.267-.213.122-.064.2-.034.332-.07.25-.07.149-.325.339-.473.174-.137.502-.152.702-.207.142-.04.285-.116.425-.166.218-.078.8-.111.454.263-.121.131-.37.225-.52.327-.163.113-.298.264-.478.334-.175.067-.378.055-.55.123-.176.07-.482.31-.62.455-.132.137-.158.29-.33.4-.065.043-.126.038-.188.088-.112.09-.207.246-.319.343-.236.206-.657.943-.188 1.11.174.062.595-.029.765-.115.06-.03.185-.153.255-.145.137.015.159.208.17.303.052.432-.654.868-.435 1.256.17.302.388.102.596-.01.166-.09.315-.14.5-.164.224-.029.56-.064.764-.176.2-.108.103-.365.335-.439.16-.05.275.063.424.1.12.031.255.035.377.06.25.053.482.08.72-.036.2-.096.362-.289.587-.333.256-.05.42.193.457.42.048.304-.369.447-.628.484-.194.029-.39-.018-.584 0s-.4.098-.578.17c-.382.155-.756.335-1.126.516-.23.111-.497.192-.698.354-.163.132-.307.263-.487.377-.38.24-.853-.026-1.266.16-.401.183-.804.519-.827.994-.007.15-.058.487.078.6.2.168.533-.186.707-.272.218-.107.345-.055.566-.014.156.029.422.11.558.064.195-.067.29-.398.546-.288.269.115.146.381-.019.49-.344.227-.673.458-.85.831-.093.197-.172.325-.345.457-.173.133-.389.242-.524.417-.214.277-.193.864.061 1.12.164.165.32.172.534.162.243-.01.29-.078.474-.245.256-.231.32-.41.33-.75.006-.218-.113-.52.16-.577.205-.042.388-.074.595-.13.102-.027.216-.022.314-.053.129-.04.23-.142.357-.19.135-.05.285-.088.429-.036.132.047.2.21.336.236.163.032.137-.051.264-.142.127-.09.265-.107.41-.156.206-.07.33-.116.544-.112.16.003.352.026.509.003.131-.02.29-.052.418-.08.288-.061.22-.361.385-.548.154-.175.431-.054.538.121.156.255.088.523.14.794.144-.01.268-.11.416-.128.103-.013.227-.002.33.002.266.01.823.344.414.567-.197.107-.457.076-.669.094-.191.015-.342.13-.522.193a4 4 0 0 0-.487.207c-.188.096-.396.127-.583.227-.134.071-.246.107-.384.162-.148.059-.252.175-.386.254-.282.166-.651.028-.794.376-.096.236.038.376.215.527.187.16.182.172.042.376-.107.156-.18.404-.391.373-.216-.033-.267-.296-.415-.326-.11.097-.056.172-.078.286-.023.112-.158.245-.163.338-.008.13.104.392.17.51.14.245.492.426.567.709.074.285-.289.44-.256.687.02.157.178.15.288.097.17-.082.235-.295.335-.436.208-.293.591-.435.909-.585.243-.116.245-.067.425.073.066.052.072.129.167.1.103-.032.1-.25.16-.317.152-.171.215-.07.407-.031a.96.96 0 0 0 .541-.04c.236-.084.556-.389.804-.372.343.022.426.557.782.573.266.013.653-.517.831-.13.145.317-.22.497-.415.65-.174.137-.343.285-.523.416-.239.174-.45.23-.742.248-.28.017-.711.299-.58.65.117.32.536.212.446.657-.059.29-.363.397-.44.663-.026.095.014.179-.007.267-.021.087-.09.157-.1.245-.012.114.094.267.172.342.192.184.388.086.603.188.182.086.389.42.421.612.033.193-.053.41.007.6.09.28.364.475.559.664.102.1.16.233.271.32.142.111.282.125.33.341.08.353-.317.506-.502.728a1.5 1.5 0 0 0-.338.85c-.028.346.128.583.492.652.278.052.558-.175.849-.056.275.113.477.273.545.564.035.15.09.326.065.482-.026.167-.114.22-.18.365-.148.316-.007.648-.16.962-.147.304-.413.59-.658.82-.13.122-.258.25-.307.425-.06.22.057.234.207.41.192.228.35.456.568.666.245.236.367.553.625.764.273.222.56.433.828.66.22.187.446.413.583.662.2.362.471.518.428.97-.018.18-.082.346-.093.527-.015.232.004.473.004.707 0 .344 0 .687-24.35 14.957z"/><path fill="#97A58F" d="M91.075 99.993c.175.149.352.266.508.436.2.218.376.428.623.599.294.204.589.426.887.624.227.15.438.178.703.229.143.027.29.057.403-.058.117-.12.07-.265.207-.383.203-.175.292-.107.503-.007.197.093.415.122.61.216.415.199.805.427 1.212.639.2.104.37.285.57.401.204.118.394.257.601.372.147.08.265.196.414.271.208.105.464.117.683.195.383.136.76.184 1.156.259.165.031.424.13.579.103.178-.031.346-.197.493-.291.164-.104.331-.172.509-.247.187-.08.353-.209.544-.274.375-.128.748-.097 1.138-.099.19-.001.371-.019.553.038.155.048.256.118.418.129.126.009.32.031.421-.053.209-.172-.064-.376-.172-.526-.145-.201-.283-.424-.071-.625.15-.142.346-.126.535-.123.342.004.648.091.716-.327.034-.213.006-.415.049-.628.061-.304-.055-.475-.379-.531-.276-.048-.463-.06-.684-.256-.136-.12-.298-.264-.399-.414-.204-.303-.119-.602.235-.708a1.4 1.4 0 0 1 .525-.044.7.7 0 0 1 .302.084c.131.077.156.202.335.164.203-.043.287-.337.506-.396.268-.073.331.231.58.285.235-.42-.258-.512-.56-.545-.404-.044-.671-.136-.851-.514-.177-.374-.131-.726.344-.734.252-.005.311.032.463-.168a.55.55 0 0 1 .14-.208q.162-.045.308-.127c.133-.109.202-.328.249-.488.066-.223.157-.439.213-.665.036-.144.048-.285.077-.43.029-.14.065-.476.179-.575.137-.118.315-.023.465-.085.16-.066.249-.242.407-.323a.77.77 0 0 1 .43-.08c.091.004.316.093.371.018-.044-.345-.293-.392-.548-.527-.163-.085-.251-.172-.144-.341.13-.208.392-.198.598-.232.312-.052.383-.395.502-.655.098-.212.167-.547-.046-.712-.274-.212-.495.023-.715.175-.107.074-.218.14-.346.171-.217.055-.268-.012-.432-.132-.113-.082-.258-.193-.408-.179-.2.02-.222.16-.242.338-.02.187-.019.398-.007.586.018.293.206.536-.143.693-.263.12-.535.138-.818.137-.221 0-.454.053-.585-.165-.144-.236-.092-.89.083-1.117.197-.255.565-.172.833-.247.362-.102.535-.336.617-.697.043-.188.016-.403.015-.596-.001-.388.231-.408.596-.487.221-.049.204-.163.326-.324.114-.152.238-.144.407-.18.277-.059.464-.272.732-.333.252-.057.566-.03.766-.201.231-.198.22-.543.475-.716.187-.127.306-.043.374-.315.037-.148.03-.206-.094-.294-.191-.136-.759-.32-.976-.183-.19.12-.249.411-.431.55-.248.192-.516.263-.701-.007-.082-.118-.145-.241-.249-.343-.156-.153-.251-.119-.468-.05-.338.108-.604.374-.927.528-.375.18-.511.097-.709-.246a1 1 0 0 1-.128-.305c-.047-.226-.009-.278.161-.403.158-.115.209-.224.24-.419.019-.124-.028-.306.025-.42.06-.13.226-.144.314-.237.165-.172.077-.373.093-.59.009-.124.038-.293.119-.394.099-.121.277-.143.378-.263.144-.17.433-.586.304-.787-.245-.38-.686-.03-.974.035-.555.126-.5-.342-.495-.748.002-.194.009-.267-.171-.372-.168-.098-.321-.112-.509-.12-.355-.013-.59-.28-.509-.65.067-.31.497-.473.706-.692.163-.17.271-.34.305-.57.042-.277.04-.2.295-.319.289-.135.283-.541.088-.755-.154-.17-.476-.305-.706-.348.095-.258.626-.362.868-.395.502-.068.766-.531.728-1-.017-.204-.13-.346-.253-.515-.172-.235-.289-.32-.596-.312-.284.007-.455.131-.498.418-.042.273.07.411.116.662-.187.028-.261-.592-.318-.75-.064-.176-.083-.292-.304-.318-.18-.02-.313.05-.341.235-.02.138.144.343.064.47-.076.122-.379.085-.495.11-.203.046-.198.132-.233.328-.021.122-.076.222-.098.34-.044.237.089.4-.162.563-.076.05-.172.065-.248.112-.215.132-.314.314-.596.329-.309.015-.823-.184-.744-.583.03-.155.189-.188.286-.3.139-.163.121-.39.199-.58a.9.9 0 0 1 .293-.368c.094-.073.252-.088.273-.224.015-.092-.085-.25-.117-.335-.073-.202-.12-.345-.34-.426a2 2 0 0 0-.314-.088c-.146.011-.18.2-.214.32-.116.408-.016.81-.586.743-.246-.029-.343-.062-.51.151-.092.118-.165.204-.314.257-.185.064-.433.154-.627.184-.299.046-.624-.004-.664-.336-.04-.337.122-.454.243-.748.052-.127.034-.171.174-.254.214-.128.38-.02.603.002.161.017.318-.016.47-.073.221-.084.217-.167.163-.377-.033-.126-.04-.262-.088-.383-.076-.195-.297-.283-.369-.47-.116-.297.142-.657.41-.769.207-.086.284-.071.393-.28.071-.137.14-.29.231-.416.1-.14.163-.239.372-.2.194.038.237.138.432-.017.268-.213.364-.644.597-.91.098-.11.213-.203.334-.287.119-.083.342-.138.436-.24.325-.347-.294-.566-.536-.615a.73.73 0 0 0-.491.063c-.074.036-.136.092-.207.132-.109.06-.261.091-.362.16-.242.162-.422.507-.764.505-.2-.001-.253-.158-.422-.245-.195-.099-.388.004-.472.202-.126.295.028.7-.377.815a.4.4 0 0 1-.408-.084c-.076-.067-.111-.17-.183-.239-.07-.068-.166-.112-.236-.181-.2-.197-.294-.391-.566-.49-.29-.104-.734-.287-.671-.653.087-.506.477-.406.822-.59.175-.093.239-.308.371-.447.17-.178.281-.26.535-.29.303-.036.505-.235.579-.537.104-.425-.351-.469-.669-.392-.467.113-.654-.365-.409-.696.122-.165.19-.321-.013-.474-.138-.104-.421-.067-.418-.302.003-.29.792-.457.341-.836-.22-.185-.681-.248-.953-.207.23-.307.807-1.323.533-1.633-.075-.085-.248-.14-.235-.29.013-.143.2-.213.308-.27.35-.18.816-.147.939-.575.043-.148.041-.317.123-.452.091-.152.265-.244.38-.378.225-.265.26-.586.508-.837.161-.163.632-.647.572-.903-.076-.326-.576-.164-.744-.01-.158.144-.308.29-.34.504-.023.161.054.347-.049.488-.174.24-.673.16-.941.275-.304.131-.514.394-.869.406-.179.006-.318-.08-.49-.092-.231-.016-.347.163-.501.317-.23.228-.42.427-.438.766-.018.308-.202.599-.549.539-.255-.044-.46-.279-.532-.527-.052-.178.016-.376-.02-.555-.024-.112-.069-.132-.042-.248.023-.096.118-.219.18-.291.257-.299.597-.364.504-.828-.07-.35-.002-.61.166-.924.06-.113.093-.266.17-.367.112-.144.286-.137.423-.239.2-.148.357-.428.463-.643.173-.35.062-.822-.428-.719-.214.046-.472.202-.671.3-.086.043-.194.069-.274.115-.21.123-.202.273-.281.481-.068.179-.155.33-.368.274-.164-.042-.332-.245-.431-.372-.191-.245-.244-.488-.342-.77-.094-.274-.078-.458.26-.576.147-.051.328-.009.464-.084.187-.103.214-.35.254-.54.04-.18.045-.319.215-.413.133-.074.296-.048.425-.137.131-.09.158-.226.22-.364.075-.17.108-.218-.074-.334-.204-.129-.47.005-.646-.166-.113-.11-.157-.418-.087-.56.059-.12.225-.24.325-.344.236-.247.469-.398.406-.767-.027-.16-.035-.333-.063-.49-.03-.168-.083-.169-.255-.2-.62-.11-.498.542-.717.875a19 19 0 0 1-.401.58.9.9 0 0 1-.309.29c-.174.114-.23.255-.295.452-.1.306.007.524-.344.627-.254.074-.433.028-.572-.209-.201-.34-.195-.724-.038-1.073.051-.114.074-.228.143-.336.076-.12.196-.219.262-.348.104-.203.22-.786-.121-.768-.345.018-.415.305-.66.465-.364.24-.654-.24-.532-.554.102-.264.387-.368.592-.532.262-.21.464-.49.465-.832.001-.377.045-.465.281-.742.111-.13.206-.278.305-.416.11-.153.32-.356.393-.523.068-.155-.002-.233-.036-.387-.043-.195-.01-.394-.014-.591-.004-.236-.187-.434-.446-.3-.192.099-.182.312-.249.48-.07.173-.215.218-.344.338-.31.29-.318.712-.718.907-.523.255-.438-.822-.438-1.128 0-.15-.04-.355.003-.498.072-.244.591-.216.422-.496-.168-.277-.622-.24-.713-.615-.033-.131.007-.198.09-.294.155-.177.233-.22.303-.457.043-.144.19-.328.14-.485-.042-.137-.223-.29-.293-.425-.17-.33-.073-.586.047-.917.076-.211.144-.44.25-.639.063-.116.226-.274.19-.424-.05-.203-.274-.173-.445-.18-.374-.014-.424-.243-.417-.58.003-.167-.016-.334.02-.498.037-.18.114-.324.025-.5-.076-.148-.23-.226-.378-.295-.203-.095-.3-.116-.463.042-.236.23-.304.49-.372.795-.065.29-.124.487-.014.778.104.274.312.688.163.992-.135.277-.503.242-.743.338-.319.127-.293.4-.178.67.063.153.11.225.232.331.092.08.267.16.232.314-.022.1-.223.196-.295.265-.136.13-.286.288-.406.433-.246.299-.02.578.158.835.154.223.166.339.166.599 0 .4-.085.763-.084 1.16 0 .236.036.345-.165.499-.164.125-.366.305-.589.297-.276-.01-.54-.355-.714-.536-.165-.172-.25-.61-.57-.548-.218.254.303.6.464.722.175.132.236.195.143.392-.086.182-.237.352-.343.526-.115.19-.237.374-.25.598-.022.375.008.535-.341.747-.376.226.008.307.183.512.245.288.014.517-.076.814-.084.276.124.425.403.425.283 0 .767-.507.92-.106.07.185-.089.336-.068.495.02.153.178.21.257.34.258.426-.207.412-.48.291-.231-.101-.552-.49-.724-.127-.153.325.22.49.476.578.203.069.505.053.454.337-.04.219-.33.487-.32.708.007.13.16.173.248.252.157.143.21.33.174.545-.063.376-.48.167-.635-.051-.065-.092-.09-.26-.233-.269-.197-.012-.304.37-.419.466-.2.167-.548.118-.761-.002-.346-.195-.486-.545-.74-.82-.124-.135-.288-.213-.427-.33-.096-.08-.18-.212-.322-.199-.066.15.105.472.156.618.079.228.2.357.4.497.186.13.698.41.457.715-.1.126-.378.14-.518.116-.287-.05-.82-.528-1.087-.224-.12.136-.044.523.084.636.233.205.642.278.792.576.188.37-.15.804-.21 1.162-.048.293-.08.49.142.725.224.236.584.578.544.944-.025.23-.203.237-.398.239-.264.003-.347.046-.54.224-.27.25-.218.375-.103.689.042.116.122.306.035.423-.068.091-.431.176-.545.22-.168.066-.43.207-.573.093-.062-.05-.114-.27-.158-.344-.06-.102-.142-.186-.215-.28-.21-.27-.625-1.207-.978-.598-.229.395.128.485.35.728.146.16.23.395.253.608.052.488-.03 1.13-.42 1.47-.407.356-1.453.432-1.45 1.076.002.295.207.37.355.576.185.26-.016.472-.073.734-.066.3.044.63-.034.926-.065.245-.236.404-.405.58a2 2 0 0 0-.162.19c-.195.25-.285.216-.53.062-.227-.141-.479-.291-.638-.031-.136.222-.231.541-.169.798.053.218.19.312.302.494.149.244.28.488.363.759.073.238.224.455.249.718.017.18-.004.374-.004.556 0 .245.057.532-.078.748-.046.074-.126.128-.175.2-.13.192-.158.382-.398.47-.28.1-.456.03-.658.298-.15.198-.247.409-.355.628-.078.16-.131.326-.17.5-.063.274.058.345.174.575.152.303.153.71-.015 1.013-.17.308-.51.578-.75.834-.116.123-.205.263-.333.375-.117.102-.257.162-.362.279-.382.427-.625.974-1.01 1.4-.13.144-.258.236-.318.428a2.7 2.7 0 0 0-.103.832c0 .233 0 .435.062.663.073.275.204.55.258.828.05.25.017.525.017.778v1.525c0 .38-.022.767-.001 1.146.011.22.126.299.255.486.68.984 1.217 2.141 1.602 3.264.102.298.251.55.399.823.087.16.073.23.267.312.19.08.285.126.433.27.393.378.804.842.841 1.402.033.496-.09.983-.088 1.482.001.288-.054.596.083.845.171.31.533.487.84.66.464.261 1.011.375 1.519.517a53 53 0 0 0 3.043.773c.472.103.949.185 1.42.29.595.132 1.297.182 1.863.413.333.135.559.316.853.512.42.279.82.564 1.253.817.06.035.122.061.181.095.211.121.373.293.583.421.228.138.48.197.718.312.193.093.234.165.467.172.41.013.832-.089 1.243-.097.591-.013 1.184.004 1.776.004h1.764c.341 0 .717-.045 1.054-.003.22.028.496.159.699.25.163.072.261.149.444.192.131.031.273.04.4.077.313.089.57.227.855.373.027-.118-.022-.189-11.452-3.044z"/><path fill="#6D7962" d="M59.754 98.693c-.128-.167-.421-.15-.604-.215-.146-.051-.267-.13-.407-.192-.3-.134-.579-.04-.886-.118-.841-.214-1.728-.377-2.537-.753-.787-.366-1.624-.608-2.413-.988-.551-.264-1.098-.453-1.617-.783-.437-.278-.697-.772-1.012-1.177a5.8 5.8 0 0 0-1.112-1.121c-.449-.335-.913-.578-1.386-.867-.436-.267-.888-.491-1.327-.747-.408-.237-.75-.527-1.135-.767-.548-.342-.865-.854-.857-1.48.008-.694-.574-.714-1.143-.899-.497-.16-1.023-.113-1.361-.575-.104-.142-.443-.587-.367-.749.092-.2.264-.132.456-.15.088-.476-.748-.748-.901-1.098-.114-.26.17-.387.405-.368.277.022.566.212.791.36.24.156.417.368.717.3.185-.043.332-.256.516-.278.44-.053.852.494 1.27.586.63.14.601-.566 1.122-.714.239-.067.524.067.748 0 .175-.053.514-.399.49-.613-.065-.557-1.01-.466-1.34-.665-.466-.28-.049-.908-.617-1.085-.272-.084-.584.054-.853-.022-.443-.126-.821-.6-.984-.994-.302-.73.571-1.857 1.402-1.346.245.151.296.445.466.662.125.16.28.281.453.385.588.352.947-.052 1.483-.295.355-.161.837.1 1.164.294.435.259.775 1.007 1.254 1.066.383.046 1.03-.085 1.216-.445.148-.287-.015-.631.078-.929.028-.086.12-.175.157-.263.065-.16.046-.318.085-.481.056-.232.233-.356.31-.571.197-.55-.796-.593-1.086-.926-.215-.247-.26-.34-.002-.566.18-.156.386-.212.31-.48-.035-.128-.133-.205-.165-.34-.025-.107.036-.245.004-.342-.089-.268-.29-.265-.55-.27-.33-.006-.735-.062-1.054.008-.256.057-.404.277-.684.234-.114-.017-.224-.123-.32-.175-.11-.06-.38-.126-.459-.21-.17-.18-.107-.372.132-.463.289-.11.508.112.579-.256.054-.28-.051-.322.214-.472.298-.169.591-.286.842-.557.107-.115.364-.425.363-.594 0-.2-.33-.614-.473-.73-.343-.28-1.209-.52-1.608-.273-.403.247-.753.613-1.225.205-.58-.5.29-.624.165-1.095-.104-.392-.516-.657-.803-.909-.31-.273-1.146-.48-1.207-.937-.117-.868 1.44.269 1.645.451.308.275.353.315.76.307.293-.007.602.034.89-.014.422-.068.772-.244 1.199-.238.238.003.338.007.542.155.351.254.264.192.654-.034.389-.224.507-.228.859-.001.248.16.476.397.793.395.393-.001.393-.272.629-.496.284-.27.274-.038.632-.031.61.011.757-.927.56-1.36-.165-.359-.721-1.241-.383-1.61.302-.058.291.24.467.381.263.21.653-.003.888.248.307.329.072 1.307.863 1.094.184-.05.708-.337.795-.507.161-.312-.25-.615-.439-.844a3.6 3.6 0 0 0-.447-.48c-.11-.093-.298-.159-.391-.26-.237-.256-.1-.509-.139-.821-.024-.192-.106-.327-.208-.49-.124-.198-.222-.42-.36-.607-.165-.221-.51-.515-.189-.752.304-.225.67-.059.885.181.348.39.57.839.888 1.238.412.52 1.115.639 1.757.48-.099-.595-.835-.789-.993-1.346-.114-.402.077-.475.245-.77.167-.297.159-.556.027-.86-.07-.163-.21-.317-.26-.488-.054-.178.022-.352-.035-.528-.21-.633-1.106-.28-1.501-.097-.337.156-.675.243-1.017.381-.328.132-.626.211-.81-.151-.24-.467.102-.382.348-.59.364-.31.111-.397-.051-.722-.311-.622.21-1.096.42-1.684.16-.45.433-.995-.288-1.097-.582-.083-.732.84-1.266.491-.259-.17-.288-.446-.374-.697a.43.43 0 0 0-.148-.384 4 4 0 0 0-.367-.194c-.173-.161-.48-.729-.495-.96-.035-.492.397-.306.603-.087.346.367.907 1.11.912.125.001-.235-.081-1.178.352-1.118.282.04.155.67.152.845-.005.341-.125.632.234.79.632.28 1.3-.27 1.917.005.28.125.263.38.624.302a.6.6 0 0 1 .38-.176q.233.05.47.068c.12-.261.052-.458.281-.673.223-.208.55-.27.783-.46.26-.212.313-.54.352-.851.015-.12.008-.255.039-.373.057-.222.247-.385.212-.624-.08-.54-.643-.737-1.083-.505-.25.13-.432.363-.739.326-.258-.031-.46-.259-.511-.506-.08-.377.348-.8.529-1.12.408-.722-.436-.45-.836-.544-.257-.06-.241-.29-.447-.43-.21-.14-.448.004-.609-.213-.193-.261-.173-1.106.028-1.357.131-.163.516-.397.714-.297.255.128.194.566.19.802-.003.23-.053.473.247.48.266.006.346-.286.57-.376.465-.188.794.446 1.151-.117.208-.326.14-.416-.013-.736-.154-.322-.06-.664.065-.973.225-.558.297-.932.009-1.49-.23-.442-.665-.863-.617-1.398.022-.236.09-1.133.494-.898.243.143.116 1.063.116 1.322 0 .394-.106.965.425 1.072.238.048.519-.122.77-.133.15-.007.37-.038.512-.006.709.16.638 2.087-.089 2.202-.193-.266.136-.941.43-1.056.424-.164.783.386 1.194.418.194-.194.22-.669.269-.932.057-.31.029-.63.028-.943 0-.319.054-.674-.057-.977-.12-.326-.396-.572-.542-.884.27.164.4.459.723.553.347.1.562-.08.858-.206.089-.038.316-.048.374-.138.103-.161-.068-.366-.147-.498-.156-.263-.365-.494-.504-.766-.192-.376-.433-.78-.581-1.17-.108-.286-.116-.612-.256-.883-.152-.294-.442-.5-.714-.678-.403-.262-1.362-.578-1.482-1.096-.123-.528.29-1.37.947-1.135.593.213.571.974 1.307.992.199.004.352-.048.518.067.278.192.175.664.428.835.261-.054.366-.33.518-.507.157-.183.396-.252.48-.496-.163-.393-.886-.59-1.175-.94-.197-.238-.271-.408-.35-.709-.057-.22-.274-.543-.183-.766.46-.341.825.538 1.1.752.27.21.679.333 1.014.407.388.085.644.317.986.496.287.15.176.11.394-.1.207-.2.378-.252.618-.409.28-.182.805-.64.774-.987-.02-.208-.162-.244-.251-.405-.15-.268-.074-.468-.111-.74-.05-.375-.82-.59-1.153-.738-.315-.139-.978-.227-1.064-.616-.076-.34.285-.416.558-.379.148.02.37.174.521.128.171-.051.194-.348.247-.478.074-.184.248-.385.118-.556-.094-.122-.35-.138-.495-.202-.44-.194-.985-.228-1.029-.785-.028-.368.214-.525.064-.893-.185-.458-.257-.577.201-.781.234-.105.646-.227.615-.53-.025-.25-.354-.654-.455-.883.1-.093.227-.06.321-.13.192-.142.153-.26.158-.477.005-.309-.004-.575-.097-.871-.087-.28-.213-.395-.386-.62-.1-.13-.155-.258-.291-.375-.153-.132-.372-.212-.471-.394.231-.348.9.742.985.888q.112.214.26.406.109.218.138.46c.288.28.549.003.748-.27.176-.24.265-.46.37-.722.074-.184.125-.41.382-.34.269.073.22.664.25.851.032.198 0 .375.25.46.507-.261.444-1.25.356-1.73-.047-.26-.113-.65-.28-.862-.197-.248-.6-.319-.567-.715.472-.153-.014-.715-.1-1.029.137-.153.306-.06.475-.134.18-.078.397-.346.51-.485.425-.522-.122-.712-.398-1.134-.158-.24-.548-1.004-.184-1.08.236-.049.392.2.632.043.228-.15.229-.547.167-.783-.113-.436-.35-.787-.36-1.258-.006-.282-.028-.596-.001-.876.013-.143.016-.343.22-.373.326-.048.289.392.41.56.36.491.815-.258 1.02-.588.163-.26.742-2.111 1.274-1.454.203.25.15.864.105 1.177a2.5 2.5 0 0 1-.19.672c-.094.203-.322.3-.41.493-.11.237-.038.45-.207.682-.133.183-.315.312-.327.561-.013.294.163.244.306.457.177.261-.06.506-.232.735-.233.312-.914.747-.511 1.124.186.174.377.198.501.44.143.276.149.534.335.8.128.182.224.385.358.559.168.219.336.308.381.61.055.368-.02.758.002 1.13.023.388.285.716.507 1.029.15.212.408.591.741.463.28-.109.24-.479.293-.71.29.113.538.335.715.584.29.408.355.809.03 1.19-.249.293-.668.525-.85.864-.132.248 0 .239.027.435.037.253-.014.295-.194.502-.313.358-.326.522-.409.99-.067.383-.18.765-.256 1.147-.086.43-.028.86-.106 1.283-.034.185-.07.804-.214.9-.221-.597.068-1.184.607-1.437.309-.145.406-.301.654-.525.229-.205.802-.698 1.118-.453-.007.275-.414.489-.577.702-.074.097-.186.204-.244.31-.073.133-.034.277-.091.409-.13.295-.428.437-.543.767-.123.357-.065.752-.067 1.125-.002.263-.098.74.108.951.174.18.73.234.96.163.147-.044.453-.241.58-.352.435-.381-.054-.662-.003-1.078.572.094.591.77 1.187.199.185-.177.407-.319.586-.495.178-.176.258-.423.373-.638.165-.31.416-.567.603-.864.192-.303.16-.956.544-1.07.37.477-.004 1.009-.183 1.448-.166.408-.157.623-.572.855-.312.175-.545.479-.78.757-.267.318-.279.46-.022.774.252.309.116.62.148.978.076.853 1.046-.033 1.49-.074.19.44-.648.916-.978 1.095-.168.09-.335.166-.497.27-.118.076-.699.283-.736.37-.206.482.912.42.488 1.07-.225.344-.837.524-.753 1.032.122-.196.109-.391.258-.582.16-.206.282-.24.484-.335.358-.168.822-.388 1.237-.364.175.348-.348.379-.492.54-.115.13-.287.661-.226.83.051.144.3.259.38.386.208.328.039.6-.265.798-.362.238-1.016.103-.87.776.136.63.572.624 1.113.59.176.57-.597 1.204-.627 1.794-.02.398-.055.882.028 1.27.069.318.24.669.588.33.21-.206.104-.425.156-.667.047-.223.171-.371.11-.617-.052-.202-.54-.817-.133-.972.175.073.282.375.482.383.153.006.331-.231.399-.335.247-.38 0-.794.268-1.134.306-.387.683-.565 1.083-.259.135.104.306.241.41.38.137.183.076.4.376.477.247-.098.328-.504.47-.723.13-.2.244-.403.348-.618.137-.282.45-1.499.89-1.46.374.032.216.967.216 1.215 0 .35.067.77.007 1.113-.102.58-.473 1.144-.819 1.607-.212.284-.27.466-.354.787-.076.296-.323.533-.34.833-.018.346.452.676.367 1.007-.037.148-.387.277-.503.362a2.8 2.8 0 0 0-.438.383c-.36.4-.915 1.127-.81 1.704.19.128.657-.79.975-.782.471.382-.03 1.17-.165 1.56-.094.274-.206 1.112.067 1.244.457.222 1.064-.34 1.238.371.084.347-.135.681-.268.993-.05.117-.234.413-.214.51.055.277.266.154.48.237.21.083.308.05.163.346-.051.105-.274.313-.363.403-.132.137-.291.254-.418.4-.157.179-.24.415-.4.596-.206.234-.368.357-.512.621-.139.257-.458.435-.486.738-.05.535.742.38 1.09.38.536.001.84-.05 1.301-.372.249-.173.74-.73.705-.002-.008.17-.225.335-.174.504.065.213.445.237.604.223.35-.03.114-.13.495.021.301.12.256.16.54.01.32-.17.642-.425 1.01-.516.266-.066.392.037.637.022.28-.017.324-.144.533-.265.196-.114.36-.164.535-.303.184-.146.323-.356.596-.31.261.287-.314.666-.525.793-.165.099-.35.156-.504.271-.167.124-.255.3-.415.433-.175.143-.494.193-.62.384-.225.345.243.47.368.725-.145.248-.62.404-.857.56-.25.164-.508.317-.731.516.166-.061.724-.347.854-.1.189.36-.487.507-.69.59-.32.131-.728.346-.882.668-.178.37.03.485.196.775.148.259.09.704 0 .977-.08.239-.496.552-.765.606-.405.082-.59-.314-1.003-.07-.36.213-.516.61-.717.95-.183.31-.475.52-.6.873-.217.614.14.367.526.422.56.08.901 1.22 1.606 1.074.254-.053.411-.552.565-.756.212-.283.394-.61.632-.873.22-.244.413-.503.632-.746.157-.175.396-.487.616-.557.174.522-.409 1.018-.363 1.524.222.16.643-.087.894-.1.356-.018.543.25.875.247a.77.77 0 0 0 .69-.492c.09-.228-.024-.896.423-.81.372.29.22 1.016.296 1.41.255.105.555-.578.737-.73.61-.506.463.204.757.515.529-.08.04-1.114.829-.82.502.188.774.267 1.33.037.15-.063.474-.297.64-.214.307.151.047.695-.067.883-.277.452-.731.948-1.24 1.134-.262.096-.43.128-.606.358-.096.127-.211.323-.236.482-.024.156.085.33.061.475-.107.663-1.168.755-1.509 1.264-.353.53-.445 1.255-.348 1.885.1.652 1.122-.071 1.525-.08.055.534-.696.886-.497 1.423.102.277.363.253.562.426.196.169.13.27.24.504.382.018.811-.363 1.157-.105.252.187.25.678.107.918-.193.326-.613.401-.814.745-.345.589-.629 1.074-.764 1.742-.075.373-.201.602-.137.993.048.292.177.568.421.76.263.209.61.334.866.1.246-.226.47-.479.796-.618.564-.243.253.188.537.44.196.174.467-.049.637-.19.46-.38 1.004-.48 1.545-.707.257-.108.544-.111.788-.222.234-.107.443-.332.645-.49.21.127-.218.67-.33.814-.193.25-.422.387-.702.526-.521.259-1.179.573-1.257 1.203-.024.195.06.448-.02.63-.107.244-.46.276-.684.355-.23.08-.485.203-.428.512.027.147.242.338.299.494.066.181.1.41.112.6.034.515-.214.403-.651.536-.294.089-.61.335-.889.491-.214.12-.416.226-.65.303-.36.119-.492.34-.639.687-.166.39-.189.573-.5.87a4.4 4.4 0 0 0-.516.564c-.203.272-.414.596-.468.937-.047.301.063.554-26.697 10.063z"/><path fill="#F7FDFB" d="M86.685 74.562h6.023v9.587c0 1.5.612 2.937 1.698 3.99l19.34 18.727H26.292l3.3-2.922c.835-.89 29.539-27.35 38.515-35.621a3.9 3.9 0 0 1 5.29.02L86.19 80.325"/><path fill="#3B3B3B" d="M45.267 101.175 69.245 78.73a2.25 2.25 0 0 1 3.046-.015l25.036 22.947L72.853 83.17a3.074 3.074 0 0 0-3.692-.003z"/><defs><radialGradient id="a" cx="0" cy="0" r="1" gradientTransform="matrix(74.7602 0 0 73.5483 71.787 72.151)" gradientUnits="userSpaceOnUse"><stop stop-color="#EFFBCC"/><stop offset="0.43" stop-color="#F9F5CA"/><stop offset="0.58" stop-color="#F2EFC6"/><stop offset="0.69" stop-color="#E6E5BD"/><stop offset="0.78" stop-color="#D5D7B2"/><stop offset="0.85" stop-color="#BFC5A2"/><stop offset="0.92" stop-color="#A4AE90"/><stop offset="0.98" stop-color="#84937A"/><stop offset="0.99" stop-color="#7D8D75"/></radialGradient></defs></svg>