<svg xmlns="http://www.w3.org/2000/svg" width="32" height="32" fill="none" viewBox="0 0 32 32"><path fill="#2C3B2E" fill-rule="evenodd" d="M31.425 27.725c-.988 3.002-4.858 4.499-7.623 4.25-3.776-.342-7.884-2.345-11.003-4.55-4.585-3.244-8.88-8.26-11.382-13.582-1.768-3.761-2.165-8.385.465-11.814C2.855.762 3.907.085 5.488.006 7.68-.1 7.988 1.154 8.74 3.108c.561 1.462 1.31 2.952 1.728 4.467.783 2.827-1.954 2.945-2.3 5.255-.215 1.457 1.551 3.411 2.35 4.45 1.563 2.036 3.442 3.791 5.563 5.127 1.214.765 3.174 2.145 4.565 1.384 2.142-1.174 1.94-4.785 4.935-3.563 1.55.632 3.052 1.543 4.533 2.341 2.29 1.23 2.182 2.507 1.31 5.156.653-1.98-.653 1.98 0 0" clip-rule="evenodd"/></svg>