<svg xmlns="http://www.w3.org/2000/svg" width="87.993164" height="87.993164" fill="none" viewBox="0 0 87.9932 87.9932"><path fill="#FDFDFD" fill-opacity="1.000000" d="M43.993 87.993a44 44 0 0 1-31.11-75.11 44.002 44.002 0 0 1 67.693 6.669 44 44 0 0 1 7.417 24.441 2.592 2.592 0 1 1-5.183 0c0-21.403-17.413-38.816-38.817-38.816-21.403 0-38.816 17.413-38.816 38.816S22.59 82.81 43.993 82.81c14.953 0 28.336-8.357 34.904-21.81a2.58 2.58 0 0 1 1.484-1.34 2.6 2.6 0 0 1 1.997.115 2.58 2.58 0 0 1 1.32 1.504 2.6 2.6 0 0 1-.144 1.995 44 44 0 0 1-39.56 24.72"/><path fill="#FDFDFD" fill-opacity="1.000000" d="M31.991 59.271V28.715c0-2.33 2.987-3.609 4.985-2.141l20.647 15.278c1.495 1.107 1.495 3.176 0 4.283L36.971 61.413c-1.992 1.473-4.98.19-4.98-2.142"/></svg>