<svg xmlns="http://www.w3.org/2000/svg" width="43" height="26" fill="none" viewBox="0 0 43 26"><path fill="#3B3B3B" d="M21.029 24.992h2.554s.773-.087 1.165-.518c.364-.396.35-1.139.35-1.139s-.05-3.478 1.542-3.99c1.568-.505 3.583 3.361 5.718 4.85 1.613 1.125 2.84.878 2.84.878l5.71-.081s2.987-.187 1.57-2.57c-.114-.196-.825-1.763-4.245-4.984-3.58-3.372-3.1-2.825 1.213-8.657 2.626-3.552 3.677-5.72 3.348-6.648-.313-.884-2.244-.65-2.244-.65l-6.424.037s-.475-.065-.83.15c-.345.211-.567.699-.567.699s-1.018 2.75-2.375 5.086c-2.862 4.932-4.008 5.193-4.476 4.886-1.087-.713-.814-2.868-.814-4.398 0-4.78.713-6.772-1.392-7.287-.7-.171-1.213-.285-3.001-.304-2.292-.025-4.235.008-5.333.553-.732.363-1.296 1.174-.951 1.22.425.057 1.386.263 1.897.968.66.908.636 2.953.636 2.953s.38 5.625-.885 6.325c-.868.48-2.057-.499-4.609-4.975C10.12 5.105 9.131 2.57 9.131 2.57s-.19-.472-.529-.724c-.411-.307-.988-.404-.988-.404l-6.108.038s-.917.027-1.253.43c-.3.361-.024 1.104-.024 1.104S5.01 14.366 10.425 20.09c4.966 5.246 10.604 4.902 10.604 4.902"/></svg>