<svg xmlns="http://www.w3.org/2000/svg" width="40" height="26" fill="none" viewBox="0 0 44 26"><path fill="#2C3B2E" d="M21.54 25.27h2.555s.772-.086 1.165-.517c.363-.396.35-1.139.35-1.139s-.05-3.478 1.542-3.99c1.568-.505 3.582 3.361 5.717 4.85 1.614 1.125 2.84.878 2.84.878l5.71-.081s2.987-.187 1.571-2.57c-.115-.196-.825-1.763-4.245-4.984-3.58-3.373-3.1-2.825 1.213-8.657 2.626-3.552 3.676-5.72 3.348-6.648-.313-.884-2.245-.65-2.245-.65l-6.423.037s-.475-.065-.83.15c-.346.21-.567.699-.567.699s-1.018 2.75-2.375 5.086c-2.862 4.932-4.008 5.192-4.476 4.886-1.087-.713-.815-2.869-.815-4.398 0-4.78.714-6.773-1.392-7.288-.7-.17-1.213-.284-3-.303-2.293-.025-4.235.008-5.333.553-.732.363-1.296 1.174-.951 1.22.424.057 1.386.263 1.897.968.66.908.636 2.952.636 2.952s.379 5.626-.885 6.326c-.868.48-2.057-.5-4.609-4.975-1.306-2.291-2.295-4.827-2.295-4.827s-.19-.471-.529-.723c-.411-.307-.989-.404-.989-.404l-6.107.038s-.917.027-1.253.43C.465 2.55.74 3.294.74 3.294S5.523 14.645 10.936 20.37c4.967 5.246 10.605 4.902 10.605 4.902"/></svg>