<svg xmlns="http://www.w3.org/2000/svg" width="32" height="33" fill="none" viewBox="0 0 32 33"><g clip-path="url(#a)"><path fill="#3B3B3B" d="M25.314 23.482c-.386 1.092-1.919 1.995-3.141 2.259-.837.178-1.928.318-5.605-1.206-4.13-1.71-9.864-7.805-9.864-11.86 0-2.065 1.19-4.47 3.272-4.47 1.002 0 1.222.02 1.552.811.386.931 1.326 3.226 1.438 3.462.463.965-.47 1.53-1.147 2.37-.216.253-.46.526-.187.997.272.46 1.213 1.994 2.595 3.225 1.786 1.59 3.234 2.099 3.752 2.315.386.16.847.122 1.128-.178.357-.386.8-1.026 1.251-1.657.319-.451.724-.507 1.148-.347.286.099 3.926 1.79 4.08 2.06.113.197.113 1.128-.272 2.22M16.004.89h-.009C7.175.889 0 8.065 0 16.889a15.88 15.88 0 0 0 3.046 9.377l-1.993 5.945 6.149-1.964a15.9 15.9 0 0 0 8.801 2.642c8.821 0 15.997-7.177 15.997-16s-7.176-16-15.997-16" clip-rule="evenodd"/></g><defs><clipPath id="a"><path fill="#fff" d="M0 .889h32v32H0z"/></clipPath></defs></svg>