<svg xmlns="http://www.w3.org/2000/svg" width="130" height="136" fill="none" viewBox="0 0 130 136"><path fill="#232221" d="M112.972 112.562h-98.8a5.4 5.4 0 0 1-2.152-.288 5.3 5.3 0 0 1-1.857-1.112 5.3 5.3 0 0 1-1.254-1.753 5.22 5.22 0 0 1 0-4.204 5.3 5.3 0 0 1 1.254-1.753 5.3 5.3 0 0 1 1.857-1.112 5.4 5.4 0 0 1 2.153-.288H24.2a2 2 0 0 0 2-2v-2.397a2 2 0 0 0-2-2H14.173a11.9 11.9 0 0 0-4.686.722 11.8 11.8 0 0 0-4.02 2.488 11.7 11.7 0 0 0-2.705 3.85 11.55 11.55 0 0 0 0 9.184 11.7 11.7 0 0 0 2.705 3.85 11.8 11.8 0 0 0 4.02 2.488 11.9 11.9 0 0 0 4.686.722h98.799a5.2 5.2 0 0 1 2.054.304 5.2 5.2 0 0 1 1.765 1.082 5.1 5.1 0 0 1 1.189 1.684 5.03 5.03 0 0 1 0 4.021 5.13 5.13 0 0 1-2.954 2.765 5.2 5.2 0 0 1-2.054.304h-9.875a2 2 0 0 0-2 2v2.397a2 2 0 0 0 2 2h9.875c1.56.056 3.116-.199 4.574-.751a11.6 11.6 0 0 0 3.913-2.459 11.5 11.5 0 0 0 2.628-3.776 11.36 11.36 0 0 0 0-8.982 11.5 11.5 0 0 0-2.628-3.775 11.6 11.6 0 0 0-3.913-2.46 11.8 11.8 0 0 0-4.574-.751"/><path fill="#232221" d="M88.775 129.13H70.754a2 2 0 0 0-2 2v2.397a2 2 0 0 0 2 2h18.021a2 2 0 0 0 2-2v-2.397a2 2 0 0 0-2-2M29.627 80.44h9.193c.982 0 1.809-.715 2.04-1.67q.252-1.048.607-2.067c.495-1.422-.49-3.036-1.994-3.036h-9.846c-11.174 0-20.415-8.805-20.597-19.632a19.8 19.8 0 0 1 1.435-7.75 19.95 19.95 0 0 1 4.356-6.597 20.2 20.2 0 0 1 6.599-4.42 20.4 20.4 0 0 1 5.818-1.455c1.1-.108 1.997-.994 1.997-2.098v-1.387l.038 3.36c0 .015.012.027.026.027q.455-.001.905-.043c.686-.063 1.39.136 1.824.671a13.9 13.9 0 0 1 2.925 6.551c.176 1.104 1.088 2 2.205 1.97l3.738-.104c1.094-.03 1.97-.936 1.853-2.024a21.2 21.2 0 0 0-4.116-10.423c-.529-.705-.588-1.657-.238-2.465q.235-.539.4-1.102a26.1 26.1 0 0 1 9.502-13.57 26.6 26.6 0 0 1 15.84-5.218 26.6 26.6 0 0 1 15.839 5.219 26.1 26.1 0 0 1 9.502 13.569 9.67 9.67 0 0 0 3.552 5.078 9.87 9.87 0 0 0 5.935 1.921h.08c2.684 0 5.34.528 7.815 1.553a20.2 20.2 0 0 1 6.599 4.42 19.9 19.9 0 0 1 4.356 6.598 19.8 19.8 0 0 1 1.436 7.75 19.2 19.2 0 0 1-.977 5.76c-.401 1.207.241 2.57 1.438 3.003q1.025.372 2.009.84c1.071.51 2.399.116 2.809-.998a25.9 25.9 0 0 0 1.589-8.489 26.5 26.5 0 0 0-1.926-10.375 26.7 26.7 0 0 0-5.834-8.832 27.1 27.1 0 0 0-8.836-5.916 27.3 27.3 0 0 0-10.462-2.08h-.073a3 3 0 0 1-1.817-.574 2.95 2.95 0 0 1-1.095-1.544 32.87 32.87 0 0 0-11.97-17.094 33.5 33.5 0 0 0-19.954-6.575 33.5 33.5 0 0 0-19.954 6.575 32.87 32.87 0 0 0-11.97 17.094 2.96 2.96 0 0 1-1.104 1.549 3 3 0 0 1-1.828.57h-.054a27.3 27.3 0 0 0-10.456 2.075 27.1 27.1 0 0 0-8.833 5.908 26.7 26.7 0 0 0-5.838 8.823A26.5 26.5 0 0 0 2.18 54.152c.24 14.499 12.564 26.289 27.447 26.289"/><path fill="#232221" d="M106.048 64.46c.58-.585.821-1.448.491-2.202a20.6 20.6 0 0 0-7.334-8.801 20.95 20.95 0 0 0-12.333-3.581 20.92 20.92 0 0 0-12.103 4.279 20.52 20.52 0 0 0-7.238 10.5 4.42 4.42 0 0 1-1.627 2.305 4.5 4.5 0 0 1-2.705.867h-.038c-2.187 0-4.35.43-6.367 1.267a16.5 16.5 0 0 0-5.375 3.6 16.3 16.3 0 0 0-3.548 5.377 16.1 16.1 0 0 0-1.17 6.314c.153 8.918 7.703 15.989 16.73 15.989h48.082c9.027 0 16.577-7.071 16.73-15.99a16.17 16.17 0 0 0-4.466-11.42 16.54 16.54 0 0 0-10.558-5.065 1.74 1.74 0 0 0-1.256.384 12.4 12.4 0 0 0-3.149 3.883 12.3 12.3 0 0 0-1.184 3.472c-.199 1.098-1.108 1.993-2.224 1.961l-2.856-.08c-1.092-.03-1.968-.934-1.84-2.018a18.7 18.7 0 0 1 1.609-5.683 18.9 18.9 0 0 1 3.729-5.358"/></svg>