<svg xmlns="http://www.w3.org/2000/svg" width="129" height="129" fill="none" viewBox="0 0 129 129"><path fill="#232221" d="M112.139 33.287c9.173 0 16.609-7.452 16.609-16.644S121.312 0 112.139 0c-9.172 0-16.608 7.451-16.608 16.643s7.436 16.644 16.608 16.644M90.55 93.315h10.685v10.706H90.551zM71.103 35.083a11.3 11.3 0 0 1 7.51-2.857 11.3 11.3 0 0 1 7.508 2.857L89.1 37.73v-9.458C89.1 12.704 76.46.038 60.924.038c-13.608 0-24.994 9.719-27.61 22.594 4.278 6.51 11.776 19.238 14.982 32.725z"/><path fill="#232221" d="M125.228 121.392h-5.21V85.427l2.455 2.182a3.75 3.75 0 0 0 2.502.953 3.76 3.76 0 0 0 2.823-1.272 3.785 3.785 0 0 0-.319-5.336l-11.057-9.83V52.536a3.776 3.776 0 0 0-3.772-3.78 3.776 3.776 0 0 0-3.772 3.78v12.883l-27.763-24.68a3.766 3.766 0 0 0-5.006 0L29.744 81.954a3.785 3.785 0 0 0-.318 5.336 3.766 3.766 0 0 0 5.324.319l2.455-2.182v35.965H25.032v-16.491c1.611-.493 3.162-1.303 4.63-2.414v-6.666a11.3 11.3 0 0 1-5.88-3.514c-4.14-4.677-3.711-11.859.956-16.008l17.025-15.134c-2.866-18.32-16.81-37.422-17.469-38.316a3.77 3.77 0 0 0-6.067 0C17.492 23.845.242 47.471.242 67.416c0 9.734 1.937 18.946 5.455 25.937 3.103 6.167 7.2 10.145 11.79 11.549v16.49H3.772A3.776 3.776 0 0 0 0 125.172c0 2.088 1.689 3.78 3.772 3.828h121.456c2.083-.048 3.772-1.74 3.772-3.828a3.777 3.777 0 0 0-3.772-3.78M83.007 89.534a3.776 3.776 0 0 1 3.772-3.78h18.228a3.776 3.776 0 0 1 3.772 3.78v18.267a3.777 3.777 0 0 1-3.772 3.78H86.779a3.776 3.776 0 0 1-3.772-3.78zm-20.655 31.858V93.314h-7.544v28.078h-7.544V89.534a3.776 3.776 0 0 1 3.772-3.78h15.088a3.776 3.776 0 0 1 3.772 3.78v31.858z"/></svg>