<svg width="130" height="136" viewBox="0 0 130 136" fill="none" xmlns="http://www.w3.org/2000/svg">
  <path d="M112.972 112.562H14.1729C13.443 112.613 12.7103 112.515 12.0204 112.274C11.3305 112.033 10.6981 111.655 10.1628 111.162C9.62742 110.669 9.20048 110.072 8.90856 109.409C8.61664 108.746 8.46599 108.03 8.46599 107.307C8.46599 106.584 8.61664 105.868 8.90856 105.205C9.20048 104.542 9.62742 103.945 10.1628 103.452C10.6981 102.959 11.3305 102.581 12.0204 102.34C12.7103 102.099 13.443 102.001 14.1729 102.052H24.2001C25.3047 102.052 26.2001 101.156 26.2001 100.052V97.6548C26.2001 96.5502 25.3047 95.6548 24.2001 95.6548H14.1729C12.5775 95.5798 10.9834 95.8256 9.48695 96.3773C7.99054 96.9291 6.62299 97.7753 5.46712 98.8647C4.31125 99.954 3.39111 101.264 2.76242 102.715C2.13373 104.166 1.80957 105.728 1.80957 107.307C1.80957 108.886 2.13373 110.448 2.76242 111.899C3.39111 113.35 4.31125 114.66 5.46712 115.749C6.62299 116.839 7.99054 117.685 9.48695 118.237C10.9834 118.788 12.5775 119.034 14.1729 118.959H112.972C113.671 118.922 114.37 119.025 115.026 119.263C115.683 119.502 116.284 119.87 116.791 120.345C117.299 120.821 117.704 121.393 117.98 122.029C118.257 122.664 118.399 123.348 118.399 124.039C118.399 124.731 118.257 125.415 117.98 126.05C117.704 126.685 117.299 127.258 116.791 127.733C116.284 128.209 115.683 128.577 115.026 128.815C114.37 129.053 113.671 129.157 112.972 129.119H103.097C101.993 129.119 101.097 130.015 101.097 131.119V133.516C101.097 134.621 101.993 135.516 103.097 135.516H112.972C114.532 135.572 116.088 135.317 117.546 134.765C119.005 134.214 120.335 133.377 121.459 132.306C122.583 131.235 123.477 129.95 124.087 128.53C124.698 127.11 125.013 125.582 125.013 124.039C125.013 122.496 124.698 120.969 124.087 119.548C123.477 118.128 122.583 116.844 121.459 115.773C120.335 114.701 119.005 113.865 117.546 113.313C116.088 112.762 114.532 112.506 112.972 112.562Z" fill="#232221" />
  <path d="M88.7753 129.13H70.7539C69.6493 129.13 68.7539 130.025 68.7539 131.13V133.527C68.7539 134.632 69.6493 135.527 70.7539 135.527H88.7753C89.8799 135.527 90.7753 134.632 90.7753 133.527V131.13C90.7753 130.025 89.8799 129.13 88.7753 129.13Z" fill="#232221" />
  <path d="M29.6269 80.4405H38.8199C39.8016 80.4405 40.6286 79.7251 40.8591 78.7708C41.028 78.0718 41.2309 77.3816 41.4671 76.7026C41.9615 75.2812 40.9776 73.6671 39.4726 73.6671H29.6269C18.4525 73.6671 9.21224 64.8616 9.0295 54.0354C8.98247 51.3836 9.47037 48.749 10.4647 46.2856C11.459 43.8221 12.9399 41.5791 14.8208 39.6875C16.7018 37.7958 18.9451 36.2934 21.4199 35.268C23.2785 34.4979 25.2396 34.0084 27.2376 33.8126C28.3371 33.7048 29.2348 32.8195 29.2348 31.7148V30.3284L29.2726 33.6884C29.2727 33.7032 29.2847 33.7151 29.2995 33.7151C29.6018 33.714 29.9038 33.6997 30.2044 33.672C30.8898 33.6091 31.5946 33.8083 32.0277 34.3432C33.5656 36.2423 34.5716 38.502 34.9532 40.8944C35.1292 41.9983 36.0406 42.8941 37.1579 42.8631L40.8964 42.7596C41.99 42.7293 42.8662 41.8238 42.7486 40.7362C42.3406 36.965 40.9209 33.3655 38.6328 30.3134C38.1042 29.6084 38.0447 28.6562 38.3953 27.8478C38.5508 27.4893 38.6843 27.1214 38.7949 26.746C40.3934 21.3259 43.7276 16.5646 48.2969 13.1769C52.8663 9.7891 58.4242 7.95776 64.1362 7.95776C69.8483 7.95776 75.4062 9.7891 79.9756 13.1769C84.5449 16.5646 87.8791 21.3259 89.4776 26.746C90.0687 28.7766 91.3162 30.5601 93.0295 31.824C94.7427 33.0879 96.8275 33.7627 98.9653 33.7452H99.0453C101.729 33.7448 104.385 34.2727 106.86 35.2981C109.335 36.3235 111.578 37.8259 113.459 39.7176C115.34 41.6092 116.821 43.8522 117.815 46.3157C118.81 48.7791 119.298 51.4137 119.251 54.0655C119.221 56.028 118.891 57.9698 118.274 59.8256C117.873 61.0332 118.515 62.3952 119.712 62.8289C120.395 63.0765 121.065 63.3567 121.721 63.6686C122.792 64.1783 124.12 63.7849 124.53 62.6714C125.531 59.9533 126.069 57.0846 126.119 54.1822C126.18 50.6318 125.525 47.105 124.193 43.8073C122.861 40.5097 120.877 37.5072 118.359 34.9751C115.84 32.443 112.836 30.4319 109.523 29.0591C106.21 27.6863 102.653 26.9793 99.0605 26.9793H98.9882C98.3352 26.9892 97.6969 26.7874 97.1709 26.4048C96.6449 26.0222 96.2602 25.4799 96.0756 24.8607C94.0618 18.0328 89.8615 12.0348 84.1052 7.76708C78.3489 3.4994 71.3472 1.19238 64.1515 1.19238C56.9557 1.19238 49.9541 3.4994 44.1978 7.76708C38.4415 12.0348 34.2411 18.0328 32.2273 24.8607C32.0413 25.4827 31.6536 26.027 31.1238 26.4098C30.5941 26.7926 29.9518 26.9927 29.2957 26.9793H29.2424C25.6521 26.9788 22.0975 27.6845 18.7858 29.0552C15.4741 30.4259 12.4715 32.4342 9.95279 34.9632C7.43413 37.4922 5.44979 40.4912 4.11536 43.7856C2.78093 47.08 2.1231 50.6039 2.18018 54.1521C2.42004 68.651 14.7442 80.4405 29.6269 80.4405Z" fill="#232221" />
  <path d="M106.048 64.46C106.628 63.8754 106.869 63.012 106.539 62.2575C104.988 58.7068 102.449 55.6521 99.2049 53.4567C95.5804 51.004 91.2625 49.7503 86.8717 49.8758C82.481 50.0012 78.2435 51.4994 74.7685 54.1549C71.2934 56.8104 68.7596 60.4866 67.5315 64.6549C67.2571 65.5778 66.6855 66.3869 65.9036 66.9595C65.1216 67.532 64.1719 67.8367 63.1988 67.8272H63.1607C60.9745 67.8273 58.8103 68.2578 56.7943 69.0936C54.7783 69.9294 52.9509 71.1536 51.4187 72.6949C49.8866 74.2362 48.6804 76.0637 47.8705 78.0707C47.0607 80.0777 46.6633 82.224 46.7018 84.3845C46.8541 93.3028 54.4039 100.374 63.431 100.374H111.513C120.54 100.374 128.09 93.3028 128.243 84.3845C128.315 80.1479 126.713 76.0504 123.777 72.9633C121.001 70.0451 117.24 68.2473 113.219 67.8993C112.766 67.8601 112.315 67.9951 111.963 68.2833C110.661 69.352 109.588 70.6723 108.814 72.1658C108.246 73.262 107.848 74.4324 107.63 75.6376C107.431 76.7361 106.522 77.6306 105.406 77.5993L102.55 77.5194C101.458 77.4888 100.582 76.5855 100.71 75.5009C100.941 73.5392 101.483 71.6213 102.319 69.8185C103.241 67.8296 104.503 66.0173 106.048 64.46Z" fill="#232221" />
</svg>