<svg width="136" height="136" viewBox="0 0 136 136" fill="none" xmlns="http://www.w3.org/2000/svg">
  <g clip-path="url(#clip0_3020_138)">
    <path fill-rule="evenodd" clip-rule="evenodd" d="M133.337 136H2.59067C1.5277 136 0.730469 135.153 0.730469 134.025C0.730469 132.896 1.5277 131.768 2.59067 131.768H133.337C134.665 131.768 135.462 132.896 135.462 134.025C135.462 135.153 134.665 136 133.337 136Z" fill="#2C3B2E" />
    <path fill-rule="evenodd" clip-rule="evenodd" d="M63.712 97.3444H1.79377C1.26228 97.3444 0.465051 96.7801 0.199308 96.2158C-0.0664359 95.3693 -0.0664359 94.805 0.199308 93.9585L10.0318 77.3112H1.79377C1.26228 77.3112 0.465051 77.0291 0.199308 76.1826C-0.0664359 75.6183 -0.0664359 74.7718 0.199308 74.2075L10.0318 57.278H1.79377C1.26228 57.278 0.465051 56.9959 0.199308 56.1494C-0.0664359 55.5851 -0.0664359 54.7386 0.199308 54.1743L31.0256 0.846473C31.5571 0.282158 32.0885 0 32.8858 0C33.4173 0 34.2145 0.282158 34.4802 0.846473L65.5722 54.1743C65.838 54.7386 65.838 55.5851 65.5722 56.1494C65.0407 56.9959 64.5093 57.278 63.712 57.278H55.7397L65.5722 74.2075C65.838 74.7718 65.838 75.6183 65.5722 76.1826C65.0407 77.0291 64.5093 77.3112 63.712 77.3112H55.7397L65.5722 93.9585C65.838 94.5228 65.838 95.3693 65.5722 96.2158C65.0407 96.7801 64.5093 97.3444 63.712 97.3444Z" fill="#2C3B2E" />
    <path fill-rule="evenodd" clip-rule="evenodd" d="M26.2422 127.818V101.295H44.3128V127.818H26.2422Z" fill="#2C3B2E" />
    <path fill-rule="evenodd" clip-rule="evenodd" d="M67.4325 115.685C60.2574 115.685 52.8166 112.863 48.0332 107.784V101.294H63.7121C65.838 101.294 67.964 99.8837 68.7612 97.9086C69.8242 96.2156 69.8242 93.6762 68.7612 91.9833L62.3834 81.2613H63.7121C65.838 81.2613 67.964 80.1327 68.7612 78.1575C69.5584 76.1824 69.8242 73.9252 68.7612 72.2322L62.3834 61.2281H63.7121C65.838 61.2281 67.964 60.0995 68.7612 58.1244C69.8242 56.1493 69.8242 53.892 68.7612 52.199L65.838 47.1202C66.6353 46.2737 67.6982 46.2737 68.4955 47.1202C70.3557 48.8132 71.9501 50.7883 73.5446 52.4812C73.5446 53.3277 73.2788 54.1741 73.2788 55.0206C73.2788 57.8422 73.8103 60.3816 74.6076 62.921C73.0131 66.3069 71.9501 70.5393 71.9501 74.4895C71.9501 86.9044 80.9854 97.0621 92.1466 98.7551C89.2235 109.477 79.3909 115.12 69.5584 115.685C68.7612 115.685 68.2297 115.685 67.4325 115.685Z" fill="#2C3B2E" />
    <path fill-rule="evenodd" clip-rule="evenodd" d="M65.3066 127.818V103.27C65.3066 102.141 66.3696 101.295 67.4326 101.295C68.4956 101.295 69.2928 102.141 69.2928 103.27V127.818H65.3066Z" fill="#2C3B2E" />
    <path fill-rule="evenodd" clip-rule="evenodd" d="M116.329 95.0874H103.839H95.6007C84.4395 95.0874 75.6699 85.7762 75.6699 74.4899C75.6699 70.5397 76.7329 66.5895 78.8588 63.2036C77.7959 60.6642 76.9986 57.8426 76.9986 55.021C76.9986 48.2493 80.4533 41.7596 86.0339 38.0916V37.8094C86.0339 26.5231 95.0692 17.2119 105.965 17.2119C116.86 17.2119 125.63 26.5231 125.63 37.8094V38.0916C131.21 41.7596 134.665 48.2493 134.665 55.021C134.665 57.8426 133.868 60.6642 132.805 63.2036C134.931 66.5895 135.994 70.5397 135.994 74.4899C136.259 85.7762 127.224 95.0874 116.329 95.0874Z" fill="#2C3B2E" />
    <path fill-rule="evenodd" clip-rule="evenodd" d="M100.385 127.817V99.0371H107.56H111.28V127.817H100.385Z" fill="#2C3B2E" />
  </g>
  <defs>
    <clipPath id="clip0_3020_138">
      <rect width="136" height="136" fill="white" />
    </clipPath>
  </defs>
</svg>