<svg width="129" height="129" viewBox="0 0 129 129" fill="none" xmlns="http://www.w3.org/2000/svg">
  <path d="M112.139 33.2866C121.312 33.2866 128.748 25.8351 128.748 16.6433C128.748 7.45146 121.312 0 112.139 0C102.967 0 95.5312 7.45146 95.5312 16.6433C95.5312 25.8351 102.967 33.2866 112.139 33.2866Z" fill="#232221" />
  <path d="M90.5508 93.3145H101.235V104.021H90.5508V93.3145Z" fill="#232221" />
  <path d="M71.1031 35.0828C73.1754 33.2405 75.8423 32.2262 78.6123 32.2262C81.3822 32.2262 84.0492 33.2408 86.1215 35.0828L89.0993 37.7298V28.2722C89.0993 12.7038 76.4601 0.0380859 60.9242 0.0380859C47.3157 0.0380859 35.93 9.75669 33.3145 22.6315C37.5924 29.1427 45.0895 41.8702 48.2961 55.3575L71.1031 35.0828Z" fill="#232221" />
  <path d="M125.228 121.392H120.018V85.427L122.473 87.6094C123.191 88.2479 124.085 88.5618 124.975 88.5616C126.016 88.5616 127.053 88.132 127.798 87.2899C129.18 85.7283 129.038 83.3393 127.479 81.9541L116.422 72.1246V52.5352C116.422 50.4478 114.733 48.7554 112.65 48.7554C110.567 48.7554 108.878 50.4478 108.878 52.5352V65.4184L81.1146 40.738C79.6863 39.4684 77.5367 39.4684 76.1086 40.738L29.7443 81.9538C28.1859 83.3391 28.0433 85.7281 29.4256 87.2897C30.808 88.8516 33.1922 88.9942 34.7503 87.6089L37.2053 85.4265V121.392H25.032V104.901C26.6432 104.408 28.1938 103.598 29.6619 102.487V95.8206C27.4072 95.2897 25.3457 94.0725 23.7826 92.3069C19.6422 87.6296 20.0708 80.4484 24.738 76.299L41.7629 61.1646C38.8972 42.8441 24.9526 23.7425 24.294 22.8491C23.5828 21.8846 22.457 21.3154 21.2603 21.3154C20.0635 21.3154 18.9378 21.8846 18.2265 22.8491C17.4921 23.845 0.24263 47.4707 0.24263 67.4156C0.24263 77.1503 2.17989 86.3618 5.69766 93.353C8.80071 99.52 12.8982 103.498 17.4883 104.902V121.392H3.77198C1.68884 121.392 0 123.085 0 125.172C0 127.26 1.68884 128.952 3.77198 129H120.018H125.228C127.311 128.952 129 127.26 129 125.172C129 123.085 127.311 121.392 125.228 121.392ZM83.0068 89.5343C83.0068 87.4469 84.6956 85.7545 86.7788 85.7545H105.007C107.09 85.7545 108.779 87.4469 108.779 89.5343V107.801C108.779 109.888 107.09 111.581 105.007 111.581H86.7788C84.6956 111.581 83.0068 109.888 83.0068 107.801V89.5343ZM62.352 121.392V93.3142H54.808V121.392H47.2643V89.5343C47.2643 87.4467 48.9531 85.7545 51.0363 85.7545H66.124C68.2071 85.7545 69.8959 87.4469 69.8959 89.5343V121.392H62.352Z" fill="#232221" />
</svg>