<svg width="136" height="136" viewBox="0 0 136 136" fill="none" xmlns="http://www.w3.org/2000/svg">
  <path d="M123.739 78.2214C105.205 69.2814 100.647 61.31 100.532 53.6471C100.494 50.3882 101.949 47.3054 103.443 44.0024C99.8048 40.039 97.5455 34.4459 97.5455 28.2364C97.5455 25.7702 97.9284 22.7753 98.656 19.6486C92.3755 15.5971 83.9888 14.6721 80.9252 14.3197C56.6461 11.5452 42.2853 17.4907 38.226 19.032C30.1074 22.0708 24.2098 26.6508 20.0738 32.2439C29.9158 35.3708 36.0815 53.6472 36.0815 63.6002C36.0815 70.5585 33.2475 76.768 28.8053 80.7757C39.6046 90.2003 22.0653 102.355 25.0905 114.907C27.8862 126.665 40.5237 135.209 68.0197 135.209C112.174 135.209 130.518 124.155 135.152 104.689C137.449 94.8244 135.534 83.9024 123.739 78.2214ZM41.481 32.9925C41.481 31.7595 42.3234 30.7905 43.3958 30.7905C43.9703 30.7905 44.2001 30.6145 44.698 30.1742C45.3873 29.6017 46.4211 28.7208 48.2977 28.7208C50.1358 28.7208 51.1699 29.6017 51.8592 30.1742C52.3951 30.6145 52.5868 30.7905 53.1994 30.7905C54.2335 30.7905 55.1142 31.7595 55.1142 32.9925C55.1142 34.2257 54.2335 35.1945 53.1994 35.1945C51.323 35.1945 50.2889 34.3139 49.5997 33.7414C49.0635 33.3008 48.8721 33.1248 48.2978 33.1248C47.6849 33.1248 47.4935 33.3008 46.9573 33.7414C46.268 34.3139 45.2339 35.1945 43.3958 35.1945C42.3234 35.1945 41.481 34.2257 41.481 32.9925ZM66.6411 107.948C64.7647 107.948 63.7306 107.067 63.0414 106.495C62.5435 106.054 62.3137 105.878 61.7392 105.878C61.1266 105.878 60.9352 106.054 60.4373 106.495C59.748 107.067 58.6756 107.948 56.8375 107.948C54.9994 107.948 53.9654 107.067 53.2761 106.495C52.7399 106.054 52.5485 105.878 51.9356 105.878C51.3613 105.878 51.1699 106.054 50.6337 106.495C49.9444 107.067 48.9104 107.948 47.0723 107.948C45.9999 107.948 45.1575 106.979 45.1575 105.746C45.1575 104.557 45.9999 103.544 47.0723 103.544C47.6466 103.544 47.838 103.368 48.3742 102.928C49.0635 102.355 50.0975 101.474 51.9356 101.474C53.8121 101.474 54.8461 102.355 55.5354 102.928C56.0332 103.368 56.263 103.544 56.8375 103.544C57.4502 103.544 57.6416 103.368 58.1394 102.928C58.829 102.355 59.9011 101.474 61.7392 101.474C63.5775 101.474 64.6114 102.355 65.3007 102.928C65.8369 103.368 66.0283 103.544 66.6411 103.544C67.6752 103.544 68.5559 104.557 68.5559 105.746C68.5559 106.979 67.6752 107.948 66.6411 107.948ZM65.8369 52.8104C65.339 52.3701 65.1476 52.194 64.5349 52.194C63.9604 52.194 63.7307 52.3701 63.2328 52.8104C62.5435 53.3829 61.5095 54.2638 59.633 54.2638C57.7949 54.2638 56.7609 53.3829 56.0716 52.8104C55.5354 52.3701 55.344 52.194 54.7313 52.194C54.1568 52.194 53.9654 52.3701 53.4292 52.8104C52.7399 53.3829 51.7058 54.2638 49.8677 54.2638C48.7954 54.2638 47.953 53.295 47.953 52.0618C47.953 50.8726 48.7954 49.8598 49.8677 49.8598C50.4423 49.8598 50.6337 49.7278 51.1699 49.2873C51.8592 48.6706 52.893 47.79 54.7313 47.79C56.6077 47.79 57.6416 48.6706 58.3311 49.2873C58.8671 49.7278 59.0587 49.8598 59.633 49.8598C60.2459 49.8598 60.4373 49.7278 60.9735 49.2873C61.6628 48.6706 62.6966 47.79 64.5349 47.79C66.373 47.79 67.4454 48.6706 68.1347 49.2873C68.6326 49.7278 68.824 49.8598 69.4366 49.8598C70.0494 49.8598 70.2409 49.7278 70.7387 49.2873C71.428 48.6706 72.4621 47.79 74.3385 47.79C76.1766 47.79 77.2107 48.6706 77.9 49.2873C78.4362 49.7278 78.6276 49.8598 79.2402 49.8598C80.2743 49.8598 81.155 50.8726 81.155 52.0618C81.155 53.295 80.2743 54.2638 79.2402 54.2638C77.3638 54.2638 76.3297 53.3829 75.6404 52.8104C75.1045 52.3701 74.9128 52.194 74.3385 52.194C73.7257 52.194 73.5342 52.3701 72.998 52.8104C72.3088 53.3829 71.2749 54.2638 69.4366 54.2638C67.5985 54.2638 66.5261 53.3829 65.8369 52.8104ZM93.8691 91.2131C92.031 91.2131 90.9969 90.3323 90.3077 89.7597C89.7715 89.3194 89.58 89.1431 88.9674 89.1431C88.3929 89.1431 88.2014 89.3195 87.6653 89.7597C86.976 90.3323 85.9419 91.2131 84.1038 91.2131C82.2274 91.2131 81.1933 90.3323 80.504 89.7597C79.9678 89.3194 79.7764 89.1431 79.2019 89.1431C78.5893 89.1431 78.3978 89.3195 77.8616 89.7597C77.1723 90.3323 76.1383 91.2131 74.3002 91.2131C73.2278 91.2131 72.3854 90.2441 72.3854 89.0111C72.3854 87.822 73.2278 86.8091 74.3002 86.8091C74.8745 86.8091 75.1045 86.6328 75.6021 86.1925C76.2916 85.62 77.3254 84.7392 79.2019 84.7392C81.0402 84.7392 82.074 85.62 82.7635 86.1925C83.2995 86.6328 83.4909 86.8091 84.1038 86.8091C84.6783 86.8091 84.8697 86.6328 85.4057 86.1925C86.0952 85.62 87.129 84.7392 88.9674 84.7392C90.8438 84.7392 91.8776 85.62 92.5671 86.1925C93.0648 86.6328 93.2948 86.8091 93.869 86.8091C94.9414 86.8091 95.7838 87.822 95.7838 89.0111C95.7839 90.2441 94.9415 91.2131 93.8691 91.2131ZM110.528 113.233C108.689 113.233 107.656 112.352 106.966 111.78C106.43 111.339 106.238 111.163 105.626 111.163C105.051 111.163 104.86 111.339 104.324 111.78C103.634 112.352 102.601 113.233 100.724 113.233C99.6901 113.233 98.8091 112.264 98.8091 111.031C98.8091 109.842 99.6901 108.829 100.724 108.829C101.337 108.829 101.528 108.653 102.064 108.212C102.754 107.64 103.788 106.759 105.626 106.759C107.502 106.759 108.536 107.64 109.226 108.212C109.723 108.653 109.915 108.829 110.528 108.829C111.6 108.829 112.443 109.842 112.443 111.031C112.442 112.264 111.6 113.233 110.528 113.233ZM122.992 50.5969V59.8892C122.992 61.6068 121.766 62.9721 120.273 62.9721H116.673C115.179 62.9721 113.992 61.6069 113.992 59.8892V50.5969C115.409 50.9931 116.941 51.2133 118.473 51.2133C120.043 51.2133 121.536 50.9931 122.992 50.5969ZM133.632 28.2448C133.632 37.8658 126.85 45.6653 118.484 45.6653C110.118 45.6653 103.336 37.8658 103.336 28.2448C103.336 18.6237 110.118 0.790039 118.484 0.790039C126.85 0.790039 133.632 18.6237 133.632 28.2448ZM19.6347 85.9606V95.2529C19.6347 96.9706 18.4476 98.3358 16.954 98.3358H13.3542C11.8609 98.3358 10.6354 96.9706 10.6354 95.2529V85.9165C12.0906 86.3571 13.584 86.5772 15.1542 86.5772C16.6859 86.5772 18.2178 86.3571 19.6347 85.9606ZM30.2965 63.6062C30.2965 73.2272 23.5144 81.0267 15.1483 81.0267C6.78212 81.0267 0 73.2272 0 63.6062C0 53.9851 6.78212 36.1514 15.1483 36.1514C23.5144 36.1514 30.2965 53.9851 30.2965 63.6062Z" fill="#2C3B2E" />
</svg>