<svg width="320" height="831" viewBox="0 0 320 831" fill="none" xmlns="http://www.w3.org/2000/svg">
  <path d="M0 72.367C0 65.7396 5.37258 60.367 12 60.367H254.091C260.718 60.367 266.091 54.9944 266.091 48.367V12C266.091 5.37257 271.464 0 278.091 0H308C314.627 0 320 5.37258 320 12V694.221C320 700.849 314.627 706.221 308 706.221H156.727C150.1 706.221 144.727 711.594 144.727 718.221V754.857C144.727 761.484 139.355 766.857 132.727 766.857H86.9091C80.2817 766.857 74.9091 772.229 74.9091 778.857V819C74.9091 825.628 69.5365 831 62.9091 831H12C5.37257 831 0 825.628 0 819V72.367Z" fill="#F7FDFB" />
</svg>