
<svg width="960" height="1040" viewBox="0 0 960 1040" fill="none" xmlns="http://www.w3.org/2000/svg">
  <path d="M0 193.194C0 179.939 10.7452 169.194 24 169.194H685C698.255 169.194 709 158.449 709 145.194V24C709 10.7451 719.745 0 733 0H936C949.255 0 960 10.7452 960 24V630.5C960 643.755 949.255 654.5 936 654.5H763C749.745 654.5 739 665.245 739 678.5V866C739 879.255 728.255 890 715 890H209C195.745 890 185 900.745 185 914V1016C185 1029.25 174.255 1040 161 1040H24C10.7452 1040 0 1029.25 0 1016V193.194Z" fill="#F7FDFB" />
</svg>