<svg width="440" height="893" viewBox="0 0 440 893" fill="none" xmlns="http://www.w3.org/2000/svg">
  <path d="M0 93.1941C0 84.3576 7.16344 77.1941 16 77.1941H310C318.837 77.1941 326 70.0307 326 61.1941V16C326 7.16345 333.163 0 342 0H424C432.837 0 440 7.16344 440 16V752.5C440 761.337 432.837 768.5 424 768.5H215C206.163 768.5 199 775.663 199 784.5V813C199 821.837 191.837 829 183 829H119C110.163 829 103 836.163 103 845V877C103 885.837 95.8366 893 87 893H16C7.16344 893 0 885.837 0 877V93.1941Z" fill="#F7FDFB" />
</svg>