<svg width="728" height="1161" viewBox="0 0 728 1161" fill="none" xmlns="http://www.w3.org/2000/svg">
  <path d="M0 235.194C0 221.939 10.7452 211.194 24 211.194H495C508.255 211.194 519 200.449 519 187.194V24C519 10.7451 529.745 0 543 0H704C717.255 0 728 10.7452 728 24V910.5C728 923.755 717.255 934.5 704 934.5H531C517.745 934.5 507 945.245 507 958.5V1013C507 1026.25 496.255 1037 483 1037H177C163.745 1037 153 1047.75 153 1061V1137C153 1150.25 142.255 1161 129 1161H24C10.7452 1161 0 1150.25 0 1137V235.194Z" fill="#F7FDFB" />
</svg>