<svg xmlns="http://www.w3.org/2000/svg" width="136" height="136" fill="none" viewBox="0 0 136 136"><g fill="#2C3B2E" fill-rule="evenodd" clip-path="url(#a)" clip-rule="evenodd"><path d="M133.337 136H2.591c-1.063 0-1.86-.847-1.86-1.975s.797-2.257 1.86-2.257h130.746c1.328 0 2.125 1.128 2.125 2.257 0 1.128-.797 1.975-2.125 1.975M63.712 97.344H1.794c-.532 0-1.329-.564-1.595-1.128-.265-.847-.265-1.411 0-2.257l9.833-16.648H1.794c-.532 0-1.329-.282-1.595-1.128-.265-.565-.265-1.411 0-1.976l9.833-16.929H1.794c-.532 0-1.329-.282-1.595-1.129-.265-.564-.265-1.41 0-1.975L31.026.846C31.557.282 32.089 0 32.886 0c.531 0 1.328.282 1.594.846l31.092 53.328c.266.565.266 1.411 0 1.975-.531.847-1.063 1.129-1.86 1.129H55.74l9.832 16.93c.266.564.266 1.41 0 1.975-.531.846-1.063 1.128-1.86 1.128H55.74l9.832 16.647c.266.565.266 1.411 0 2.258-.531.564-1.063 1.128-1.86 1.128m-37.47 30.474v-26.523h18.07v26.523z"/><path d="M67.433 115.685c-7.176 0-14.616-2.822-19.4-7.901v-6.49h15.68c2.125 0 4.251-1.41 5.048-3.385 1.063-1.693 1.063-4.233 0-5.926l-6.378-10.722h1.33c2.125 0 4.251-1.128 5.048-3.103s1.063-4.233 0-5.926l-6.378-11.004h1.33c2.125 0 4.251-1.129 5.048-3.104 1.063-1.975 1.063-4.232 0-5.925l-2.923-5.079c.797-.846 1.86-.846 2.658 0 1.86 1.693 3.454 3.668 5.049 5.361 0 .847-.266 1.693-.266 2.54 0 2.821.531 5.36 1.329 7.9-1.595 3.386-2.658 7.618-2.658 11.569 0 12.414 9.035 22.572 20.197 24.265-2.924 10.722-12.756 16.365-22.589 16.93z"/><path d="M65.307 127.818V103.27c0-1.129 1.063-1.975 2.126-1.975s1.86.846 1.86 1.975v24.548zm51.022-32.731H95.601c-11.162 0-19.931-9.31-19.931-20.597 0-3.95 1.063-7.9 3.189-11.286-1.063-2.54-1.86-5.361-1.86-8.183 0-6.772 3.454-13.261 9.035-16.93v-.282c0-11.286 9.035-20.597 19.931-20.597 10.895 0 19.665 9.311 19.665 20.597v.283c5.58 3.668 9.035 10.157 9.035 16.929 0 2.822-.797 5.643-1.86 8.183 2.126 3.386 3.189 7.336 3.189 11.286.265 11.286-8.77 20.597-19.665 20.597m-15.944 32.73v-28.78h10.895v28.78z"/></g><defs><clipPath id="a"><path fill="#fff" d="M0 0h136v136H0z"/></clipPath></defs></svg>