<svg xmlns="http://www.w3.org/2000/svg" width="136" height="136" fill="none" viewBox="0 0 136 136"><path fill="#2C3B2E" d="M123.739 78.221c-18.534-8.94-23.092-16.911-23.207-24.574-.038-3.259 1.417-6.342 2.911-9.645-3.638-3.963-5.897-9.556-5.897-15.766 0-2.466.382-5.46 1.11-8.587-6.28-4.052-14.667-4.977-17.73-5.33-24.28-2.774-38.64 3.172-42.7 4.713-8.119 3.039-14.016 7.619-18.152 13.212C29.916 35.37 36.08 53.647 36.08 63.6c0 6.958-2.834 13.168-7.276 17.176 10.8 9.424-6.74 21.579-3.715 34.131 2.796 11.758 15.434 20.302 42.93 20.302 44.154 0 62.498-11.054 67.132-30.52 2.297-9.865.382-20.787-11.413-26.468M41.481 32.992c0-1.232.842-2.201 1.915-2.201.574 0 .804-.177 1.302-.617.69-.572 1.723-1.453 3.6-1.453 1.838 0 2.872.88 3.561 1.453.536.44.728.617 1.34.617 1.035 0 1.915.968 1.915 2.201s-.88 2.203-1.915 2.203c-1.876 0-2.91-.881-3.6-1.454-.535-.44-.727-.616-1.301-.616-.613 0-.805.176-1.34.616-.69.573-1.724 1.453-3.562 1.453-1.073 0-1.915-.968-1.915-2.202m25.16 74.956c-1.876 0-2.91-.881-3.6-1.453-.497-.441-.727-.617-1.302-.617-.612 0-.804.176-1.302.617-.689.572-1.761 1.453-3.6 1.453-1.838 0-2.872-.881-3.56-1.453-.537-.441-.729-.617-1.341-.617-.575 0-.766.176-1.302.617-.69.572-1.724 1.453-3.562 1.453-1.072 0-1.915-.969-1.915-2.202 0-1.189.843-2.202 1.915-2.202.575 0 .766-.176 1.302-.616.69-.573 1.723-1.454 3.562-1.454 1.876 0 2.91.881 3.6 1.454.497.44.727.616 1.301.616.613 0 .805-.176 1.302-.616.69-.573 1.762-1.454 3.6-1.454s2.872.881 3.562 1.454c.536.44.727.616 1.34.616 1.034 0 1.915 1.013 1.915 2.202 0 1.233-.88 2.202-1.915 2.202m-.804-55.138c-.498-.44-.69-.616-1.302-.616-.575 0-.804.176-1.302.616-.69.573-1.723 1.454-3.6 1.454-1.838 0-2.872-.881-3.561-1.454-.537-.44-.728-.616-1.34-.616-.575 0-.767.176-1.303.616-.69.573-1.723 1.454-3.561 1.454-1.073 0-1.915-.969-1.915-2.202 0-1.19.842-2.202 1.915-2.202.574 0 .766-.132 1.302-.573.69-.616 1.723-1.497 3.561-1.497 1.877 0 2.91.88 3.6 1.497.536.44.728.573 1.302.573.613 0 .804-.132 1.34-.573.69-.616 1.724-1.497 3.562-1.497s2.91.88 3.6 1.497c.498.44.689.573 1.302.573.612 0 .804-.132 1.302-.573.689-.616 1.723-1.497 3.6-1.497 1.838 0 2.872.88 3.561 1.497.536.44.728.573 1.34.573 1.034 0 1.915 1.013 1.915 2.202 0 1.233-.88 2.202-1.915 2.202-1.876 0-2.91-.881-3.6-1.454-.535-.44-.727-.616-1.302-.616-.612 0-.804.176-1.34.616-.69.573-1.723 1.454-3.561 1.454s-2.91-.881-3.6-1.454m28.032 38.403c-1.838 0-2.872-.88-3.561-1.453-.537-.44-.728-.617-1.34-.617-.575 0-.767.177-1.303.617-.689.572-1.723 1.453-3.561 1.453-1.877 0-2.91-.88-3.6-1.453-.536-.44-.728-.617-1.302-.617-.613 0-.804.177-1.34.617-.69.572-1.724 1.453-3.562 1.453-1.072 0-1.915-.969-1.915-2.202 0-1.189.843-2.202 1.915-2.202.575 0 .805-.176 1.302-.617.69-.572 1.723-1.453 3.6-1.453 1.838 0 2.872.881 3.561 1.453.536.44.728.617 1.34.617.575 0 .767-.176 1.303-.617.69-.572 1.723-1.453 3.561-1.453 1.877 0 2.91.881 3.6 1.453.498.44.728.617 1.302.617 1.072 0 1.915 1.013 1.915 2.202 0 1.233-.843 2.202-1.915 2.202m16.659 22.02c-1.839 0-2.872-.881-3.562-1.453-.536-.441-.728-.617-1.34-.617-.575 0-.766.176-1.302.617-.69.572-1.723 1.453-3.6 1.453-1.034 0-1.915-.969-1.915-2.202 0-1.189.881-2.202 1.915-2.202.613 0 .804-.176 1.34-.617.69-.572 1.724-1.453 3.562-1.453 1.876 0 2.91.881 3.6 1.453.497.441.689.617 1.302.617 1.072 0 1.915 1.013 1.915 2.202-.001 1.233-.843 2.202-1.915 2.202m12.464-62.636v9.292c0 1.718-1.226 3.083-2.719 3.083h-3.6c-1.494 0-2.681-1.365-2.681-3.083v-9.292a16.8 16.8 0 0 0 4.481.616c1.57 0 3.063-.22 4.519-.616m10.64-22.352c0 9.62-6.782 17.42-15.148 17.42s-15.148-7.8-15.148-17.42S110.118.79 118.484.79s15.148 17.834 15.148 27.455M19.635 85.96v9.292c0 1.718-1.187 3.083-2.681 3.083h-3.6c-1.493 0-2.719-1.365-2.719-3.083v-9.336c1.456.44 2.949.66 4.52.66 1.53 0 3.063-.22 4.48-.616m10.662-22.355c0 9.621-6.783 17.42-15.149 17.42S0 73.228 0 63.607s6.782-27.455 15.148-27.455 15.149 17.834 15.149 27.455"/></svg>